<svg xmlns="http://www.w3.org/2000/svg" xmlns:xlink="http://www.w3.org/1999/xlink" width="500" zoomAndPan="magnify" viewBox="0 0 375 374.999991" height="500" preserveAspectRatio="xMidYMid meet" version="1.0"><defs><filter x="0%" y="0%" width="100%" height="100%" id="96952397ab"><feColorMatrix values="0 0 0 0 1 0 0 0 0 1 0 0 0 0 1 0 0 0 1 0" color-interpolation-filters="sRGB"/></filter><mask id="612332c052"><g filter="url(#96952397ab)"><rect x="-37.5" width="450" fill="#000000" y="-37.499999" height="449.999989" fill-opacity="0.5"/></g></mask><clipPath id="11037b6269"><path d="M 13 23 L 114 23 L 114 82 L 13 82 Z M 13 23 " clip-rule="nonzero"/></clipPath><clipPath id="c6bfec6dd9"><path d="M 105.761719 0.453125 L 136.378906 62.289062 L 31.523438 114.199219 L 0.910156 52.363281 Z M 105.761719 0.453125 " clip-rule="nonzero"/></clipPath><clipPath id="8f83dc3ff3"><path d="M 105.761719 0.453125 L 136.378906 62.289062 L 31.523438 114.199219 L 0.910156 52.363281 Z M 105.761719 0.453125 " clip-rule="nonzero"/></clipPath><clipPath id="433d953afa"><rect x="0" width="114" y="0" height="102"/></clipPath><mask id="a6e7a06cd8"><g filter="url(#96952397ab)"><rect x="-37.5" width="450" fill="#000000" y="-37.499999" height="449.999989" fill-opacity="0.5"/></g></mask><clipPath id="d7a500502a"><path d="M 0 0 L 101.761719 0 L 101.761719 111.78125 L 0 111.78125 Z M 0 0 " clip-rule="nonzero"/></clipPath><clipPath id="d1cec294c5"><rect x="0" width="102" y="0" height="113"/></clipPath><clipPath id="9397193013"><path d="M 100 76.308594 L 248 76.308594 L 248 167 L 100 167 Z M 100 76.308594 " clip-rule="nonzero"/></clipPath><clipPath id="48403a5bf1"><path d="M 32.28125 267.003906 L 331.730469 267.003906 L 331.730469 285.78125 L 32.28125 285.78125 Z M 32.28125 267.003906 " clip-rule="nonzero"/></clipPath></defs><rect x="-37.5" width="450" fill="#ffffff" y="-37.499999" height="449.999989" fill-opacity="1"/><rect x="-37.5" width="450" fill="#f5f5f5" y="-37.499999" height="449.999989" fill-opacity="1"/><g mask="url(#612332c052)"><g transform="matrix(1, 0, 0, 1, 261, 273)"><g clip-path="url(#433d953afa)"><g clip-path="url(#11037b6269)"><g clip-path="url(#c6bfec6dd9)"><g clip-path="url(#8f83dc3ff3)"><path fill="#e3dfe0" d="M 13.5625 78.496094 L 24.382812 81.59375 C 28.359375 67.707031 33.582031 57.195312 40.359375 49.457031 C 48.449219 40.21875 59.417969 34.761719 69.703125 34.859375 C 77.972656 34.941406 85.859375 38.992188 90.433594 44.980469 C 89.9375 45.007812 89.441406 45.042969 88.949219 45.085938 C 78.867188 45.859375 71.726562 49.917969 68.851562 56.5 C 66.464844 61.96875 67.824219 68.339844 72.402344 73.121094 C 77.648438 78.609375 85.5 80.628906 91.933594 78.160156 C 97.394531 76.050781 101.652344 71.550781 103.929688 65.488281 C 104.90625 62.847656 105.46875 60.121094 105.605469 57.308594 C 113.4375 58.890625 120.972656 62.050781 127.457031 66.589844 L 133.902344 57.355469 C 127.339844 52.777344 120.199219 49.441406 112.480469 47.351562 C 109.5625 46.550781 106.605469 45.945312 103.609375 45.527344 C 101.210938 39.597656 96.878906 34.296875 91.167969 30.386719 C 84.882812 26.085938 77.300781 23.675781 69.808594 23.605469 C 62.699219 23.535156 55.605469 25.28125 48.726562 28.792969 C 42.519531 31.972656 36.695312 36.554688 31.890625 42.042969 C 23.996094 51.054688 17.996094 62.984375 13.5625 78.496094 Z M 89.8125 56.300781 C 91.328125 56.183594 92.851562 56.128906 94.375 56.136719 C 94.289062 61.015625 92.105469 66.015625 87.878906 67.644531 C 85.734375 68.472656 82.574219 67.476562 80.523438 65.332031 C 79.847656 64.621094 78.371094 62.800781 79.160156 61 C 80.261719 58.488281 84.242188 56.730469 89.8125 56.300781 Z M 89.8125 56.300781 " fill-opacity="1" fill-rule="nonzero"/></g></g></g></g></g></g><g mask="url(#a6e7a06cd8)"><g transform="matrix(1, 0, 0, 1, 0, 0)"><g clip-path="url(#d1cec294c5)"><g clip-path="url(#d7a500502a)"><path fill="#e3dfe0" d="M 92.6875 40.171875 C 93.226562 36.449219 93.210938 32.726562 92.648438 29.007812 C 92.082031 25.289062 90.988281 21.734375 89.367188 18.339844 C 83.808594 6.582031 73.558594 -1.382812 66.335938 -6.355469 C 63.539062 -8.28125 60.691406 -10.097656 57.933594 -11.855469 C 52.492188 -15.324219 47.359375 -18.601562 42.859375 -22.46875 L 31.152344 -8.863281 C 36.621094 -4.160156 42.539062 -0.382812 48.265625 3.269531 C 51.011719 5.023438 53.605469 6.679688 56.148438 8.429688 C 63.574219 13.535156 68.582031 18.320312 71.65625 23.28125 C 70.078125 22.679688 68.472656 22.183594 66.832031 21.785156 C 59.078125 19.933594 51.230469 23.304688 46.355469 30.585938 C 41.097656 38.4375 40.941406 48.390625 45.96875 55.355469 C 50 60.9375 56.578125 64.328125 64.015625 64.6875 C 67.277344 64.851562 70.464844 64.449219 73.582031 63.484375 C 76.699219 62.515625 79.554688 61.042969 82.148438 59.0625 C 84.722656 67.09375 84.050781 75.351562 80.222656 81.601562 C 75.960938 88.546875 67.722656 93.136719 58.179688 93.882812 C 48.640625 94.625 39.785156 91.363281 34.503906 85.160156 C 27.625 77.0625 15.859375 74.375 4.578125 78.304688 C -6.707031 82.234375 -14.238281 91.65625 -14.609375 102.28125 L 3.335938 102.910156 C 3.46875 99.0625 7.277344 96.382812 10.5 95.265625 C 13.71875 94.148438 18.363281 93.875 20.859375 96.804688 C 29.058594 106.4375 41.8125 111.941406 55.554688 111.941406 C 56.886719 111.941406 58.246094 111.890625 59.582031 111.785156 C 74.835938 110.589844 88.277344 102.8125 95.53125 90.992188 C 102.789062 79.171875 103.605469 63.660156 97.761719 49.523438 C 96.394531 46.230469 94.703125 43.113281 92.6875 40.171875 Z M 64.871094 46.777344 C 63.726562 46.722656 61.636719 46.398438 60.523438 44.859375 C 60.121094 44.300781 60.167969 43.019531 60.636719 41.8125 C 61.257812 40.203125 62.300781 39.363281 62.667969 39.253906 C 66.179688 40.125 69.335938 41.707031 72.128906 44.007812 C 70.519531 45.796875 67.617188 46.921875 64.867188 46.777344 Z M 64.871094 46.777344 " fill-opacity="1" fill-rule="nonzero"/></g></g></g></g><path fill="#b5825e" d="M 301.0625 149.890625 C 301.046875 151.335938 300.457031 152.515625 299.597656 153.65625 C 296.441406 157.839844 291.929688 162.675781 286.761719 165.800781 C 286.386719 166.023438 286.027344 166.226562 285.65625 166.421875 C 285.511719 166.503906 285.359375 166.582031 285.21875 166.65625 C 284.546875 167 283.878906 167.328125 283.195312 167.59375 C 280.6875 168.632812 278.070312 169.179688 275.425781 168.992188 C 274.429688 168.929688 273.433594 168.742188 272.53125 168.324219 C 269.882812 167.082031 268.65625 164.121094 268.113281 161.183594 C 268.03125 160.8125 267.96875 160.421875 267.921875 160.046875 C 267.890625 159.863281 267.859375 159.660156 267.859375 159.457031 C 267.847656 159.363281 267.828125 159.285156 267.828125 159.191406 C 267.753906 158.601562 267.707031 157.980469 267.675781 157.371094 C 267.488281 154.121094 267.59375 150.804688 266.960938 147.636719 C 266.648438 146.140625 265.621094 144.648438 265.835938 143.058594 C 266.101562 141.007812 268.03125 141.039062 269.464844 142.144531 C 271.164062 143.402344 271.332031 145.660156 272.6875 147.183594 C 273.433594 147.992188 274.398438 147.914062 274.867188 146.902344 C 276.777344 142.71875 276.625 137.773438 278.570312 133.601562 C 278.972656 132.746094 279.628906 131.847656 280.5625 131.847656 C 281.558594 131.878906 282.183594 132.933594 282.417969 133.882812 C 283.242188 137.101562 281.980469 140.464844 282.199219 143.761719 C 282.246094 144.382812 282.714844 145.222656 283.253906 144.898438 C 283.425781 144.804688 283.507812 144.617188 283.570312 144.445312 C 285.171875 140.820312 284.9375 136.667969 287.445312 133.386719 C 288.066406 132.59375 288.828125 131.847656 289.824219 131.644531 C 293.699219 130.832031 289.714844 142.019531 289.25 143.683594 C 289.171875 143.914062 288.378906 147.230469 289.480469 146.761719 C 289.589844 146.714844 289.671875 146.621094 289.730469 146.53125 C 291.007812 144.835938 296.828125 135.28125 299.738281 137.945312 C 300.816406 138.921875 299.832031 140.257812 299.320312 141.195312 C 297.796875 143.855469 296.160156 146.417969 294.355469 148.894531 C 293.921875 149.515625 293.421875 150.078125 293.328125 150.867188 C 293.296875 151.101562 293.328125 151.351562 293.453125 151.539062 C 293.5625 151.648438 293.699219 151.722656 293.859375 151.773438 C 294.773438 152.035156 295.660156 151.289062 296.378906 150.652344 C 297.09375 150.011719 297.875 149.4375 298.699219 148.972656 C 299.054688 148.769531 299.445312 148.582031 299.851562 148.554688 C 300.269531 148.523438 300.722656 148.707031 300.925781 149.0625 C 301.046875 149.296875 301.046875 149.609375 301.0625 149.890625 " fill-opacity="1" fill-rule="nonzero"/><path fill="#9e6d4c" d="M 285.65625 166.421875 C 285.511719 166.503906 285.359375 166.582031 285.21875 166.65625 C 284.546875 167 283.878906 167.328125 283.195312 167.59375 C 277.996094 166.003906 272.828125 163.8125 268.113281 161.183594 C 268.03125 160.8125 267.96875 160.421875 267.921875 160.046875 C 267.890625 159.863281 267.859375 159.660156 267.859375 159.457031 C 273.757812 161.945312 279.664062 164.214844 285.65625 166.421875 " fill-opacity="1" fill-rule="nonzero"/><path fill="#459c6e" d="M 131.1875 213.007812 C 129.8125 219.195312 129.398438 225.6875 129.21875 231.402344 C 128.933594 240.523438 129.082031 249.660156 129.667969 258.761719 C 130.199219 267.066406 131.121094 275.46875 134.128906 283.226562 C 137.132812 290.984375 142.46875 298.132812 149.9375 301.804688 C 159.019531 306.273438 169.347656 306.71875 179.28125 306.363281 C 195.511719 305.78125 210.851562 304.84375 219.929688 289.304688 C 226.015625 278.894531 227.09375 266.296875 226.5 254.253906 C 225.628906 236.589844 221.441406 219.097656 214.222656 202.949219 C 211.808594 197.550781 208.953125 192.160156 204.476562 188.296875 C 200.070312 184.484375 194.390625 182.429688 188.675781 181.292969 C 175.640625 178.703125 160.519531 183.691406 148.851562 189.433594 C 145.628906 191.019531 142.464844 192.832031 139.917969 195.363281 C 135.28125 199.984375 132.675781 206.320312 131.1875 213.007812 " fill-opacity="1" fill-rule="nonzero"/><path fill="#459c6e" d="M 284.207031 173.394531 C 270.179688 196.414062 249.617188 217.445312 224.632812 227.652344 C 224.011719 227.917969 223.375 228.164062 222.738281 228.398438 C 218.5 230.03125 214.144531 231.339844 209.675781 232.300781 C 208.429688 232.566406 205.878906 230.527344 204.757812 229.921875 C 198.828125 226.671875 193.828125 205.300781 198.75 200.554688 C 201.644531 197.769531 205.660156 197.226562 209.410156 197.300781 C 226.640625 197.691406 253.089844 175.386719 262.382812 164.121094 C 263.6875 162.535156 265.261719 160.761719 267.316406 160.75 C 268.234375 160.75 269.109375 161.121094 269.945312 161.480469 C 274.324219 163.328125 278.679688 165.179688 283.054688 167.03125 C 283.722656 167.3125 284.441406 167.625 284.90625 168.183594 C 286.105469 169.628906 285.1875 171.792969 284.207031 173.394531 " fill-opacity="1" fill-rule="nonzero"/><path fill="#3a825c" d="M 173.160156 247.585938 C 167.964844 244.089844 161.734375 242.8125 155.625 241.976562 C 149.828125 241.183594 143.996094 240.636719 138.164062 240.175781 C 139.757812 236.941406 141.476562 233.929688 143.429688 230.785156 C 144.21875 229.511719 142.472656 228.300781 141.421875 229.242188 C 137.777344 232.507812 136.007812 236.484375 133.960938 240.835938 C 133.363281 242.097656 134.089844 243.359375 135.480469 243.480469 C 147.34375 244.542969 160.777344 244.625 171.308594 250.753906 C 173.371094 251.953125 175.109375 248.890625 173.160156 247.585938 " fill-opacity="1" fill-rule="nonzero"/><path fill="#996948" d="M 175.671875 244.066406 C 178.398438 241.949219 182.445312 241.484375 185.390625 243.300781 C 186.464844 243.964844 187.417969 244.992188 187.582031 246.246094 C 187.792969 247.8125 186.761719 249.265625 185.652344 250.382812 C 183.433594 252.609375 177.027344 257.277344 173.582031 255.453125 C 169.214844 253.144531 173 246.140625 175.671875 244.066406 " fill-opacity="1" fill-rule="nonzero"/><path fill="#f1c080" d="M 183.636719 248.046875 L 181.105469 250.578125 L 159.539062 229.03125 L 162.074219 226.5 L 183.636719 248.046875 " fill-opacity="1" fill-rule="nonzero"/><path fill="#b5825e" d="M 197.050781 258.933594 C 196.351562 262.246094 192.523438 263.867188 189.160156 264.097656 C 185.207031 264.394531 179.804688 264.113281 175.972656 263.523438 C 172.472656 262.980469 169.5625 260.148438 169.15625 256.566406 C 168.859375 253.953125 169.34375 251.855469 170.371094 250.207031 C 170.371094 250.207031 170.371094 250.207031 170.371094 250.191406 C 170.746094 249.585938 171.195312 249.023438 171.710938 248.542969 C 172.066406 248.183594 172.472656 247.855469 172.890625 247.5625 C 173.917969 246.847656 175.085938 246.273438 176.367188 245.851562 C 177.671875 245.402344 179.089844 245.105469 180.519531 244.933594 C 182.730469 244.667969 185 244.699219 187.105469 244.933594 L 187.105469 244.949219 C 188.316406 245.074219 189.472656 245.277344 190.511719 245.539062 C 191.851562 245.878906 193.332031 246.410156 193.890625 247.671875 C 194.015625 247.9375 194.078125 248.21875 194.140625 248.511719 C 194.203125 248.710938 194.25 248.914062 194.328125 249.105469 C 194.449219 249.445312 194.652344 249.769531 194.855469 250.082031 C 194.949219 250.222656 195.027344 250.347656 195.105469 250.488281 C 195.636719 251.386719 195.976562 252.351562 196.273438 253.363281 C 196.382812 253.753906 196.472656 254.144531 196.582031 254.53125 C 196.644531 254.777344 196.726562 255.042969 196.785156 255.292969 C 197.082031 256.488281 197.300781 257.738281 197.050781 258.933594 " fill-opacity="1" fill-rule="nonzero"/><path fill="#996948" d="M 194.855469 250.082031 C 191.449219 249.785156 188.082031 249.664062 184.628906 249.738281 C 183.976562 249.753906 183.800781 248.679688 184.472656 248.574219 C 187.648438 248.121094 190.949219 248.074219 194.140625 248.511719 C 194.203125 248.710938 194.25 248.914062 194.328125 249.105469 C 194.449219 249.445312 194.652344 249.769531 194.855469 250.082031 " fill-opacity="1" fill-rule="nonzero"/><path fill="#996948" d="M 196.785156 255.292969 C 193.285156 254.71875 189.78125 254.5625 186.230469 254.03125 C 185.59375 253.941406 185.796875 252.960938 186.390625 252.945312 C 189.238281 252.882812 193.082031 252.632812 196.273438 253.363281 C 196.382812 253.753906 196.472656 254.144531 196.582031 254.53125 C 196.644531 254.777344 196.726562 255.042969 196.785156 255.292969 " fill-opacity="1" fill-rule="nonzero"/><path fill="#9e6d4c" d="M 172.410156 257.066406 C 172.378906 257.859375 171.320312 257.953125 171.070312 257.253906 C 170.371094 255.246094 170.203125 252.539062 170.371094 250.207031 C 170.371094 250.207031 170.371094 250.207031 170.371094 250.191406 C 170.746094 249.585938 171.195312 249.023438 171.710938 248.542969 C 171.726562 248.558594 171.742188 248.574219 171.742188 248.605469 C 171.800781 249.105469 171.851562 249.601562 171.863281 250.097656 C 171.925781 250.9375 171.941406 251.777344 172.003906 252.617188 C 172.054688 253.148438 172.117188 253.660156 172.175781 254.1875 C 172.300781 255.152344 172.425781 256.117188 172.410156 257.066406 " fill-opacity="1" fill-rule="nonzero"/><path fill="#459c6e" d="M 105.375 227.496094 C 99.566406 234.441406 95.242188 243.605469 97.539062 252.816406 C 100.34375 264.050781 110.820312 268.351562 121.429688 268.015625 C 138.066406 267.484375 154.710938 266.953125 171.347656 266.425781 C 171.625 266.414062 171.914062 266.402344 172.148438 266.253906 C 172.574219 265.988281 172.785156 265.390625 172.660156 264.902344 C 171.277344 259.265625 171.050781 255.292969 170.640625 249.777344 C 170.394531 246.445312 140.824219 242.707031 133.464844 242.320312 C 136.933594 231.386719 147.703125 223.6875 150.15625 212.484375 C 151.785156 205.023438 145.714844 197.5625 137.78125 200.671875 C 136.015625 201.363281 134.476562 202.527344 132.96875 203.671875 C 123.445312 210.910156 113.105469 218.261719 105.375 227.496094 " fill-opacity="1" fill-rule="nonzero"/><path fill="#3a825c" d="M 133.53125 199.945312 C 133.996094 201.839844 137.710938 205.242188 139.433594 206.230469 C 143.21875 208.398438 146.375 209.585938 150.523438 210.914062 C 158.789062 213.558594 166.765625 213.96875 175.441406 213.964844 C 184.199219 213.957031 193.125 212.359375 201.15625 208.808594 C 204.53125 207.320312 220.84375 198.042969 214.460938 193.496094 C 213.523438 192.832031 212.226562 192.894531 211.175781 193.363281 C 209.566406 194.078125 208.535156 195.554688 207.140625 196.578125 C 203.058594 199.574219 198.789062 202.324219 193.976562 204.003906 C 187.726562 206.1875 181.113281 207.070312 174.511719 206.960938 C 162.253906 206.761719 138.574219 195.949219 137.496094 195.855469 C 136.246094 195.742188 134.953125 196.335938 134.222656 197.355469 C 133.515625 198.347656 133.347656 199.203125 133.53125 199.945312 " fill-opacity="1" fill-rule="nonzero"/><path fill="#3a825c" d="M 128.066406 245.636719 C 130.785156 243.304688 133.65625 242.738281 137.101562 242.332031 C 138.199219 242.203125 138.191406 240.769531 137.101562 240.628906 C 133.449219 240.167969 129.628906 242.183594 127.066406 244.640625 C 126.40625 245.277344 127.382812 246.21875 128.066406 245.636719 " fill-opacity="1" fill-rule="nonzero"/><path fill="#b5825e" d="M 127.082031 169.488281 C 126.085938 171.683594 124.203125 172.753906 122.007812 173.097656 C 121.402344 173.210938 120.765625 173.253906 120.09375 173.238281 C 116 173.179688 111.347656 171.183594 109.027344 169.289062 C 107.019531 167.640625 105.554688 165.195312 105.570312 162.601562 C 105.601562 158.847656 108.824219 155.613281 112.484375 154.804688 C 119.238281 153.328125 130.664062 161.710938 127.082031 169.488281 " fill-opacity="1" fill-rule="nonzero"/><path fill="#996948" d="M 113.980469 159.988281 C 111.832031 159.980469 111.328125 162.390625 111.820312 164.101562 C 112.367188 165.992188 114.230469 168.167969 116.359375 168.125 C 117.183594 168.105469 117.539062 166.960938 116.789062 166.542969 C 115.71875 165.941406 114.695312 165.648438 113.992188 164.550781 C 113.496094 163.78125 112.796875 161.609375 114.144531 161.199219 C 114.804688 160.996094 114.691406 159.988281 113.980469 159.988281 " fill-opacity="1" fill-rule="nonzero"/><path fill="#b5825e" d="M 235.78125 168.277344 C 233.695312 170.421875 229.292969 172.914062 225.230469 173.441406 C 225.152344 173.457031 225.070312 173.457031 225.011719 173.457031 C 224.417969 173.535156 223.859375 173.550781 223.3125 173.519531 C 223.238281 173.519531 223.15625 173.519531 223.078125 173.503906 C 220.949219 173.363281 219.050781 172.492188 217.867188 170.503906 C 213.429688 163.175781 223.839844 153.5625 230.722656 154.261719 C 234.445312 154.664062 238.007812 157.511719 238.460938 161.230469 C 238.769531 163.8125 237.585938 166.410156 235.78125 168.277344 " fill-opacity="1" fill-rule="nonzero"/><path fill="#996948" d="M 229.816406 159.863281 C 231.804688 159.632812 232.523438 161.808594 232.242188 163.445312 C 231.9375 165.25 230.441406 167.464844 228.472656 167.640625 C 227.707031 167.710938 227.253906 166.6875 227.90625 166.222656 C 228.835938 165.554688 229.75 165.175781 230.285156 164.089844 C 230.664062 163.324219 231.082031 161.246094 229.792969 161.003906 C 229.164062 160.886719 229.160156 159.941406 229.816406 159.863281 " fill-opacity="1" fill-rule="nonzero"/><path fill="#996948" d="M 122.007812 173.097656 C 121.402344 173.210938 120.765625 173.253906 120.09375 173.238281 C 118.988281 170.984375 118.398438 168.449219 118.242188 165.992188 C 118.210938 165.414062 119.128906 165.289062 119.238281 165.851562 C 119.816406 168.507812 120.796875 170.808594 122.007812 173.097656 " fill-opacity="1" fill-rule="nonzero"/><path fill="#b5825e" d="M 121.265625 138.382812 C 118.660156 145.203125 117.765625 152.71875 118.652344 159.976562 C 120.980469 179.0625 132.957031 197.1875 151.078125 204.90625 C 170.972656 213.382812 197.4375 209.027344 212.398438 193.148438 C 230.59375 173.84375 230.09375 135.808594 210.175781 117.808594 C 199.113281 107.808594 182.605469 106.789062 167.804688 108.664062 C 153.554688 110.46875 138.828125 114.917969 129.132812 125.503906 C 125.703125 129.25 123.070312 133.648438 121.265625 138.382812 " fill-opacity="1" fill-rule="nonzero"/><g clip-path="url(#9397193013)"><path fill="#754732" d="M 132.824219 94.613281 C 130.441406 92.992188 127.007812 93.523438 124.808594 95.394531 C 122.609375 97.261719 121.539062 100.1875 121.339844 103.066406 C 117.9375 102.0625 113.953125 103.605469 112.113281 106.636719 C 110.273438 109.664062 110.742188 113.90625 113.199219 116.460938 C 109.5625 116.351562 105.796875 117.867188 103.644531 120.800781 C 101.335938 123.945312 101.828125 128.585938 104.441406 131.429688 C 104.101562 131.0625 101.332031 136.34375 101.175781 136.847656 C 100.539062 138.910156 100.445312 140.660156 101.5625 142.605469 C 102.175781 143.683594 103.054688 144.722656 103.03125 145.957031 C 103.015625 146.664062 102.703125 147.320312 102.472656 147.988281 C 101.109375 151.960938 102.996094 156.792969 106.695312 158.789062 C 110.394531 160.785156 115.472656 159.707031 118.046875 156.382812 C 118.625 158.339844 121.304688 158.960938 123.160156 158.109375 C 125.015625 157.257812 126.210938 155.449219 127.3125 153.734375 C 130.242188 156.417969 134.621094 157.417969 138.425781 156.265625 C 142.230469 155.117188 145.324219 151.859375 146.273438 148.003906 C 151.097656 149.199219 156.496094 145.132812 156.671875 140.171875 C 161.140625 142.875 167.863281 140.183594 169.226562 135.148438 C 170.011719 137.707031 172.554688 139.414062 175.175781 139.984375 C 177.792969 140.550781 180.511719 140.179688 183.167969 139.804688 C 182.667969 145.433594 189.539062 150.242188 194.660156 147.839844 C 195.042969 149.863281 195.445312 151.949219 196.625 153.632812 C 197.800781 155.316406 199.980469 156.484375 201.933594 155.84375 C 201.863281 160.457031 205.140625 164.925781 209.566406 166.238281 C 213.988281 167.554688 219.179688 165.605469 221.640625 161.707031 C 226.992188 163 231.9375 160.703125 233.023438 155.308594 C 234.632812 156.875 237.378906 157.101562 239.230469 155.820312 C 241.078125 154.539062 243.164062 152.320312 241.496094 148.824219 C 244.066406 147.960938 246.460938 146.078125 247.179688 143.464844 C 247.898438 140.851562 246.375 137.617188 243.707031 137.125 C 246.757812 137.6875 245.640625 129.144531 245.296875 128.148438 C 244.703125 126.449219 243.21875 124.921875 241.417969 124.851562 C 242.957031 123.191406 243.4375 120.628906 242.605469 118.527344 C 241.773438 116.421875 239.667969 114.878906 237.40625 114.722656 C 238.4375 111.984375 238.566406 108.773438 237.117188 106.234375 C 235.671875 103.691406 232.398438 102.125 229.664062 103.164062 C 230.570312 100.214844 230.550781 96.792969 228.777344 94.269531 C 227 91.746094 223.144531 90.621094 220.667969 92.460938 C 221.476562 89.769531 219.261719 86.886719 216.574219 86.074219 C 213.8125 85.039062 210.558594 86.371094 207.820312 86.875 C 207.675781 86.902344 207.523438 86.929688 207.386719 86.878906 C 207.132812 86.792969 207.023438 86.503906 206.949219 86.246094 C 205.953125 82.992188 203.570312 80.925781 200.265625 83.128906 C 198.46875 79.800781 192.871094 77.207031 189.128906 77.839844 C 186.96875 78.210938 185.070312 79.828125 184.367188 81.902344 C 181.796875 78.585938 177.683594 76.339844 173.492188 76.597656 C 169.304688 76.855469 165.277344 79.9375 164.488281 84.054688 C 161.960938 81.496094 156.78125 82.960938 155.964844 86.460938 C 153.734375 84.710938 150.644531 84.105469 147.917969 84.890625 C 145.191406 85.679688 142.902344 87.828125 141.941406 90.496094 C 138.59375 88.441406 133.492188 90.746094 132.824219 94.613281 " fill-opacity="1" fill-rule="nonzero"/></g><path fill="#996948" d="M 166.285156 174.511719 C 166.289062 176.488281 168.679688 177.574219 170.378906 177.667969 C 172.257812 177.777344 174.589844 176.984375 175.519531 175.253906 C 176.09375 174.179688 175.011719 172.949219 173.875 173.300781 C 172.734375 173.648438 171.859375 174.53125 170.617188 174.601562 C 169.378906 174.675781 168.585938 173.859375 167.492188 173.484375 C 166.84375 173.265625 166.28125 173.933594 166.285156 174.511719 " fill-opacity="1" fill-rule="nonzero"/><path fill="#c28e69" d="M 140.679688 177.691406 C 138.644531 177.960938 136.789062 179.585938 136.46875 181.675781 C 136.09375 184.183594 138.234375 186.316406 140.636719 186.566406 C 143.367188 186.855469 146.371094 185.167969 146.566406 182.214844 C 146.773438 179.113281 143.445312 177.320312 140.679688 177.691406 " fill-opacity="1" fill-rule="nonzero"/><path fill="#c28e69" d="M 200.941406 177.644531 C 202.996094 177.660156 205.035156 179.042969 205.609375 181.082031 C 206.292969 183.523438 204.429688 185.902344 202.078125 186.449219 C 199.398438 187.070312 196.214844 185.757812 195.65625 182.859375 C 195.074219 179.800781 198.152344 177.617188 200.941406 177.644531 " fill-opacity="1" fill-rule="nonzero"/><path fill="#754732" d="M 150.523438 169.84375 C 152.296875 169.84375 154 168.28125 153.917969 166.453125 C 153.835938 164.613281 152.425781 163.0625 150.523438 163.0625 C 148.75 163.0625 147.046875 164.621094 147.132812 166.453125 C 147.214844 168.289062 148.621094 169.84375 150.523438 169.84375 " fill-opacity="1" fill-rule="nonzero"/><path fill="#754732" d="M 194.128906 169.660156 C 195.90625 169.660156 197.601562 168.101562 197.523438 166.273438 C 197.4375 164.4375 196.03125 162.882812 194.128906 162.882812 C 192.355469 162.882812 190.65625 164.441406 190.734375 166.273438 C 190.820312 168.109375 192.226562 169.660156 194.128906 169.660156 " fill-opacity="1" fill-rule="nonzero"/><path fill="#996948" d="M 164.78125 184.558594 C 164.53125 188.503906 167.167969 193.511719 171.710938 192.960938 C 175.683594 192.484375 179.035156 187.261719 177.789062 183.433594 C 177.304688 181.945312 174.695312 181.597656 174.414062 183.433594 C 174.105469 185.421875 173.964844 188.570312 171.566406 189.261719 C 169.082031 189.976562 167.714844 186.019531 167.191406 184.230469 C 166.792969 182.867188 164.863281 183.195312 164.78125 184.558594 " fill-opacity="1" fill-rule="nonzero"/><path fill="#996948" d="M 225.820312 168.136719 C 225.695312 169.785156 225.476562 171.683594 225.011719 173.457031 C 224.417969 173.535156 223.859375 173.550781 223.3125 173.519531 C 223.238281 173.519531 223.15625 173.519531 223.078125 173.503906 C 223.207031 173.113281 223.332031 172.726562 223.441406 172.320312 C 223.839844 170.871094 224.214844 169.425781 224.621094 167.980469 C 224.792969 167.328125 225.882812 167.4375 225.820312 168.136719 " fill-opacity="1" fill-rule="nonzero"/><path fill="#3a825c" d="M 224.632812 227.652344 C 224.011719 227.917969 223.375 228.164062 222.738281 228.398438 C 222.644531 227.902344 222.515625 227.390625 222.378906 226.890625 C 221.882812 225.148438 221.457031 223.511719 221.316406 221.710938 C 221.273438 220.964844 222.378906 220.867188 222.578125 221.539062 C 223.15625 223.433594 224.074219 225.535156 224.632812 227.652344 " fill-opacity="1" fill-rule="nonzero"/><path fill="#e3dfe0" d="M 213.789062 262.5625 C 212.496094 264.894531 212.496094 268.007812 212.496094 268.007812 C 212.621094 268 213.222656 265.324219 213.367188 265.320312 C 222.976562 264.667969 278.066406 259.324219 278.066406 259.324219 L 282.15625 250.585938 C 234.550781 237.21875 217.4375 255.953125 213.789062 262.5625 " fill-opacity="1" fill-rule="nonzero"/><path fill="#f2eeef" d="M 213.023438 267.242188 L 179.363281 262.429688 C 175.15625 262.730469 170.949219 263.035156 166.742188 263.335938 C 163.191406 263.589844 159.644531 263.84375 156.09375 264.101562 C 154.507812 264.214844 152.855469 264.214844 151.28125 264.445312 C 149.464844 264.71875 147.628906 265.523438 145.835938 266.046875 C 145.371094 266.179688 144.894531 266.316406 144.414062 266.289062 C 143.132812 266.214844 142.140625 264.890625 142.246094 263.613281 C 142.316406 262.816406 143.03125 262.378906 142.746094 261.628906 C 142.636719 261.328125 142.421875 261.074219 142.304688 260.777344 C 142.058594 260.160156 142.269531 259.472656 142.339844 258.8125 C 142.457031 257.796875 141.707031 257.273438 142.480469 256.335938 C 144.300781 254.132812 147.753906 253.894531 150.371094 253.480469 C 159.886719 251.976562 169.519531 250.789062 179.164062 251.386719 C 187.8125 251.925781 196.96875 253.0625 204.082031 258.273438 C 206.382812 259.957031 211.101562 263.367188 212.542969 266.445312 C 212.554688 266.472656 213.089844 267.253906 213.023438 267.242188 " fill-opacity="1" fill-rule="nonzero"/><path fill="#e3dfe0" d="M 203.96875 259.523438 C 190.769531 253.527344 176.621094 251.992188 162.363281 254.523438 C 162.011719 254.585938 162.089844 255.195312 162.445312 255.148438 C 169.394531 254.242188 176.273438 253.546875 183.273438 254.285156 C 190.398438 255.039062 197.191406 257.246094 203.792969 259.945312 C 204.035156 260.042969 204.207031 259.632812 203.96875 259.523438 " fill-opacity="1" fill-rule="nonzero"/><path fill="#e3dfe0" d="M 186.808594 257.183594 C 174.246094 256.496094 160.890625 255.875 148.675781 259.480469 C 148.210938 259.617188 148.40625 260.3125 148.875 260.207031 C 161.46875 257.324219 173.957031 257.132812 186.808594 257.625 C 187.089844 257.636719 187.089844 257.199219 186.808594 257.183594 " fill-opacity="1" fill-rule="nonzero"/><path fill="#f2eeef" d="M 212.707031 268.511719 L 249.601562 263.441406 L 282.152344 266.230469 C 283.859375 263.3125 282.15625 260.941406 282.15625 260.941406 C 283.265625 259.695312 282.84375 258.449219 282.105469 257.292969 C 281.996094 257.117188 281.875 256.945312 281.753906 256.769531 C 281.699219 256.703125 281.648438 256.621094 281.640625 256.535156 C 281.640625 256.453125 281.679688 256.382812 281.71875 256.316406 C 281.730469 256.285156 281.746094 256.253906 281.761719 256.230469 C 282.210938 255.433594 282.492188 254.914062 283.140625 253.84375 C 282.6875 253.609375 281.929688 253.335938 281.007812 253.039062 C 277.957031 252.058594 273.105469 250.902344 271.523438 250.621094 C 265.421875 249.527344 259.230469 248.878906 253.027344 248.824219 C 248.0625 248.777344 243.078125 249.121094 238.171875 249.933594 C 234.320312 250.585938 230.503906 251.515625 226.816406 252.800781 C 224.078125 253.753906 220.6875 255.476562 218.476562 257.359375 C 211.816406 263.046875 212.707031 268.511719 212.707031 268.511719 " fill-opacity="1" fill-rule="nonzero"/><path fill="#e3dfe0" d="M 220.566406 258.699219 C 233.765625 252.699219 247.914062 251.164062 262.175781 253.695312 C 262.523438 253.757812 262.449219 254.367188 262.089844 254.320312 C 255.144531 253.414062 248.261719 252.71875 241.261719 253.457031 C 234.140625 254.210938 227.34375 256.421875 220.742188 259.121094 C 220.503906 259.214844 220.328125 258.804688 220.566406 258.699219 " fill-opacity="1" fill-rule="nonzero"/><path fill="#e3dfe0" d="M 238.566406 257.183594 C 251.136719 256.496094 264.488281 255.875 276.703125 259.480469 C 277.167969 259.617188 276.976562 260.3125 276.5 260.207031 C 263.90625 257.324219 251.417969 257.132812 238.566406 257.625 C 238.285156 257.636719 238.285156 257.199219 238.566406 257.183594 " fill-opacity="1" fill-rule="nonzero"/><path fill="#e3dfe0" d="M 274.664062 255.03125 C 276.28125 255.433594 277.859375 255.902344 279.425781 256.414062 C 280.324219 256.703125 281.214844 257 282.105469 257.292969 C 281.996094 257.117188 281.875 256.945312 281.753906 256.769531 C 281.699219 256.703125 281.648438 256.621094 281.640625 256.535156 C 281.640625 256.453125 281.679688 256.382812 281.71875 256.316406 C 281.730469 256.285156 281.746094 256.253906 281.761719 256.230469 C 281.109375 256.019531 280.453125 255.820312 279.792969 255.636719 C 278.125 255.179688 276.429688 254.824219 274.792969 254.558594 C 274.488281 254.507812 274.351562 254.953125 274.664062 255.03125 " fill-opacity="1" fill-rule="nonzero"/><path fill="#e16751" d="M 281.496094 265.398438 C 273.796875 263.125 265.960938 261.417969 257.984375 260.472656 C 248.230469 259.316406 238.363281 259.515625 228.707031 261.367188 C 223.441406 262.378906 212.71875 266.375 212.542969 266.445312 C 212.367188 266.375 201.847656 262.378906 196.582031 261.367188 C 186.929688 259.515625 177.058594 259.316406 167.308594 260.472656 C 159.328125 261.417969 151.492188 263.125 143.792969 265.398438 C 140.058594 266.503906 142.28125 270.535156 145.703125 269.777344 C 145.703125 269.777344 183.109375 263.367188 203.433594 269.257812 C 205.769531 269.933594 208.089844 270.722656 210.472656 271.238281 C 211.320312 271.421875 212.050781 271.265625 212.644531 270.917969 C 213.238281 271.265625 213.96875 271.421875 214.816406 271.238281 C 217.199219 270.722656 219.519531 269.933594 221.855469 269.257812 C 242.148438 263.367188 279.585938 269.777344 279.585938 269.777344 C 283.011719 270.535156 285.230469 266.503906 281.496094 265.398438 " fill-opacity="1" fill-rule="nonzero"/><path fill="#e16751" d="M 206.636719 267.726562 C 206.773438 270.757812 209.285156 273.085938 212.257812 273.402344 C 215.105469 273.703125 218.71875 271.867188 219.277344 268.847656 C 219.570312 267.246094 217.4375 265.425781 216.175781 267.039062 C 215.246094 268.222656 214.476562 269.585938 212.769531 269.632812 C 211.105469 269.675781 209.945312 268.34375 209.167969 267.039062 C 208.503906 265.921875 206.570312 266.34375 206.636719 267.726562 " fill-opacity="1" fill-rule="nonzero"/><path fill="#e3af6b" d="M 314.0625 413.003906 L 49.957031 413.003906 L 45.28125 276.632812 L 318.730469 276.632812 L 314.0625 413.003906 " fill-opacity="1" fill-rule="nonzero"/><g clip-path="url(#48403a5bf1)"><path fill="#f1c080" d="M 322.910156 285.453125 L 41.101562 285.453125 C 36.230469 285.453125 32.28125 281.503906 32.28125 276.632812 C 32.28125 271.765625 36.230469 267.820312 41.101562 267.820312 L 322.910156 267.820312 C 327.78125 267.820312 331.730469 271.765625 331.730469 276.632812 C 331.730469 281.503906 327.78125 285.453125 322.910156 285.453125 " fill-opacity="1" fill-rule="nonzero"/></g><path fill="#663b28" d="M 200.839844 135.769531 C 197.460938 137.113281 193.632812 135.136719 195.152344 131.089844 C 195.476562 130.234375 194.417969 129.65625 193.734375 130 C 192.425781 130.644531 190.941406 131.265625 189.4375 131.171875 C 186.59375 130.996094 185.585938 128.5 186.476562 126.171875 C 187.429688 125.703125 186.71875 124.335938 185.769531 124.527344 C 183.269531 125.035156 180.253906 125.523438 178.175781 123.613281 C 175.042969 120.734375 179.402344 116.78125 182.066406 115.691406 C 182.9375 115.335938 182.625 113.964844 181.664062 114.238281 C 178.097656 115.246094 173.671875 119.558594 175.773438 123.554688 C 177.34375 126.546875 181.261719 127.460938 184.5 126.792969 C 183.992188 128.550781 184.425781 130.5 185.957031 131.808594 C 187.949219 133.511719 190.582031 133.246094 192.914062 132.417969 C 192.730469 136.792969 197.628906 140.289062 201.640625 137.140625 C 202.273438 136.640625 201.582031 135.476562 200.839844 135.769531 " fill-opacity="1" fill-rule="nonzero"/><path fill="#663b28" d="M 227.386719 127.4375 C 229.40625 125.238281 228.507812 121.269531 226.675781 119.207031 C 225.652344 118.050781 223.945312 117.484375 222.527344 117.839844 C 223.171875 116.109375 223.253906 114.136719 222.660156 112.441406 C 222.148438 110.992188 221.089844 109.859375 219.773438 109.464844 C 220.816406 107.710938 220.355469 104.609375 219.265625 102.988281 C 216.964844 99.558594 212.476562 98.90625 209.128906 101.1875 C 208.496094 101.617188 209.0625 102.628906 209.738281 102.226562 C 211.988281 100.878906 214.847656 100.914062 216.839844 102.75 C 218.5625 104.335938 219.957031 108.371094 216.800781 109.226562 C 216.117188 109.410156 216.015625 110.59375 216.800781 110.710938 C 217.40625 110.800781 217.914062 110.753906 218.351562 110.617188 C 220.371094 110.617188 221.382812 112.890625 221.382812 114.71875 C 221.382812 116.464844 220.667969 117.867188 219.808594 119.335938 C 219.417969 120.011719 220.195312 120.761719 220.816406 120.476562 C 221.050781 120.582031 221.332031 120.539062 221.507812 120.226562 C 222.683594 118.101562 225.175781 119.578125 226 121.164062 C 226.871094 122.835938 227.058594 124.804688 226.164062 126.492188 C 225.765625 127.242188 226.765625 128.113281 227.386719 127.4375 " fill-opacity="1" fill-rule="nonzero"/><path fill="#663b28" d="M 140.910156 97.230469 C 138.066406 100.09375 137.929688 104.761719 140.222656 107.824219 C 139.253906 107.75 138.265625 107.894531 137.21875 108.386719 C 134.933594 109.445312 132.695312 111.105469 131.691406 113.492188 C 129.558594 118.589844 134.429688 122.359375 139.105469 122.601562 C 139.945312 122.648438 140.117188 121.339844 139.300781 121.140625 C 135.429688 120.191406 130.863281 117.550781 133.886719 113 C 135.796875 110.132812 139.171875 108.914062 142.359375 109.738281 C 142.535156 109.839844 142.703125 109.949219 142.894531 110.039062 C 143.8125 110.488281 144.492188 109.28125 143.683594 108.683594 C 140.339844 106.214844 138.90625 101.742188 142.109375 98.433594 C 145.277344 95.152344 149.953125 96.339844 152.480469 99.679688 C 153.015625 100.386719 154.144531 99.785156 153.703125 98.964844 C 151.171875 94.222656 144.632812 93.476562 140.910156 97.230469 " fill-opacity="1" fill-rule="nonzero"/><path fill="#663b28" d="M 163.011719 120.535156 C 163.578125 119.53125 163.878906 118.355469 163.832031 117.328125 C 163.753906 115.558594 162.878906 113.84375 161.566406 112.667969 C 160.402344 111.628906 158.777344 110.925781 157.214844 111.378906 C 155.207031 111.953125 154.335938 114.09375 153.960938 115.957031 C 153.789062 116.792969 155.050781 117.15625 155.25 116.3125 C 155.566406 114.980469 156.152344 113.148438 157.691406 112.804688 C 158.789062 112.558594 159.890625 113.230469 160.636719 113.984375 C 161.511719 114.867188 162.101562 116.078125 162.152344 117.328125 C 162.234375 119.160156 161.109375 120 160.054688 121.285156 C 159.484375 121.980469 160.183594 122.855469 160.996094 122.5 C 161.246094 122.394531 161.476562 122.25 161.699219 122.082031 C 164 121.574219 166.0625 124.699219 165.429688 126.882812 C 164.621094 129.710938 161.214844 129.347656 159.019531 128.953125 C 158.0625 128.78125 157.730469 130.035156 158.621094 130.386719 C 162.074219 131.761719 167.449219 130.308594 167.125 125.800781 C 166.964844 123.554688 165.160156 120.960938 163.011719 120.535156 " fill-opacity="1" fill-rule="nonzero"/><path fill="#663b28" d="M 175.269531 94.460938 C 178.234375 91.59375 180.519531 96.1875 181.523438 98.390625 C 181.84375 99.09375 183.046875 98.75 182.984375 97.996094 C 182.9375 97.429688 182.789062 96.851562 182.574219 96.277344 C 182.371094 94.207031 182.546875 91.84375 184.417969 90.765625 C 186.722656 89.441406 189.320312 90.714844 189.832031 93.257812 C 189.980469 94.019531 191.117188 93.808594 191.140625 93.082031 C 191.277344 89.542969 187.351562 87.90625 184.390625 89.082031 C 182.167969 89.96875 181.351562 91.910156 181.214844 94.027344 C 179.8125 92.398438 177.75 91.40625 175.660156 92.261719 C 174.3125 92.8125 173.28125 94.105469 172.65625 95.570312 C 171.851562 93.921875 170.464844 92.578125 168.660156 92.550781 C 165.378906 92.503906 164.425781 96.070312 164.828125 98.710938 C 164.9375 99.425781 166.1875 99.265625 166.097656 98.539062 C 165.890625 96.699219 166.53125 93.425781 169.140625 94.171875 C 171.265625 94.777344 171.417969 97.503906 171.925781 99.246094 C 172.175781 100.097656 173.398438 99.902344 173.445312 99.039062 C 173.453125 98.878906 173.429688 98.707031 173.421875 98.539062 C 173.695312 97.0625 174.183594 95.507812 175.269531 94.460938 " fill-opacity="1" fill-rule="nonzero"/><path fill="#663b28" d="M 122.878906 145.023438 C 120.464844 146.449219 117.28125 146.589844 115.195312 144.445312 C 113.105469 142.300781 113.238281 138.707031 115.035156 136.433594 C 115.105469 136.339844 115.144531 136.238281 115.167969 136.136719 C 115.308594 136.082031 115.457031 136.023438 115.597656 135.945312 C 116.375 135.527344 115.804688 134.46875 115.03125 134.601562 C 112.976562 134.960938 110.644531 134.488281 109.828125 132.292969 C 109.519531 131.464844 109.574219 130.5 109.863281 129.675781 C 110.132812 128.910156 111.222656 127.015625 112.285156 127.375 C 112.96875 127.605469 113.429688 126.535156 112.78125 126.203125 C 109.710938 124.640625 107.652344 129.808594 108.082031 132.085938 C 108.542969 134.527344 110.917969 136.410156 113.34375 136.46875 C 111.472656 139.15625 111.511719 142.964844 113.792969 145.488281 C 116.320312 148.28125 120.9375 148.628906 123.828125 146.25 C 124.519531 145.675781 123.628906 144.578125 122.878906 145.023438 " fill-opacity="1" fill-rule="nonzero"/><path fill="#663b28" d="M 222.867188 149.34375 C 222.953125 151.484375 222.351562 153.273438 219.957031 153.558594 C 217.46875 153.855469 215.503906 152.5 215.039062 150.132812 C 215.554688 149.320312 214.382812 148.601562 213.714844 149.15625 C 211.839844 150.722656 209.425781 152.121094 207.011719 150.796875 C 204.230469 149.269531 204.210938 146.140625 205.773438 143.75 C 206.234375 143.042969 205.222656 142.316406 204.636719 142.871094 C 201.886719 145.484375 202.585938 149.976562 205.59375 152.070312 C 207.984375 153.734375 211.292969 153.359375 213.5625 151.632812 C 214.152344 154.085938 217.355469 155.585938 219.804688 155.453125 C 223.277344 155.261719 225.230469 152.445312 224.5 149.121094 C 224.300781 148.210938 222.832031 148.40625 222.867188 149.34375 " fill-opacity="1" fill-rule="nonzero"/><path fill="#663b28" d="M 240.320312 136.765625 C 239.921875 136.042969 238.753906 136.53125 238.988281 137.328125 C 239.496094 139.089844 240.097656 141.179688 238.117188 142.261719 C 236.492188 143.144531 234.714844 142.011719 234.171875 140.40625 C 234.164062 140.382812 234.164062 140.359375 234.15625 140.335938 C 233.925781 139.496094 232.757812 139.722656 232.695312 140.535156 C 232.515625 142.960938 229.820312 143.15625 228.511719 141.433594 C 227.359375 139.921875 227.5625 137.886719 227.886719 136.136719 C 228.039062 135.339844 226.921875 135.015625 226.660156 135.800781 C 225.691406 138.707031 225.894531 142.644531 229.152344 144.011719 C 230.851562 144.71875 232.992188 144.066406 233.871094 142.625 C 234.953125 143.925781 236.804688 144.53125 238.503906 143.828125 C 241.425781 142.621094 241.699219 139.265625 240.320312 136.765625 " fill-opacity="1" fill-rule="nonzero"/><path fill="#663b28" d="M 200.855469 117.953125 C 201.8125 119.042969 203.277344 119.675781 204.921875 119.496094 C 207.871094 119.175781 209.636719 116.296875 209.242188 113.507812 C 209.121094 112.664062 207.765625 112.882812 207.773438 113.707031 C 207.789062 115.527344 206.871094 117.507812 204.90625 117.875 C 202.828125 118.261719 201.027344 116.640625 200.945312 114.601562 C 200.914062 113.824219 199.816406 113.839844 199.753906 114.601562 C 199.695312 115.292969 199.796875 115.9375 200.007812 116.527344 C 197.410156 118.503906 194.347656 115.179688 194.148438 112.722656 C 193.976562 110.597656 195.003906 108.667969 196.222656 107.019531 C 196.667969 106.417969 195.679688 105.65625 195.1875 106.21875 C 192.855469 108.871094 191.425781 112.667969 193.488281 115.933594 C 194.839844 118.078125 198.726562 120.015625 200.855469 117.953125 " fill-opacity="1" fill-rule="nonzero"/><path fill="#663b28" d="M 146.515625 136.261719 C 146.558594 138.453125 145.21875 140.566406 142.871094 140.71875 C 140.515625 140.871094 138.675781 139.164062 138.890625 136.789062 C 138.949219 136.1875 137.972656 135.910156 137.726562 136.472656 C 137.4375 137.117188 137.363281 137.75 137.425781 138.34375 C 137.417969 138.351562 137.40625 138.355469 137.394531 138.367188 C 136.148438 139.886719 134.21875 140.875 132.460938 139.386719 C 130.761719 137.949219 131.078125 135.375 131.597656 133.453125 C 131.828125 132.605469 130.617188 132.3125 130.308594 133.097656 C 129.265625 135.769531 129.175781 139.332031 131.894531 141.046875 C 133.851562 142.28125 136.683594 141.914062 138.09375 140.09375 C 138.988281 141.382812 140.613281 142.273438 142.226562 142.371094 C 145.648438 142.578125 148.402344 139.648438 148.074219 136.261719 C 147.976562 135.285156 146.492188 135.242188 146.515625 136.261719 " fill-opacity="1" fill-rule="nonzero"/></svg>