<svg xmlns="http://www.w3.org/2000/svg" xmlns:xlink="http://www.w3.org/1999/xlink" width="500" zoomAndPan="magnify" viewBox="0 0 375 374.999991" height="500" preserveAspectRatio="xMidYMid meet" version="1.0"><defs><clipPath id="c83d886ff9"><path d="M 157.019531 211.265625 L 187.5 211.265625 L 187.5 243.175781 L 157.019531 243.175781 Z M 157.019531 211.265625 " clip-rule="nonzero"/></clipPath><clipPath id="883366e347"><path d="M 172.257812 211.265625 C 176.300781 211.265625 180.179688 212.871094 183.035156 215.730469 C 185.894531 218.585938 187.5 222.464844 187.5 226.507812 L 187.5 227.863281 C 187.5 231.90625 185.894531 235.785156 183.035156 238.640625 C 180.179688 241.5 176.300781 243.105469 172.257812 243.105469 C 168.21875 243.105469 164.339844 241.5 161.484375 238.640625 C 158.625 235.785156 157.019531 231.90625 157.019531 227.863281 L 157.019531 226.507812 C 157.019531 222.464844 158.625 218.585938 161.484375 215.730469 C 164.339844 212.871094 168.21875 211.265625 172.257812 211.265625 Z M 172.257812 211.265625 " clip-rule="nonzero"/></clipPath><clipPath id="63e5b1f24d"><path d="M 0 73 L 374 73 L 374 343.703125 L 0 343.703125 Z M 0 73 " clip-rule="nonzero"/></clipPath></defs><g clip-path="url(#c83d886ff9)"><g clip-path="url(#883366e347)"><path fill="#aeb7c6" d="M 157.019531 211.265625 L 187.5 211.265625 L 187.5 243.054688 L 157.019531 243.054688 Z M 157.019531 211.265625 " fill-opacity="1" fill-rule="nonzero"/></g></g><g clip-path="url(#63e5b1f24d)"><path fill="#ed2228" d="M 156.90625 141.453125 C 159.300781 150.011719 162.089844 158.179688 165.457031 165.679688 C 181.40625 162.765625 202.085938 164.039062 218.335938 165.679688 C 221.519531 159.242188 222.703125 150.652344 224.371094 142.542969 C 207.601562 140.175781 193.746094 124.449219 195.65625 103.984375 C 198.597656 72.867188 245.410156 64.0625 261.632812 87.46875 C 274.367188 105.867188 262.085938 133.316406 247.019531 140.90625 C 242.925781 142.9375 238.074219 143.242188 233.433594 143.121094 C 233.464844 149.191406 235.011719 161.15625 232.433594 167.347656 C 250.625 172.023438 268.304688 177.308594 277.246094 192.125 C 288.285156 188.601562 295.832031 181.253906 302.414062 172.84375 C 288.464844 165.042969 277.582031 152.53125 279.25 128.246094 C 281.039062 102.347656 293.621094 77.570312 313.996094 73.714844 C 319.179688 88.257812 318.058594 109.664062 328.09375 118.894531 C 335.582031 116.007812 340.496094 111.546875 346.226562 105.140625 C 349.957031 100.949219 355.109375 87.742188 360.839844 87.5 C 367.933594 87.195312 372.816406 107.144531 373.421875 116.128906 C 375 139.570312 361.78125 167.867188 346.742188 175.0625 C 337.980469 179.25 328.457031 178.855469 316.027344 177.277344 C 309.234375 189.847656 302.109375 202.082031 284.3125 202.597656 C 288.558594 214.589844 297.230469 231.378906 293.378906 250.507812 C 314.027344 249.960938 321.574219 263.746094 324.09375 282.992188 C 318.210938 280.382812 315.574219 272.246094 309.992188 267.570312 C 304.871094 263.289062 298.472656 262.167969 291.863281 259.3125 C 289.375 261.894531 288.40625 266.203125 286.828125 269.785156 C 307.355469 272.824219 318.90625 285.757812 320.058594 309.984375 C 316.117188 309.378906 313.8125 304.824219 311.507812 301.726562 C 304.019531 291.648438 294.410156 283.90625 281.3125 279.136719 C 278.945312 280.59375 277.613281 283.175781 275.761719 285.210938 C 291.679688 291.3125 298.894531 309.800781 295.894531 334.789062 C 288.679688 326.835938 286.738281 314.660156 279.792969 306.707031 C 275.246094 301.515625 269.578125 298.871094 264.179688 294.589844 C 232.039062 311.988281 168.277344 314.84375 128.738281 302.851562 C 118.671875 310.742188 117.792969 328.6875 114.125 343.59375 C 105.878906 333.421875 104.058594 305.398438 114.125 296.230469 C 112.277344 294.015625 109.484375 292.859375 107.574219 290.734375 C 99.207031 296.71875 93.597656 304.703125 88.960938 315.511719 C 87.109375 319.820312 86.230469 325.773438 81.925781 328.171875 C 76.953125 304.488281 86.171875 287.457031 100.542969 281.355469 C 99.753906 277.253906 97.511719 274.765625 97.023438 270.332031 C 83.867188 276.679688 77.742188 290.734375 70.859375 303.914062 C 67.28125 279.59375 76.710938 264.808594 95.023438 262.621094 C 91.6875 243.585938 93.78125 220.054688 100.570312 207 C 83.167969 206 75.46875 194.429688 70.375 180.007812 C 49.238281 188.449219 31.289062 184.167969 18.527344 170.113281 C 9.21875 159.878906 2 145.0625 0.847656 131.523438 C 0 121.472656 2.335938 102.527344 8.398438 101.222656 C 14.855469 99.855469 21.253906 110.664062 26.53125 114.429688 C 30.015625 116.949219 42.023438 125.601562 47.179688 124.90625 C 58.457031 123.355469 52.394531 87.5 55.726562 76.996094 C 69.28125 76.359375 81.136719 84.554688 88.960938 95.726562 C 96.023438 105.808594 103.816406 120.199219 104.058594 134.832031 C 104.363281 153.324219 93.6875 167.199219 80.894531 174.484375 C 87.109375 184.015625 94.628906 192.125 106.058594 195.949219 C 116.550781 181.921875 132.316406 173.664062 150.875 168.410156 C 149.386719 161.460938 147.933594 151.988281 149.355469 143.636719 C 128.4375 141.664062 114.125 132.707031 114.125 108.386719 C 114.125 90.808594 127.285156 75.265625 141.808594 73.6875 C 164.304688 71.226562 186.621094 84.128906 185.105469 110.027344 C 184.042969 128.09375 172.734375 136.320312 156.90625 141.453125 Z M 127.191406 125.480469 C 131.074219 132.253906 140.929688 136.257812 146.839844 136.503906 C 157.210938 136.925781 168.488281 130.519531 173.007812 121.078125 C 179.675781 107.203125 173.066406 87.652344 161.425781 82.519531 C 157.210938 80.667969 147.417969 80.394531 142.292969 81.429688 C 127.828125 84.28125 117.460938 108.570312 127.191406 125.480469 Z M 210.785156 91.324219 C 201.871094 101.496094 203.601562 123.082031 216.820312 130.976562 C 223.066406 134.710938 235.164062 137.050781 243.5 134.285156 C 254.871094 130.519531 266.574219 111.394531 258.117188 94.636719 C 254.203125 86.894531 242.984375 80.941406 230.433594 82.519531 C 222.214844 83.554688 215.089844 86.40625 210.785156 91.324219 Z M 210.785156 91.324219 " fill-opacity="1" fill-rule="evenodd"/></g><path fill="#ffffff" d="M 142.324219 81.429688 C 147.445312 80.394531 157.242188 80.667969 161.453125 82.519531 C 173.097656 87.652344 179.675781 107.203125 173.039062 121.078125 C 168.519531 130.519531 157.242188 136.925781 146.871094 136.503906 C 140.988281 136.257812 131.136719 132.253906 127.222656 125.480469 C 117.460938 108.570312 127.828125 84.28125 142.324219 81.429688 Z M 142.324219 81.429688 " fill-opacity="1" fill-rule="evenodd"/><path fill="#ffffff" d="M 230.402344 82.519531 C 242.957031 80.941406 254.175781 86.894531 258.085938 94.636719 C 266.542969 111.394531 254.871094 130.519531 243.472656 134.285156 C 235.132812 137.050781 223.035156 134.710938 216.789062 130.976562 C 203.539062 123.082031 201.839844 101.496094 210.753906 91.324219 C 215.089844 86.40625 222.214844 83.554688 230.402344 82.519531 Z M 230.402344 82.519531 " fill-opacity="1" fill-rule="evenodd"/><path fill="#000000" d="M 144.050781 92.660156 C 157.027344 89.019531 166.761719 98.097656 166.214844 109.722656 C 165.398438 126.785156 142.535156 130.765625 135.5 119.652344 C 128.800781 109.085938 136.078125 94.90625 144.050781 92.660156 Z M 144.050781 92.660156 " fill-opacity="1" fill-rule="evenodd"/><path fill="#000000" d="M 227.613281 92.660156 C 240.652344 88.988281 250.261719 98.125 249.777344 109.722656 C 249.050781 126.816406 226.035156 130.703125 219.0625 119.652344 C 212.394531 109.085938 219.667969 94.90625 227.613281 92.660156 Z M 227.613281 92.660156 " fill-opacity="1" fill-rule="evenodd"/><path fill="#000000" d="M 247.230469 222.546875 C 247.746094 222.546875 248.230469 222.546875 248.746094 222.546875 C 249.839844 228.890625 243.652344 238.546875 239.164062 242.371094 C 230.371094 249.898438 211.453125 257.21875 197.382812 258.339844 C 167.003906 260.769531 144.71875 242.308594 128.40625 227.492188 C 128.40625 227.128906 128.40625 226.765625 128.40625 226.402344 C 130.164062 223.882812 130.648438 224.945312 131.921875 225.308594 C 136.078125 226.402344 142.535156 233.960938 147.023438 237.421875 C 152.148438 241.367188 157.9375 245.894531 163.636719 248.441406 C 181.585938 256.488281 203.8125 254.757812 220.035156 247.898438 C 233.496094 242.1875 241.652344 235.78125 247.230469 222.546875 Z M 247.230469 222.546875 " fill-opacity="1" fill-rule="evenodd"/></svg>