<svg xmlns="http://www.w3.org/2000/svg" xmlns:xlink="http://www.w3.org/1999/xlink" width="500" zoomAndPan="magnify" viewBox="0 0 375 374.999991" height="500" preserveAspectRatio="xMidYMid meet" version="1.0"><defs><clipPath id="408b2df24d"><path d="M 165.15625 179.359375 L 187.5 179.359375 L 187.5 211.21875 L 165.15625 211.21875 Z M 165.15625 179.359375 " clip-rule="nonzero"/></clipPath><clipPath id="f60daa06df"><path d="M 176.328125 179.359375 C 182.5 179.359375 187.5 184.363281 187.5 190.53125 L 187.5 200.027344 C 187.5 206.199219 182.5 211.199219 176.328125 211.199219 C 170.15625 211.199219 165.15625 206.199219 165.15625 200.027344 L 165.15625 190.53125 C 165.15625 184.363281 170.15625 179.359375 176.328125 179.359375 Z M 176.328125 179.359375 " clip-rule="nonzero"/></clipPath><clipPath id="42d2533e94"><path d="M 10.105469 146 L 287 146 L 287 360 L 10.105469 360 Z M 10.105469 146 " clip-rule="nonzero"/></clipPath></defs><g clip-path="url(#408b2df24d)"><g clip-path="url(#f60daa06df)"><path fill="#aeb7c6" d="M 165.15625 179.359375 L 187.5 179.359375 L 187.5 211.21875 L 165.15625 211.21875 Z M 165.15625 179.359375 " fill-opacity="1" fill-rule="nonzero"/></g></g><path fill="#cfdfe8" d="M 65.902344 185.296875 C 65.902344 185.296875 118.695312 145.195312 175.535156 156.386719 C 232.371094 167.578125 269.027344 188.414062 270.574219 198.351562 C 272.121094 208.292969 285.164062 239.386719 254.734375 263.929688 C 224.304688 288.496094 176.171875 298.4375 125.855469 291.613281 C 75.539062 284.765625 19.632812 239.703125 65.902344 185.296875 " fill-opacity="1" fill-rule="nonzero"/><path fill="#f3f2f0" d="M 262.800781 273.253906 C 262.800781 273.253906 228.960938 360.917969 155.964844 352.84375 C 82.992188 344.769531 56.585938 290.996094 56.902344 255.558594 C 56.902344 255.558594 99.445312 298.140625 159.695312 296.273438 C 219.941406 294.410156 262.800781 273.253906 262.800781 273.253906 " fill-opacity="1" fill-rule="nonzero"/><path fill="#d3843d" d="M 228.03125 131.523438 C 228.03125 131.523438 218.714844 127.476562 222.441406 113.804688 C 226.167969 100.113281 268.710938 17.746094 311.890625 19 C 355.046875 20.226562 300.074219 87.054688 293.550781 95.765625 C 287.027344 104.480469 262.507812 156.066406 228.03125 131.523438 " fill-opacity="1" fill-rule="nonzero"/><path fill="#d6d6d6" d="M 305.753906 15.746094 C 295.890625 15.746094 287.460938 24.683594 280.1875 31.328125 C 280.074219 31.441406 279.9375 31.554688 279.824219 31.667969 C 289.753906 23.957031 300.300781 18.976562 310.914062 18.976562 C 311.230469 18.976562 311.550781 18.976562 311.890625 19 C 313.1875 19.019531 314.414062 19.136719 315.550781 19.269531 C 314.933594 18.566406 314.183594 17.976562 313.277344 17.542969 C 310.6875 16.292969 308.164062 15.746094 305.753906 15.746094 M 250.324219 63.582031 C 243.757812 71.929688 237.621094 80.617188 232.054688 89.695312 C 225.121094 100.953125 218.871094 113.078125 219.167969 126.65625 C 219.304688 132.273438 223.734375 135.09375 228.097656 135.09375 C 229.394531 135.09375 230.667969 134.84375 231.828125 134.367188 C 232.210938 134.457031 232.597656 134.527344 232.984375 134.570312 C 231.371094 133.730469 229.710938 132.707031 228.03125 131.523438 C 228.03125 131.523438 218.714844 127.476562 222.441406 113.804688 C 224.214844 107.253906 234.917969 84.917969 250.324219 63.582031 " fill-opacity="1" fill-rule="nonzero"/><path fill="#b16f33" d="M 310.914062 18.976562 C 300.300781 18.976562 289.753906 23.957031 279.824219 31.667969 C 270.6875 40.039062 262.144531 49.070312 254.28125 58.667969 C 252.9375 60.28125 251.644531 61.921875 250.324219 63.582031 C 234.917969 84.917969 224.214844 107.253906 222.441406 113.804688 C 218.714844 127.476562 228.03125 131.523438 228.03125 131.523438 C 229.710938 132.707031 231.371094 133.730469 232.984375 134.570312 C 233.324219 134.617188 233.644531 134.640625 233.960938 134.640625 C 236.574219 134.640625 239.144531 133.34375 240.734375 130.25 C 259.824219 93.265625 284.847656 59.875 315.050781 31.257812 C 318.183594 28.277344 318.367188 22.570312 315.550781 19.269531 C 314.414062 19.136719 313.1875 19.019531 311.890625 19 C 311.550781 18.976562 311.230469 18.976562 310.914062 18.976562 " fill-opacity="1" fill-rule="nonzero"/><path fill="#cfdfe8" d="M 172.691406 149.992188 C 167.648438 149.992188 162.445312 152.425781 157.964844 154.316406 C 157.875 154.359375 157.761719 154.40625 157.648438 154.453125 C 163.535156 154.589844 169.511719 155.203125 175.535156 156.386719 C 177.625 156.792969 179.691406 157.226562 181.714844 157.660156 C 182.125 155.042969 180.648438 152.132812 177.648438 150.925781 C 176.035156 150.265625 174.375 149.992188 172.691406 149.992188 M 141.648438 155.089844 C 141.035156 155.089844 140.398438 155.179688 139.761719 155.382812 C 140.558594 155.292969 141.355469 155.203125 142.171875 155.113281 C 142.011719 155.089844 141.832031 155.089844 141.648438 155.089844 M 120.421875 157.179688 C 114.765625 157.179688 108.902344 161.027344 104.015625 164.757812 C 110.445312 162.230469 117.492188 159.910156 124.992188 158.113281 C 123.492188 157.476562 121.96875 157.179688 120.421875 157.179688 M 91.515625 170.214844 C 87.21875 171.921875 83.242188 174.035156 79.585938 176.492188 C 83.015625 174.535156 87.039062 172.375 91.515625 170.214844 M 71.605469 181.019531 C 70.652344 181.019531 69.652344 181.292969 68.628906 181.929688 C 56.472656 189.457031 48.949219 202.195312 47.496094 216.367188 C 46.652344 224.691406 48.0625 232.765625 51.015625 240.320312 C 45.652344 224.214844 48.8125 205.402344 65.902344 185.296875 C 65.902344 185.296875 68.109375 183.613281 72.105469 181.042969 C 71.925781 181.042969 71.765625 181.019531 71.605469 181.019531 M 113.492188 289.199219 C 115.515625 289.882812 117.558594 290.519531 119.671875 291.113281 C 119.808594 290.976562 119.96875 290.816406 120.105469 290.65625 C 117.902344 290.246094 115.695312 289.746094 113.492188 289.199219 " fill-opacity="1" fill-rule="nonzero"/><path fill="#a8c3d3" d="M 157.648438 154.453125 C 154.125 155.953125 150.695312 157.636719 147.351562 159.523438 C 146.71875 157.25 144.71875 155.339844 142.171875 155.113281 C 141.355469 155.203125 140.558594 155.292969 139.761719 155.382812 C 139.46875 155.5 139.171875 155.613281 138.875 155.75 C 135.421875 157.363281 132.105469 159.183594 128.945312 161.140625 C 128.671875 160.707031 128.332031 160.273438 127.878906 159.910156 C 126.945312 159.136719 125.96875 158.546875 124.992188 158.113281 C 117.492188 159.910156 110.445312 162.230469 104.015625 164.757812 C 102.675781 165.78125 101.425781 166.804688 100.265625 167.734375 C 99.515625 168.328125 98.765625 168.917969 98.039062 169.554688 C 97.378906 169.191406 96.628906 168.988281 95.8125 168.988281 C 95.21875 168.988281 94.605469 169.101562 93.96875 169.304688 C 93.128906 169.601562 92.3125 169.898438 91.515625 170.214844 C 87.039062 172.375 83.015625 174.535156 79.585938 176.492188 C 77.378906 177.996094 75.3125 179.609375 73.335938 181.339844 C 72.949219 181.203125 72.539062 181.085938 72.105469 181.042969 C 68.109375 183.613281 65.902344 185.296875 65.902344 185.296875 C 48.8125 205.402344 45.652344 224.214844 51.015625 240.320312 C 53.652344 247.074219 57.539062 253.375 62.128906 259.039062 C 63.222656 260.359375 64.539062 260.90625 65.878906 260.90625 C 67.175781 260.90625 68.472656 260.402344 69.539062 259.539062 C 70.628906 262.632812 71.855469 265.679688 73.199219 268.683594 C 75.652344 270.390625 78.335938 272.164062 81.265625 273.984375 C 82.3125 273.640625 83.289062 273.050781 84.039062 272.300781 C 84.675781 273.824219 85.378906 275.347656 86.105469 276.847656 C 89.355469 278.691406 92.832031 280.511719 96.515625 282.285156 C 96.855469 282.058594 97.175781 281.808594 97.46875 281.535156 C 97.582031 281.808594 97.675781 282.082031 97.789062 282.375 C 97.878906 282.605469 97.992188 282.808594 98.082031 283.035156 C 100.402344 284.105469 102.789062 285.128906 105.242188 286.128906 C 105.902344 285.949219 106.539062 285.652344 107.082031 285.265625 C 107.46875 285.949219 107.878906 286.628906 108.289062 287.335938 C 109.992188 287.972656 111.71875 288.585938 113.492188 289.199219 C 115.695312 289.746094 117.902344 290.246094 120.105469 290.65625 C 121.445312 289.0625 121.855469 286.789062 120.285156 284.492188 C 88.925781 238.042969 131.058594 177.289062 177.648438 162.164062 C 180.125 161.34375 181.441406 159.59375 181.714844 157.660156 C 179.691406 157.226562 177.625 156.792969 175.535156 156.386719 C 169.511719 155.203125 163.535156 154.589844 157.648438 154.453125 " fill-opacity="1" fill-rule="nonzero"/><path fill="#c5d4da" d="M 73.199219 268.683594 C 73.628906 269.640625 74.0625 270.570312 74.492188 271.503906 C 75.449219 273.484375 77.242188 274.324219 79.128906 274.324219 C 79.835938 274.324219 80.5625 274.210938 81.265625 273.984375 C 78.335938 272.164062 75.652344 270.390625 73.199219 268.683594 M 86.105469 276.847656 C 86.71875 278.101562 87.378906 279.375 88.0625 280.625 C 89.128906 282.558594 90.96875 283.398438 92.832031 283.398438 C 94.128906 283.398438 95.445312 282.992188 96.515625 282.285156 C 92.832031 280.511719 89.355469 278.691406 86.105469 276.847656 M 98.082031 283.035156 C 99.289062 285.332031 101.445312 286.355469 103.539062 286.355469 C 104.128906 286.355469 104.695312 286.289062 105.242188 286.128906 C 102.789062 285.128906 100.402344 284.105469 98.082031 283.035156 M 108.289062 287.335938 C 108.902344 288.335938 109.558594 289.359375 110.242188 290.359375 C 111.492188 292.226562 113.285156 293 115.058594 293 C 116.785156 293 118.492188 292.269531 119.671875 291.113281 C 117.558594 290.519531 115.515625 289.882812 113.492188 289.199219 C 111.71875 288.585938 109.992188 287.972656 108.289062 287.335938 " fill-opacity="1" fill-rule="nonzero"/><path fill="#2d85a8" d="M 216.371094 155.066406 C 214.167969 150.242188 211.78125 145.71875 212.03125 140.304688 C 212.214844 135.800781 213.167969 131.84375 214.621094 127.613281 C 217.578125 119.171875 220.597656 110.527344 224.871094 102.636719 C 227.554688 97.699219 220.007812 93.289062 217.328125 98.222656 C 212.484375 107.183594 209.03125 117.035156 205.738281 126.65625 C 204.101562 131.433594 203.351562 136.324219 203.257812 141.394531 C 203.125 147.925781 206.191406 153.679688 208.828125 159.457031 C 209.828125 161.617188 212.894531 162.117188 214.804688 161.027344 C 217.007812 159.773438 217.351562 157.179688 216.371094 155.066406 " fill-opacity="1" fill-rule="nonzero"/><path fill="#2d85a8" d="M 220.144531 167.597656 C 234.53125 167.554688 247.78125 163.277344 258.800781 153.929688 C 269.9375 144.535156 277.9375 131.773438 286.003906 119.832031 C 289.164062 115.148438 281.617188 110.78125 278.484375 115.417969 C 271.050781 126.382812 263.757812 137.914062 253.757812 146.785156 C 244.304688 155.179688 232.691406 158.820312 220.144531 158.863281 C 214.53125 158.886719 214.53125 167.621094 220.144531 167.597656 " fill-opacity="1" fill-rule="nonzero"/><path fill="#6cadbc" d="M 213.804688 288.019531 C 239.371094 264.042969 259.394531 234.792969 272.664062 202.355469 C 273.710938 199.738281 269.507812 198.625 268.460938 201.195312 C 255.484375 232.902344 235.691406 261.496094 210.714844 284.925781 C 208.667969 286.859375 211.757812 289.929688 213.804688 288.019531 " fill-opacity="1" fill-rule="nonzero"/><path fill="#6cadbc" d="M 115.921875 286.859375 C 89.652344 257.582031 72.628906 220.667969 67.539062 181.632812 C 67.199219 178.882812 62.8125 178.859375 63.175781 181.632812 C 68.425781 221.894531 85.71875 259.722656 112.855469 289.953125 C 114.71875 292.042969 117.808594 288.949219 115.921875 286.859375 " fill-opacity="1" fill-rule="nonzero"/><path fill="#6cadbc" d="M 164.738281 296.773438 C 132.035156 261.425781 109.652344 217.550781 100.152344 170.304688 C 99.605469 167.554688 95.402344 168.738281 95.945312 171.464844 C 105.605469 219.4375 128.445312 263.996094 161.671875 299.867188 C 163.578125 301.9375 166.648438 298.84375 164.738281 296.773438 " fill-opacity="1" fill-rule="nonzero"/><path fill="#6cadbc" d="M 203.625 292.636719 C 170.601562 253.988281 146.898438 208.132812 134.332031 158.886719 C 133.648438 156.15625 129.421875 157.296875 130.128906 160.046875 C 142.875 210.042969 167.035156 256.492188 200.53125 295.730469 C 202.375 297.867188 205.441406 294.773438 203.625 292.636719 " fill-opacity="1" fill-rule="nonzero"/><path fill="#6cadbc" d="M 238.257812 278.804688 C 209.304688 242.640625 187.03125 201.535156 172.511719 157.546875 C 171.625 154.882812 167.421875 156.023438 168.285156 158.707031 C 183.078125 203.449219 205.714844 245.117188 235.167969 281.898438 C 236.917969 284.082031 239.984375 280.964844 238.257812 278.804688 " fill-opacity="1" fill-rule="nonzero"/><path fill="#6cadbc" d="M 268.1875 255.921875 C 242.324219 227.535156 222.847656 193.847656 211.191406 157.25 C 210.351562 154.589844 206.144531 155.726562 206.988281 158.410156 C 218.871094 195.738281 238.710938 230.058594 265.097656 259.015625 C 267.007812 261.085938 270.074219 257.992188 268.1875 255.921875 " fill-opacity="1" fill-rule="nonzero"/><path fill="#6cadbc" d="M 50.539062 227.261719 C 86.015625 215.457031 116.71875 191.621094 136.898438 160.117188 C 138.421875 157.75 134.648438 155.542969 133.125 157.910156 C 113.582031 188.414062 83.765625 211.613281 49.382812 223.054688 C 46.722656 223.917969 47.859375 228.148438 50.539062 227.261719 " fill-opacity="1" fill-rule="nonzero"/><path fill="#6cadbc" d="M 64.175781 256.921875 C 109.652344 237.089844 148.511719 203.789062 175.238281 161.980469 C 176.761719 159.59375 172.988281 157.410156 171.464844 159.773438 C 145.125 200.992188 106.789062 233.609375 61.996094 253.148438 C 59.425781 254.261719 61.628906 258.039062 64.175781 256.921875 " fill-opacity="1" fill-rule="nonzero"/><path fill="#6cadbc" d="M 103.515625 284.515625 C 151.46875 259.242188 190.488281 218.621094 213.804688 169.667969 C 215.007812 167.144531 211.238281 164.914062 210.03125 167.464844 C 187.011719 215.796875 148.671875 255.785156 101.308594 280.738281 C 98.832031 282.058594 101.039062 285.835938 103.515625 284.515625 " fill-opacity="1" fill-rule="nonzero"/><path fill="#6cadbc" d="M 149.238281 293.339844 C 195.394531 270.320312 233.167969 232.039062 255.597656 185.570312 C 256.824219 183.042969 253.050781 180.835938 251.847656 183.363281 C 229.691406 229.242188 192.601562 266.839844 147.035156 289.566406 C 144.511719 290.816406 146.71875 294.589844 149.238281 293.339844 " fill-opacity="1" fill-rule="nonzero"/><path fill="#6cadbc" d="M 82.039062 284.582031 C 84.8125 308.125 96.605469 330.054688 114.992188 345.066406 C 117.152344 346.839844 120.265625 343.769531 118.082031 341.972656 C 100.652344 327.753906 89.039062 306.988281 86.402344 284.582031 C 86.0625 281.832031 81.699219 281.808594 82.039062 284.582031 " fill-opacity="1" fill-rule="nonzero"/><path fill="#6cadbc" d="M 114.378906 294.957031 C 117.652344 318.632812 128.695312 340.835938 145.511719 357.804688 C 147.488281 359.804688 150.582031 356.710938 148.582031 354.710938 C 132.261719 338.21875 121.765625 316.769531 118.605469 293.796875 C 118.21875 291.019531 114.015625 292.203125 114.378906 294.957031 " fill-opacity="1" fill-rule="nonzero"/><path fill="#6cadbc" d="M 148.851562 300.824219 C 152.058594 321.25 160.714844 340.46875 173.738281 356.507812 C 175.511719 358.691406 178.578125 355.574219 176.828125 353.414062 C 164.285156 337.96875 156.148438 319.316406 153.058594 299.664062 C 152.625 296.890625 148.421875 298.070312 148.851562 300.824219 " fill-opacity="1" fill-rule="nonzero"/><path fill="#6cadbc" d="M 212.601562 294.773438 C 216.78125 305.507812 223.417969 315.152344 232.097656 322.730469 C 234.210938 324.570312 237.304688 321.5 235.191406 319.65625 C 227.078125 312.582031 220.714844 303.644531 216.804688 293.613281 C 216.394531 292.523438 215.351562 291.75 214.121094 292.089844 C 213.078125 292.363281 212.167969 293.660156 212.601562 294.773438 " fill-opacity="1" fill-rule="nonzero"/><path fill="#6cadbc" d="M 75.605469 312.21875 C 88.628906 309.398438 100.628906 302.460938 109.539062 292.542969 C 111.421875 290.472656 108.332031 287.382812 106.445312 289.472656 C 97.992188 298.867188 86.789062 305.328125 74.449219 308.011719 C 71.699219 308.601562 72.855469 312.8125 75.605469 312.21875 " fill-opacity="1" fill-rule="nonzero"/><path fill="#6cadbc" d="M 99.058594 334.554688 C 117.742188 326.890625 134.605469 315.3125 148.332031 300.503906 C 150.238281 298.4375 147.171875 295.34375 145.261719 297.410156 C 132.058594 311.652344 115.878906 322.980469 97.902344 330.347656 C 95.332031 331.394531 96.46875 335.625 99.058594 334.554688 " fill-opacity="1" fill-rule="nonzero"/><path fill="#6cadbc" d="M 125.148438 351.660156 C 143.785156 342.269531 160.601562 329.484375 174.691406 314.085938 C 176.578125 311.992188 173.488281 308.898438 171.601562 310.992188 C 157.738281 326.164062 141.285156 338.652344 122.945312 347.886719 C 120.445312 349.160156 122.648438 352.9375 125.148438 351.660156 " fill-opacity="1" fill-rule="nonzero"/><path fill="#6cadbc" d="M 158.464844 358.964844 C 188.511719 343.085938 213.851562 319.132812 231.460938 290.085938 C 232.941406 287.675781 229.167969 285.46875 227.710938 287.882812 C 210.441406 316.3125 185.648438 339.652344 156.261719 355.1875 C 153.785156 356.507812 155.988281 360.28125 158.464844 358.964844 " fill-opacity="1" fill-rule="nonzero"/><g clip-path="url(#42d2533e94)"><path fill="#000000" d="M 263.097656 245.390625 C 255.097656 259.152344 240.710938 268.273438 226.484375 274.621094 C 190.738281 290.589844 147.988281 291.382812 110.992188 279.375 C 93.265625 273.640625 75.015625 264.269531 63.925781 248.734375 C 52.882812 233.246094 51.335938 214.570312 62.515625 198.828125 C 84.242188 171.785156 124.308594 164.1875 157.101562 163.550781 C 191.03125 162.914062 233.734375 171.101562 257.300781 197.921875 C 269.121094 211.339844 272.234375 229.605469 263.097656 245.390625 Z M 202.488281 336.101562 C 201.417969 334.328125 200.601562 332.371094 200.007812 330.324219 C 200.441406 330.03125 200.875 329.757812 201.28125 329.414062 C 206.488281 325.09375 208.871094 317.703125 208.078125 311.082031 C 207.601562 307.148438 206.304688 303.484375 204.351562 300.1875 C 209.078125 299.074219 213.757812 297.820312 218.328125 296.320312 C 229.710938 292.613281 241.667969 287.0625 252.324219 279.851562 C 241.324219 303.074219 224.691406 324.023438 202.488281 336.101562 Z M 189.964844 302.960938 C 190.03125 303.03125 190.148438 303.097656 190.238281 303.191406 L 191.601562 304.644531 L 192.144531 305.304688 C 192.144531 305.328125 192.125 305.304688 192.167969 305.351562 C 192.804688 306.417969 193.488281 307.421875 194.054688 308.511719 C 194.054688 308.535156 194.101562 308.601562 194.125 308.695312 C 194.214844 308.898438 194.351562 309.21875 194.375 309.308594 C 194.601562 309.921875 194.78125 310.558594 194.917969 311.195312 L 195.078125 311.925781 C 195.078125 312.46875 195.144531 313.015625 195.125 313.5625 C 195.125 313.902344 195.054688 314.632812 195.078125 314.746094 C 194.988281 315.222656 194.894531 315.699219 194.761719 316.175781 C 194.667969 316.519531 194.28125 317.40625 194.328125 317.335938 L 193.78125 318.339844 C 193.78125 318.359375 193.738281 318.429688 193.691406 318.496094 C 193.578125 318.632812 193.394531 318.863281 193.328125 318.929688 C 193.078125 319.203125 192.511719 319.65625 192.53125 319.679688 C 192.167969 319.929688 191.78125 320.179688 191.398438 320.386719 L 191.101562 320.523438 C 191.078125 320.546875 191.101562 320.523438 191.078125 320.546875 L 189.625 320.910156 L 188.804688 320.929688 C 188.691406 320.929688 188.488281 320.910156 188.328125 320.886719 C 188.304688 320.886719 188.28125 320.886719 188.28125 320.886719 C 187.667969 320.679688 187.011719 320.316406 187.941406 320.863281 L 186.988281 320.339844 C 186.964844 320.316406 186.851562 320.25 186.761719 320.179688 C 186.691406 320.136719 186.625 320.066406 186.601562 320.042969 L 185.828125 319.292969 C 185.761719 319.203125 185.625 319.042969 185.53125 318.953125 L 185.351562 318.65625 L 184.488281 317.246094 C 184.167969 316.679688 183.898438 316.085938 183.625 315.496094 C 184.167969 316.679688 183.488281 315.039062 183.328125 314.632812 C 182.398438 311.925781 181.738281 309.148438 180.761719 306.464844 C 180.464844 305.691406 180.167969 304.941406 179.828125 304.191406 C 183.214844 303.871094 186.601562 303.460938 189.964844 302.960938 Z M 77.949219 303.964844 C 70.402344 294.363281 65.472656 283.742188 62.359375 272.460938 C 68.902344 278.214844 76.222656 283.105469 84.015625 287.0625 C 108.605469 299.527344 136.832031 305.394531 164.828125 305.007812 C 164.921875 305.078125 165.011719 305.144531 165.101562 305.214844 C 165.351562 305.488281 165.828125 305.941406 165.941406 306.054688 C 166.035156 306.148438 166.058594 306.167969 166.101562 306.238281 L 166.691406 307.078125 C 167.011719 307.601562 167.328125 308.125 167.601562 308.695312 L 167.941406 309.46875 C 168.011719 309.625 168.101562 309.878906 168.125 309.945312 C 168.648438 311.558594 169.171875 313.152344 169.671875 314.789062 C 171.625 321.363281 174.464844 328.414062 180.851562 331.917969 C 185.691406 334.578125 191.238281 334.511719 196.101562 332.507812 C 196.761719 334.464844 197.554688 336.355469 198.601562 338.128906 C 194.488281 340.105469 190.261719 341.835938 185.78125 343.175781 C 145.535156 355.324219 103.039062 335.875 77.949219 303.964844 Z M 33.496094 218.027344 C 32.359375 218.003906 31.199219 218.027344 30.0625 218.003906 C 29.429688 218.003906 28.8125 217.980469 28.179688 217.9375 L 27.359375 217.890625 L 25.835938 217.527344 L 25.335938 217.367188 C 25.335938 217.34375 25.335938 217.367188 25.3125 217.34375 L 24.722656 217.003906 L 24.542969 216.820312 C 24.585938 216.84375 24.585938 216.890625 24.609375 216.914062 L 24.585938 216.914062 L 24.496094 216.777344 C 23.949219 216.300781 24.222656 216.457031 24.472656 216.730469 L 24.179688 216.230469 C 24.179688 216.300781 24.199219 216.367188 24.199219 216.433594 L 24.085938 216.070312 L 23.972656 215.890625 C 23.792969 215.570312 23.859375 215.527344 23.949219 215.617188 C 23.929688 215.503906 23.90625 215.390625 23.859375 215.207031 C 23.859375 214.84375 23.8125 214.296875 23.8125 214.136719 L 23.835938 213.820312 L 24.109375 212.726562 C 24.132812 212.660156 24.132812 212.636719 24.132812 212.589844 L 24.792969 211.523438 L 25.269531 211.023438 L 25.65625 210.65625 L 26.792969 209.953125 L 26.90625 209.882812 C 26.8125 209.90625 26.835938 209.839844 27.335938 209.65625 L 27.359375 209.65625 L 27.542969 209.566406 C 27.519531 209.589844 27.472656 209.613281 27.449219 209.632812 L 28.769531 209.226562 L 30.019531 208.976562 L 30.835938 208.929688 C 31.40625 208.90625 31.972656 208.929688 32.542969 208.953125 L 32.90625 208.996094 L 33.15625 209.042969 C 33.859375 209.179688 34.5625 209.363281 35.269531 209.566406 L 36.175781 209.882812 C 36.292969 209.90625 36.675781 210.066406 36.90625 210.179688 C 36.972656 210.203125 37.042969 210.226562 37.085938 210.25 L 38.15625 210.792969 C 38.246094 210.863281 38.335938 210.929688 38.425781 210.976562 C 37.925781 213.386719 37.632812 215.820312 37.449219 218.300781 C 36.132812 218.140625 34.792969 218.027344 33.496094 218.027344 Z M 24.996094 217.253906 C 24.996094 217.253906 25.019531 217.253906 25.019531 217.253906 C 25.179688 217.4375 25.222656 217.480469 24.996094 217.253906 Z M 24.882812 217.140625 C 24.90625 217.1875 24.949219 217.207031 24.996094 217.253906 C 24.949219 217.207031 24.972656 217.230469 24.90625 217.1875 Z M 24.585938 216.914062 C 24.585938 216.914062 24.609375 216.914062 24.609375 216.914062 C 24.65625 217.003906 24.699219 217.074219 24.722656 217.140625 Z M 30.429688 208.882812 C 30.40625 208.929688 30.246094 208.929688 30.085938 208.953125 Z M 29.769531 208.976562 C 29.542969 208.996094 29.519531 208.996094 29.769531 208.976562 Z M 181.238281 147.21875 C 155.964844 144.375 129.445312 146.558594 105.015625 153.609375 C 84.152344 159.660156 62.925781 169.898438 49.359375 187.457031 C 49.039062 187.867188 48.769531 188.296875 48.496094 188.730469 C 48.222656 189.027344 47.925781 189.320312 47.675781 189.664062 C 45.632812 192.460938 44.019531 195.441406 42.585938 198.464844 C 40.539062 197.511719 38.425781 196.714844 36.175781 196.328125 C 29.292969 195.121094 22.429688 196.441406 16.949219 200.921875 C 11.792969 205.152344 9.882812 212.089844 11.179688 218.484375 C 11.769531 221.394531 13.429688 224.464844 15.65625 226.445312 C 18.722656 229.171875 22.316406 230.378906 26.335938 230.878906 C 29.335938 231.242188 32.382812 230.992188 35.40625 231.199219 L 36.15625 231.265625 C 36.175781 231.265625 36.175781 231.265625 36.175781 231.265625 C 36.859375 231.425781 37.519531 231.605469 38.175781 231.789062 C 38.90625 236.019531 40.039062 240.207031 41.722656 244.277344 C 42.859375 247.074219 44.222656 249.714844 45.675781 252.285156 C 47.3125 271.230469 52.109375 289.519531 62.925781 305.488281 C 75.175781 323.546875 92.355469 339.015625 112.082031 348.410156 C 155.148438 368.878906 204.507812 360.441406 237.324219 325.457031 C 254.347656 307.308594 266.621094 283.945312 273.914062 260.0625 C 284.324219 246.527344 289.390625 229.96875 283.984375 210.792969 C 272.050781 168.507812 219.917969 151.5625 181.238281 147.21875 " fill-opacity="1" fill-rule="nonzero"/></g><path fill="#000000" d="M 27.449219 209.632812 L 27.359375 209.65625 L 26.90625 209.882812 C 27.019531 209.882812 27.269531 209.769531 27.449219 209.632812 " fill-opacity="1" fill-rule="nonzero"/><path fill="#000000" d="M 24.496094 216.777344 C 24.519531 216.777344 24.496094 216.777344 24.519531 216.800781 L 24.542969 216.820312 C 24.519531 216.800781 24.496094 216.777344 24.472656 216.730469 L 24.496094 216.777344 " fill-opacity="1" fill-rule="nonzero"/><path fill="#000000" d="M 23.949219 215.617188 C 23.949219 215.664062 23.972656 215.707031 23.972656 215.730469 L 24.085938 216.070312 L 24.179688 216.230469 C 24.15625 215.933594 24.042969 215.707031 23.949219 215.617188 " fill-opacity="1" fill-rule="nonzero"/><path fill="#000000" d="M 259.121094 124.882812 C 253.324219 129.386719 243.6875 128.839844 237.191406 126.246094 C 237.144531 126.246094 237.097656 126.246094 237.054688 126.222656 C 234.667969 125.222656 232.078125 123.972656 230.804688 121.925781 C 228.917969 118.878906 230.257812 114.625 231.371094 111.53125 C 234.734375 102.203125 240.460938 93.21875 245.621094 84.804688 C 256.007812 67.855469 268.1875 49.707031 283.734375 37.058594 C 290.890625 31.234375 300.457031 26.460938 309.9375 27.9375 C 313.320312 28.460938 316.890625 30.074219 319.027344 32.894531 C 321.503906 36.148438 320.230469 38.832031 318.230469 41.996094 C 305.867188 61.285156 292.074219 79.777344 279.027344 98.609375 C 273.097656 107.183594 267.507812 118.398438 259.121094 124.882812 Z M 313.59375 79.296875 C 317.480469 73.679688 321.390625 68.039062 325.277344 62.421875 C 329.320312 56.597656 334.34375 50.730469 336.683594 43.949219 C 340.820312 32.144531 333.980469 20.226562 323.59375 14.425781 C 312.140625 7.988281 298.09375 9.742188 286.574219 14.902344 C 274.574219 20.273438 265.074219 29.871094 256.710938 39.789062 C 247.984375 50.136719 239.917969 61.101562 232.691406 72.542969 C 225.304688 84.257812 215.894531 97.996094 213.214844 111.78125 C 210.394531 126.085938 217.53125 136.710938 230.460938 142.214844 C 230.757812 142.351562 231.078125 142.441406 231.394531 142.554688 C 231.757812 142.738281 232.144531 142.941406 232.53125 143.101562 C 241.9375 146.832031 254.53125 146.46875 263.734375 142.375 C 274.597656 137.527344 281.117188 126.179688 287.597656 116.808594 C 296.277344 104.320312 304.9375 91.808594 313.59375 79.296875 " fill-opacity="1" fill-rule="nonzero"/></svg>