<svg xmlns="http://www.w3.org/2000/svg" xmlns:xlink="http://www.w3.org/1999/xlink" width="500" zoomAndPan="magnify" viewBox="0 0 375 374.999991" height="500" preserveAspectRatio="xMidYMid meet" version="1.0"><defs><clipPath id="e8e3c8756f"><path d="M 165.15625 179.359375 L 187.5 179.359375 L 187.5 211.21875 L 165.15625 211.21875 Z M 165.15625 179.359375 " clip-rule="nonzero"/></clipPath><clipPath id="6c6d48862c"><path d="M 176.328125 179.359375 C 182.5 179.359375 187.5 184.363281 187.5 190.53125 L 187.5 200.027344 C 187.5 206.199219 182.5 211.199219 176.328125 211.199219 C 170.15625 211.199219 165.15625 206.199219 165.15625 200.027344 L 165.15625 190.53125 C 165.15625 184.363281 170.15625 179.359375 176.328125 179.359375 Z M 176.328125 179.359375 " clip-rule="nonzero"/></clipPath><clipPath id="ac83da8a31"><path d="M 13.070312 48 L 355 48 L 355 342 L 13.070312 342 Z M 13.070312 48 " clip-rule="nonzero"/></clipPath><clipPath id="2292440e6c"><path d="M 13.070312 38 L 336 38 L 336 285 L 13.070312 285 Z M 13.070312 38 " clip-rule="nonzero"/></clipPath><clipPath id="8ca5903ae4"><path d="M 13.070312 108 L 66 108 L 66 157 L 13.070312 157 Z M 13.070312 108 " clip-rule="nonzero"/></clipPath><clipPath id="0b84e290c1"><path d="M 188 15.90625 L 241 15.90625 L 241 66 L 188 66 Z M 188 15.90625 " clip-rule="nonzero"/></clipPath></defs><g clip-path="url(#e8e3c8756f)"><g clip-path="url(#6c6d48862c)"><path fill="#aeb7c6" d="M 165.15625 179.359375 L 187.5 179.359375 L 187.5 211.21875 L 165.15625 211.21875 Z M 165.15625 179.359375 " fill-opacity="1" fill-rule="nonzero"/></g></g><g clip-path="url(#ac83da8a31)"><path fill="#fab43e" d="M 352.871094 131.820312 C 346.902344 96.105469 324.351562 61.863281 288.121094 51.710938 C 266.367188 45.617188 241.90625 49.117188 223.476562 62.472656 C 203.304688 77.085938 196.90625 102.941406 178.511719 119.210938 C 166.847656 129.527344 148.828125 136.222656 132.089844 140.457031 C 106.3125 145.644531 78.820312 142.992188 53.632812 151.105469 C 22.136719 161.25 14.082031 198.304688 13.554688 227.46875 C 13.070312 254.367188 19.347656 282.863281 34.011719 305.65625 C 51.957031 333.558594 81.730469 344.925781 114.339844 340.488281 C 137.742188 337.304688 159.441406 327.457031 179.488281 315.296875 C 193.742188 306.652344 206.976562 296.484375 222.050781 289.238281 C 242.242188 279.53125 263.417969 276.757812 284.691406 270.757812 C 342.859375 254.351562 361.820312 185.34375 352.871094 131.820312 " fill-opacity="1" fill-rule="nonzero"/></g><path fill="#f89e30" d="M 352.871094 131.820312 C 350.304688 116.480469 344.675781 101.417969 336.222656 88.414062 C 340.757812 98.066406 343.945312 108.414062 345.699219 118.894531 C 354.648438 172.417969 335.683594 241.425781 277.519531 257.828125 C 256.246094 263.828125 235.074219 266.601562 214.878906 276.3125 C 199.800781 283.558594 186.566406 293.726562 172.316406 302.371094 C 152.269531 314.53125 130.570312 324.375 107.164062 327.5625 C 74.605469 331.992188 44.871094 320.660156 26.917969 292.847656 C 29.019531 297.273438 31.375 301.558594 34.011719 305.65625 C 51.957031 333.558594 81.730469 344.925781 114.339844 340.488281 C 137.742188 337.304688 159.441406 327.457031 179.488281 315.296875 C 193.742188 306.652344 206.976562 296.484375 222.050781 289.238281 C 242.242188 279.53125 263.417969 276.753906 284.691406 270.757812 C 342.859375 254.351562 361.820312 185.34375 352.871094 131.820312 " fill-opacity="1" fill-rule="nonzero"/><g clip-path="url(#2292440e6c)"><path fill="#f5da42" d="M 333.710938 108.085938 C 328.074219 77.949219 306.800781 49.050781 272.613281 40.480469 C 252.089844 35.339844 229.011719 38.289062 211.621094 49.5625 C 192.585938 61.894531 186.550781 83.714844 169.195312 97.449219 C 158.191406 106.152344 141.1875 111.804688 125.394531 115.375 C 101.074219 119.75 75.132812 117.515625 51.367188 124.359375 C 21.652344 132.925781 14.050781 164.195312 13.554688 188.808594 C 13.09375 211.511719 19.019531 235.554688 32.855469 254.792969 C 49.785156 278.339844 77.878906 287.933594 108.644531 284.1875 C 130.726562 281.5 151.203125 273.191406 170.117188 262.929688 C 183.5625 255.632812 196.050781 247.054688 210.273438 240.9375 C 229.328125 232.742188 249.308594 230.402344 269.378906 225.339844 C 324.261719 211.496094 342.152344 153.257812 333.710938 108.085938 " fill-opacity="1" fill-rule="nonzero"/></g><path fill="#f89e30" d="M 300.96875 180.132812 C 300.96875 186.179688 293.183594 191.082031 283.574219 191.082031 C 273.96875 191.082031 266.183594 186.179688 266.183594 180.132812 C 266.183594 174.082031 273.96875 169.179688 283.574219 169.179688 C 293.183594 169.179688 300.96875 174.082031 300.96875 180.132812 " fill-opacity="1" fill-rule="nonzero"/><path fill="#f3922a" d="M 283.574219 169.179688 C 280.261719 169.179688 277.171875 169.773438 274.539062 170.789062 C 275.507812 170.683594 276.496094 170.617188 277.511719 170.617188 C 287.117188 170.617188 294.90625 175.519531 294.90625 181.566406 C 294.90625 185.527344 291.554688 188.988281 286.550781 190.910156 C 294.734375 190.019531 300.96875 185.539062 300.96875 180.132812 C 300.96875 174.082031 293.183594 169.179688 283.574219 169.179688 " fill-opacity="1" fill-rule="nonzero"/><path fill="#f89e30" d="M 251.863281 72.316406 C 251.863281 76.46875 246.519531 79.835938 239.925781 79.835938 C 233.332031 79.835938 227.988281 76.46875 227.988281 72.316406 C 227.988281 68.164062 233.332031 64.800781 239.925781 64.800781 C 246.519531 64.800781 251.863281 68.164062 251.863281 72.316406 " fill-opacity="1" fill-rule="nonzero"/><path fill="#f89e30" d="M 300.96875 107.359375 C 300.96875 110.382812 297.074219 112.835938 292.273438 112.835938 C 287.46875 112.835938 283.574219 110.382812 283.574219 107.359375 C 283.574219 104.335938 287.46875 101.882812 292.273438 101.882812 C 297.074219 101.882812 300.96875 104.335938 300.96875 107.359375 " fill-opacity="1" fill-rule="nonzero"/><path fill="#f89e30" d="M 230.9375 200.023438 C 230.9375 203.046875 227.042969 205.496094 222.238281 205.496094 C 217.4375 205.496094 213.542969 203.046875 213.542969 200.023438 C 213.542969 196.996094 217.4375 194.542969 222.238281 194.542969 C 227.042969 194.542969 230.9375 196.996094 230.9375 200.023438 " fill-opacity="1" fill-rule="nonzero"/><path fill="#f3922a" d="M 217.398438 200.863281 C 217.398438 197.839844 221.292969 195.386719 226.09375 195.386719 C 226.378906 195.386719 226.652344 195.398438 226.925781 195.414062 C 225.574219 194.867188 223.96875 194.542969 222.238281 194.542969 C 217.4375 194.542969 213.542969 196.996094 213.542969 200.023438 C 213.542969 202.871094 216.996094 205.207031 221.40625 205.46875 C 219 204.496094 217.398438 202.800781 217.398438 200.863281 " fill-opacity="1" fill-rule="nonzero"/><path fill="#f89e30" d="M 47.65625 282.824219 C 47.65625 286.695312 44.523438 289.828125 40.660156 289.828125 C 36.796875 289.828125 33.667969 286.695312 33.667969 282.824219 C 33.667969 278.960938 36.796875 275.824219 40.660156 275.824219 C 44.523438 275.824219 47.65625 278.960938 47.65625 282.824219 " fill-opacity="1" fill-rule="nonzero"/><path fill="#f79025" d="M 36.714844 284.972656 C 36.714844 281.109375 39.847656 277.972656 43.707031 277.972656 C 44.539062 277.972656 45.332031 278.125 46.070312 278.390625 C 44.789062 276.824219 42.839844 275.824219 40.660156 275.824219 C 36.796875 275.824219 33.667969 278.960938 33.667969 282.824219 C 33.667969 285.863281 35.601562 288.4375 38.300781 289.410156 C 37.308594 288.203125 36.714844 286.660156 36.714844 284.972656 " fill-opacity="1" fill-rule="nonzero"/><path fill="#f89e30" d="M 149.625 290.480469 C 149.625 293.519531 147.164062 295.984375 144.125 295.984375 C 141.089844 295.984375 138.628906 293.519531 138.628906 290.480469 C 138.628906 287.4375 141.089844 284.972656 144.125 284.972656 C 147.164062 284.972656 149.625 287.4375 149.625 290.480469 " fill-opacity="1" fill-rule="nonzero"/><path fill="#f79025" d="M 144.125 284.972656 C 143.125 284.972656 142.1875 285.246094 141.378906 285.714844 C 141.535156 285.703125 141.695312 285.691406 141.855469 285.691406 C 144.890625 285.691406 147.355469 288.15625 147.355469 291.199219 C 147.355469 293.234375 146.246094 295.007812 144.605469 295.960938 C 147.417969 295.71875 149.625 293.359375 149.625 290.480469 C 149.625 287.4375 147.164062 284.972656 144.125 284.972656 " fill-opacity="1" fill-rule="nonzero"/><path fill="#f89e30" d="M 282.5 246.320312 C 282.5 247.90625 281.214844 249.191406 279.632812 249.191406 C 278.046875 249.191406 276.761719 247.90625 276.761719 246.320312 C 276.761719 244.734375 278.046875 243.449219 279.632812 243.449219 C 281.214844 243.449219 282.5 244.734375 282.5 246.320312 " fill-opacity="1" fill-rule="nonzero"/><path fill="#f79025" d="M 279.632812 243.449219 C 278.671875 243.449219 277.828125 243.921875 277.304688 244.644531 C 277.5 244.605469 277.695312 244.585938 277.894531 244.585938 C 279.484375 244.585938 280.765625 245.871094 280.765625 247.457031 C 280.765625 248.085938 280.5625 248.660156 280.222656 249.128906 C 281.523438 248.859375 282.5 247.703125 282.5 246.320312 C 282.5 244.734375 281.214844 243.449219 279.632812 243.449219 " fill-opacity="1" fill-rule="nonzero"/><path fill="#f89e30" d="M 132.050781 310.960938 C 132.050781 313.371094 130.101562 315.324219 127.695312 315.324219 C 125.289062 315.324219 123.339844 313.371094 123.339844 310.960938 C 123.339844 308.550781 125.289062 306.597656 127.695312 306.597656 C 130.101562 306.597656 132.050781 308.550781 132.050781 310.960938 " fill-opacity="1" fill-rule="nonzero"/><path fill="#f79025" d="M 125.609375 311.738281 C 125.609375 309.332031 127.5625 307.378906 129.96875 307.378906 L 130.199219 307.402344 C 129.492188 306.898438 128.628906 306.597656 127.695312 306.597656 C 125.289062 306.597656 123.339844 308.550781 123.339844 310.960938 C 123.339844 313.292969 125.167969 315.175781 127.464844 315.300781 C 126.347656 314.507812 125.609375 313.210938 125.609375 311.738281 " fill-opacity="1" fill-rule="nonzero"/><path fill="#f89e30" d="M 91.425781 309.800781 C 91.425781 314.34375 87.746094 318.023438 83.210938 318.023438 C 78.675781 318.023438 75 314.34375 75 309.800781 C 75 305.261719 78.675781 301.582031 83.210938 301.582031 C 87.746094 301.582031 91.425781 305.261719 91.425781 309.800781 " fill-opacity="1" fill-rule="nonzero"/><path fill="#f79025" d="M 83.210938 301.582031 C 80.34375 301.582031 77.824219 303.054688 76.355469 305.285156 C 77.589844 304.539062 79.035156 304.101562 80.582031 304.101562 C 85.117188 304.101562 88.792969 307.78125 88.792969 312.324219 C 88.792969 313.992188 88.292969 315.542969 87.4375 316.839844 C 89.824219 315.402344 91.421875 312.792969 91.421875 309.800781 C 91.421875 305.261719 87.746094 301.582031 83.210938 301.582031 " fill-opacity="1" fill-rule="nonzero"/><path fill="#f89e30" d="M 331.355469 200.433594 C 331.355469 202.574219 329.621094 204.308594 327.484375 204.308594 C 325.347656 204.308594 323.613281 202.574219 323.613281 200.433594 C 323.613281 198.292969 325.347656 196.558594 327.484375 196.558594 C 329.621094 196.558594 331.355469 198.292969 331.355469 200.433594 " fill-opacity="1" fill-rule="nonzero"/><path fill="#f79025" d="M 327.484375 196.558594 C 325.867188 196.558594 324.484375 197.554688 323.90625 198.96875 C 324.554688 198.476562 325.355469 198.175781 326.230469 198.175781 C 328.367188 198.175781 330.101562 199.90625 330.101562 202.050781 C 330.101562 202.566406 329.996094 203.0625 329.8125 203.515625 C 330.746094 202.808594 331.355469 201.695312 331.355469 200.433594 C 331.355469 198.292969 329.621094 196.558594 327.484375 196.558594 " fill-opacity="1" fill-rule="nonzero"/><path fill="#f89e30" d="M 266.425781 238.070312 C 266.425781 240.914062 264.125 243.21875 261.285156 243.21875 C 258.445312 243.21875 256.148438 240.914062 256.148438 238.070312 C 256.148438 235.230469 258.445312 232.925781 261.285156 232.925781 C 264.125 232.925781 266.425781 235.230469 266.425781 238.070312 " fill-opacity="1" fill-rule="nonzero"/><path fill="#f79025" d="M 259.253906 238.523438 C 259.253906 235.976562 261.109375 233.875 263.539062 233.464844 C 262.855469 233.128906 262.097656 232.925781 261.285156 232.925781 C 258.445312 232.925781 256.144531 235.230469 256.144531 238.070312 C 256.144531 240.914062 258.445312 243.21875 261.285156 243.21875 C 261.578125 243.21875 261.863281 243.179688 262.144531 243.132812 C 260.4375 242.292969 259.253906 240.554688 259.253906 238.523438 " fill-opacity="1" fill-rule="nonzero"/><path fill="#f89e30" d="M 215.992188 260.539062 C 215.992188 265.730469 211.789062 269.9375 206.605469 269.9375 C 201.417969 269.9375 197.214844 265.730469 197.214844 260.539062 C 197.214844 255.347656 201.417969 251.140625 206.605469 251.140625 C 211.789062 251.140625 215.992188 255.347656 215.992188 260.539062 " fill-opacity="1" fill-rule="nonzero"/><path fill="#f79025" d="M 206.605469 251.140625 C 203.03125 251.140625 199.925781 253.136719 198.335938 256.082031 C 199.8125 255.113281 201.570312 254.550781 203.464844 254.550781 C 208.652344 254.550781 212.855469 258.757812 212.855469 263.949219 C 212.855469 265.5625 212.445312 267.078125 211.734375 268.40625 C 214.296875 266.726562 215.992188 263.832031 215.992188 260.539062 C 215.992188 255.347656 211.789062 251.140625 206.605469 251.140625 " fill-opacity="1" fill-rule="nonzero"/><path fill="#f89e30" d="M 263.625 141.132812 C 263.625 145.210938 258.378906 148.515625 251.902344 148.515625 C 245.429688 148.515625 240.183594 145.210938 240.183594 141.132812 C 240.183594 137.058594 245.429688 133.753906 251.902344 133.753906 C 258.378906 133.753906 263.625 137.058594 263.625 141.132812 " fill-opacity="1" fill-rule="nonzero"/><path fill="#f3922a" d="M 251.902344 133.753906 C 249.667969 133.753906 247.589844 134.152344 245.8125 134.839844 C 246.464844 134.765625 247.132812 134.722656 247.816406 134.722656 C 254.292969 134.722656 259.539062 138.027344 259.539062 142.105469 C 259.539062 144.773438 257.28125 147.105469 253.910156 148.398438 C 259.425781 147.800781 263.625 144.78125 263.625 141.132812 C 263.625 137.058594 258.378906 133.753906 251.902344 133.753906 " fill-opacity="1" fill-rule="nonzero"/><path fill="#f89e30" d="M 219.027344 107.359375 C 219.027344 113.402344 211.242188 118.304688 201.640625 118.304688 C 192.039062 118.304688 184.253906 113.402344 184.253906 107.359375 C 184.253906 101.3125 192.039062 96.410156 201.640625 96.410156 C 211.242188 96.410156 219.027344 101.3125 219.027344 107.359375 " fill-opacity="1" fill-rule="nonzero"/><path fill="#f3922a" d="M 201.640625 96.410156 C 198.328125 96.410156 195.242188 97.007812 192.605469 98.019531 C 193.574219 97.914062 194.5625 97.847656 195.578125 97.847656 C 205.183594 97.847656 212.964844 102.75 212.964844 108.792969 C 212.964844 112.753906 209.617188 116.210938 204.613281 118.132812 C 212.796875 117.246094 219.027344 112.765625 219.027344 107.359375 C 219.027344 101.3125 211.242188 96.410156 201.640625 96.410156 " fill-opacity="1" fill-rule="nonzero"/><path fill="#f89e30" d="M 167.28125 164.691406 C 167.28125 168.714844 172.460938 171.976562 178.851562 171.976562 C 185.242188 171.976562 190.421875 168.714844 190.421875 164.691406 C 190.421875 160.667969 185.242188 157.40625 178.851562 157.40625 C 172.460938 157.40625 167.28125 160.667969 167.28125 164.691406 " fill-opacity="1" fill-rule="nonzero"/><path fill="#f3922a" d="M 178.851562 157.40625 C 181.054688 157.40625 183.109375 157.804688 184.863281 158.476562 C 184.21875 158.40625 183.558594 158.363281 182.882812 158.363281 C 176.496094 158.363281 171.316406 161.625 171.316406 165.648438 C 171.316406 168.28125 173.542969 170.582031 176.871094 171.859375 C 171.429688 171.269531 167.28125 168.289062 167.28125 164.691406 C 167.28125 160.667969 172.460938 157.40625 178.851562 157.40625 " fill-opacity="1" fill-rule="nonzero"/><path fill="#f89e30" d="M 138.898438 218.28125 C 138.898438 221.308594 135.003906 223.757812 130.199219 223.757812 C 125.398438 223.757812 121.503906 221.308594 121.503906 218.28125 C 121.503906 215.257812 125.398438 212.804688 130.199219 212.804688 C 135.003906 212.804688 138.898438 215.257812 138.898438 218.28125 " fill-opacity="1" fill-rule="nonzero"/><path fill="#f3922a" d="M 125.359375 219.125 C 125.359375 216.097656 129.253906 213.648438 134.054688 213.648438 C 134.335938 213.648438 134.613281 213.660156 134.890625 213.675781 C 133.535156 213.128906 131.929688 212.804688 130.199219 212.804688 C 125.398438 212.804688 121.503906 215.257812 121.503906 218.28125 C 121.503906 221.128906 124.957031 223.46875 129.367188 223.730469 C 126.957031 222.757812 125.359375 221.0625 125.359375 219.125 " fill-opacity="1" fill-rule="nonzero"/><path fill="#f89e30" d="M 127.929688 147.117188 C 127.929688 151.273438 122.582031 154.636719 115.988281 154.636719 C 109.394531 154.636719 104.050781 151.273438 104.050781 147.117188 C 104.050781 142.96875 109.394531 139.601562 115.988281 139.601562 C 122.582031 139.601562 127.929688 142.96875 127.929688 147.117188 " fill-opacity="1" fill-rule="nonzero"/><path fill="#f3922a" d="M 109.34375 148.273438 C 109.34375 144.125 114.6875 140.757812 121.28125 140.757812 C 121.667969 140.757812 122.050781 140.773438 122.425781 140.796875 C 120.566406 140.042969 118.359375 139.601562 115.988281 139.601562 C 109.394531 139.601562 104.050781 142.96875 104.050781 147.117188 C 104.050781 151.027344 108.789062 154.238281 114.847656 154.601562 C 111.539062 153.265625 109.34375 150.933594 109.34375 148.273438 " fill-opacity="1" fill-rule="nonzero"/><path fill="#f89e30" d="M 72.121094 195.886719 C 72.121094 198.910156 76.019531 201.367188 80.828125 201.367188 C 85.636719 201.367188 89.539062 198.910156 89.539062 195.886719 C 89.539062 192.855469 85.636719 190.402344 80.828125 190.402344 C 76.019531 190.402344 72.121094 192.855469 72.121094 195.886719 " fill-opacity="1" fill-rule="nonzero"/><path fill="#f3922a" d="M 85.675781 196.726562 C 85.675781 193.699219 81.777344 191.242188 76.96875 191.242188 C 76.6875 191.242188 76.410156 191.253906 76.136719 191.273438 C 77.492188 190.722656 79.097656 190.402344 80.828125 190.402344 C 85.636719 190.402344 89.539062 192.855469 89.539062 195.886719 C 89.539062 198.734375 86.082031 201.074219 81.664062 201.339844 C 84.074219 200.363281 85.675781 198.667969 85.675781 196.726562 " fill-opacity="1" fill-rule="nonzero"/><path fill="#f89e30" d="M 35.769531 158.226562 C 35.769531 164.023438 43.230469 168.71875 52.4375 168.71875 C 61.640625 168.71875 69.101562 164.023438 69.101562 158.226562 C 69.101562 152.433594 61.640625 147.734375 52.4375 147.734375 C 43.230469 147.734375 35.769531 152.433594 35.769531 158.226562 " fill-opacity="1" fill-rule="nonzero"/><path fill="#f3922a" d="M 61.714844 159.839844 C 61.714844 154.042969 54.253906 149.347656 45.046875 149.347656 C 44.511719 149.347656 43.976562 149.367188 43.449219 149.398438 C 46.046875 148.347656 49.125 147.734375 52.4375 147.734375 C 61.640625 147.734375 69.101562 152.433594 69.101562 158.226562 C 69.101562 163.683594 62.488281 168.164062 54.03125 168.667969 C 58.648438 166.804688 61.714844 163.550781 61.714844 159.839844 " fill-opacity="1" fill-rule="nonzero"/><path fill="#f89e30" d="M 104.050781 247.160156 C 104.050781 254.164062 95.027344 259.847656 83.898438 259.847656 C 72.765625 259.847656 63.746094 254.164062 63.746094 247.160156 C 63.746094 240.152344 72.765625 234.46875 83.898438 234.46875 C 95.027344 234.46875 104.050781 240.152344 104.050781 247.160156 " fill-opacity="1" fill-rule="nonzero"/><path fill="#f3922a" d="M 72.675781 249.109375 C 72.675781 242.101562 81.703125 236.421875 92.832031 236.421875 C 93.484375 236.421875 94.125 236.441406 94.761719 236.484375 C 91.625 235.214844 87.902344 234.46875 83.898438 234.46875 C 72.765625 234.46875 63.746094 240.152344 63.746094 247.160156 C 63.746094 253.753906 71.742188 259.171875 81.96875 259.785156 C 76.386719 257.527344 72.675781 253.597656 72.675781 249.109375 " fill-opacity="1" fill-rule="nonzero"/><path fill="#fef4ef" d="M 120.078125 124.308594 C 120.078125 141.375 105.539062 155.210938 87.601562 155.210938 C 69.664062 155.210938 55.121094 141.375 55.121094 124.308594 C 55.121094 107.242188 69.664062 93.40625 87.601562 93.40625 C 105.539062 93.40625 120.078125 107.242188 120.078125 124.308594 " fill-opacity="1" fill-rule="nonzero"/><path fill="#fde3dd" d="M 112.347656 104.320312 C 112.726562 106.214844 112.945312 108.160156 112.945312 110.15625 C 112.945312 127.222656 98.402344 141.058594 80.464844 141.058594 C 70.542969 141.058594 61.675781 136.8125 55.71875 130.144531 C 58.589844 144.417969 71.761719 155.210938 87.601562 155.210938 C 105.539062 155.210938 120.078125 141.375 120.078125 124.308594 C 120.078125 116.679688 117.160156 109.710938 112.347656 104.320312 " fill-opacity="1" fill-rule="nonzero"/><path fill="#fef4ef" d="M 106.726562 82.917969 C 106.726562 92.554688 98.613281 100.367188 88.601562 100.367188 C 78.59375 100.367188 70.480469 92.554688 70.480469 82.917969 C 70.480469 73.277344 78.59375 65.464844 88.601562 65.464844 C 98.613281 65.464844 106.726562 73.277344 106.726562 82.917969 " fill-opacity="1" fill-rule="nonzero"/><path fill="#fde3dd" d="M 93.058594 66.019531 C 97.035156 69.21875 99.570312 74.027344 99.570312 79.410156 C 99.570312 89.050781 91.457031 96.863281 81.445312 96.863281 C 79.90625 96.863281 78.417969 96.65625 76.992188 96.308594 C 80.136719 98.839844 84.183594 100.367188 88.601562 100.367188 C 98.613281 100.367188 106.726562 92.554688 106.726562 82.917969 C 106.726562 74.761719 100.910156 67.933594 93.058594 66.019531 " fill-opacity="1" fill-rule="nonzero"/><path fill="#fef4ef" d="M 58.9375 85.363281 C 58.9375 89.804688 55.339844 93.40625 50.902344 93.40625 C 46.464844 93.40625 42.871094 89.804688 42.871094 85.363281 C 42.871094 80.921875 46.464844 77.320312 50.902344 77.320312 C 55.339844 77.320312 58.9375 80.921875 58.9375 85.363281 " fill-opacity="1" fill-rule="nonzero"/><path fill="#fde3dd" d="M 53.167969 89.960938 C 48.730469 89.960938 45.132812 86.359375 45.132812 81.917969 C 45.132812 81.023438 45.3125 80.179688 45.582031 79.378906 C 43.929688 80.851562 42.871094 82.972656 42.871094 85.363281 C 42.871094 89.804688 46.464844 93.40625 50.902344 93.40625 C 54.449219 93.40625 57.421875 91.09375 58.488281 87.902344 C 57.070312 89.167969 55.21875 89.960938 53.167969 89.960938 " fill-opacity="1" fill-rule="nonzero"/><path fill="#fef4ef" d="M 76.585938 50.21875 C 76.585938 55.890625 71.996094 60.488281 66.332031 60.488281 C 60.667969 60.488281 56.074219 55.890625 56.074219 50.21875 C 56.074219 44.546875 60.667969 39.953125 66.332031 39.953125 C 71.996094 39.953125 76.585938 44.546875 76.585938 50.21875 " fill-opacity="1" fill-rule="nonzero"/><path fill="#fde3dd" d="M 59.546875 55.542969 C 59.546875 49.875 64.136719 45.277344 69.800781 45.277344 C 72.234375 45.277344 74.441406 46.164062 76.203125 47.585938 C 75.035156 43.199219 71.078125 39.953125 66.332031 39.953125 C 60.667969 39.953125 56.074219 44.546875 56.074219 50.21875 C 56.074219 53.449219 57.597656 56.300781 59.929688 58.183594 C 59.703125 57.335938 59.546875 56.460938 59.546875 55.542969 " fill-opacity="1" fill-rule="nonzero"/><path fill="#fef4ef" d="M 299.191406 203.839844 C 299.191406 218.042969 287.09375 229.558594 272.164062 229.558594 C 257.238281 229.558594 245.136719 218.042969 245.136719 203.839844 C 245.136719 189.640625 257.238281 178.125 272.164062 178.125 C 287.09375 178.125 299.191406 189.640625 299.191406 203.839844 " fill-opacity="1" fill-rule="nonzero"/><path fill="#fde3dd" d="M 292.757812 187.210938 C 293.074219 188.78125 293.253906 190.402344 293.253906 192.066406 C 293.253906 206.269531 281.152344 217.78125 266.226562 217.78125 C 257.972656 217.78125 250.59375 214.25 245.632812 208.699219 C 248.023438 220.578125 258.984375 229.558594 272.164062 229.558594 C 287.09375 229.558594 299.191406 218.042969 299.191406 203.839844 C 299.191406 197.496094 296.765625 191.691406 292.757812 187.210938 " fill-opacity="1" fill-rule="nonzero"/><path fill="#fef4ef" d="M 195.523438 320.796875 C 195.523438 334.765625 183.625 346.089844 168.945312 346.089844 C 154.261719 346.089844 142.363281 334.765625 142.363281 320.796875 C 142.363281 306.828125 154.261719 295.507812 168.945312 295.507812 C 183.625 295.507812 195.523438 306.828125 195.523438 320.796875 " fill-opacity="1" fill-rule="nonzero"/><path fill="#fde3dd" d="M 189.195312 304.4375 C 189.507812 305.988281 189.683594 307.582031 189.683594 309.214844 C 189.683594 323.183594 177.78125 334.507812 163.101562 334.507812 C 154.984375 334.507812 147.726562 331.03125 142.851562 325.574219 C 145.199219 337.257812 155.980469 346.089844 168.945312 346.089844 C 183.625 346.089844 195.523438 334.765625 195.523438 320.796875 C 195.523438 314.554688 193.136719 308.851562 189.195312 304.4375 " fill-opacity="1" fill-rule="nonzero"/><path fill="#fef4ef" d="M 129.679688 203.945312 C 132.890625 190.351562 147.074219 182.074219 161.359375 185.457031 C 175.648438 188.839844 184.625 202.601562 181.414062 216.195312 C 178.203125 229.785156 164.019531 238.0625 149.734375 234.679688 C 135.449219 231.300781 126.46875 217.539062 129.679688 203.945312 " fill-opacity="1" fill-rule="nonzero"/><path fill="#fde3dd" d="M 132.078125 221.324219 C 132.132812 219.742188 132.324219 218.152344 132.699219 216.5625 C 135.910156 202.96875 150.09375 194.691406 164.382812 198.074219 C 172.28125 199.945312 178.546875 204.996094 182.035156 211.433594 C 182.433594 199.523438 173.976562 188.445312 161.359375 185.457031 C 147.074219 182.074219 132.890625 190.355469 129.679688 203.945312 C 128.246094 210.019531 129.257812 216.121094 132.078125 221.324219 " fill-opacity="1" fill-rule="nonzero"/><path fill="#fef4ef" d="M 163.96875 287.46875 C 163.96875 304.023438 149.867188 317.441406 132.464844 317.441406 C 115.066406 317.441406 100.960938 304.023438 100.960938 287.46875 C 100.960938 270.910156 115.066406 257.492188 132.464844 257.492188 C 149.867188 257.492188 163.96875 270.910156 163.96875 287.46875 " fill-opacity="1" fill-rule="nonzero"/><path fill="#fde3dd" d="M 156.46875 268.078125 C 156.839844 269.914062 157.050781 271.804688 157.050781 273.742188 C 157.050781 290.292969 142.941406 303.714844 125.542969 303.714844 C 115.921875 303.714844 107.320312 299.597656 101.539062 293.128906 C 104.324219 306.972656 117.101562 317.441406 132.464844 317.441406 C 149.867188 317.441406 163.96875 304.023438 163.96875 287.46875 C 163.96875 280.066406 161.140625 273.308594 156.46875 268.078125 " fill-opacity="1" fill-rule="nonzero"/><path fill="#fef4ef" d="M 130.363281 351.4375 C 115.84375 359.359375 97.699219 354.0625 89.839844 339.617188 C 81.976562 325.164062 87.375 307.03125 101.894531 299.113281 C 116.414062 291.195312 134.558594 296.488281 142.417969 310.933594 C 150.28125 325.386719 144.882812 343.515625 130.363281 351.4375 " fill-opacity="1" fill-rule="nonzero"/><path fill="#fde3dd" d="M 143.980469 335.933594 C 142.539062 337.117188 140.976562 338.195312 139.277344 339.121094 C 124.757812 347.042969 106.613281 341.75 98.75 327.300781 C 94.402344 319.308594 94.128906 310.195312 97.191406 302.304688 C 86.304688 311.238281 82.898438 326.855469 89.839844 339.617188 C 97.699219 354.0625 115.84375 359.359375 130.363281 351.4375 C 136.855469 347.898438 141.503906 342.3125 143.980469 335.933594 " fill-opacity="1" fill-rule="nonzero"/><g clip-path="url(#8ca5903ae4)"><path fill="#fef4ef" d="M 65.125 132.515625 C 65.125 145.953125 53.675781 156.84375 39.554688 156.84375 C 25.429688 156.84375 13.984375 145.953125 13.984375 132.515625 C 13.984375 119.078125 25.429688 108.183594 39.554688 108.183594 C 53.675781 108.183594 65.125 119.078125 65.125 132.515625 " fill-opacity="1" fill-rule="nonzero"/></g><path fill="#fde3dd" d="M 59.035156 116.777344 C 59.335938 118.265625 59.507812 119.800781 59.507812 121.371094 C 59.507812 134.808594 48.058594 145.703125 33.933594 145.703125 C 26.125 145.703125 19.144531 142.359375 14.453125 137.109375 C 16.714844 148.347656 27.085938 156.84375 39.554688 156.84375 C 53.675781 156.84375 65.125 145.953125 65.125 132.515625 C 65.125 126.507812 62.828125 121.023438 59.035156 116.777344 " fill-opacity="1" fill-rule="nonzero"/><path fill="#fef4ef" d="M 343.53125 136.824219 C 343.53125 150.457031 332.058594 161.507812 317.902344 161.507812 C 303.746094 161.507812 292.273438 150.457031 292.273438 136.824219 C 292.273438 123.191406 303.746094 112.144531 317.902344 112.144531 C 332.058594 112.144531 343.53125 123.191406 343.53125 136.824219 " fill-opacity="1" fill-rule="nonzero"/><path fill="#fde3dd" d="M 324.203125 112.925781 C 329.828125 117.453125 333.410156 124.257812 333.410156 131.867188 C 333.410156 145.5 321.9375 156.550781 307.78125 156.550781 C 305.605469 156.550781 303.5 156.261719 301.480469 155.765625 C 305.929688 159.347656 311.652344 161.507812 317.902344 161.507812 C 332.058594 161.507812 343.53125 150.457031 343.53125 136.824219 C 343.53125 125.289062 335.304688 115.632812 324.203125 112.925781 " fill-opacity="1" fill-rule="nonzero"/><g clip-path="url(#0b84e290c1)"><path fill="#fef4ef" d="M 240.039062 40.625 C 240.039062 54.253906 228.566406 65.304688 214.410156 65.304688 C 200.253906 65.304688 188.78125 54.253906 188.78125 40.625 C 188.78125 26.992188 200.253906 15.941406 214.410156 15.941406 C 228.566406 15.941406 240.039062 26.992188 240.039062 40.625 " fill-opacity="1" fill-rule="nonzero"/></g><path fill="#fde3dd" d="M 220.710938 16.722656 C 226.335938 21.253906 229.917969 28.054688 229.917969 35.664062 C 229.917969 49.296875 218.445312 60.347656 204.289062 60.347656 C 202.109375 60.347656 200.007812 60.058594 197.988281 59.566406 C 202.4375 63.144531 208.160156 65.304688 214.410156 65.304688 C 228.566406 65.304688 240.039062 54.253906 240.039062 40.621094 C 240.039062 29.089844 231.8125 19.433594 220.710938 16.722656 " fill-opacity="1" fill-rule="nonzero"/><path fill="#fef4ef" d="M 204.5625 67.328125 C 204.5625 73.613281 199.476562 78.707031 193.203125 78.707031 C 186.925781 78.707031 181.839844 73.613281 181.839844 67.328125 C 181.839844 61.046875 186.925781 55.953125 193.203125 55.953125 C 199.476562 55.953125 204.5625 61.046875 204.5625 67.328125 " fill-opacity="1" fill-rule="nonzero"/><path fill="#fde3dd" d="M 196.402344 73.828125 C 190.132812 73.828125 185.042969 68.734375 185.042969 62.453125 C 185.042969 61.191406 185.296875 60 185.675781 58.867188 C 183.339844 60.949219 181.839844 63.953125 181.839844 67.328125 C 181.839844 73.613281 186.925781 78.707031 193.199219 78.707031 C 198.214844 78.707031 202.421875 75.429688 203.929688 70.917969 C 201.921875 72.710938 199.304688 73.828125 196.402344 73.828125 " fill-opacity="1" fill-rule="nonzero"/><path fill="#fef4ef" d="M 283.292969 74.394531 C 283.292969 80.675781 278.203125 85.769531 271.929688 85.769531 C 265.65625 85.769531 260.570312 80.675781 260.570312 74.394531 C 260.570312 68.109375 265.65625 63.019531 271.929688 63.019531 C 278.203125 63.019531 283.292969 68.109375 283.292969 74.394531 " fill-opacity="1" fill-rule="nonzero"/><path fill="#fde3dd" d="M 275.132812 80.894531 C 268.859375 80.894531 263.773438 75.804688 263.773438 69.519531 C 263.773438 68.257812 264.023438 67.066406 264.40625 65.933594 C 262.066406 68.015625 260.570312 71.015625 260.570312 74.394531 C 260.570312 80.675781 265.65625 85.769531 271.929688 85.769531 C 276.945312 85.769531 281.152344 82.496094 282.660156 77.984375 C 280.652344 79.773438 278.035156 80.894531 275.132812 80.894531 " fill-opacity="1" fill-rule="nonzero"/><path fill="#fef4ef" d="M 180.734375 229.652344 C 179.828125 224.46875 183.289062 219.535156 188.464844 218.628906 C 193.636719 217.722656 198.566406 221.183594 199.472656 226.367188 C 200.378906 231.546875 196.917969 236.480469 191.746094 237.386719 C 186.570312 238.296875 181.640625 234.832031 180.734375 229.652344 " fill-opacity="1" fill-rule="nonzero"/><path fill="#fde3dd" d="M 186.523438 223.113281 C 191.699219 222.203125 196.628906 225.667969 197.535156 230.847656 C 197.714844 231.890625 197.679688 232.910156 197.53125 233.898438 C 199.15625 231.84375 199.960938 229.152344 199.472656 226.367188 C 198.566406 221.183594 193.636719 217.722656 188.464844 218.628906 C 184.328125 219.351562 181.332031 222.664062 180.738281 226.601562 C 182.136719 224.835938 184.132812 223.53125 186.523438 223.113281 " fill-opacity="1" fill-rule="nonzero"/><path fill="#fef4ef" d="M 324.75 106.960938 C 323.132812 97.726562 329.300781 88.929688 338.523438 87.3125 C 347.746094 85.695312 356.535156 91.871094 358.152344 101.105469 C 359.765625 110.335938 353.601562 119.136719 344.375 120.753906 C 335.152344 122.371094 326.367188 116.195312 324.75 106.960938 " fill-opacity="1" fill-rule="nonzero"/><path fill="#fde3dd" d="M 335.070312 95.304688 C 344.292969 93.6875 353.082031 99.863281 354.695312 109.097656 C 355.019531 110.949219 354.953125 112.769531 354.6875 114.535156 C 357.585938 110.867188 359.019531 106.070312 358.148438 101.105469 C 356.53125 91.867188 347.746094 85.695312 338.523438 87.316406 C 331.15625 88.605469 325.8125 94.503906 324.753906 101.527344 C 327.25 98.378906 330.804688 96.054688 335.070312 95.304688 " fill-opacity="1" fill-rule="nonzero"/><path fill="#fef4ef" d="M 249.257812 171.507812 C 248.175781 165.324219 252.308594 159.4375 258.480469 158.355469 C 264.65625 157.273438 270.539062 161.40625 271.621094 167.585938 C 272.699219 173.765625 268.574219 179.65625 262.398438 180.742188 C 256.222656 181.824219 250.339844 177.691406 249.257812 171.507812 " fill-opacity="1" fill-rule="nonzero"/><path fill="#fde3dd" d="M 256.167969 163.703125 C 262.339844 162.621094 268.222656 166.753906 269.304688 172.9375 C 269.523438 174.175781 269.476562 175.394531 269.300781 176.574219 C 271.242188 174.121094 272.199219 170.910156 271.621094 167.585938 C 270.539062 161.40625 264.65625 157.273438 258.480469 158.355469 C 253.546875 159.21875 249.96875 163.167969 249.261719 167.867188 C 250.929688 165.757812 253.3125 164.203125 256.167969 163.703125 " fill-opacity="1" fill-rule="nonzero"/><path fill="#fef4ef" d="M 298.144531 105.996094 C 297.0625 99.8125 301.195312 93.921875 307.367188 92.839844 C 313.542969 91.757812 319.425781 95.890625 320.507812 102.074219 C 321.585938 108.253906 317.460938 114.144531 311.285156 115.226562 C 305.109375 116.3125 299.226562 112.175781 298.144531 105.996094 " fill-opacity="1" fill-rule="nonzero"/><path fill="#fde3dd" d="M 305.054688 98.191406 C 311.226562 97.109375 317.109375 101.242188 318.191406 107.425781 C 318.410156 108.667969 318.367188 109.882812 318.1875 111.066406 C 320.128906 108.613281 321.085938 105.398438 320.503906 102.074219 C 319.421875 95.890625 313.539062 91.757812 307.367188 92.84375 C 302.433594 93.707031 298.855469 97.65625 298.148438 102.355469 C 299.816406 100.25 302.199219 98.691406 305.054688 98.191406 " fill-opacity="1" fill-rule="nonzero"/><path fill="#fef4ef" d="M 239.339844 47.5625 C 234.476562 43.59375 233.75 36.429688 237.710938 31.558594 C 241.675781 26.6875 248.832031 25.957031 253.699219 29.925781 C 258.5625 33.894531 259.289062 41.058594 255.324219 45.929688 C 251.363281 50.800781 244.207031 51.53125 239.339844 47.5625 " fill-opacity="1" fill-rule="nonzero"/><path fill="#fde3dd" d="M 246.699219 29.183594 C 251.5625 33.152344 252.289062 40.316406 248.328125 45.1875 C 246.621094 47.28125 244.316406 48.558594 241.867188 49.078125 C 246.449219 51.144531 252 50.015625 255.324219 45.929688 C 259.289062 41.0625 258.558594 33.898438 253.695312 29.929688 C 250.925781 27.667969 247.414062 26.980469 244.167969 27.667969 C 245.050781 28.066406 245.910156 28.542969 246.699219 29.183594 " fill-opacity="1" fill-rule="nonzero"/><path fill="#fef4ef" d="M 230.011719 171.976562 C 230.011719 181.082031 222.640625 188.464844 213.542969 188.464844 C 204.445312 188.464844 197.070312 181.082031 197.070312 171.976562 C 197.070312 162.867188 204.445312 155.484375 213.542969 155.484375 C 222.640625 155.484375 230.011719 162.867188 230.011719 171.976562 " fill-opacity="1" fill-rule="nonzero"/><path fill="#fde3dd" d="M 202.644531 180.53125 C 202.644531 171.421875 210.019531 164.039062 219.113281 164.039062 C 223.027344 164.039062 226.570312 165.460938 229.398438 167.742188 C 227.519531 160.699219 221.167969 155.484375 213.542969 155.484375 C 204.445312 155.484375 197.070312 162.867188 197.070312 171.972656 C 197.070312 177.167969 199.515625 181.742188 203.261719 184.765625 C 202.898438 183.40625 202.644531 182.003906 202.644531 180.53125 " fill-opacity="1" fill-rule="nonzero"/><path fill="#fef4ef" d="M 160.949219 238.09375 C 168.457031 232.953125 178.710938 234.882812 183.84375 242.398438 C 188.976562 249.917969 187.054688 260.179688 179.542969 265.320312 C 172.035156 270.460938 161.785156 268.535156 156.648438 261.015625 C 151.515625 253.5 153.441406 243.234375 160.949219 238.09375 " fill-opacity="1" fill-rule="nonzero"/><path fill="#fde3dd" d="M 183.453125 255.886719 C 175.941406 261.027344 165.691406 259.101562 160.558594 251.582031 C 158.351562 248.347656 157.523438 244.617188 157.808594 240.996094 C 153.058594 246.519531 152.347656 254.714844 156.648438 261.015625 C 161.785156 268.535156 172.035156 270.460938 179.542969 265.320312 C 183.824219 262.390625 186.214844 257.789062 186.59375 252.988281 C 185.679688 254.054688 184.667969 255.054688 183.453125 255.886719 " fill-opacity="1" fill-rule="nonzero"/></svg>