<svg xmlns="http://www.w3.org/2000/svg" xmlns:xlink="http://www.w3.org/1999/xlink" width="500" zoomAndPan="magnify" viewBox="0 0 375 374.999991" height="500" preserveAspectRatio="xMidYMid meet" version="1.0"><defs><clipPath id="da1b8170f0"><path d="M 89.882812 165.835938 L 202.382812 165.835938 L 202.382812 278.335938 L 89.882812 278.335938 Z M 89.882812 165.835938 " clip-rule="nonzero"/></clipPath><clipPath id="5990fa061c"><path d="M 282 77 L 304.113281 77 L 304.113281 122 L 282 122 Z M 282 77 " clip-rule="nonzero"/></clipPath></defs><g clip-path="url(#da1b8170f0)"><path fill="#8b5312" d="M 89.882812 165.835938 L 202.382812 165.835938 L 202.382812 278.335938 L 89.882812 278.335938 Z M 89.882812 165.835938 " fill-opacity="1" fill-rule="nonzero"/></g><path fill="#ffffff" d="M 265.09375 63.648438 C 260.378906 65.523438 256.578125 69.578125 254.957031 74.390625 C 254.601562 75.40625 254.25 76.621094 253.234375 76.976562 C 251.613281 77.585938 250.347656 75.558594 249.332031 74.136719 C 247.152344 71.097656 243.203125 69.78125 239.503906 69.882812 C 235.800781 69.933594 232.203125 71.25 228.707031 72.464844 C 227.238281 72.972656 225.769531 73.53125 224.550781 74.542969 C 221.511719 77.128906 221.460938 81.6875 220.398438 85.539062 C 218.21875 93.242188 211.425781 98.5625 205.601562 104.085938 C 199.773438 109.613281 194.300781 117.113281 195.972656 124.964844 C 196.628906 127.90625 198.253906 130.589844 198.757812 133.582031 C 199.113281 135.660156 198.960938 137.789062 199.265625 139.8125 C 199.875 143.867188 202.355469 147.3125 204.027344 151.0625 C 206.714844 156.992188 207.476562 163.835938 206.054688 170.21875 C 204.6875 176.554688 201.292969 182.6875 201.902344 189.171875 C 202.660156 196.722656 208.691406 202.652344 211.125 209.847656 C 213.65625 217.246094 212.1875 225.253906 211.78125 233.058594 C 211.375 240.863281 212.492188 249.578125 218.472656 254.542969 C 219.179688 255.101562 219.941406 255.660156 220.851562 255.710938 C 222.019531 255.8125 223.082031 255.101562 223.996094 254.441406 C 229.875 250.035156 234.230469 243.953125 238.488281 237.972656 C 242.542969 232.246094 246.597656 226.519531 250.703125 220.84375 C 253.183594 217.347656 255.667969 213.851562 257.746094 210.152344 C 260.734375 204.832031 262.914062 199.105469 265.042969 193.378906 C 268.03125 185.421875 271.074219 177.261719 271.074219 168.800781 C 271.074219 161.757812 269.046875 154.613281 270.71875 147.769531 C 271.277344 145.539062 272.238281 143.3125 272.1875 140.980469 C 272.136719 138.851562 271.226562 136.773438 271.226562 134.644531 C 271.175781 130.035156 275.078125 126.386719 278.828125 123.648438 C 282.578125 120.914062 286.832031 117.769531 287.796875 113.210938 C 288.300781 110.726562 287.746094 108.140625 287.796875 105.609375 C 287.847656 100.84375 289.976562 96.386719 291.039062 91.773438 C 292.101562 87.164062 291.800781 81.585938 288.101562 78.597656 C 287.441406 78.089844 286.730469 77.636719 286.226562 76.976562 C 285.617188 76.113281 285.617188 74.949219 285.464844 73.886719 C 284.753906 67.753906 280.195312 62.28125 274.316406 60.507812 C 268.4375 58.734375 261.546875 60.761719 257.644531 65.523438 " fill-opacity="1" fill-rule="nonzero"/><path fill="#eead5c" d="M 267.628906 66.992188 C 269.402344 68.3125 270.464844 70.335938 271.125 72.464844 C 271.78125 74.59375 272.085938 76.773438 272.746094 78.851562 C 273.253906 80.523438 273.960938 82.09375 274.875 83.5625 C 274.0625 80.117188 273.300781 76.46875 274.164062 73.023438 C 274.417969 72.0625 274.773438 71.046875 274.570312 70.035156 C 274.367188 69.019531 273.152344 68.210938 272.339844 68.765625 " fill-opacity="1" fill-rule="nonzero"/><path fill="#eead5c" d="M 276.242188 88.277344 C 280.195312 87.464844 284.351562 87.871094 288.050781 89.492188 C 288.808594 89.847656 289.570312 90.203125 290.429688 90.253906 C 291.242188 90.304688 292.203125 89.847656 292.40625 89.039062 C 292.558594 88.53125 292.355469 87.972656 292.152344 87.464844 C 291.089844 84.527344 290.027344 81.636719 289.011719 78.699219 C 287.796875 78.496094 286.328125 78.394531 285.515625 79.359375 C 285.007812 79.964844 284.957031 80.878906 284.652344 81.636719 C 284.148438 83.007812 282.777344 83.867188 281.410156 84.222656 C 280.042969 84.578125 278.523438 84.476562 277.101562 84.375 " fill-opacity="1" fill-rule="nonzero"/><path fill="#eead5c" d="M 62.796875 315.507812 C 59.550781 321.4375 57.828125 328.378906 59.148438 335.015625 C 61.730469 347.886719 74.753906 355.84375 87.171875 360.203125 C 101.816406 365.320312 117.425781 367.753906 132.929688 367.246094 C 133.285156 368.109375 133.742188 368.867188 134.402344 369.476562 C 135.921875 370.84375 138.152344 370.945312 140.175781 370.945312 C 144.636719 370.894531 149.097656 370.386719 153.503906 371.046875 C 157.609375 371.65625 161.460938 373.277344 165.566406 373.988281 C 171.34375 375 177.222656 374.1875 183 373.378906 C 191.460938 372.210938 199.976562 371.046875 208.4375 369.832031 C 219.179688 368.363281 229.925781 366.839844 240.515625 364.410156 C 250.851562 362.027344 261.292969 358.582031 269.199219 351.488281 C 277.101562 344.390625 281.816406 332.9375 278.371094 322.90625 C 274.925781 312.871094 261.648438 306.6875 252.828125 312.617188 C 254.097656 319.8125 250.195312 327.617188 243.65625 330.914062 C 240.820312 332.332031 236.96875 332.738281 234.890625 330.355469 C 234.078125 329.441406 233.726562 328.277344 233.320312 327.113281 C 224.550781 299.492188 219.738281 270.609375 219.078125 241.621094 C 218.925781 235.894531 219.128906 229.710938 222.777344 225.304688 C 226.882812 220.289062 234.078125 219.171875 239.503906 215.574219 C 240.667969 214.8125 241.832031 213.699219 241.882812 212.28125 C 241.933594 209.644531 238.335938 208.886719 235.703125 208.9375 C 230.277344 209.039062 223.386719 207.667969 222.425781 202.347656 C 221.765625 198.648438 224.652344 194.847656 223.589844 191.199219 C 222.527344 187.550781 218.21875 186.183594 214.671875 184.8125 C 211.125 183.445312 207.222656 180.253906 208.386719 176.605469 C 209.453125 173.3125 213.910156 172.601562 216.191406 170.015625 C 219.332031 166.46875 217.609375 160.945312 215.429688 156.738281 C 213.253906 152.535156 210.667969 147.667969 212.644531 143.363281 C 215.53125 137.128906 225.007812 137.886719 229.976562 133.175781 C 230.988281 132.210938 231.851562 130.742188 231.191406 129.476562 C 230.785156 128.664062 229.875 128.210938 229.011719 127.855469 C 219.839844 124.105469 210.058594 121.824219 201.191406 117.414062 C 203.625 116.960938 205.953125 115.792969 208.183594 114.679688 C 210.515625 113.460938 212.949219 112.195312 214.570312 110.117188 C 215.835938 108.496094 216.597656 106.519531 217.8125 104.898438 C 221.359375 100.085938 227.898438 98.867188 233.320312 96.285156 C 234.128906 95.878906 235.042969 95.421875 235.449219 94.5625 C 236.460938 92.535156 234.179688 90.558594 232.40625 89.1875 C 228.152344 85.945312 225.210938 81.082031 224.25 75.8125 C 227.390625 76.417969 230.226562 73.9375 233.015625 72.363281 C 238.132812 69.527344 245.683594 70.289062 248.421875 75.457031 C 250.347656 79.054688 249.992188 84.527344 253.792969 86.046875 C 252.222656 82.246094 254.300781 77.433594 258.101562 75.914062 C 259.519531 75.355469 261.191406 75.152344 262.253906 74.039062 C 264.382812 71.808594 263.117188 66.890625 266.105469 66.03125 C 267.324219 68.058594 268.640625 70.238281 270.871094 71.148438 C 273.101562 72.011719 276.242188 70.640625 276.140625 68.261719 L 277.863281 67.601562 C 280.5 66.488281 283.183594 65.320312 285.820312 64.207031 C 286.277344 64.003906 286.78125 63.800781 286.984375 63.34375 C 287.1875 62.886719 287.035156 62.332031 286.78125 61.875 C 284.753906 57.210938 280.800781 53.460938 279.738281 48.496094 C 278.675781 43.53125 281.917969 38.917969 283.996094 34.308594 C 287.238281 26.960938 291.039062 16.925781 294.28125 9.578125 C 295.246094 7.398438 294.535156 7.042969 293.421875 4.964844 C 280.09375 8.714844 271.074219 17.835938 260.988281 27.363281 C 258.351562 29.847656 254.300781 33.851562 250.703125 34.410156 C 247.457031 34.964844 243.707031 32.585938 240.414062 32.28125 C 232.863281 31.621094 224.652344 35.625 217.914062 32.027344 C 213.300781 29.59375 211.074219 24.375 208.539062 19.8125 C 205.851562 14.898438 202.457031 10.386719 198.554688 6.386719 C 196.882812 4.664062 195.007812 2.988281 192.675781 2.535156 C 189.738281 1.925781 186.699219 3.34375 184.671875 5.472656 C 182.644531 7.652344 181.425781 10.488281 180.464844 13.277344 C 175.296875 28.480469 175.449219 44.898438 176.207031 60.914062 C 176.714844 70.945312 177.476562 81.234375 179.957031 90.914062 C 174.992188 91.570312 171.191406 95.929688 168.65625 100.335938 C 166.023438 104.949219 163.894531 110.117188 159.6875 113.363281 C 155.988281 116.199219 151.226562 117.113281 146.664062 118.023438 C 124.671875 122.433594 102.121094 129.425781 86.15625 145.136719 C 73.640625 157.398438 66.34375 173.867188 59.300781 189.933594 C 54.230469 201.636719 49.214844 215.472656 53.726562 226.824219 C 51.597656 250.085938 50.378906 274.710938 61.882812 294.933594 C 64.0625 298.785156 66.851562 302.835938 66.34375 307.246094 C 66.039062 310.289062 64.265625 312.871094 62.796875 315.507812 Z M 183.253906 100.792969 C 182.492188 99.273438 181.882812 97.652344 181.476562 95.980469 C 182.035156 97.601562 182.59375 99.222656 183.253906 100.792969 Z M 183.253906 100.792969 " fill-opacity="1" fill-rule="nonzero"/><path fill="#eead5c" d="M 272.136719 162.617188 C 268.335938 175.691406 264.535156 188.816406 260.683594 201.890625 C 260.128906 203.765625 259.519531 205.792969 258.050781 207.113281 C 257.339844 207.769531 256.425781 208.226562 255.921875 209.085938 C 255.363281 210.050781 255.464844 211.214844 255.261719 212.28125 C 254.703125 214.863281 252.273438 216.488281 250.09375 217.957031 C 244.925781 221.453125 243.757812 224.949219 239.199219 229.207031 C 236.054688 232.144531 229.367188 235.640625 227.085938 239.289062 C 224.753906 243.089844 223.285156 247.398438 222.324219 251.757812 C 219.027344 267.113281 222.273438 282.972656 225.515625 298.328125 C 227.441406 307.398438 229.316406 316.519531 231.597656 325.488281 C 232.253906 328.226562 233.015625 331.011719 234.636719 333.292969 C 236.257812 335.574219 238.945312 337.296875 241.730469 336.992188 C 245.582031 336.535156 248.066406 332.382812 248.167969 328.53125 C 248.21875 324.679688 246.546875 320.980469 245.128906 317.382812 C 236.460938 295.691406 236.003906 271.519531 238.996094 248.363281 C 239.453125 244.613281 240.058594 240.761719 241.679688 237.3125 C 243.050781 234.476562 245.027344 232.042969 247.050781 229.664062 C 255.921875 219.222656 265.550781 208.785156 269.550781 195.660156 C 272.136719 187.195312 272.085938 178.175781 272.085938 169.308594 C 272.085938 167.835938 271.277344 165.761719 269.90625 166.316406 " fill-opacity="1" fill-rule="nonzero"/><path fill="#ffffff" d="M 170.582031 263.613281 C 166.527344 269.039062 164.148438 275.726562 163.84375 282.464844 C 163.691406 286.0625 164.097656 289.664062 164.550781 293.261719 C 165.160156 298.582031 165.820312 303.902344 166.425781 309.222656 C 166.78125 312.3125 167.136719 315.40625 167.847656 318.445312 C 168.808594 322.652344 170.378906 326.707031 172.507812 330.40625 C 173.675781 332.484375 175.09375 334.511719 177.070312 335.777344 C 181.277344 338.511719 186.851562 337.398438 191.714844 336.183594 C 193.234375 335.777344 194.855469 335.371094 195.972656 334.308594 C 198.253906 332.128906 197.796875 328.429688 196.933594 325.386719 C 195.109375 318.75 192.324219 312.414062 189.535156 306.082031 C 183.960938 293.414062 178.4375 280.742188 172.863281 268.023438 " fill-opacity="1" fill-rule="nonzero"/><path fill="#e06d36" d="M 234.027344 37.601562 C 235.5 40.386719 240.109375 39.222656 242.390625 41.402344 C 243.503906 42.464844 243.808594 44.1875 244.875 45.304688 C 246.800781 47.28125 250.652344 46.925781 251.917969 49.410156 C 252.324219 50.167969 252.375 51.082031 252.878906 51.789062 C 253.285156 52.347656 253.945312 52.703125 254.550781 53.058594 C 259.316406 55.996094 261.648438 62.382812 259.824219 67.703125 C 258.910156 64.460938 257.796875 61.265625 256.375 58.125 C 255.464844 56.097656 254.25 53.917969 252.171875 53.210938 C 250.800781 52.753906 249.230469 52.957031 247.964844 52.195312 C 246.445312 51.285156 245.9375 49.15625 244.367188 48.394531 C 243.554688 47.988281 242.542969 48.039062 241.679688 47.6875 C 240.820312 47.382812 240.109375 46.671875 239.453125 46.011719 C 238.03125 44.644531 236.613281 43.226562 235.195312 41.859375 C 234.078125 40.792969 232.964844 38.917969 234.128906 37.90625 " fill-opacity="1" fill-rule="nonzero"/><path fill="#e06d36" d="M 246.902344 33.800781 C 248.777344 34.308594 250.449219 35.421875 251.664062 36.941406 C 252.324219 37.753906 252.777344 38.714844 253.488281 39.527344 C 255.667969 42.113281 259.621094 43.125 260.835938 46.265625 C 261.242188 47.28125 261.292969 48.34375 261.546875 49.410156 C 262.253906 52.144531 264.382812 54.273438 265.652344 56.859375 C 267.121094 59.847656 267.273438 63.445312 266.15625 66.539062 C 264.382812 65.929688 264.078125 63.648438 263.675781 61.824219 C 263.066406 58.9375 261.648438 56.25 260.226562 53.613281 C 259.113281 51.539062 257.949219 49.410156 256.226562 47.789062 C 255.007812 46.621094 253.488281 45.8125 252.273438 44.644531 C 250.800781 43.277344 249.6875 41.503906 248.117188 40.238281 C 246.75 39.121094 245.078125 38.460938 243.554688 37.5 C 242.085938 36.539062 240.71875 35.117188 240.515625 33.394531 C 241.832031 32.9375 243.253906 32.988281 244.570312 33.445312 " fill-opacity="1" fill-rule="nonzero"/><path fill="#e06d36" d="M 258.300781 36.890625 C 260.53125 37.5 262.101562 39.375 263.472656 41.25 C 264.128906 42.164062 264.789062 43.125 264.941406 44.1875 C 265.09375 45.304688 264.738281 46.46875 265.042969 47.535156 C 265.195312 48.191406 265.601562 48.75 265.851562 49.410156 C 266.460938 51.183594 265.550781 53.3125 266.511719 54.933594 C 267.222656 53.917969 267.578125 52.652344 267.425781 51.386719 C 267.273438 50.269531 266.765625 49.207031 266.714844 48.089844 C 266.613281 46.417969 267.324219 44.441406 266.207031 43.226562 C 265.953125 42.972656 265.652344 42.769531 265.5 42.464844 C 265.144531 41.808594 265.601562 41.097656 265.652344 40.386719 C 265.753906 38.816406 264.179688 37.703125 262.8125 36.941406 C 261.648438 36.285156 260.027344 35.675781 259.0625 36.636719 " fill-opacity="1" fill-rule="nonzero"/><path fill="#e06d36" d="M 213 80.269531 C 211.984375 81.789062 211.277344 83.664062 209.753906 84.679688 C 208.996094 85.1875 208.132812 85.4375 207.324219 85.792969 C 203.976562 87.210938 201.34375 89.949219 198.050781 91.519531 C 195.007812 92.988281 191.664062 93.242188 188.421875 92.433594 C 186.851562 92.027344 185.277344 91.417969 183.859375 90.660156 C 183.253906 90.304688 180.921875 88.023438 180.363281 89.238281 C 180.058594 89.898438 180.464844 90.660156 180.921875 91.214844 C 182.898438 93.699219 185.988281 95.320312 189.179688 95.472656 C 190.800781 95.574219 192.425781 95.320312 194.046875 95.421875 C 195.566406 95.523438 197.035156 95.929688 198.554688 95.675781 C 201.902344 95.167969 204.078125 91.875 207.121094 90.507812 C 208.742188 89.746094 210.667969 89.542969 212.085938 88.480469 C 213.757812 87.210938 214.46875 85.085938 215.683594 83.414062 C 217.050781 81.585938 219.027344 80.371094 221.105469 79.460938 C 222.675781 78.75 224.453125 78.039062 222.980469 76.0625 C 220.398438 72.566406 214.519531 77.988281 213 80.269531 Z M 213 80.269531 " fill-opacity="1" fill-rule="nonzero"/><path fill="#e06d36" d="M 178.335938 282.164062 C 181.175781 280.996094 184.367188 280.640625 187.355469 281.199219 C 188.976562 281.503906 190.5 282.011719 192.121094 282.210938 C 196.984375 282.820312 201.75 280.335938 206.664062 280.136719 C 207.222656 280.136719 207.828125 280.136719 208.285156 280.488281 C 208.945312 280.996094 208.945312 282.113281 208.488281 282.820312 C 208.03125 283.53125 207.222656 283.988281 206.460938 284.390625 C 202.914062 286.316406 199.367188 288.292969 195.769531 290.21875 C 193.945312 291.234375 191.867188 292.246094 189.839844 291.636719 C 188.828125 291.335938 187.761719 290.625 186.800781 291.03125 C 186.242188 291.234375 185.886719 291.789062 185.328125 292.042969 C 184.0625 292.652344 182.644531 291.4375 181.832031 290.21875 C 180.71875 288.546875 179.855469 286.671875 179.300781 284.695312 " fill-opacity="1" fill-rule="nonzero"/><path fill="#e06d36" d="M 223.386719 292.550781 C 219.992188 298.328125 213.554688 302.230469 206.867188 302.484375 C 204.535156 302.585938 202.203125 302.230469 199.875 301.925781 C 198.859375 301.773438 197.847656 301.671875 196.882812 301.976562 C 195.921875 302.28125 195.058594 303.140625 195.058594 304.15625 C 195.109375 305.777344 197.136719 306.488281 198.757812 306.738281 C 204.738281 307.703125 211.277344 308.5625 216.546875 305.523438 C 218.117188 304.613281 219.535156 303.394531 221.15625 302.585938 C 222.273438 302.078125 223.488281 301.722656 224.402344 300.914062 C 225.3125 300.101562 225.667969 298.53125 224.753906 297.71875 " fill-opacity="1" fill-rule="nonzero"/><path fill="#e06d36" d="M 220.550781 269.746094 C 213.859375 273.851562 205.398438 275.066406 197.796875 272.988281 C 195.109375 272.230469 192.070312 270.457031 192.171875 267.667969 C 195.261719 267.113281 198.351562 268.429688 201.496094 268.683594 C 206.5625 269.136719 211.378906 266.757812 215.988281 264.679688 C 216.75 264.324219 217.507812 264.019531 218.320312 264.070312 C 220.347656 264.222656 221.257812 267.363281 219.636719 268.582031 " fill-opacity="1" fill-rule="nonzero"/><path fill="#e06d36" d="M 226.679688 239.441406 C 217.40625 242.789062 207.222656 240.253906 197.695312 237.71875 C 196.476562 237.414062 195.109375 237.113281 194.046875 237.769531 C 192.527344 238.734375 192.675781 241.113281 193.894531 242.433594 C 195.058594 243.75 196.882812 244.257812 198.605469 244.664062 C 203.925781 245.929688 209.300781 246.941406 214.671875 247.753906 C 216.34375 248.007812 218.117188 248.210938 219.789062 247.753906 C 221.410156 247.296875 222.929688 245.929688 223.03125 244.207031 " fill-opacity="1" fill-rule="nonzero"/><path fill="#e06d36" d="M 222.019531 253.734375 C 223.996094 252.921875 225.921875 252.113281 227.898438 251.25 C 229.367188 250.640625 230.886719 249.984375 232.457031 249.933594 C 234.027344 249.832031 235.753906 250.4375 236.664062 251.757812 C 237.726562 253.328125 237.222656 255.558594 236.054688 257.078125 C 234.890625 258.597656 233.167969 259.511719 231.445312 260.421875 C 228.253906 262.144531 224.855469 263.867188 221.257812 263.511719 C 220.652344 261.636719 220.703125 259.511719 221.308594 257.636719 " fill-opacity="1" fill-rule="nonzero"/><path fill="#e06d36" d="M 220.347656 269.136719 C 224.550781 269.898438 228.707031 270.660156 232.914062 271.417969 C 233.574219 271.519531 234.382812 271.722656 234.738281 272.332031 C 235.449219 273.496094 233.925781 274.710938 232.660156 275.269531 C 229.875 276.4375 227.085938 277.601562 224.300781 278.765625 C 223.691406 279.019531 223.03125 279.273438 222.425781 279.171875 C 220.703125 278.867188 220.5 276.488281 220.753906 274.761719 C 220.902344 273.648438 221.054688 272.535156 221.207031 271.417969 " fill-opacity="1" fill-rule="nonzero"/><path fill="#e06d36" d="M 239.550781 305.574219 C 237.980469 308.261719 235.347656 310.285156 232.304688 311.046875 C 232.863281 312.363281 234.332031 313.125 235.753906 313.226562 C 237.171875 313.328125 238.589844 312.820312 239.957031 312.363281 C 240.464844 312.210938 240.972656 312.011719 241.328125 311.65625 C 242.492188 310.4375 241.175781 308.460938 239.90625 307.296875 " fill-opacity="1" fill-rule="nonzero"/><path fill="#e06d36" d="M 230.078125 335.675781 C 232.710938 336.789062 234.535156 339.578125 234.484375 342.414062 C 234.484375 343.226562 234.382812 344.085938 234.839844 344.746094 C 235.09375 345.050781 235.449219 345.304688 235.652344 345.609375 C 236.308594 346.46875 235.953125 347.738281 236.105469 348.851562 C 236.207031 349.8125 236.664062 350.675781 237.121094 351.539062 C 238.640625 354.324219 240.109375 357.160156 241.628906 359.949219 C 241.882812 360.40625 242.136719 360.863281 242.136719 361.367188 C 242.1875 362.835938 240.566406 363.699219 239.148438 364.105469 C 234.382812 365.574219 229.417969 366.488281 224.453125 366.738281 C 222.726562 366.839844 220.5 366.535156 220.09375 364.8125 C 219.636719 362.789062 222.476562 361.0625 221.96875 359.039062 C 221.765625 358.226562 221.003906 357.617188 221.003906 356.757812 C 220.953125 355.335938 222.878906 354.527344 223.082031 353.109375 C 223.183594 352.449219 222.878906 351.839844 222.828125 351.183594 C 222.578125 348.851562 225.007812 347.027344 225.160156 344.695312 C 225.210938 343.734375 224.855469 342.820312 224.753906 341.859375 C 224.453125 339.730469 225.414062 337.449219 227.085938 336.183594 " fill-opacity="1" fill-rule="nonzero"/><path fill="#e06d36" d="M 252.375 325.386719 C 254.148438 323.109375 258.152344 323.007812 259.976562 325.238281 C 260.53125 325.894531 260.9375 326.757812 261.699219 327.261719 C 262.253906 327.667969 262.964844 327.820312 263.625 328.074219 C 267.425781 329.644531 268.234375 335.117188 271.882812 336.992188 C 272.695312 337.398438 273.605469 337.652344 274.113281 338.410156 C 274.519531 339.019531 274.519531 339.78125 274.519531 340.488281 C 274.519531 343.328125 274.367188 346.265625 272.949219 348.699219 C 271.578125 351.03125 269.148438 352.5 266.816406 353.816406 C 263.371094 355.792969 259.519531 357.667969 255.667969 356.859375 C 256.933594 354.375 258.203125 351.839844 259.417969 349.359375 C 257.847656 348.699219 258.453125 346.316406 259.316406 344.847656 C 260.175781 343.378906 260.734375 340.945312 259.113281 340.335938 C 258.808594 340.238281 258.402344 340.238281 258.101562 340.085938 C 257.136719 339.679688 256.933594 338.410156 257.136719 337.398438 C 257.339844 336.386719 257.847656 335.371094 257.644531 334.359375 C 257.390625 332.636719 255.617188 331.722656 254.148438 330.8125 C 252.675781 329.898438 251.257812 328.125 252.070312 326.605469 " fill-opacity="1" fill-rule="nonzero"/><path fill="#e06d36" d="M 278.015625 323.007812 C 277.101562 321.132812 276.140625 319.15625 274.519531 317.789062 C 272.898438 316.417969 270.464844 315.8125 268.640625 316.875 C 268.234375 317.128906 267.878906 317.433594 267.425781 317.535156 C 266.207031 317.789062 265.398438 316.417969 264.382812 315.8125 C 261.394531 313.988281 257.847656 318.242188 254.453125 317.585938 C 252.476562 317.230469 251.207031 315.253906 250.800781 313.277344 C 250.449219 311.300781 250.800781 309.324219 250.953125 307.296875 C 251.207031 304.460938 251.003906 301.570312 252.019531 298.9375 C 253.03125 296.300781 255.769531 294.019531 258.503906 294.730469 C 260.175781 295.1875 261.394531 296.554688 262.558594 297.820312 C 265.75 301.164062 269.550781 303.953125 272.644531 307.398438 C 275.734375 310.84375 278.066406 315.355469 277.507812 319.964844 " fill-opacity="1" fill-rule="nonzero"/><path fill="#e06d36" d="M 190.398438 338.007812 C 191.460938 338.160156 192.527344 338.3125 193.4375 338.867188 C 194.351562 339.425781 195.007812 340.488281 194.753906 341.503906 C 194.503906 342.667969 193.132812 343.582031 193.285156 344.796875 C 193.488281 346.214844 195.667969 346.824219 195.515625 348.242188 C 195.414062 349.207031 194.25 349.761719 193.996094 350.726562 C 193.691406 351.992188 195.210938 352.957031 195.464844 354.222656 C 195.617188 355.085938 195.210938 355.894531 195.058594 356.707031 C 194.453125 360 197.542969 362.6875 200.277344 364.613281 C 199.214844 365.726562 199.519531 367.855469 200.835938 368.664062 C 193.742188 371.046875 186.089844 371.65625 178.691406 370.488281 C 178.132812 370.386719 177.476562 370.1875 177.476562 369.628906 C 177.476562 369.375 177.628906 369.171875 177.726562 368.96875 C 178.945312 367.144531 180.210938 365.320312 181.425781 363.445312 C 182.136719 362.433594 182.847656 361.265625 182.796875 360.050781 C 182.695312 358.582031 181.476562 357.160156 181.882812 355.742188 C 182.1875 354.628906 183.402344 354.019531 183.960938 353.007812 C 184.773438 351.386719 183.707031 349.511719 183.808594 347.6875 C 183.910156 344.949219 186.597656 342.921875 187.003906 340.238281 C 187.101562 339.527344 187.050781 338.765625 187.40625 338.109375 C 187.761719 337.449219 188.777344 337.144531 189.179688 337.753906 " fill-opacity="1" fill-rule="nonzero"/><path fill="#e06d36" d="M 155.378906 338.511719 C 156.648438 339.273438 157.660156 340.335938 158.371094 341.65625 C 158.625 342.113281 158.828125 342.617188 158.777344 343.125 C 158.675781 343.734375 158.269531 344.1875 157.914062 344.695312 C 156.902344 346.265625 156.953125 348.242188 157.003906 350.117188 C 157.101562 352.195312 157.152344 354.273438 157.253906 356.300781 C 157.304688 357.3125 157.355469 358.378906 157.355469 359.390625 C 157.507812 363.191406 157.863281 367.550781 160.851562 369.933594 C 160.296875 371.148438 158.675781 371.25 157.355469 371.148438 C 153.101562 370.894531 148.84375 370.386719 144.636719 369.578125 C 145.851562 368.058594 146.714844 366.285156 147.171875 364.410156 C 147.476562 362.988281 147.578125 361.519531 147.726562 360.050781 C 148.03125 356.808594 148.589844 353.5625 149.097656 350.320312 C 149.652344 347.128906 150.3125 343.683594 152.746094 341.554688 C 153.605469 340.792969 154.722656 339.730469 154.011719 338.816406 " fill-opacity="1" fill-rule="nonzero"/><path fill="#e06d36" d="M 78.203125 152.738281 C 79.46875 154.308594 80.175781 156.285156 80.175781 158.261719 C 80.175781 159.476562 79.925781 160.691406 79.722656 161.910156 C 78.910156 167.027344 79.265625 172.296875 80.835938 177.210938 C 82.40625 182.128906 85.042969 186.585938 87.929688 190.894531 C 88.488281 191.707031 88.894531 193.074219 87.929688 193.378906 C 87.527344 193.53125 87.070312 193.328125 86.714844 193.125 C 83.574219 191.453125 80.53125 189.222656 78.808594 186.082031 C 77.390625 183.445312 76.984375 180.355469 75.667969 177.667969 C 74.652344 175.640625 73.183594 173.867188 72.273438 171.839844 C 70.144531 167.230469 71.410156 161.300781 75.210938 157.90625 " fill-opacity="1" fill-rule="nonzero"/><path fill="#e06d36" d="M 66.699219 178.429688 C 75.921875 204.425781 92.1875 229.664062 117.425781 240.863281 C 114.890625 244.308594 109.367188 243.648438 105.769531 241.316406 C 102.171875 238.988281 99.332031 235.488281 95.429688 233.714844 C 93.859375 233.007812 92.136719 232.601562 90.566406 231.839844 C 87.375 230.320312 84.992188 227.484375 82.761719 224.695312 C 76.832031 217.398438 70.902344 210.101562 64.976562 202.855469 C 63.605469 201.183594 62.238281 199.511719 61.527344 197.484375 C 59.90625 192.871094 62.1875 187.855469 64.367188 183.496094 " fill-opacity="1" fill-rule="nonzero"/><path fill="#e06d36" d="M 55.195312 211.875 C 59.601562 219.527344 66.039062 225.761719 72.777344 231.4375 C 82.914062 239.898438 94.011719 247.246094 105.921875 253.023438 C 103.84375 256.316406 98.726562 255.710938 95.53125 253.53125 C 92.339844 251.351562 89.855469 248.058594 86.257812 246.585938 C 83.574219 245.523438 80.582031 245.574219 77.847656 244.613281 C 71.054688 242.230469 67.558594 234.019531 60.769531 231.738281 C 58.03125 230.828125 54.585938 230.726562 53.066406 228.242188 C 52.355469 227.078125 52.203125 225.660156 52.203125 224.289062 C 52.152344 220.792969 52.558594 217.296875 53.371094 213.953125 " fill-opacity="1" fill-rule="nonzero"/><path fill="#e06d36" d="M 99.890625 272.789062 C 92.949219 273.445312 87.878906 266.402344 81.445312 263.714844 C 79.265625 262.804688 76.933594 262.398438 74.753906 261.4375 C 72.578125 260.472656 70.652344 258.902344 68.828125 257.382812 C 63.707031 253.226562 58.539062 249.019531 54.636719 243.699219 C 53.574219 243.699219 53.269531 245.167969 53.371094 246.234375 C 53.523438 248.210938 53.726562 250.238281 53.878906 252.210938 C 53.976562 253.125 54.027344 254.039062 54.382812 254.847656 C 54.839844 255.863281 55.703125 256.671875 56.5625 257.382812 C 66.851562 266.097656 80.128906 270.457031 93.203125 273.699219 C 96.546875 274.511719 100.144531 275.269531 103.386719 274.105469 C 103.03125 272.9375 101.5625 272.28125 100.449219 272.789062 " fill-opacity="1" fill-rule="nonzero"/><path fill="#e06d36" d="M 105.007812 299.949219 C 100.550781 300.101562 96.140625 298.9375 91.78125 297.769531 C 87.578125 296.65625 83.421875 295.539062 79.214844 294.425781 C 74.90625 293.261719 70.5 292.09375 66.75 289.664062 C 63.65625 287.636719 61.125 284.847656 57.878906 283.074219 C 57.929688 288.292969 60.566406 293.414062 64.773438 296.453125 C 66.546875 297.71875 68.523438 298.632812 70.550781 299.441406 C 74.402344 300.960938 78.402344 302.128906 82.507812 302.382812 C 85.601562 302.585938 88.691406 302.230469 91.78125 301.875 C 96.34375 301.367188 100.902344 300.863281 105.464844 300.355469 " fill-opacity="1" fill-rule="nonzero"/><path fill="#e06d36" d="M 116.96875 367.652344 C 116.410156 360.40625 116.511719 353.058594 117.375 345.863281 C 117.527344 344.390625 117.375 342.363281 115.902344 342.113281 C 114.6875 341.910156 113.777344 343.175781 113.21875 344.289062 C 111.292969 348.140625 109.316406 352.042969 108.152344 356.199219 C 107.796875 357.464844 107.492188 358.785156 106.832031 360 C 106.527344 360.609375 106.125 361.113281 105.921875 361.773438 C 105.515625 363.191406 106.425781 364.710938 107.644531 365.523438 C 108.859375 366.335938 110.328125 366.636719 111.800781 366.890625 C 113.167969 367.144531 114.535156 367.398438 115.902344 367.601562 " fill-opacity="1" fill-rule="nonzero"/><path fill="#e06d36" d="M 93.503906 337.09375 C 90.667969 338.261719 90.617188 342.164062 91.023438 345.203125 C 91.679688 349.863281 92.339844 354.527344 93 359.1875 C 93.152344 360.203125 93.101562 361.570312 92.085938 361.875 C 91.578125 362.027344 91.074219 361.824219 90.617188 361.621094 C 88.386719 360.660156 86.207031 359.644531 83.976562 358.683594 C 83.472656 358.480469 82.964844 358.226562 82.660156 357.769531 C 82.355469 357.261719 82.355469 356.605469 82.40625 356.046875 C 82.964844 349.15625 86.054688 342.464844 90.972656 337.601562 " fill-opacity="1" fill-rule="nonzero"/><path fill="#e06d36" d="M 58.792969 329.847656 C 60.972656 323.5625 66.851562 318.699219 73.4375 317.738281 C 73.945312 317.6875 74.503906 317.636719 74.855469 317.9375 C 75.210938 318.242188 75.261719 318.851562 75.210938 319.308594 C 74.703125 322.449219 70.851562 323.613281 68.625 325.894531 C 67.253906 327.261719 66.496094 329.085938 65.886719 330.914062 C 64.925781 333.851562 64.417969 336.941406 64.367188 340.085938 C 64.316406 341.351562 63.707031 343.125 62.542969 342.71875 C 62.238281 342.617188 61.984375 342.363281 61.78125 342.113281 C 59.90625 339.882812 58.894531 336.890625 59.046875 333.953125 " fill-opacity="1" fill-rule="nonzero"/><path fill="#e06d36" d="M 164.046875 211.0625 C 168.757812 215.828125 175.246094 218.613281 181.882812 219.425781 C 188.523438 220.238281 195.3125 219.171875 201.648438 217.09375 C 205.800781 215.726562 209.90625 213.953125 214.265625 213.648438 C 213.707031 215.980469 211.527344 217.601562 209.199219 218.363281 C 206.867188 219.121094 204.484375 219.171875 202.101562 219.628906 C 197.796875 220.539062 193.84375 222.820312 189.535156 223.734375 C 183.605469 225 177.425781 223.53125 171.699219 221.605469 C 169.0625 220.691406 166.378906 219.628906 164.453125 217.601562 C 162.527344 215.574219 161.5625 212.433594 162.828125 209.949219 " fill-opacity="1" fill-rule="nonzero"/><path fill="#e06d36" d="M 173.015625 265.792969 C 178.132812 262.957031 183 259.8125 187.710938 256.316406 C 189.027344 258.800781 187.609375 261.839844 185.683594 263.867188 C 183.757812 265.894531 181.277344 267.515625 180.007812 269.949219 C 179.550781 270.8125 179.25 271.722656 178.589844 272.433594 C 177.929688 273.140625 176.816406 273.597656 176.003906 273.089844 C 174.839844 272.332031 175.144531 270.304688 173.976562 269.542969 " fill-opacity="1" fill-rule="nonzero"/><path fill="#e06d36" d="M 160.042969 114.375 C 161.613281 116.859375 162.675781 119.59375 163.234375 122.484375 C 163.640625 124.5625 163.742188 126.789062 164.652344 128.714844 C 165.617188 130.640625 167.289062 132.0625 168.453125 133.835938 C 170.785156 137.382812 171.140625 142.296875 174.585938 144.78125 C 176.917969 146.503906 180.160156 146.554688 182.542969 148.175781 C 183.859375 149.085938 184.824219 150.40625 185.886719 151.671875 C 189.078125 155.421875 193.234375 158.414062 197.796875 160.238281 C 197.441406 161.808594 195.109375 161.503906 193.640625 160.742188 C 189.128906 158.511719 184.621094 156.285156 180.109375 154.003906 C 177.527344 152.6875 174.890625 151.417969 172.609375 149.644531 C 170.53125 148.074219 168.757812 146.148438 166.984375 144.222656 C 165.007812 142.09375 163.082031 139.964844 161.105469 137.835938 C 159.484375 136.0625 157.8125 134.238281 157.152344 131.910156 C 156.546875 129.78125 156.851562 127.550781 156.75 125.371094 C 156.648438 123.191406 155.988281 120.761719 154.113281 119.644531 C 154.925781 118.53125 155.734375 117.363281 156.546875 116.25 " fill-opacity="1" fill-rule="nonzero"/><path fill="#e06d36" d="M 191.054688 198.648438 C 187.003906 198.75 183.050781 197.128906 179.855469 194.695312 C 176.613281 192.261719 174.027344 189.070312 171.699219 185.777344 C 171.140625 184.964844 170.378906 184.105469 169.417969 184.207031 C 168.503906 184.308594 167.949219 185.320312 167.949219 186.183594 C 167.949219 187.042969 168.453125 187.90625 168.960938 188.664062 C 172.8125 194.796875 178.132812 200.777344 185.277344 201.941406 C 187.914062 202.347656 191.054688 201.839844 192.375 199.5625 " fill-opacity="1" fill-rule="nonzero"/><path fill="#e06d36" d="M 100.042969 134.949219 C 98.925781 139.511719 99.128906 144.375 100.550781 148.886719 C 101.207031 150.914062 102.121094 152.988281 101.917969 155.117188 C 101.816406 156.4375 101.257812 157.652344 100.953125 158.917969 C 100.398438 161.351562 100.800781 163.9375 102.019531 166.113281 C 102.476562 166.925781 103.03125 167.6875 103.132812 168.597656 C 103.234375 169.511719 102.675781 170.574219 101.765625 170.574219 C 101.207031 170.574219 100.703125 170.167969 100.296875 169.761719 C 96.902344 166.164062 96.445312 160.792969 94.316406 156.335938 C 93.253906 154.105469 91.78125 152.128906 90.71875 149.949219 C 89.652344 147.769531 88.996094 145.1875 89.703125 142.855469 C 90.414062 140.523438 92.898438 138.597656 95.277344 139.207031 " fill-opacity="1" fill-rule="nonzero"/><path fill="#e06d36" d="M 136.933594 122.6875 C 134.402344 129.730469 135.261719 137.433594 136.175781 144.832031 C 136.476562 147.164062 136.730469 149.492188 137.542969 151.671875 C 138.453125 154.15625 139.925781 156.335938 141.445312 158.511719 C 143.269531 161.148438 145.09375 163.785156 146.867188 166.367188 C 147.121094 166.773438 147.425781 167.179688 147.476562 167.6875 C 147.527344 168.546875 146.714844 169.308594 145.800781 169.410156 C 144.890625 169.511719 144.078125 169.105469 143.371094 168.546875 C 140.027344 166.0625 139.46875 161.300781 137.085938 157.855469 C 135.566406 155.625 133.335938 153.953125 131.664062 151.824219 C 126.953125 145.589844 128.371094 136.773438 125.988281 129.324219 C 125.480469 127.753906 124.824219 126.03125 125.582031 124.5625 C 126.597656 122.484375 129.535156 122.484375 131.816406 122.835938 C 132.171875 122.886719 132.527344 122.9375 132.726562 123.242188 C 132.929688 123.546875 132.628906 124.003906 132.324219 123.851562 " fill-opacity="1" fill-rule="nonzero"/><path fill="#e06d36" d="M 175.652344 63.75 C 178.03125 66.789062 180.363281 69.832031 182.746094 72.871094 C 183.101562 73.328125 183.453125 73.785156 183.503906 74.339844 C 183.554688 74.796875 183.351562 75.253906 183.152344 75.710938 C 181.933594 78.292969 180.71875 80.878906 179.550781 83.460938 C 178.234375 83.765625 177.578125 81.941406 177.527344 80.625 C 177.375 77.535156 177.222656 74.390625 177.070312 71.300781 " fill-opacity="1" fill-rule="nonzero"/><path fill="#e06d36" d="M 265.246094 22.703125 C 262.863281 25.539062 261.75 28.175781 261.800781 31.875 C 261.800781 32.886719 261.800781 34.207031 260.835938 34.613281 C 260.378906 34.8125 259.824219 34.710938 259.316406 34.5625 C 257.949219 34.15625 256.628906 33.597656 255.363281 32.835938 C 255.769531 30.050781 257.746094 27.515625 260.378906 26.453125 " fill-opacity="1" fill-rule="nonzero"/><path fill="#e06d36" d="M 96.902344 183.34375 C 100.246094 193.226562 103.792969 203.160156 109.367188 211.925781 C 114.941406 220.691406 122.847656 228.394531 132.726562 231.890625 C 131.511719 233.460938 129.28125 233.867188 127.40625 233.414062 C 125.53125 232.957031 123.859375 231.789062 122.289062 230.625 C 116.207031 226.265625 110.027344 221.808594 105.464844 215.878906 C 100.246094 209.039062 97.507812 200.675781 95.582031 192.3125 C 94.875 189.273438 94.265625 186.03125 95.582031 183.191406 " fill-opacity="1" fill-rule="nonzero"/><path fill="#e06d36" d="M 124.011719 171.285156 C 125.328125 175.085938 126.648438 178.886719 127.964844 182.6875 C 130.144531 189.019531 132.375 195.40625 136.074219 201.03125 C 139.164062 205.742188 143.269531 209.746094 146.054688 214.664062 C 146.207031 214.964844 146.410156 215.269531 146.359375 215.625 C 146.207031 216.585938 144.789062 216.539062 143.925781 216.132812 C 135.871094 212.535156 131.714844 203.765625 128.269531 195.710938 C 126.648438 191.960938 125.027344 188.261719 123.453125 184.511719 C 121.328125 179.542969 119.148438 173.96875 121.125 168.953125 C 122.136719 168.75 123.152344 169.863281 122.796875 170.878906 " fill-opacity="1" fill-rule="nonzero"/><path fill="#e899b2" d="M 276.34375 114.527344 C 277.40625 111.132812 281.714844 109.664062 282.828125 106.316406 C 283.234375 105.101562 283.183594 103.785156 283.082031 102.464844 C 283.03125 101.707031 282.980469 100.894531 282.425781 100.386719 C 281.765625 99.78125 280.753906 99.933594 279.992188 100.386719 C 279.28125 100.894531 278.828125 101.65625 278.371094 102.363281 C 278.167969 102.667969 277.964844 103.023438 277.558594 103.074219 C 277.050781 103.175781 276.597656 102.769531 276.242188 102.414062 C 274.722656 101.046875 272.644531 100.335938 270.667969 100.488281 C 269.957031 100.539062 269.25 100.691406 268.691406 101.097656 C 267.324219 102.113281 267.425781 104.238281 268.335938 105.660156 C 269.25 107.078125 270.667969 108.039062 271.882812 109.257812 C 273.300781 110.675781 274.417969 112.449219 275.027344 114.375 C 275.378906 114.273438 275.429688 113.613281 275.027344 113.511719 " fill-opacity="1" fill-rule="nonzero"/><path fill="#e06d36" d="M 117.777344 308.058594 C 108.605469 314.492188 97.003906 316.417969 85.800781 316.519531 C 85.09375 316.519531 84.332031 316.570312 83.828125 316.976562 C 83.015625 317.636719 83.21875 319.003906 83.925781 319.761719 C 84.6875 320.523438 85.753906 320.726562 86.816406 320.828125 C 94.316406 321.4375 100.703125 315.710938 107.898438 313.582031 C 111.292969 312.566406 115.09375 312.3125 117.980469 310.238281 " fill-opacity="1" fill-rule="nonzero"/><path fill="#e06d36" d="M 125.785156 320.726562 C 121.277344 324.984375 115.601562 328.023438 109.570312 329.441406 C 108.203125 329.746094 106.425781 330.8125 107.085938 332.027344 C 107.542969 332.886719 108.808594 332.738281 109.722656 332.484375 C 116.308594 330.710938 123.503906 328.125 126.699219 322.09375 C 126.851562 321.738281 127.003906 321.285156 126.699219 321.082031 C 126.394531 320.828125 126.089844 321.585938 126.445312 321.539062 " fill-opacity="1" fill-rule="nonzero"/><path fill="#e06d36" d="M 167.59375 232.5 C 173.523438 236.960938 180.363281 240.253906 187.558594 242.027344 C 188.066406 242.128906 188.625 242.28125 188.925781 242.6875 C 189.636719 243.496094 188.878906 244.863281 187.863281 245.21875 C 186.851562 245.574219 185.734375 245.320312 184.671875 245.269531 C 181.328125 245.015625 177.878906 246.585938 175.851562 249.273438 C 175.246094 250.085938 174.585938 251.046875 173.574219 250.945312 C 172.914062 250.894531 172.457031 250.335938 172.050781 249.832031 C 169.722656 246.789062 168.300781 242.988281 168.152344 239.1875 " fill-opacity="1" fill-rule="nonzero"/><path fill="#e06d36" d="M 210.871094 141.941406 C 201.242188 139.964844 192.222656 134.898438 185.53125 127.652344 C 184.875 126.992188 184.164062 126.183594 183.203125 126.234375 C 181.882812 126.285156 181.226562 128.109375 181.730469 129.324219 C 182.238281 130.539062 183.503906 131.300781 184.671875 131.960938 C 188.625 134.1875 192.527344 136.417969 196.476562 138.648438 C 198.910156 140.015625 201.394531 141.4375 204.078125 142.144531 C 206.511719 142.804688 209.046875 142.855469 211.527344 142.398438 " fill-opacity="1" fill-rule="nonzero"/><path fill="#e06d36" d="M 220.902344 36.183594 C 218.777344 36.636719 216.597656 37.042969 214.46875 37.5 C 212.796875 37.855469 210.566406 37.90625 209.855469 36.335938 C 209.199219 34.761719 210.71875 32.9375 210.160156 31.367188 C 209.804688 30.304688 208.691406 29.796875 207.828125 29.085938 C 204.890625 26.808594 204.332031 22.652344 203.878906 18.953125 C 203.421875 15.253906 202.964844 10.289062 199.773438 8.261719 C 203.675781 14.644531 209.804688 20.066406 213.101562 26.808594 C 213.65625 27.921875 214.113281 29.136719 214.875 30.152344 C 215.480469 30.960938 216.242188 31.671875 217.003906 32.382812 C 218.117188 33.445312 219.179688 34.613281 220.195312 35.878906 " fill-opacity="1" fill-rule="nonzero"/><path fill="#e06d36" d="M 187.355469 98.210938 C 190.800781 99.78125 194.652344 100.238281 198.402344 100.691406 C 200.027344 100.894531 201.699219 101.097656 203.269531 100.742188 C 204.789062 100.4375 206.207031 99.628906 207.726562 99.375 C 209.097656 99.121094 210.921875 99.78125 210.820312 101.148438 C 210.71875 102.261719 209.402344 102.71875 208.335938 102.972656 C 206.714844 103.328125 205.042969 103.734375 203.421875 104.085938 C 202.355469 104.339844 201.242188 104.59375 200.175781 104.492188 C 199.265625 104.441406 198.351562 104.1875 197.492188 103.9375 C 196.074219 103.53125 194.652344 103.074219 193.234375 102.617188 C 191.003906 101.910156 188.675781 101.046875 187.40625 99.121094 " fill-opacity="1" fill-rule="nonzero"/><path fill="#8b5312" d="M 236.105469 331.367188 C 234.890625 326.199219 232.964844 321.941406 230.226562 318.039062 C 229.011719 323.007812 231.394531 327.210938 233.066406 331.570312 C 230.582031 331.976562 228.152344 332.433594 225.71875 332.6875 C 217.914062 333.496094 210.058594 334.257812 202.253906 334.964844 C 199.671875 335.21875 199.570312 334.964844 199.519531 332.433594 C 199.417969 329.542969 198.253906 327.113281 196.628906 324.679688 C 197.746094 322.296875 197.1875 319.613281 195.058594 317.789062 C 194.753906 317.535156 194.148438 317.585938 193.691406 317.484375 C 193.742188 317.886719 193.640625 318.394531 193.792969 318.699219 C 194.703125 320.320312 195.769531 321.839844 194.652344 323.917969 C 194.351562 324.476562 194.855469 325.589844 195.109375 326.351562 C 195.820312 328.226562 196.328125 330.050781 195.667969 332.128906 C 195.363281 333.039062 195.972656 334.257812 196.175781 335.421875 C 195.972656 335.472656 195.769531 335.574219 195.515625 335.574219 C 189.332031 335.828125 183.101562 336.183594 176.917969 336.386719 C 170.9375 336.585938 164.855469 336.386719 158.925781 336.941406 C 154.46875 337.347656 150.109375 336.992188 145.753906 336.386719 C 141.902344 335.828125 138.050781 335.371094 134.199219 335.066406 C 128.777344 334.664062 123.300781 334.5625 117.878906 334.15625 C 114.941406 333.902344 112.003906 333.394531 109.113281 332.738281 C 104.097656 331.570312 98.976562 330.507812 94.113281 328.835938 C 89.199219 327.164062 85.195312 324.171875 82.964844 319.105469 C 81.445312 315.609375 79.417969 312.363281 77.59375 309.019531 C 77.441406 308.714844 77.289062 308.3125 77.035156 308.210938 C 76.277344 307.855469 75.464844 307.652344 74.652344 307.347656 C 74.550781 308.160156 74.148438 309.019531 74.351562 309.730469 C 74.753906 310.945312 75.566406 312.0625 76.175781 313.226562 C 77.492188 315.710938 78.859375 318.191406 80.078125 320.726562 C 82.863281 326.65625 87.527344 330.253906 93.707031 332.027344 C 93.960938 332.078125 94.214844 332.179688 94.46875 332.28125 C 101.207031 335.421875 108.503906 336.132812 115.703125 337.144531 C 121.125 337.90625 126.699219 337.652344 132.171875 338.160156 C 139.265625 338.765625 146.308594 340.035156 153.402344 340.386719 C 158.878906 340.640625 164.453125 339.933594 169.976562 339.730469 C 172.203125 339.628906 174.484375 339.882812 176.714844 339.832031 C 182.898438 339.628906 189.128906 339.375 195.3125 339.019531 C 199.773438 338.765625 204.28125 338.464844 208.742188 337.957031 C 214.367188 337.296875 219.941406 336.335938 225.566406 335.625 C 228.253906 335.269531 231.089844 335.574219 233.675781 334.914062 C 238.691406 333.597656 243.757812 332.230469 248.421875 330.101562 C 254.046875 327.566406 255.921875 321.539062 253.589844 315.253906 C 251.816406 310.488281 251.257812 305.574219 253.03125 300.761719 C 253.539062 299.339844 254.90625 298.277344 255.769531 296.960938 C 256.226562 296.25 256.425781 295.386719 256.78125 294.578125 C 255.820312 294.527344 254.453125 294.070312 253.945312 294.527344 C 252.527344 295.742188 250.902344 297.164062 250.347656 298.785156 C 248.878906 302.886719 247.964844 307.144531 249.179688 311.554688 C 249.890625 313.988281 250.652344 316.46875 251.15625 318.953125 C 251.664062 321.285156 251.054688 323.414062 249.230469 325.136719 C 248.320312 325.996094 247.609375 326.046875 247.304688 324.628906 C 246.292969 320.371094 245.328125 316.164062 244.214844 311.960938 C 243.605469 309.679688 242.746094 307.5 241.984375 305.21875 C 240.921875 302.027344 239.804688 298.835938 238.691406 295.691406 C 238.539062 295.289062 238.335938 294.882812 237.980469 294.070312 C 237.777344 294.832031 237.578125 295.238281 237.578125 295.640625 C 237.222656 300 237.828125 304.054688 239.703125 308.109375 C 241.679688 312.414062 242.695312 317.128906 244.214844 321.589844 C 244.722656 323.109375 245.582031 324.578125 246.242188 326.046875 C 246.648438 326.960938 246.394531 327.667969 245.328125 328.023438 C 242.390625 329.136719 239.300781 330.253906 236.105469 331.367188 Z M 236.105469 331.367188 " fill-opacity="1" fill-rule="nonzero"/><path fill="#8b5312" d="M 274.265625 311.757812 C 274.519531 313.074219 274.570312 314.441406 275.027344 315.710938 C 277.761719 323.414062 278.726562 331.0625 276.089844 339.121094 C 274.164062 344.847656 270.769531 349.054688 265.753906 352.09375 C 261.292969 354.78125 256.832031 357.566406 252.070312 359.59375 C 248.117188 361.316406 243.757812 362.230469 239.503906 363.089844 C 233.066406 364.410156 226.578125 365.472656 220.09375 366.535156 C 217.40625 366.992188 214.722656 367.144531 211.984375 367.398438 C 206.257812 367.957031 200.582031 368.511719 194.855469 369.019531 C 188.015625 369.628906 181.226562 370.488281 174.382812 370.589844 C 167.949219 370.691406 161.460938 370.035156 155.027344 369.476562 C 146.5625 368.765625 138.101562 367.957031 129.6875 366.941406 C 121.476562 365.980469 113.269531 364.761719 105.058594 363.546875 C 100.652344 362.886719 96.292969 361.722656 91.882812 361.367188 C 88.082031 361.0625 84.6875 359.898438 81.546875 357.972656 C 79.925781 356.960938 78.503906 355.539062 77.035156 354.273438 C 76.425781 356.707031 78.300781 360 81.34375 361.671875 C 84.585938 363.445312 88.03125 364.207031 91.730469 364.511719 C 93.554688 364.660156 95.328125 365.269531 97.152344 365.574219 C 103.03125 366.535156 108.910156 367.398438 114.789062 368.3125 C 117.929688 368.816406 121.023438 369.476562 124.164062 369.832031 C 129.433594 370.4375 134.753906 370.792969 140.078125 371.300781 C 143.21875 371.605469 146.359375 372.160156 149.503906 372.414062 C 154.925781 372.871094 160.347656 373.125 165.769531 373.480469 C 167.238281 373.582031 168.65625 373.785156 170.128906 373.734375 C 177.070312 373.480469 183.960938 373.226562 190.902344 372.871094 C 195.464844 372.617188 199.976562 372.261719 204.535156 371.707031 C 210.820312 370.945312 217.050781 370.035156 223.285156 369.171875 C 226.378906 368.765625 229.46875 368.511719 232.507812 367.90625 C 242.390625 365.980469 252.273438 363.953125 260.988281 358.53125 C 263.878906 356.707031 266.96875 355.136719 269.703125 353.109375 C 273.351562 350.421875 276.496094 347.027344 278.21875 342.820312 C 279.738281 339.171875 281.105469 335.117188 281.15625 331.265625 C 281.257812 325.4375 281.003906 319.359375 277.761719 314.085938 C 277.101562 312.972656 275.988281 312.160156 275.078125 311.199219 C 274.824219 311.453125 274.519531 311.605469 274.265625 311.757812 Z M 274.265625 311.757812 " fill-opacity="1" fill-rule="nonzero"/><path fill="#8b5312" d="M 55.449219 199.054688 C 55.851562 199.359375 56.359375 200.015625 56.664062 199.964844 C 57.375 199.761719 58.285156 199.359375 58.640625 198.75 C 59.453125 197.179688 59.90625 195.457031 60.617188 193.886719 C 63 188.613281 65.582031 183.394531 67.863281 178.074219 C 69.636719 173.96875 70.953125 169.613281 72.878906 165.558594 C 74.300781 162.617188 76.628906 160.085938 78.152344 157.195312 C 82.253906 149.390625 88.539062 143.816406 95.9375 139.308594 C 101.207031 136.113281 106.476562 132.820312 111.953125 129.933594 C 114.433594 128.613281 117.222656 127.90625 119.957031 127.144531 C 125.429688 125.675781 130.953125 124.5625 136.425781 123.039062 C 142.253906 121.417969 147.980469 119.441406 153.808594 117.617188 C 154.671875 117.363281 155.632812 117.210938 156.546875 117.113281 C 162.273438 116.757812 164.550781 112.855469 166.378906 108.292969 C 166.730469 107.433594 166.882812 106.46875 167.390625 105.761719 C 170.175781 101.910156 173.015625 98.160156 175.851562 94.308594 C 176.15625 93.851562 176.308594 93.34375 176.5625 92.835938 C 175.953125 92.6875 175.195312 92.230469 174.839844 92.484375 C 173.015625 93.546875 171.039062 94.613281 169.570312 96.132812 C 168.101562 97.652344 167.035156 99.679688 166.023438 101.554688 C 164.90625 103.632812 164.097656 105.863281 163.03125 107.9375 C 160.09375 113.613281 155.480469 117.113281 149.097656 118.125 C 141.34375 119.339844 133.539062 120.355469 125.886719 122.027344 C 120.3125 123.242188 114.636719 124.8125 109.621094 127.398438 C 102.324219 131.148438 95.277344 135.609375 88.640625 140.472656 C 84.535156 143.460938 80.785156 147.3125 77.949219 151.46875 C 73.640625 157.804688 68.828125 164.085938 66.546875 171.488281 C 63.960938 179.796875 60.3125 187.5 56.511719 195.253906 C 55.953125 196.367188 55.851562 197.585938 55.449219 199.054688 Z M 55.449219 199.054688 " fill-opacity="1" fill-rule="nonzero"/><path fill="#8b5312" d="M 74.601562 355.589844 C 73.132812 352.398438 67.914062 348.191406 65.734375 348.851562 C 63.65625 345.960938 62.339844 342.820312 61.882812 339.273438 C 61.277344 334.710938 59.90625 330.203125 60.871094 325.539062 C 61.578125 322.144531 62.441406 318.851562 64.417969 316.011719 C 66.851562 312.566406 67.863281 308.5625 68.167969 304.511719 C 68.320312 302.484375 68.21875 300.050781 65.429688 299.1875 C 65.128906 299.085938 64.875 298.632812 64.722656 298.328125 C 61.78125 292.347656 59.402344 286.164062 58.234375 279.578125 C 57.375 274.8125 56.613281 270 56.003906 265.1875 C 55.550781 261.636719 55.296875 258.089844 55.09375 254.542969 C 54.789062 249.019531 54.636719 243.445312 54.433594 237.921875 C 54.28125 233.363281 54.230469 228.851562 54.027344 224.289062 C 53.925781 221.960938 53.675781 219.679688 53.472656 217.347656 C 53.269531 217.296875 53.066406 217.246094 52.8125 217.195312 C 52.355469 218.363281 51.597656 219.476562 51.445312 220.640625 C 51.039062 224.644531 50.582031 228.648438 50.632812 232.652344 C 50.683594 237.921875 51.191406 243.140625 51.496094 248.414062 C 51.546875 249.019531 51.496094 249.628906 51.546875 250.1875 C 52.152344 258.292969 52.40625 266.453125 53.574219 274.460938 C 54.332031 279.882812 56.105469 285.203125 57.828125 290.472656 C 59.148438 294.375 60.667969 298.378906 62.898438 301.824219 C 65.480469 305.878906 64.417969 309.324219 62.59375 312.972656 C 61.476562 315.253906 60.261719 317.535156 59.25 319.863281 C 57.476562 323.765625 56.816406 327.769531 57.578125 332.179688 C 58.335938 336.6875 58.4375 341.300781 61.074219 345.253906 C 62.085938 346.773438 63.101562 348.34375 64.417969 349.664062 C 65.027344 350.269531 66.292969 350.320312 67.003906 350.523438 C 69.6875 352.296875 72.273438 354.070312 74.601562 355.589844 Z M 74.601562 355.589844 " fill-opacity="1" fill-rule="nonzero"/><path fill="#8b5312" d="M 223.4375 33.699219 C 221.410156 32.535156 219.484375 31.773438 217.914062 30.507812 C 216.140625 29.085938 214.46875 27.414062 213.152344 25.589844 C 210.464844 21.839844 207.929688 17.9375 205.601562 13.988281 C 202.8125 9.273438 199.214844 5.371094 194.601562 2.535156 C 190.550781 0 189.433594 0.152344 185.53125 3.140625 C 180.871094 6.6875 179.402344 12.113281 177.980469 17.332031 C 177.578125 18.800781 178.539062 20.675781 178.945312 22.804688 C 179.90625 20.269531 180.566406 18.191406 181.476562 16.214844 C 183.351562 12.0625 184.621094 7.5 188.574219 4.5625 C 189.789062 3.648438 190.953125 3.34375 192.425781 3.75 C 195.617188 4.710938 198.203125 6.585938 199.976562 9.222656 C 203.015625 13.632812 205.601562 18.292969 208.589844 22.753906 C 210.667969 25.84375 212.289062 29.289062 215.378906 31.671875 C 218.421875 34.003906 221.15625 36.6875 224.550781 39.679688 C 224.601562 38.414062 224.652344 37.601562 224.703125 36.488281 C 234.484375 33.292969 244.621094 35.828125 254.90625 35.878906 C 254.652344 35.574219 254.550781 35.371094 254.351562 35.21875 C 254.148438 35.066406 253.945312 34.964844 253.691406 34.8125 C 258.503906 30.660156 263.269531 26.554688 268.285156 22.246094 C 266.207031 27.0625 263.574219 31.570312 264.941406 36.890625 C 266.410156 29.339844 269.351562 22.195312 274.621094 16.976562 C 279.839844 11.859375 286.125 7.296875 294.636719 6.839844 C 294.179688 7.753906 293.925781 8.261719 293.675781 8.765625 C 292.457031 11.046875 290.582031 13.175781 290.226562 15.558594 C 289.824219 18.140625 288.65625 20.421875 288.203125 22.90625 C 288.101562 23.414062 287.695312 23.917969 287.339844 24.628906 C 288 24.578125 288.808594 24.730469 289.214844 24.375 C 289.519531 24.121094 289.265625 23.210938 289.46875 22.652344 C 289.722656 21.839844 290.128906 21.082031 290.53125 20.320312 C 290.835938 19.761719 291.648438 19.308594 291.597656 18.800781 C 291.394531 15.710938 293.066406 13.277344 294.28125 10.691406 C 294.6875 9.78125 295.296875 8.96875 295.652344 8.058594 C 296.359375 6.234375 295.449219 4.964844 293.472656 4.964844 C 288.605469 4.914062 284.453125 6.738281 280.753906 9.679688 C 275.027344 14.1875 269.199219 18.699219 263.523438 23.3125 C 259.46875 26.605469 255.617188 30.101562 251.613281 33.394531 C 251.105469 33.800781 250.195312 33.800781 249.433594 33.902344 C 249.128906 33.953125 248.777344 33.851562 248.472656 33.699219 C 241.730469 31.164062 234.6875 31.417969 227.695312 31.976562 C 226.125 32.230469 224.601562 33.242188 223.4375 33.699219 Z M 223.4375 33.699219 " fill-opacity="1" fill-rule="nonzero"/><path fill="#8b5312" d="M 244.417969 91.011719 C 238.4375 94.964844 228.300781 90.660156 226.679688 83.511719 C 226.226562 81.539062 225.007812 79.710938 223.996094 77.835938 C 223.4375 76.773438 222.578125 75.863281 221.714844 74.644531 C 222.375 74.644531 222.828125 74.542969 223.082031 74.695312 C 225.71875 76.214844 228.152344 75.101562 230.027344 73.480469 C 232.507812 71.351562 235.398438 70.4375 238.386719 69.679688 C 240.515625 69.121094 242.542969 69.324219 244.519531 70.289062 C 248.625 72.363281 249.992188 76.316406 251.5625 80.117188 C 252.476562 82.296875 252.980469 84.628906 253.691406 86.910156 C 250.851562 88.226562 247.304688 89.136719 244.417969 91.011719 Z M 245.175781 83.109375 C 244.316406 85.289062 242.644531 86.808594 240.515625 87.210938 C 238.234375 87.667969 235.800781 87.261719 234.433594 84.984375 C 232.203125 81.386719 232.203125 77.535156 233.472656 73.683594 C 231.648438 73.785156 231.292969 74.085938 230.683594 76.164062 C 230.277344 77.636719 229.621094 79.003906 229.265625 80.472656 C 228.300781 85.136719 231.394531 89.289062 236.105469 90.40625 C 239.753906 91.265625 243 90.8125 245.277344 87.515625 C 247.203125 84.78125 247.609375 81.585938 247.710938 78.34375 C 247.761719 77.433594 247.507812 76.46875 247.101562 75.660156 C 246.648438 74.746094 245.9375 74.039062 245.328125 73.226562 C 245.128906 73.328125 244.925781 73.429688 244.671875 73.582031 C 246.496094 76.671875 246.445312 79.863281 245.175781 83.109375 Z M 225.871094 77.484375 C 226.328125 78.496094 226.730469 79.460938 227.289062 80.675781 C 227.796875 79.308594 228.203125 78.191406 228.707031 76.875 C 227.59375 77.078125 226.78125 77.28125 225.871094 77.484375 Z M 225.871094 77.484375 " fill-opacity="1" fill-rule="nonzero"/><path fill="#8b5312" d="M 219.433594 257.027344 C 219.230469 259.460938 218.675781 261.890625 218.828125 264.324219 C 219.179688 270.558594 219.636719 276.839844 220.398438 283.023438 C 221.003906 287.886719 222.070312 292.753906 223.082031 297.566406 C 224.148438 302.789062 225.414062 307.957031 226.628906 313.125 C 226.730469 313.480469 226.832031 313.988281 227.085938 314.1875 C 227.695312 314.644531 228.453125 315 229.113281 315.40625 C 229.417969 314.59375 230.078125 313.734375 229.925781 313.023438 C 229.417969 310.289062 228.554688 307.652344 227.949219 304.964844 C 226.78125 299.441406 225.617188 293.917969 224.703125 288.34375 C 223.742188 282.71875 222.878906 277.042969 222.375 271.367188 C 222.070312 267.820312 222.171875 264.222656 222.527344 260.675781 C 222.929688 256.671875 223.894531 252.71875 224.402344 248.714844 C 225.515625 239.746094 231.648438 234.933594 238.589844 230.472656 C 242.238281 228.140625 245.429688 225 248.675781 222.011719 C 249.433594 221.300781 249.6875 219.984375 250.09375 218.867188 C 250.195312 218.613281 249.941406 217.90625 249.738281 217.90625 C 249.332031 217.855469 248.726562 217.957031 248.523438 218.210938 C 245.027344 224.085938 238.945312 226.773438 233.472656 230.066406 C 229.417969 232.550781 226.277344 235.84375 223.792969 239.796875 C 222.675781 241.570312 222.273438 243.800781 221.714844 245.878906 C 220.902344 248.714844 220.246094 251.605469 219.535156 254.492188 C 219.332031 255.304688 219.28125 256.164062 219.179688 257.027344 C 219.28125 257.027344 219.382812 257.027344 219.433594 257.027344 Z M 219.433594 257.027344 " fill-opacity="1" fill-rule="nonzero"/><path fill="#8b5312" d="M 292.253906 67.855469 C 291.496094 67.804688 290.683594 67.804688 289.925781 67.703125 C 288.910156 67.550781 287.796875 66.488281 287.1875 68.3125 C 286.832031 69.375 286.074219 70.386719 286.023438 71.503906 C 285.921875 73.429688 286.175781 75.40625 286.226562 77.382812 C 286.277344 81.992188 283.082031 84.273438 279.636719 86.199219 C 278.726562 86.707031 277.40625 86.554688 275.886719 86.757812 C 277.558594 89.695312 279.078125 92.28125 280.550781 94.914062 C 280.398438 95.015625 280.296875 95.167969 280.144531 95.269531 C 279.382812 94.460938 278.421875 93.800781 277.863281 92.886719 C 277.050781 91.621094 276.445312 90.203125 275.835938 88.835938 C 273.960938 84.679688 272.136719 80.472656 273.300781 75.710938 C 273.65625 74.289062 273.910156 72.871094 274.367188 71.503906 C 275.378906 68.613281 276.902344 65.015625 281.359375 64.613281 C 283.285156 64.460938 285.160156 64.207031 287.035156 64.054688 C 285.566406 60.960938 284.300781 57.617188 282.476562 54.578125 C 280.652344 51.585938 277.710938 49.308594 275.988281 46.214844 C 276.140625 46.0625 276.292969 45.914062 276.445312 45.761719 C 277.203125 46.164062 277.964844 46.570312 278.371094 46.824219 C 279.6875 43.175781 281.003906 39.578125 282.324219 36.03125 C 282.425781 35.777344 282.878906 35.421875 282.980469 35.472656 C 283.285156 35.625 283.640625 35.980469 283.640625 36.234375 C 283.691406 37.09375 283.640625 37.957031 283.488281 38.765625 C 282.929688 41.605469 282.273438 44.441406 281.714844 47.28125 C 281.460938 48.699219 281.816406 49.761719 282.929688 50.980469 C 285.871094 54.121094 287.746094 58.074219 288.253906 62.28125 C 288.503906 64.359375 289.46875 65.421875 290.785156 66.488281 C 291.242188 66.839844 291.851562 67.042969 292.40625 67.296875 C 292.355469 67.449219 292.304688 67.652344 292.253906 67.855469 Z M 282.019531 76.316406 C 282.121094 77.886719 280.851562 79.8125 279.636719 81.03125 C 278.269531 82.449219 276.34375 81.890625 274.164062 80.421875 C 274.621094 81.992188 274.621094 83.613281 275.328125 83.96875 C 276.191406 84.476562 277.660156 84.171875 278.777344 83.816406 C 279.839844 83.460938 280.902344 82.703125 281.714844 81.941406 C 285.109375 78.648438 285.414062 74.136719 282.476562 70.4375 C 281.613281 69.375 280.601562 68.460938 279.636719 67.449219 C 279.382812 67.601562 279.128906 67.753906 278.925781 67.90625 C 282.070312 70.035156 281.867188 73.378906 282.019531 76.316406 Z M 282.019531 76.316406 " fill-opacity="1" fill-rule="nonzero"/><path fill="#8b5312" d="M 176.867188 43.125 C 177.425781 47.6875 177.777344 52.296875 178.589844 56.859375 C 179.703125 63.292969 183.050781 68.613281 187.914062 72.921875 C 189.382812 74.238281 190.601562 73.582031 191.5625 72.414062 C 189.535156 69.984375 187.40625 67.652344 185.480469 65.167969 C 182.59375 61.367188 180.921875 57.011719 180.261719 52.296875 C 179.402344 46.164062 178.640625 40.035156 178.03125 33.851562 C 177.828125 31.621094 178.183594 29.339844 178.285156 27.113281 C 178.335938 26.25 178.335938 25.335938 177.929688 24.324219 C 177.675781 24.628906 177.273438 24.933594 177.222656 25.289062 C 176.765625 28.125 176.410156 30.960938 176.054688 33.800781 C 175.652344 36.738281 175.09375 39.679688 174.992188 42.617188 C 174.839844 48.292969 174.890625 53.917969 174.992188 59.59375 C 175.09375 63.039062 174.992188 66.585938 175.800781 69.882812 C 177.019531 74.847656 176.257812 79.863281 177.121094 84.78125 C 177.476562 86.859375 177.726562 88.9375 178.285156 90.960938 C 178.488281 91.671875 179.453125 92.128906 180.007812 92.6875 C 180.515625 91.824219 181.527344 90.960938 181.425781 90.152344 C 180.972656 85.996094 180.71875 81.6875 179.550781 77.6875 C 178.03125 72.3125 178.285156 66.839844 177.675781 61.417969 C 177.222656 57.113281 176.96875 52.753906 176.613281 48.394531 C 176.460938 46.621094 176.308594 44.847656 176.15625 43.074219 C 176.410156 43.125 176.613281 43.125 176.867188 43.125 Z M 176.867188 43.125 " fill-opacity="1" fill-rule="nonzero"/><path fill="#8b5312" d="M 262.558594 210.152344 C 266.207031 209.238281 267.828125 206.503906 268.996094 203.664062 C 270.261719 200.675781 271.425781 197.484375 271.882812 194.289062 C 272.695312 188.816406 273 183.242188 273.453125 177.71875 C 273.605469 175.742188 273.859375 173.714844 273.65625 171.789062 C 273.253906 167.484375 272.644531 163.175781 272.085938 158.917969 C 271.933594 157.753906 271.730469 156.585938 271.730469 155.371094 C 271.628906 151.925781 271.578125 148.480469 271.476562 145.085938 C 271.175781 145.035156 270.921875 144.984375 270.617188 144.882812 C 270.210938 146.199219 269.453125 147.515625 269.402344 148.886719 C 269.199219 153.191406 269.148438 157.449219 269.300781 161.757812 C 269.453125 165.304688 270.261719 168.800781 270.210938 172.347656 C 270.160156 177.464844 269.402344 182.535156 269.199219 187.652344 C 269.046875 192.3125 268.183594 196.824219 266.511719 201.132812 C 265.953125 202.5 265.195312 203.816406 264.636719 205.1875 C 263.925781 206.808594 263.21875 208.480469 262.558594 210.152344 Z M 262.558594 210.152344 " fill-opacity="1" fill-rule="nonzero"/><path fill="#8b5312" d="M 237.828125 282.769531 C 236.917969 277.804688 237.929688 272.9375 238.4375 268.023438 C 238.945312 263.160156 238.894531 258.191406 239.453125 253.328125 C 239.753906 250.488281 240.71875 247.703125 241.425781 244.863281 C 242.542969 240.457031 244.925781 236.859375 247.8125 233.414062 C 251.003906 229.664062 253.335938 225.40625 253.742188 220.335938 C 253.792969 219.984375 253.691406 219.578125 253.640625 218.765625 C 253.03125 219.375 252.628906 219.628906 252.375 220.035156 C 249.941406 223.835938 248.015625 228.140625 245.027344 231.4375 C 240.210938 236.757812 237.828125 242.9375 236.765625 249.730469 C 235.953125 255.101562 236.105469 260.625 235.851562 266.046875 C 235.753906 268.632812 235.449219 271.214844 235.652344 273.75 C 235.902344 276.789062 236.5625 279.78125 237.070312 282.769531 C 237.375 282.820312 237.628906 282.820312 237.828125 282.769531 Z M 237.828125 282.769531 " fill-opacity="1" fill-rule="nonzero"/><path fill="#8b5312" d="M 276.902344 114.679688 C 276.496094 113.058594 276.140625 111.941406 275.9375 110.828125 C 275.632812 109.207031 274.570312 108.140625 273.050781 107.9375 C 271.425781 107.6875 270.464844 106.976562 269.855469 105.507812 C 269.652344 105 268.945312 104.746094 268.488281 104.390625 C 268.132812 104.898438 267.675781 105.40625 267.527344 105.960938 C 267.070312 107.886719 268.082031 109.863281 270.617188 110.574219 C 273 111.234375 274.164062 112.652344 274.0625 114.628906 C 274.011719 116.351562 273.300781 118.328125 272.1875 119.644531 C 269.804688 122.535156 266.359375 123.597656 262.660156 123.648438 C 262.003906 123.648438 261.394531 123.699219 260.582031 123.699219 C 265.347656 126.941406 268.488281 125.878906 274.976562 119.238281 C 276.039062 120.355469 276.953125 121.671875 278.167969 122.535156 C 278.675781 122.886719 279.839844 122.382812 280.75 121.875 C 280.195312 121.671875 279.585938 121.417969 279.027344 121.214844 C 276.851562 120.457031 276.242188 119.136719 277.101562 116.960938 C 277.964844 114.679688 279.6875 113.160156 281.714844 111.992188 C 286.78125 109.105469 285.566406 101.046875 282.828125 97.753906 C 282.578125 97.449219 281.917969 97.5 281.460938 97.398438 C 281.359375 97.855469 281.15625 98.363281 281.207031 98.816406 C 281.308594 101.351562 281.613281 103.886719 281.5625 106.417969 C 281.5625 107.230469 280.953125 108.242188 280.296875 108.75 C 278.675781 109.964844 277.355469 111.183594 277.609375 113.414062 C 277.558594 113.5625 277.253906 113.917969 276.902344 114.679688 Z M 276.902344 114.679688 " fill-opacity="1" fill-rule="nonzero"/><g clip-path="url(#5990fa061c)"><path fill="#8b5312" d="M 292.964844 121.519531 C 291.699219 120.253906 290.53125 118.9375 289.214844 117.820312 C 288.300781 117.011719 287.949219 116.351562 288.503906 115.1875 C 288.910156 114.375 288.960938 113.414062 289.316406 111.992188 C 291.597656 112.296875 293.925781 112.550781 296.257812 112.855469 C 296.308594 112.753906 296.359375 112.652344 296.359375 112.550781 C 294.382812 111.890625 292.457031 111.03125 290.429688 110.625 C 288.605469 110.21875 288.960938 108.953125 288.65625 107.6875 C 293.976562 106.875 298.945312 108.34375 304.011719 109.207031 C 298.691406 107.382812 293.472656 105.355469 287.289062 105.914062 C 288.050781 104.1875 288.554688 102.769531 289.265625 101.453125 C 291.851562 96.6875 292.558594 91.417969 292.101562 86.25 C 291.851562 83.414062 289.976562 80.675781 288.707031 77.988281 C 288.554688 77.6875 287.644531 77.6875 287.085938 77.585938 C 287.238281 78.089844 287.339844 78.597656 287.542969 79.054688 C 288.253906 80.777344 289.367188 82.5 289.570312 84.273438 C 290.175781 89.039062 289.367188 93.699219 287.492188 98.210938 C 286.527344 100.539062 285.363281 102.921875 286.476562 105.609375 C 286.679688 106.0625 286.226562 106.773438 286.074219 107.433594 C 287.644531 108.75 287.492188 109.15625 284.550781 111.636719 C 285.3125 111.890625 285.921875 112.09375 286.730469 112.347656 C 286.277344 113.714844 286.832031 115.84375 283.84375 115.335938 C 284.402344 115.894531 284.703125 116.25 285.210938 116.808594 C 284.550781 117.515625 283.894531 118.175781 283.335938 118.988281 C 282.980469 119.542969 282.878906 120.203125 282.628906 120.863281 C 283.335938 120.914062 284.300781 121.265625 284.753906 120.960938 C 285.769531 120.152344 286.578125 118.988281 287.542969 117.871094 C 289.113281 119.136719 290.835938 120.507812 292.558594 121.875 C 292.8125 121.722656 292.863281 121.621094 292.964844 121.519531 Z M 292.964844 121.519531 " fill-opacity="1" fill-rule="nonzero"/></g><path fill="#8b5312" d="M 178.082031 278.664062 C 173.472656 261.4375 169.925781 244.003906 167.085938 226.417969 C 166.832031 226.417969 166.578125 226.417969 166.328125 226.417969 C 166.175781 226.925781 165.871094 227.484375 165.871094 227.988281 C 166.074219 230.371094 166.527344 232.703125 166.578125 235.035156 C 166.78125 242.28125 168.152344 249.324219 169.671875 256.316406 C 170.734375 261.183594 171.75 266.097656 173.21875 270.863281 C 174.128906 273.699219 174.535156 277.042969 178.082031 278.664062 Z M 178.082031 278.664062 " fill-opacity="1" fill-rule="nonzero"/><path fill="#8b5312" d="M 192.070312 7.90625 C 195.617188 13.988281 199.519531 19.914062 202.660156 26.25 C 205.851562 32.585938 207.476562 39.527344 207.121094 47.230469 C 209.300781 45.8125 210.3125 44.542969 210.210938 42.515625 C 209.855469 35.421875 208.234375 28.53125 204.738281 22.5 C 201.75 17.332031 197.238281 13.023438 193.386719 8.363281 C 193.082031 8.007812 192.578125 7.855469 192.171875 7.601562 C 192.171875 7.703125 192.121094 7.804688 192.070312 7.90625 Z M 192.070312 7.90625 " fill-opacity="1" fill-rule="nonzero"/><path fill="#8b5312" d="M 181.628906 99.324219 C 181.984375 100.640625 182.085938 102.164062 182.746094 103.277344 C 185.886719 108.445312 188.878906 113.765625 192.527344 118.582031 C 194.601562 121.367188 197.695312 123.496094 201.292969 124.410156 C 202.558594 124.710938 203.777344 124.5625 204.230469 123.140625 C 204.738281 121.773438 203.523438 121.316406 202.609375 120.914062 C 197.085938 118.429688 193.183594 114.019531 189.535156 109.359375 C 187.101562 106.265625 185.027344 102.921875 182.796875 99.730469 C 182.644531 99.476562 182.339844 99.324219 182.136719 99.171875 C 181.984375 99.171875 181.832031 99.222656 181.628906 99.324219 Z M 181.628906 99.324219 " fill-opacity="1" fill-rule="nonzero"/><path fill="#8b5312" d="M 190.703125 306.234375 C 190.144531 306.234375 189.636719 306.234375 189.128906 306.183594 C 189.078125 306.285156 189.078125 306.335938 189.027344 306.4375 C 189.839844 306.6875 190.703125 307.042969 191.5625 307.195312 C 191.714844 307.195312 192.273438 306.082031 192.121094 305.675781 C 191.613281 304.460938 190.851562 303.394531 190.144531 302.28125 C 188.167969 299.1875 186.242188 296.046875 184.164062 293.007812 C 182.035156 289.863281 180.566406 286.46875 179.550781 282.820312 C 179.453125 282.414062 178.996094 282.0625 178.488281 281.808594 C 178.03125 286.671875 179.957031 290.929688 182.339844 294.832031 C 184.773438 298.734375 187.8125 302.332031 190.703125 306.234375 Z M 190.703125 306.234375 " fill-opacity="1" fill-rule="nonzero"/><path fill="#8b5312" d="M 162.777344 223.988281 C 162.726562 222.820312 162.777344 221.65625 162.675781 220.488281 C 162.578125 218.816406 161.664062 217.652344 160.042969 217.5 C 158.523438 217.347656 157.964844 216.488281 157.761719 215.21875 C 157.40625 212.738281 157.101562 210.304688 156.800781 207.820312 C 156.75 207.210938 156.851562 206.605469 156.648438 206.046875 C 156.496094 205.589844 156.039062 205.289062 155.734375 204.882812 C 155.429688 205.238281 154.875 205.589844 154.875 205.996094 C 154.722656 207.617188 154.621094 209.238281 154.671875 210.914062 C 154.773438 213.140625 154.722656 215.421875 155.277344 217.550781 C 155.53125 218.613281 156.699219 219.933594 157.761719 220.289062 C 159.839844 220.996094 161.359375 222.0625 162.273438 224.085938 C 162.425781 224.085938 162.578125 224.039062 162.777344 223.988281 Z M 162.777344 223.988281 " fill-opacity="1" fill-rule="nonzero"/><path fill="#8b5312" d="M 255.414062 131.707031 C 261.597656 135.609375 274.0625 132.113281 277.914062 124.964844 C 274.367188 126.585938 270.972656 128.613281 267.273438 129.730469 C 263.574219 130.894531 259.519531 131.097656 255.414062 131.707031 Z M 255.414062 131.707031 " fill-opacity="1" fill-rule="nonzero"/><path fill="#8b5312" d="M 209.199219 116.402344 C 213.757812 115.539062 218.320312 114.628906 222.878906 113.816406 C 225.007812 113.414062 227.1875 113.160156 229.316406 112.855469 C 232.507812 112.398438 235.703125 111.738281 238.894531 111.585938 C 243.757812 111.335938 248.625 111.488281 253.792969 111.4375 C 253.082031 111.03125 252.375 110.320312 251.664062 110.269531 C 247.507812 110.015625 243.300781 109.359375 239.25 109.863281 C 233.625 110.523438 228.050781 112.144531 222.476562 113.3125 C 218.015625 114.222656 213.554688 115.136719 209.097656 115.996094 C 209.199219 116.148438 209.199219 116.300781 209.199219 116.402344 Z M 209.199219 116.402344 " fill-opacity="1" fill-rule="nonzero"/><path fill="#8b5312" d="M 256.882812 118.632812 C 255.617188 118.683594 254.25 118.429688 253.03125 118.785156 C 249.433594 119.898438 246.039062 121.519531 243.554688 124.5625 C 243.402344 124.761719 243.152344 124.914062 242.949219 125.066406 C 237.878906 129.78125 232.8125 134.492188 227.746094 139.257812 C 227.085938 139.914062 226.527344 140.726562 226.074219 141.539062 C 231.34375 136.875 236.511719 132.113281 241.882812 127.652344 C 245.128906 124.964844 248.726562 122.738281 252.273438 120.507812 C 253.539062 119.746094 255.261719 119.644531 256.730469 119.238281 C 256.882812 119.039062 256.882812 118.835938 256.882812 118.632812 Z M 256.882812 118.632812 " fill-opacity="1" fill-rule="nonzero"/><path fill="#8b5312" d="M 253.945312 115.136719 C 252.375 114.832031 251.054688 114.171875 249.839844 114.375 C 245.128906 115.1875 240.3125 115.894531 235.753906 117.414062 C 230.734375 119.085938 225.972656 121.621094 221.105469 123.851562 C 219.433594 124.613281 217.8125 125.472656 216.242188 126.539062 C 220.195312 124.964844 224.148438 123.394531 228.152344 121.925781 C 232.304688 120.40625 236.410156 118.785156 240.667969 117.667969 C 244.875 116.554688 249.179688 116.046875 253.945312 115.136719 Z M 253.945312 115.136719 " fill-opacity="1" fill-rule="nonzero"/><path fill="#8b5312" d="M 175.296875 135.710938 C 174.992188 134.644531 174.839844 133.632812 174.484375 132.769531 C 173.976562 131.605469 173.371094 130.4375 172.710938 129.375 C 172.40625 128.917969 171.800781 128.511719 171.292969 128.460938 C 169.367188 128.3125 169.46875 127.09375 169.773438 125.777344 C 170.128906 124.207031 170.582031 122.6875 171.089844 120.8125 C 170.480469 121.0625 170.078125 121.0625 170.027344 121.265625 C 169.265625 123.445312 168.503906 125.625 167.949219 127.855469 C 167.847656 128.3125 168.402344 129.273438 168.859375 129.425781 C 171.902344 130.539062 172.003906 134.390625 175.296875 135.710938 Z M 175.296875 135.710938 " fill-opacity="1" fill-rule="nonzero"/><path fill="#8b5312" d="M 199.722656 46.46875 C 200.785156 46.722656 201.597656 47.078125 202.40625 47.078125 C 203.167969 47.078125 204.179688 46.925781 204.636719 46.417969 C 204.992188 46.0625 204.738281 44.949219 204.433594 44.289062 C 203.976562 43.328125 203.21875 42.566406 202.609375 41.707031 C 202.355469 41.808594 202.152344 41.910156 201.902344 42.0625 C 202.253906 43.074219 202.660156 44.085938 203.167969 45.40625 C 201.953125 45.050781 200.835938 44.746094 199.773438 44.441406 C 197.441406 43.785156 196.679688 44.492188 197.136719 46.875 C 197.339844 47.789062 197.289062 48.75 197.390625 49.761719 C 199.46875 49.964844 199.773438 48.496094 199.722656 46.46875 Z M 199.722656 46.46875 " fill-opacity="1" fill-rule="nonzero"/><path fill="#8b5312" d="M 133.539062 309.171875 C 132.878906 312.414062 133.132812 315.507812 134.855469 318.292969 C 135.210938 318.902344 135.871094 319.308594 136.425781 319.710938 C 137.949219 320.777344 139.519531 321.839844 140.785156 322.652344 C 140.785156 321.941406 140.988281 320.574219 140.632812 319.359375 C 140.429688 318.75 139.0625 317.886719 138.554688 318.039062 C 136.578125 318.648438 135.71875 317.535156 135.210938 316.113281 C 134.550781 314.085938 134.199219 311.910156 133.742188 309.78125 C 133.691406 309.628906 133.589844 309.425781 133.539062 309.171875 Z M 133.539062 309.171875 " fill-opacity="1" fill-rule="nonzero"/><path fill="#8b5312" d="M 52.003906 215.167969 C 52.863281 214.105469 53.523438 213.242188 54.230469 212.484375 C 56.410156 210.101562 56.207031 209.238281 53.015625 207.921875 C 53.777344 206.605469 54.535156 205.289062 55.296875 203.96875 C 52.964844 204.730469 51.292969 206.046875 50.9375 208.429688 C 50.835938 208.988281 51.191406 210 51.648438 210.203125 C 53.117188 210.914062 53.015625 211.875 52.558594 213.140625 C 52.304688 213.699219 52.203125 214.257812 52.003906 215.167969 Z M 52.003906 215.167969 " fill-opacity="1" fill-rule="nonzero"/><path fill="#8b5312" d="M 258.960938 207.164062 C 258.707031 208.277344 258.503906 209.390625 258.253906 210.660156 C 255.363281 211.113281 255.820312 213.800781 254.90625 216.285156 C 255.769531 215.675781 256.175781 215.269531 256.730469 215.066406 C 257.492188 214.710938 258.300781 214.359375 259.0625 214.359375 C 260.53125 214.308594 261.191406 213.648438 260.886719 212.179688 C 260.582031 210.507812 260.277344 208.835938 259.925781 207.164062 C 259.621094 207.164062 259.265625 207.164062 258.960938 207.164062 Z M 258.960938 207.164062 " fill-opacity="1" fill-rule="nonzero"/><path fill="#8b5312" d="M 184.824219 41.503906 C 183.859375 43.582031 183.300781 45.761719 183.503906 48.089844 C 183.554688 48.394531 183.65625 48.851562 183.859375 48.953125 C 187.101562 50.625 186.902344 54.121094 188.21875 57.164062 C 187.863281 54.273438 187.609375 51.738281 187.152344 49.207031 C 187.050781 48.597656 186.140625 48.089844 185.226562 47.179688 C 185.328125 45.660156 185.429688 43.582031 185.53125 41.554688 C 185.328125 41.554688 185.078125 41.503906 184.824219 41.503906 Z M 184.824219 41.503906 " fill-opacity="1" fill-rule="nonzero"/><path fill="#8b5312" d="M 271.378906 141.992188 C 272.136719 140.726562 273 139.5625 273.554688 138.191406 C 274.367188 136.113281 272.59375 135.863281 271.023438 135.355469 C 271.628906 134.289062 272.136719 133.378906 272.644531 132.414062 C 272.542969 132.261719 272.390625 132.0625 272.289062 131.910156 C 271.628906 132.3125 270.71875 132.515625 270.363281 133.125 C 269.855469 134.039062 269.300781 135.863281 269.550781 136.0625 C 271.425781 137.230469 270.617188 138.953125 270.71875 140.472656 C 270.769531 140.980469 270.820312 141.488281 270.921875 141.992188 C 271.125 141.941406 271.277344 141.992188 271.378906 141.992188 Z M 271.378906 141.992188 " fill-opacity="1" fill-rule="nonzero"/><path fill="#8b5312" d="M 195.871094 312.011719 C 194.25 310.945312 193.082031 309.933594 191.765625 309.324219 C 191.207031 309.070312 190.09375 309.425781 189.636719 309.933594 C 189.332031 310.289062 189.738281 311.300781 189.992188 311.960938 C 190.195312 312.414062 190.753906 312.667969 191.003906 313.074219 C 191.765625 314.1875 192.476562 314.746094 193.488281 313.277344 C 193.894531 312.820312 194.703125 312.617188 195.871094 312.011719 Z M 195.871094 312.011719 " fill-opacity="1" fill-rule="nonzero"/><path fill="#8b5312" d="M 151.578125 190.1875 C 153.960938 188.414062 153.910156 187.652344 150.972656 186.03125 C 151.882812 184.8125 152.796875 183.597656 153.65625 182.433594 C 151.527344 182.332031 150.261719 183.445312 149.453125 185.015625 C 148.742188 186.4375 149.25 187.5 150.667969 188.261719 C 151.226562 188.511719 151.277344 189.425781 151.578125 190.1875 Z M 151.578125 190.1875 " fill-opacity="1" fill-rule="nonzero"/><path fill="#8b5312" d="M 239.25 285.558594 C 238.4375 284.949219 237.980469 284.441406 237.375 284.238281 C 236.714844 283.988281 235.953125 283.988281 235.246094 283.9375 C 235.195312 284.644531 234.941406 285.40625 235.09375 286.113281 C 235.398438 287.382812 235.902344 288.546875 236.410156 289.964844 C 239.90625 290.21875 237.578125 286.671875 239.25 285.558594 Z M 239.25 285.558594 " fill-opacity="1" fill-rule="nonzero"/><path fill="#8b5312" d="M 259.46875 295.894531 C 260.734375 297.71875 261.75 299.289062 262.914062 300.710938 C 263.21875 301.0625 263.976562 301.214844 264.484375 301.113281 C 264.839844 301.011719 265.195312 300.355469 265.246094 299.949219 C 265.296875 299.085938 265.246094 298.226562 265.042969 297.414062 C 264.941406 296.960938 264.433594 296.605469 264.128906 296.25 C 262.609375 297.464844 261.34375 295.792969 259.46875 295.894531 Z M 259.46875 295.894531 " fill-opacity="1" fill-rule="nonzero"/><path fill="#8b5312" d="M 144.433594 134.949219 C 145.5 134.492188 146.664062 133.9375 147.929688 133.378906 C 147.777344 133.074219 147.675781 132.667969 147.425781 132.515625 C 146.308594 131.859375 142.304688 133.328125 142.203125 134.59375 C 142.152344 135.355469 142.863281 136.46875 143.523438 136.824219 C 145.902344 137.988281 145.953125 138.089844 144.28125 140.015625 C 144.992188 139.410156 146.359375 138.75 146.308594 138.292969 C 146.105469 137.230469 145.246094 136.265625 144.433594 134.949219 Z M 144.433594 134.949219 " fill-opacity="1" fill-rule="nonzero"/><path fill="#8b5312" d="M 265.953125 303.902344 C 268.082031 303.496094 268.335938 305.066406 269.097656 306.132812 C 269.703125 306.992188 270.617188 307.652344 271.425781 308.414062 C 271.628906 307.296875 272.035156 306.183594 271.933594 305.066406 C 271.832031 304.054688 271.175781 303.089844 270.363281 302.28125 C 270.566406 303.496094 270.820312 304.710938 271.023438 305.878906 C 270.871094 305.929688 270.769531 305.980469 270.617188 306.03125 C 270.261719 305.269531 269.855469 304.460938 269.503906 303.699219 C 268.4375 301.671875 267.578125 301.621094 265.953125 303.902344 Z M 265.953125 303.902344 " fill-opacity="1" fill-rule="nonzero"/><path fill="#8b5312" d="M 65.785156 266.707031 C 66.445312 263.664062 66.191406 263.210938 63.300781 262.398438 C 63.554688 260.726562 63.859375 259.054688 64.164062 256.976562 C 62.238281 258.394531 61.378906 260.015625 61.378906 261.992188 C 61.378906 262.652344 62.289062 263.867188 62.746094 263.867188 C 64.875 263.714844 65.429688 265.035156 65.785156 266.707031 Z M 65.785156 266.707031 " fill-opacity="1" fill-rule="nonzero"/><path fill="#8b5312" d="M 182.796875 149.898438 C 182.746094 147.363281 182.695312 144.78125 182.59375 141.941406 C 179.753906 144.019531 180.160156 148.429688 182.796875 149.898438 Z M 182.796875 149.898438 " fill-opacity="1" fill-rule="nonzero"/><path fill="#8b5312" d="M 275.480469 45.355469 C 275.785156 42.363281 275.480469 42.0625 272.847656 41.351562 C 271.78125 41.097656 270.769531 40.4375 269.453125 39.882812 C 269.550781 40.4375 269.503906 41.148438 269.753906 41.402344 C 271.578125 42.71875 273.503906 43.988281 275.480469 45.355469 Z M 275.480469 45.355469 " fill-opacity="1" fill-rule="nonzero"/><path fill="#8b5312" d="M 271.628906 36.335938 C 273.300781 36.082031 273.605469 35.523438 272.441406 34.105469 C 271.476562 32.9375 271.832031 32.28125 272.949219 31.671875 C 273.707031 31.214844 274.46875 30.761719 275.632812 30 C 273.351562 29.492188 272.136719 30.507812 271.074219 31.671875 C 270.160156 32.6875 270.566406 33.699219 271.328125 34.664062 C 271.578125 35.066406 271.527344 35.625 271.628906 36.335938 Z M 271.628906 36.335938 " fill-opacity="1" fill-rule="nonzero"/><path fill="#8b5312" d="M 265.5 165.40625 C 264.535156 163.835938 263.625 162.210938 262.609375 160.691406 C 262.457031 160.4375 261.851562 160.4375 261.445312 160.335938 C 261.394531 160.792969 261.140625 161.402344 261.34375 161.707031 C 262.40625 163.175781 263.574219 164.542969 264.738281 165.960938 C 264.941406 165.761719 265.195312 165.609375 265.5 165.40625 Z M 265.5 165.40625 " fill-opacity="1" fill-rule="nonzero"/><path fill="#8b5312" d="M 288.808594 29.339844 C 289.46875 28.632812 289.875 28.175781 290.328125 27.71875 C 289.570312 27.261719 288.859375 26.503906 288.050781 26.402344 C 287.542969 26.351562 286.933594 27.210938 286.378906 27.667969 C 287.136719 28.175781 287.847656 28.683594 288.808594 29.339844 Z M 288.808594 29.339844 " fill-opacity="1" fill-rule="nonzero"/><path fill="#8b5312" d="M 283.285156 33.089844 C 284.550781 32.738281 285.667969 32.433594 286.78125 32.078125 C 287.136719 31.925781 287.339844 31.46875 287.644531 31.164062 C 287.339844 30.914062 287.035156 30.457031 286.679688 30.40625 C 284.855469 29.898438 283.640625 30.914062 283.285156 33.089844 Z M 283.285156 33.089844 " fill-opacity="1" fill-rule="nonzero"/><path fill="#8b5312" d="M 207.171875 50.878906 C 205.09375 50.929688 203.015625 50.980469 200.988281 51.03125 C 203.066406 51.6875 205.09375 53.058594 207.171875 51.585938 C 207.171875 51.335938 207.171875 51.082031 207.171875 50.878906 Z M 207.171875 50.878906 " fill-opacity="1" fill-rule="nonzero"/><path fill="#8b5312" d="M 262.050781 166.265625 C 260.632812 164.796875 259.519531 163.632812 258.300781 162.363281 C 257.492188 164.695312 258.808594 166.0625 262.050781 166.265625 Z M 262.050781 166.265625 " fill-opacity="1" fill-rule="nonzero"/><path fill="#8b5312" d="M 186.496094 153.699219 C 187.003906 152.28125 187.457031 150.8125 188.015625 149.238281 C 185.378906 150.101562 184.875 152.078125 186.496094 153.699219 Z M 186.496094 153.699219 " fill-opacity="1" fill-rule="nonzero"/><path fill="#8b5312" d="M 143.21875 327.261719 C 143.574219 326.402344 143.976562 325.488281 144.332031 324.628906 C 143.828125 324.476562 143.167969 324.019531 142.914062 324.222656 C 141.75 324.882812 141.699219 325.894531 143.21875 327.261719 Z M 143.21875 327.261719 " fill-opacity="1" fill-rule="nonzero"/><path fill="#8b5312" d="M 190.753906 155.117188 C 190.953125 153.648438 191.15625 152.382812 191.308594 151.011719 C 189.230469 151.671875 189.128906 152.484375 190.753906 155.117188 Z M 190.753906 155.117188 " fill-opacity="1" fill-rule="nonzero"/><path fill="#8b5312" d="M 197.898438 54.730469 C 199.621094 56.453125 201.191406 56.605469 202.304688 54.984375 C 200.835938 54.882812 199.46875 54.78125 197.898438 54.730469 Z M 197.898438 54.730469 " fill-opacity="1" fill-rule="nonzero"/><path fill="#ffffff" d="M 242.59375 74.390625 C 243.300781 75.710938 243.300781 77.382812 242.59375 78.699219 C 242.441406 78.953125 242.289062 79.207031 241.984375 79.359375 C 241.226562 79.710938 240.414062 78.800781 240.210938 77.988281 C 239.804688 76.316406 240.3125 74.441406 241.476562 73.277344 " fill-opacity="1" fill-rule="nonzero"/><path fill="#ffffff" d="M 278.523438 69.679688 C 278.925781 70.488281 279.332031 71.300781 279.179688 72.210938 C 279.027344 73.074219 278.066406 73.835938 277.304688 73.480469 C 276.597656 73.125 276.496094 72.164062 276.648438 71.351562 C 276.851562 70.488281 277.304688 69.679688 277.914062 69.070312 " fill-opacity="1" fill-rule="nonzero"/></svg>