<svg xmlns="http://www.w3.org/2000/svg" xmlns:xlink="http://www.w3.org/1999/xlink" width="1080" zoomAndPan="magnify" viewBox="0 0 810 809.999993" height="1080" preserveAspectRatio="xMidYMid meet" version="1.0"><defs><clipPath id="ef85833160"><path d="M 406 692 L 506 692 L 506 746.25 L 406 746.25 Z M 406 692 " clip-rule="nonzero"/></clipPath><clipPath id="3a05e130e9"><path d="M 291 692 L 390 692 L 390 746.25 L 291 746.25 Z M 291 692 " clip-rule="nonzero"/></clipPath></defs><path fill="#faa27c" d="M 562.449219 580.015625 C 556.207031 573.4375 547.710938 570.367188 539.3125 570.84375 L 468.84375 496.53125 L 441.144531 522.839844 L 511.613281 597.152344 C 510.703125 605.507812 513.292969 614.148438 519.535156 620.722656 C 530.765625 632.582031 549.488281 633.0625 561.34375 621.828125 C 573.152344 610.59375 573.683594 591.871094 562.449219 580.015625 Z M 562.449219 580.015625 " fill-opacity="1" fill-rule="nonzero"/><path fill="#faa27c" d="M 238.238281 591.296875 C 243.085938 583.664062 250.863281 579.007812 259.167969 577.902344 L 314.128906 491.492188 L 346.339844 511.988281 L 291.378906 598.402344 C 293.875 606.417969 292.960938 615.441406 288.113281 623.078125 C 279.328125 636.855469 261.085938 640.933594 247.261719 632.148438 C 233.535156 623.363281 229.453125 605.074219 238.238281 591.296875 Z M 238.238281 591.296875 " fill-opacity="1" fill-rule="nonzero"/><g clip-path="url(#ef85833160)"><path fill="#e9517a" d="M 477.148438 717.695312 C 477.148438 717.695312 501.199219 716.59375 505.855469 746.210938 L 406.25 746.210938 L 406.25 717.695312 L 432.363281 692.878906 L 478.109375 708.71875 Z M 477.148438 717.695312 " fill-opacity="1" fill-rule="nonzero"/></g><g clip-path="url(#3a05e130e9)"><path fill="#e9517a" d="M 319.988281 717.695312 C 319.988281 717.695312 296.417969 716.59375 291.90625 746.210938 L 389.445312 746.210938 L 389.445312 717.695312 L 363.863281 692.878906 L 323.875 701.039062 Z M 319.988281 717.695312 " fill-opacity="1" fill-rule="nonzero"/></g><path fill="#faa27c" d="M 319.746094 625.476562 L 319.746094 717.695312 L 388.632812 717.695312 L 398.902344 653.273438 L 406.25 717.695312 L 477.917969 717.695312 L 477.917969 625.476562 L 460.972656 592.160156 L 372.597656 592.160156 Z M 319.746094 625.476562 " fill-opacity="1" fill-rule="nonzero"/><path fill="#e9517a" d="M 518.285156 522.933594 L 470.667969 479.585938 L 467.882812 452.125 L 333.089844 466.960938 L 332.179688 474.015625 L 310.195312 477.328125 L 268.769531 544.296875 L 319.796875 568.542969 L 314.417969 591.921875 L 484.253906 591.921875 L 478.828125 560.957031 Z M 518.285156 522.933594 " fill-opacity="1" fill-rule="nonzero"/><path fill="#faa27c" d="M 693.066406 362.257812 C 693.066406 396.582031 661.625 424.425781 622.789062 424.425781 C 607.859375 424.425781 593.988281 420.296875 582.609375 413.191406 C 582.226562 413 581.890625 412.761719 581.507812 412.519531 C 562.449219 444.0625 533.3125 470.082031 497.886719 487.21875 C 468.410156 501.523438 434.570312 509.636719 398.566406 509.636719 C 363.332031 509.636719 330.066406 501.859375 301.027344 488.082031 C 265.695312 471.375 236.511719 445.886719 217.164062 414.921875 C 216.972656 414.679688 216.828125 414.394531 216.636719 414.152344 C 205.546875 420.632812 192.25 424.425781 177.945312 424.425781 C 139.113281 424.425781 107.671875 396.582031 107.671875 362.257812 C 107.671875 327.886719 139.113281 300.042969 177.945312 300.042969 C 183.179688 300.042969 188.265625 300.570312 193.164062 301.53125 C 206.75 211.902344 293.539062 142.773438 398.566406 142.773438 C 503.886719 142.773438 590.867188 212.285156 604.117188 302.296875 C 610.066406 300.859375 616.308594 300.042969 622.835938 300.042969 C 661.625 300.042969 693.066406 327.886719 693.066406 362.257812 Z M 693.066406 362.257812 " fill-opacity="1" fill-rule="nonzero"/><path stroke-linecap="butt" transform="matrix(0.480028, 0, 0, 0.480062, 7.440444, 83.246171)" fill="none" stroke-linejoin="miter" d="M 826.198211 398.499606 L 797.30181 568.602878 L 860.19685 548.496435 " stroke="#7b3d26" stroke-width="21.601999" stroke-opacity="1" stroke-miterlimit="10"/><path stroke-linecap="butt" transform="matrix(0.480028, 0, 0, 0.480062, 7.440444, 83.246171)" fill="none" stroke-linejoin="miter" d="M 1223.301981 572.29706 C 1223.301981 572.29706 1282.39679 496.403579 1354.202435 554.102804 M 1288.801034 604.796102 C 1336.796239 570.498791 1269.498791 538.300817 1269.498791 538.300817 " stroke="#7b3d26" stroke-width="21.601999" stroke-opacity="1" stroke-miterlimit="10"/><path stroke-linecap="butt" transform="matrix(0.480028, 0, 0, 0.480062, 7.440444, 83.246171)" fill="none" stroke-linejoin="miter" d="M 322.403166 558.203835 C 394.103023 500.496473 453.30362 576.398091 453.30362 576.398091 M 407.098673 542.296067 C 407.098673 542.296067 339.898875 574.502178 387.79643 608.799489 " stroke="#7b3d26" stroke-width="21.601999" stroke-opacity="1" stroke-miterlimit="10"/><path stroke-linecap="butt" transform="matrix(0.480028, 0, 0, 0.480062, 7.440444, 83.246171)" fill="none" stroke-linejoin="miter" d="M 929.300832 562.898865 C 929.300832 562.898865 930.49705 720.503757 823.797637 734.499338 C 717.098225 748.503056 728.596567 562.898865 728.596567 562.898865 " stroke="#7b3d26" stroke-width="21.601999" stroke-opacity="1" stroke-miterlimit="10"/><path fill="#e65631" d="M 505.902344 389.863281 C 502.6875 398.933594 496.398438 405.03125 491.789062 403.398438 C 487.230469 401.765625 486.078125 393.125 489.292969 384.003906 C 492.507812 374.933594 498.796875 368.835938 503.40625 370.46875 C 508.015625 372.101562 509.117188 380.742188 505.902344 389.863281 Z M 526.351562 370.46875 C 521.789062 368.835938 515.453125 374.933594 512.238281 384.003906 C 509.023438 393.078125 510.175781 401.765625 514.734375 403.398438 C 519.292969 405.03125 525.632812 398.933594 528.847656 389.863281 C 532.015625 380.742188 530.910156 372.101562 526.351562 370.46875 Z M 295.792969 370.46875 C 291.234375 368.835938 284.898438 374.933594 281.679688 384.003906 C 278.464844 393.078125 279.617188 401.765625 284.175781 403.398438 C 288.738281 405.03125 295.074219 398.933594 298.289062 389.863281 C 301.503906 380.742188 300.355469 372.101562 295.792969 370.46875 Z M 318.738281 370.46875 C 314.179688 368.835938 307.84375 374.933594 304.625 384.003906 C 301.410156 393.078125 302.5625 401.765625 307.121094 403.398438 C 311.683594 405.03125 318.019531 398.933594 321.234375 389.863281 C 324.402344 380.742188 323.300781 372.101562 318.738281 370.46875 Z M 318.738281 370.46875 " fill-opacity="1" fill-rule="nonzero"/><path fill="#e65631" d="M 193.117188 301.53125 C 193.117188 301.53125 438.792969 277.382812 481.371094 181.945312 C 481.371094 181.945312 509.214844 285.113281 611.507812 300.90625 C 611.507812 300.90625 670.070312 81.039062 400.535156 83.292969 C 141.800781 85.453125 193.117188 301.53125 193.117188 301.53125 Z M 193.117188 301.53125 " fill-opacity="1" fill-rule="nonzero"/><path stroke-linecap="butt" transform="matrix(0.480028, 0, 0, 0.480062, 7.440444, 83.246171)" fill="none" stroke-linejoin="miter" d="M 1064.400256 368.197545 L 991.398392 462.000488 L 911.300595 370.801374 M 991.300742 462.000488 L 999.397593 351.598135 " stroke="#7b3d26" stroke-width="21.601999" stroke-opacity="1" stroke-miterlimit="10"/><path stroke-linecap="butt" transform="matrix(0.480028, 0, 0, 0.480062, 7.440444, 83.246171)" fill="none" stroke-linejoin="miter" d="M 736.498118 368.197545 L 663.496255 462.000488 L 583.398457 370.801374 M 663.398604 462.000488 L 671.503593 351.598135 " stroke="#7b3d26" stroke-width="21.601999" stroke-opacity="1" stroke-miterlimit="10"/><path fill="#ffffff" d="M 520.542969 315.402344 C 520.542969 336.480469 504.558594 353.808594 484.0625 355.921875 C 482.667969 356.066406 481.226562 356.160156 479.835938 356.160156 C 457.324219 356.160156 439.082031 337.917969 439.082031 315.402344 C 439.082031 292.890625 457.324219 274.648438 479.835938 274.648438 C 482.238281 274.648438 484.636719 274.886719 486.941406 275.269531 C 505.996094 278.632812 520.542969 295.289062 520.542969 315.402344 Z M 520.542969 315.402344 " fill-opacity="1" fill-rule="nonzero"/><path fill="#7b3d26" d="M 510.460938 315.402344 C 510.460938 330.335938 499.132812 342.625 484.589844 344.113281 C 483.628906 344.207031 482.574219 344.304688 481.566406 344.304688 C 465.628906 344.304688 452.714844 331.390625 452.714844 315.453125 C 452.714844 299.515625 465.628906 286.550781 481.566406 286.550781 C 483.292969 286.550781 484.972656 286.695312 486.605469 286.984375 C 500.191406 289.335938 510.460938 301.144531 510.460938 315.402344 Z M 510.460938 315.402344 " fill-opacity="1" fill-rule="nonzero"/><path fill="#ffffff" d="M 368.949219 315.402344 C 368.949219 336.480469 352.964844 353.808594 332.46875 355.921875 C 331.074219 356.066406 329.636719 356.160156 328.242188 356.160156 C 305.730469 356.160156 287.488281 337.917969 287.488281 315.402344 C 287.488281 292.890625 305.730469 274.648438 328.242188 274.648438 C 330.644531 274.648438 333.042969 274.886719 335.347656 275.269531 C 354.40625 278.632812 368.949219 295.289062 368.949219 315.402344 Z M 368.949219 315.402344 " fill-opacity="1" fill-rule="nonzero"/><path fill="#7b3d26" d="M 358.871094 315.402344 C 358.871094 330.335938 347.539062 342.625 332.996094 344.113281 C 332.035156 344.207031 330.980469 344.304688 329.972656 344.304688 C 314.035156 344.304688 301.121094 331.390625 301.121094 315.453125 C 301.121094 299.515625 314.035156 286.550781 329.972656 286.550781 C 331.699219 286.550781 333.378906 286.695312 335.011719 286.984375 C 348.546875 289.335938 358.871094 301.144531 358.871094 315.402344 Z M 358.871094 315.402344 " fill-opacity="1" fill-rule="nonzero"/><path fill="#e65631" d="M 798.382812 283.574219 C 789.070312 263.894531 771.789062 258.132812 755.566406 261.683594 C 757.917969 256.835938 759.308594 251.363281 759.308594 245.601562 C 759.308594 225.199219 742.746094 208.636719 722.347656 208.636719 C 722.011719 208.636719 721.625 208.6875 721.289062 208.6875 C 721.960938 205.902344 722.347656 203.023438 722.347656 200.046875 C 722.347656 179.59375 705.785156 163.082031 685.382812 163.082031 C 677.128906 163.082031 669.542969 165.816406 663.398438 170.378906 C 656.390625 156.9375 642.324219 147.765625 626.101562 147.765625 C 602.867188 147.765625 584.003906 166.585938 584.003906 189.867188 C 584.003906 213.101562 602.820312 231.96875 626.101562 231.96875 C 637.140625 231.96875 647.175781 227.695312 654.664062 220.734375 C 661.289062 230.578125 672.566406 237.105469 685.335938 237.105469 C 685.671875 237.105469 686.058594 237.058594 686.394531 237.058594 C 685.71875 239.84375 685.335938 242.722656 685.335938 245.699219 C 685.335938 266.101562 701.898438 282.664062 722.296875 282.664062 C 723.402344 282.664062 724.457031 282.617188 725.5625 282.519531 C 721.386719 288.761719 718.652344 296.105469 718.027344 304.171875 C 705.304688 363.792969 759.019531 360.53125 748.554688 318.476562 C 752.589844 344.6875 796.222656 332.207031 778.125 309.738281 C 795.261719 327.550781 810 297.640625 798.382812 283.574219 Z M 798.382812 283.574219 " fill-opacity="1" fill-rule="nonzero"/><path fill="#e65631" d="M 11.570312 283.574219 C 20.882812 263.894531 38.164062 258.132812 54.386719 261.683594 C 52.035156 256.835938 50.644531 251.363281 50.644531 245.601562 C 50.644531 225.199219 67.203125 208.636719 87.605469 208.636719 C 87.941406 208.636719 88.324219 208.6875 88.660156 208.6875 C 87.988281 205.902344 87.605469 203.023438 87.605469 200.046875 C 87.605469 179.59375 104.167969 163.082031 124.566406 163.082031 C 132.824219 163.082031 140.410156 165.816406 146.550781 170.378906 C 153.5625 156.9375 167.625 147.765625 183.851562 147.765625 C 207.085938 147.765625 225.949219 166.585938 225.949219 189.867188 C 225.949219 213.101562 207.132812 231.96875 183.851562 231.96875 C 172.808594 231.96875 162.777344 227.695312 155.289062 220.734375 C 148.664062 230.578125 137.382812 237.105469 124.617188 237.105469 C 124.28125 237.105469 123.894531 237.058594 123.558594 237.058594 C 124.230469 239.84375 124.617188 242.722656 124.617188 245.699219 C 124.617188 266.101562 108.054688 282.664062 87.652344 282.664062 C 86.550781 282.664062 85.492188 282.617188 84.390625 282.519531 C 88.566406 288.761719 91.300781 296.105469 91.925781 304.171875 C 104.644531 363.792969 50.929688 360.53125 61.394531 318.476562 C 57.363281 344.6875 13.730469 332.207031 31.824219 309.738281 C 14.738281 327.550781 0 297.640625 11.570312 283.574219 Z M 11.570312 283.574219 " fill-opacity="1" fill-rule="nonzero"/><path fill="#fecf05" d="M 314.417969 591.921875 L 271.503906 681.597656 L 515.40625 681.597656 L 484.253906 591.921875 Z M 314.417969 591.921875 " fill-opacity="1" fill-rule="nonzero"/></svg>