<svg xmlns="http://www.w3.org/2000/svg" xmlns:xlink="http://www.w3.org/1999/xlink" width="500" zoomAndPan="magnify" viewBox="0 0 375 374.999991" height="500" preserveAspectRatio="xMidYMid meet" version="1.0"><defs><clipPath id="f5acdfa508"><path d="M 157.019531 211.265625 L 187.5 211.265625 L 187.5 243.175781 L 157.019531 243.175781 Z M 157.019531 211.265625 " clip-rule="nonzero"/></clipPath><clipPath id="45b6740783"><path d="M 172.257812 211.265625 C 176.300781 211.265625 180.179688 212.871094 183.035156 215.730469 C 185.894531 218.585938 187.5 222.464844 187.5 226.507812 L 187.5 227.863281 C 187.5 231.90625 185.894531 235.785156 183.035156 238.640625 C 180.179688 241.5 176.300781 243.105469 172.257812 243.105469 C 168.21875 243.105469 164.339844 241.5 161.484375 238.640625 C 158.625 235.785156 157.019531 231.90625 157.019531 227.863281 L 157.019531 226.507812 C 157.019531 222.464844 158.625 218.585938 161.484375 215.730469 C 164.339844 212.871094 168.21875 211.265625 172.257812 211.265625 Z M 172.257812 211.265625 " clip-rule="nonzero"/></clipPath><clipPath id="088d8397e2"><path d="M 28.164062 60 L 346.914062 60 L 346.914062 363.957031 L 28.164062 363.957031 Z M 28.164062 60 " clip-rule="nonzero"/></clipPath><clipPath id="671482608d"><path d="M 121 60 L 346.914062 60 L 346.914062 363.957031 L 121 363.957031 Z M 121 60 " clip-rule="nonzero"/></clipPath><clipPath id="b580ee093c"><path d="M 154 10.707031 L 267 10.707031 L 267 85 L 154 85 Z M 154 10.707031 " clip-rule="nonzero"/></clipPath></defs><g clip-path="url(#f5acdfa508)"><g clip-path="url(#45b6740783)"><path fill="#aeb7c6" d="M 157.019531 211.265625 L 187.5 211.265625 L 187.5 243.054688 L 157.019531 243.054688 Z M 157.019531 211.265625 " fill-opacity="1" fill-rule="nonzero"/></g></g><g clip-path="url(#088d8397e2)"><path fill="#fd0000" d="M 142.554688 80.855469 C 133.441406 80.902344 124.351562 81.269531 115.285156 82.277344 C 108.222656 83.066406 101.226562 84.171875 94.34375 85.933594 C 67.921875 92.703125 49.207031 108.6875 37.679688 133.257812 C 33.191406 142.824219 32.085938 153.21875 30.433594 163.472656 C 29.425781 169.726562 29.042969 176.058594 28.8125 182.382812 C 28.535156 190.078125 28.199219 197.777344 28.671875 205.492188 C 29.089844 212.40625 29.875 219.28125 31.027344 226.113281 C 32.753906 236.328125 36.066406 246.078125 40.128906 255.566406 C 45.929688 269.117188 53.320312 281.804688 61.464844 294.066406 C 67.460938 303.082031 74.007812 311.675781 81.371094 319.625 C 87.351562 326.082031 93.824219 332.03125 100.371094 337.890625 C 105.164062 342.183594 110.078125 346.335938 115.554688 349.773438 C 121.539062 353.527344 127.820312 356.640625 134.535156 358.886719 C 134.632812 358.980469 134.742188 359.058594 134.863281 359.121094 C 140.417969 361.117188 145.796875 363.660156 151.921875 363.742188 C 154.867188 363.789062 157.78125 363.957031 160.699219 363.429688 C 165.824219 362.507812 170.675781 360.710938 175.542969 358.953125 C 181.1875 356.914062 186.785156 354.777344 192.738281 353.667969 C 194.328125 353.371094 195.921875 353.113281 197.519531 352.894531 C 201.222656 352.378906 204.925781 352.050781 208.664062 351.839844 C 210.625 351.726562 212.609375 351.429688 214.542969 351.628906 C 217.625 351.945312 220.667969 352.683594 223.742188 353.105469 C 227.195312 353.570312 230.597656 354.316406 234.070312 354.667969 C 236.90625 354.953125 239.742188 355.128906 242.585938 355.273438 C 247.164062 355.527344 251.753906 355.878906 256.300781 355.1875 C 264.980469 353.871094 272.628906 350.261719 278.894531 344.089844 C 282.550781 340.484375 285.910156 336.574219 289.355469 332.761719 C 292.644531 329.125 296.039062 325.566406 298.832031 321.527344 C 304.773438 312.941406 310.386719 304.144531 315.5 295.03125 C 320.378906 286.339844 325.058594 277.570312 328.488281 268.179688 C 330.148438 263.628906 331.191406 258.875 333.023438 254.394531 C 336.726562 245.320312 340.082031 236.128906 342.183594 226.535156 C 343.640625 219.875 344.867188 213.183594 345.507812 206.390625 C 345.992188 201.332031 346.433594 196.277344 346.644531 191.203125 C 346.875 185.734375 346.167969 180.289062 346.378906 174.824219 C 346.453125 173.511719 346.414062 172.203125 346.257812 170.894531 C 345.5625 165.941406 344.777344 161 343.820312 156.082031 C 341.910156 145.992188 339.230469 136.109375 335.78125 126.433594 C 334.058594 121.644531 331.578125 117.183594 329.675781 112.488281 C 326.625 104.964844 322.179688 98.476562 316.503906 92.792969 C 311.386719 87.664062 306.160156 82.648438 300.597656 77.996094 C 293.691406 72.214844 285.992188 67.871094 277.28125 65.492188 C 267.296875 62.765625 257.160156 60.980469 246.769531 60.933594 " fill-opacity="1" fill-rule="nonzero"/></g><g clip-path="url(#671482608d)"><path fill="#d10001" d="M 142.554688 80.804688 C 142.429688 81.554688 145.828125 88.003906 145.332031 88.175781 C 142.320312 89.214844 137.550781 90.519531 134.988281 92.40625 C 132.769531 94.042969 130.683594 95.917969 130.425781 98.972656 C 130.359375 99.75 129.921875 99.785156 129.363281 99.554688 C 128.929688 99.378906 128.515625 99.160156 128.121094 98.90625 C 126.652344 97.925781 125.199219 96.910156 123.726562 95.929688 C 123.191406 95.566406 122.691406 95.398438 122.128906 96.011719 C 121.5625 96.621094 121.753906 97.109375 122.109375 97.628906 C 123.214844 99.246094 124.445312 100.722656 126.078125 101.902344 C 128.179688 103.417969 130.507812 104.484375 132.792969 105.601562 C 139.9375 109.097656 147.632812 110.367188 155.476562 110.886719 C 160.582031 111.222656 165.464844 110.039062 170.289062 108.507812 L 171.539062 108.101562 C 172.230469 107.871094 172.925781 107.640625 173.609375 107.40625 L 174.472656 107.113281 C 175.148438 106.878906 175.824219 106.648438 176.5 106.398438 L 177.734375 105.964844 L 178.890625 105.550781 C 182.625 104.226562 186.363281 102.921875 190.191406 101.882812 C 197.316406 99.957031 204.523438 98.59375 211.917969 98.585938 C 217 98.621094 222.039062 99.105469 227.035156 100.039062 C 230.691406 100.695312 234.460938 101.046875 237.914062 102.382812 C 244.628906 104.984375 250.589844 108.933594 255.855469 113.824219 C 260.648438 118.277344 264.746094 123.371094 268.679688 128.578125 C 274.695312 136.550781 280.292969 144.800781 284.035156 154.152344 C 286.167969 159.484375 288.175781 164.871094 289.257812 170.503906 C 290.84375 178.75 291.609375 187.125 292.394531 195.472656 C 292.824219 200.097656 293.148438 204.746094 293.214844 209.390625 C 293.285156 214.097656 293.351562 218.804688 293.058594 223.527344 C 292.726562 228.90625 292.046875 234.242188 291.015625 239.53125 C 289.707031 246.207031 287.933594 252.765625 285.460938 259.105469 C 284.191406 262.359375 282.539062 265.460938 281.199219 268.6875 C 277.390625 277.855469 274.441406 287.347656 270.609375 296.511719 C 267.414062 304.214844 262.921875 311.066406 257.128906 317.074219 C 252.597656 321.777344 247.871094 326.285156 242.761719 330.378906 C 239.070312 333.328125 235.363281 336.207031 231.027344 338.160156 C 228.082031 339.484375 225.101562 340.414062 221.746094 340.390625 C 215.394531 340.339844 209.035156 340.003906 202.683594 340.589844 C 200.464844 340.800781 198.277344 341.191406 196.121094 341.761719 L 195.890625 341.824219 C 195.660156 341.894531 195.402344 341.960938 195.164062 342.035156 L 194.777344 342.148438 L 194.164062 342.335938 C 193.828125 342.445312 193.496094 342.566406 193.164062 342.671875 C 192.984375 342.730469 192.804688 342.796875 192.628906 342.863281 L 192.140625 343.042969 L 191.644531 343.234375 C 191.480469 343.296875 191.316406 343.367188 191.15625 343.433594 C 190.832031 343.5625 190.511719 343.699219 190.195312 343.835938 C 189.269531 344.246094 188.355469 344.683594 187.453125 345.15625 C 187.355469 345.207031 187.253906 345.261719 187.152344 345.316406 L 186.820312 345.492188 C 186.675781 345.574219 186.519531 345.65625 186.359375 345.742188 C 185.886719 346.007812 185.414062 346.28125 184.941406 346.566406 C 177.921875 350.8125 171.101562 355.398438 163.21875 358.027344 C 157.285156 360.007812 151.289062 360.773438 145.078125 359.765625 C 141.558594 359.195312 138.03125 358.628906 134.441406 358.863281 L 134.476562 358.863281 C 134.574219 358.957031 134.683594 359.03125 134.804688 359.09375 C 140.359375 361.089844 145.738281 363.636719 151.863281 363.71875 C 153.101562 363.738281 154.332031 363.777344 155.570312 363.777344 C 157.195312 363.796875 158.8125 363.671875 160.417969 363.40625 C 165.539062 362.480469 170.390625 360.683594 175.261719 358.929688 C 180.90625 356.886719 186.503906 354.753906 192.453125 353.640625 C 194.046875 353.347656 195.640625 353.089844 197.234375 352.871094 C 200.941406 352.355469 204.644531 352.027344 208.382812 351.8125 C 209.894531 351.726562 211.421875 351.53125 212.929688 351.539062 C 213.449219 351.53125 213.972656 351.554688 214.492188 351.601562 C 217.574219 351.921875 220.613281 352.660156 223.691406 353.082031 C 227.144531 353.542969 230.546875 354.292969 234.015625 354.640625 C 236.855469 354.925781 239.691406 355.105469 242.535156 355.25 C 245.082031 355.386719 247.613281 355.558594 250.148438 355.5625 C 252.113281 355.578125 254.070312 355.441406 256.015625 355.160156 C 264.695312 353.847656 272.347656 350.234375 278.609375 344.0625 C 282.269531 340.460938 285.625 336.546875 289.074219 332.734375 C 292.363281 329.101562 295.757812 325.539062 298.550781 321.503906 C 304.488281 312.917969 310.101562 304.121094 315.214844 295.003906 C 320.097656 286.316406 324.777344 277.546875 328.203125 268.152344 C 329.867188 263.601562 330.90625 258.847656 332.742188 254.367188 C 336.445312 245.296875 339.800781 236.101562 341.902344 226.511719 C 343.359375 219.851562 344.582031 213.160156 345.226562 206.363281 C 345.707031 201.308594 346.152344 196.253906 346.359375 191.175781 C 346.59375 185.707031 345.882812 180.261719 346.09375 174.800781 C 346.171875 173.488281 346.132812 172.175781 345.972656 170.871094 C 345.28125 165.914062 344.492188 160.976562 343.539062 156.058594 C 341.628906 145.964844 338.949219 136.082031 335.5 126.40625 C 333.777344 121.617188 331.296875 117.160156 329.394531 112.460938 C 326.339844 104.941406 321.898438 98.453125 316.222656 92.765625 C 311.105469 87.636719 305.875 82.621094 300.316406 77.96875 C 293.410156 72.1875 285.710938 67.847656 276.996094 65.46875 C 267.085938 62.757812 257.015625 60.980469 246.703125 60.914062 L 162.675781 76.96875 " fill-opacity="1" fill-rule="nonzero"/></g><path fill="#feaf91" d="M 80.691406 130.089844 C 80.15625 142.113281 78.019531 153.820312 72.867188 164.84375 C 71.492188 167.777344 69.742188 170.480469 67.308594 172.683594 C 65.726562 174.125 63.945312 175.226562 61.753906 175.398438 C 58.117188 175.683594 55.710938 173.839844 54.132812 170.773438 C 52.683594 167.9375 52.253906 164.835938 52.117188 161.703125 C 51.882812 156.324219 52.976562 151.117188 54.351562 145.96875 C 56.253906 138.84375 59.007812 132.082031 63.558594 126.199219 C 65.234375 124.03125 67.21875 122.089844 69.113281 120.09375 C 70.917969 118.195312 73.078125 116.980469 75.757812 117.796875 C 78.558594 118.648438 79.597656 121.019531 80.132812 123.644531 C 80.570312 125.742188 80.554688 127.898438 80.691406 130.089844 Z M 80.691406 130.089844 " fill-opacity="1" fill-rule="nonzero"/><path fill="#feaf90" d="M 52.046875 194.394531 C 52.003906 192.648438 52.183594 190.945312 52.9375 189.339844 C 54.699219 185.589844 58.796875 184.867188 61.671875 187.847656 C 63.824219 190.085938 64.679688 192.964844 65.417969 195.863281 C 66.253906 199.15625 66.574219 202.492188 65.546875 205.804688 C 64.84375 208.078125 63.695312 210.144531 61.042969 210.429688 C 58.328125 210.71875 56.402344 209.183594 55.421875 206.835938 C 53.757812 202.84375 52.046875 198.832031 52.046875 194.394531 Z M 52.046875 194.394531 " fill-opacity="1" fill-rule="nonzero"/><path fill="#8d4314" d="M 159.339844 49.070312 C 158.097656 44.0625 156.605469 39.128906 154.863281 34.273438 C 152.851562 28.644531 150.542969 23.175781 146.351562 18.722656 C 142.492188 14.628906 140.5 14.316406 135.597656 17.105469 C 135.558594 17.128906 135.523438 17.15625 135.488281 17.1875 C 126.746094 21.730469 118.890625 27.273438 114.019531 36.183594 C 112.878906 37.570312 114.09375 38.109375 114.945312 38.777344 C 115.296875 39.148438 115.640625 39.53125 116 39.882812 C 122.996094 46.632812 128.972656 54.183594 133.933594 62.542969 C 137.40625 68.417969 139.984375 74.683594 142.320312 81.066406 C 143.355469 83.144531 144.175781 85.300781 144.785156 87.539062 C 146.527344 91.867188 147.269531 96.429688 147.8125 101.015625 C 148.066406 103.164062 148.507812 104.945312 150.914062 105.511719 C 151.40625 105.65625 151.886719 105.824219 152.359375 106.019531 L 152.445312 105.964844 L 152.359375 106.019531 L 153.175781 106.214844 C 157.222656 107.21875 161.015625 107.046875 164.210938 103.902344 C 165.136719 102.976562 165.628906 101.925781 165.4375 100.640625 C 165.003906 97.746094 164.753906 94.832031 164.6875 91.902344 C 164.644531 89.105469 164.453125 86.320312 164.121094 83.542969 " fill-opacity="1" fill-rule="nonzero"/><path fill="#8e4416" d="M 135.488281 16.96875 C 138.230469 18.304688 138.460938 21.453125 136.070312 24.089844 C 133.308594 27.132812 129.917969 29.335938 126.433594 31.417969 C 123.773438 32.972656 120.996094 34.28125 118.101562 35.347656 C 116.746094 35.859375 115.433594 36.121094 114.015625 35.953125 C 118.890625 27.050781 126.746094 21.511719 135.488281 16.96875 Z M 135.488281 16.96875 " fill-opacity="1" fill-rule="nonzero"/><path fill="#6c280b" d="M 164.21875 103.695312 C 164.988281 102.9375 165.449219 102.078125 165.484375 101.09375 C 165.480469 100.949219 165.46875 100.804688 165.445312 100.664062 C 165.007812 97.761719 164.753906 94.839844 164.6875 91.902344 C 164.644531 89.105469 164.453125 86.320312 164.121094 83.542969 L 159.339844 49.070312 C 158.097656 44.066406 156.605469 39.132812 154.863281 34.273438 C 152.851562 28.644531 150.542969 23.175781 146.351562 18.722656 C 142.511719 14.652344 140.519531 14.332031 135.679688 17.058594 C 138.242188 18.445312 138.40625 21.511719 136.070312 24.082031 C 133.308594 27.125 129.917969 29.328125 126.433594 31.410156 C 123.773438 32.964844 120.996094 34.277344 118.101562 35.339844 C 116.832031 35.867188 115.511719 36.074219 114.140625 35.957031 L 114.015625 36.175781 C 113.773438 36.433594 113.621094 36.730469 113.550781 37.074219 C 113.628906 37.703125 114.367188 38.09375 114.941406 38.542969 C 116.390625 38.53125 117.882812 38.734375 119.285156 38.46875 C 124.492188 37.492188 129.238281 35.335938 133.59375 32.359375 C 136.417969 30.421875 140.003906 30.476562 142.160156 33.066406 C 145.050781 36.46875 147.347656 40.234375 149.050781 44.359375 C 150.6875 48.425781 151.625 52.707031 152.589844 56.96875 C 153.355469 60.355469 155.214844 69.082031 155.960938 72.460938 C 155.960938 72.398438 156.929688 81.597656 156.976562 81.5625 C 157.03125 81.851562 157.066406 82.144531 157.085938 82.4375 C 157.285156 86.828125 157.472656 91.199219 157.386719 95.585938 C 157.386719 95.957031 157.433594 96.328125 157.464844 96.699219 C 157.886719 102.125 157.734375 103.890625 152.699219 105.5625 C 152.574219 105.621094 152.457031 105.695312 152.347656 105.777344 L 153.164062 105.972656 C 157.230469 107 161.023438 106.824219 164.21875 103.695312 Z M 164.21875 103.695312 " fill-opacity="1" fill-rule="nonzero"/><g clip-path="url(#b580ee093c)"><path fill="#1ad319" d="M 264.078125 11.542969 C 263.613281 11.492188 263.152344 11.472656 262.6875 11.441406 C 259.101562 11.222656 255.511719 10.871094 251.921875 10.820312 C 245.140625 10.71875 238.359375 10.746094 231.574219 10.804688 C 228.113281 10.835938 224.675781 11.136719 221.261719 11.714844 C 213.726562 12.988281 206.417969 15.109375 199.273438 17.789062 C 182.535156 24.070312 168.628906 33.859375 159.664062 49.753906 C 159.558594 50.125 159.449219 50.492188 159.34375 50.863281 C 159.394531 51.117188 159.3125 51.3125 159.097656 51.457031 C 157.125 55.277344 156.101562 59.382812 155.433594 63.597656 C 155.246094 64.78125 155.042969 65.964844 154.847656 67.148438 C 154.714844 69.515625 154.535156 71.875 154.5625 74.25 C 154.578125 75.652344 154.871094 77.023438 154.894531 78.410156 C 154.914062 79.722656 156.023438 80.058594 156.835938 80.671875 C 159.289062 81.484375 161.601562 82.6875 164.121094 83.308594 C 169.179688 84.375 174.304688 84.667969 179.449219 84.488281 C 188.363281 84.179688 197.273438 83.863281 206.09375 82.316406 C 216.882812 80.425781 226.894531 76.617188 236.042969 70.585938 C 240.0625 67.9375 243.300781 64.433594 246.542969 60.933594 C 246.824219 60.566406 247.105469 60.195312 247.390625 59.828125 C 250.953125 55.285156 254.675781 50.851562 257.632812 45.875 C 261.746094 38.960938 263.945312 31.378906 265.214844 23.496094 C 265.71875 20.375 266.222656 17.253906 266.308594 14.082031 C 266.359375 12.316406 265.796875 11.726562 264.078125 11.542969 Z M 158.109375 56.394531 C 158.050781 56.628906 157.996094 56.84375 157.9375 57.0625 C 158 56.851562 158.0625 56.628906 158.113281 56.40625 Z M 158.109375 56.394531 " fill-opacity="1" fill-rule="nonzero"/></g><path fill="#009f02" d="M 246.542969 60.9375 C 243.300781 64.433594 240.0625 67.941406 236.042969 70.589844 C 226.894531 76.617188 216.882812 80.429688 206.09375 82.320312 C 197.273438 83.863281 188.363281 84.183594 179.449219 84.492188 C 174.300781 84.667969 169.179688 84.375 164.121094 83.308594 C 161.601562 82.691406 159.289062 81.484375 156.835938 80.675781 C 156.023438 80.0625 154.914062 79.726562 154.894531 78.414062 C 154.871094 77.027344 154.578125 75.652344 154.5625 74.25 C 154.535156 71.878906 154.714844 69.515625 154.847656 67.152344 C 155.042969 65.96875 155.246094 64.785156 155.433594 63.601562 C 156.101562 59.386719 157.125 55.277344 159.097656 51.457031 C 158.78125 54.519531 157.707031 57.417969 157.207031 60.445312 C 156.539062 64.222656 156.492188 68.007812 157.074219 71.796875 C 157.164062 72.492188 157.355469 73.160156 157.648438 73.796875 C 158.34375 75.207031 158.460938 75.238281 159.558594 74.09375 C 164.3125 69.121094 169.691406 64.875 175.121094 60.691406 C 183.511719 54.234375 192.332031 48.398438 201.292969 42.765625 C 209.710938 37.472656 218.320312 32.511719 227.160156 27.96875 C 233.726562 24.59375 240.363281 21.371094 247.066406 18.292969 C 252.234375 15.914062 257.441406 13.632812 262.6875 11.445312 C 263.152344 11.480469 263.613281 11.496094 264.078125 11.546875 C 265.792969 11.730469 266.355469 12.320312 266.304688 14.089844 C 266.21875 17.257812 265.714844 20.382812 265.210938 23.503906 C 263.941406 31.390625 261.738281 38.96875 257.628906 45.882812 C 254.667969 50.859375 250.949219 55.292969 247.386719 59.839844 C 247.105469 60.195312 246.824219 60.566406 246.542969 60.9375 Z M 246.542969 60.9375 " fill-opacity="1" fill-rule="nonzero"/></svg>