<svg xmlns="http://www.w3.org/2000/svg" xmlns:xlink="http://www.w3.org/1999/xlink" width="500" zoomAndPan="magnify" viewBox="0 0 375 374.999991" height="500" preserveAspectRatio="xMidYMid meet" version="1.0"><defs><clipPath id="d6bf799d3e"><path d="M 102.925781 83.835938 L 215.425781 83.835938 L 215.425781 196.335938 L 102.925781 196.335938 Z M 102.925781 83.835938 " clip-rule="nonzero"/></clipPath><clipPath id="139c87a663"><path d="M 28.472656 276 L 346.472656 276 L 346.472656 368 L 28.472656 368 Z M 28.472656 276 " clip-rule="nonzero"/></clipPath><clipPath id="23b697392d"><path d="M 102 7.296875 L 181 7.296875 L 181 55 L 102 55 Z M 102 7.296875 " clip-rule="nonzero"/></clipPath></defs><g clip-path="url(#d6bf799d3e)"><path fill="#fdc71d" d="M 102.925781 83.835938 L 215.425781 83.835938 L 215.425781 196.335938 L 102.925781 196.335938 Z M 102.925781 83.835938 " fill-opacity="1" fill-rule="nonzero"/></g><path fill="#5ed5e5" d="M 342.617188 322.289062 C 342.617188 322.972656 342.554688 323.65625 342.429688 324.339844 C 342.304688 325.023438 342.117188 325.707031 341.867188 326.386719 C 341.621094 327.066406 341.308594 327.746094 340.9375 328.421875 C 340.5625 329.097656 340.128906 329.773438 339.636719 330.445312 C 339.140625 331.113281 338.582031 331.78125 337.964844 332.445312 C 337.347656 333.109375 336.671875 333.765625 335.933594 334.421875 C 335.199219 335.078125 334.402344 335.726562 333.546875 336.371094 C 332.691406 337.015625 331.777344 337.652344 330.804688 338.285156 C 329.835938 338.914062 328.804688 339.539062 327.71875 340.160156 C 326.632812 340.777344 325.492188 341.386719 324.296875 341.992188 C 323.101562 342.59375 321.847656 343.1875 320.542969 343.777344 C 319.238281 344.363281 317.878906 344.941406 316.46875 345.507812 C 315.058594 346.078125 313.597656 346.636719 312.085938 347.1875 C 310.570312 347.734375 309.011719 348.273438 307.398438 348.804688 C 305.789062 349.332031 304.128906 349.851562 302.425781 350.355469 C 300.71875 350.863281 298.96875 351.359375 297.175781 351.84375 C 295.378906 352.324219 293.542969 352.796875 291.660156 353.257812 C 289.777344 353.714844 287.855469 354.164062 285.894531 354.597656 C 283.929688 355.03125 281.929688 355.453125 279.890625 355.859375 C 277.851562 356.265625 275.777344 356.660156 273.664062 357.039062 C 271.554688 357.421875 269.410156 357.785156 267.230469 358.136719 C 265.054688 358.488281 262.84375 358.824219 260.605469 359.148438 C 258.367188 359.472656 256.097656 359.777344 253.804688 360.070312 C 251.507812 360.363281 249.1875 360.640625 246.84375 360.902344 C 244.496094 361.164062 242.128906 361.410156 239.738281 361.640625 C 237.347656 361.871094 234.9375 362.085938 232.507812 362.285156 C 230.078125 362.480469 227.632812 362.664062 225.167969 362.832031 C 222.703125 362.996094 220.226562 363.148438 217.738281 363.28125 C 215.246094 363.414062 212.746094 363.53125 210.234375 363.632812 C 207.722656 363.730469 205.203125 363.816406 202.675781 363.882812 C 200.152344 363.949219 197.621094 364 195.082031 364.03125 C 192.546875 364.066406 190.011719 364.082031 187.472656 364.082031 C 184.933594 364.082031 182.394531 364.066406 179.859375 364.03125 C 177.320312 364 174.789062 363.949219 172.265625 363.882812 C 169.738281 363.816406 167.21875 363.730469 164.707031 363.632812 C 162.195312 363.53125 159.695312 363.414062 157.203125 363.28125 C 154.714844 363.148438 152.238281 362.996094 149.773438 362.832031 C 147.3125 362.664062 144.863281 362.480469 142.433594 362.285156 C 140.003906 362.085938 137.59375 361.871094 135.203125 361.640625 C 132.8125 361.410156 130.445312 361.164062 128.097656 360.902344 C 125.753906 360.640625 123.433594 360.363281 121.136719 360.070312 C 118.84375 359.777344 116.574219 359.472656 114.335938 359.148438 C 112.097656 358.824219 109.886719 358.488281 107.710938 358.136719 C 105.53125 357.785156 103.386719 357.421875 101.277344 357.039062 C 99.164062 356.660156 97.089844 356.265625 95.050781 355.859375 C 93.011719 355.453125 91.011719 355.03125 89.046875 354.597656 C 87.085938 354.164062 85.164062 353.714844 83.28125 353.257812 C 81.398438 352.796875 79.5625 352.324219 77.765625 351.84375 C 75.972656 351.359375 74.222656 350.863281 72.515625 350.355469 C 70.8125 349.851562 69.152344 349.332031 67.542969 348.804688 C 65.929688 348.273438 64.371094 347.734375 62.855469 347.1875 C 61.34375 346.636719 59.882812 346.078125 58.472656 345.507812 C 57.0625 344.941406 55.703125 344.363281 54.398438 343.777344 C 53.09375 343.1875 51.84375 342.59375 50.644531 341.992188 C 49.449219 341.386719 48.308594 340.777344 47.222656 340.160156 C 46.136719 339.539062 45.105469 338.914062 44.136719 338.285156 C 43.164062 337.652344 42.25 337.015625 41.394531 336.371094 C 40.539062 335.726562 39.742188 335.078125 39.007812 334.421875 C 38.269531 333.765625 37.59375 333.109375 36.976562 332.445312 C 36.359375 331.78125 35.800781 331.113281 35.308594 330.445312 C 34.8125 329.773438 34.378906 329.097656 34.003906 328.421875 C 33.632812 327.746094 33.320312 327.066406 33.074219 326.386719 C 32.824219 325.707031 32.636719 325.023438 32.511719 324.339844 C 32.386719 323.65625 32.324219 322.972656 32.324219 322.289062 C 32.324219 321.605469 32.386719 320.921875 32.511719 320.238281 C 32.636719 319.554688 32.824219 318.875 33.074219 318.195312 C 33.320312 317.511719 33.632812 316.835938 34.003906 316.15625 C 34.378906 315.480469 34.8125 314.808594 35.308594 314.136719 C 35.800781 313.464844 36.359375 312.796875 36.976562 312.136719 C 37.59375 311.472656 38.269531 310.8125 39.007812 310.15625 C 39.742188 309.503906 40.539062 308.855469 41.394531 308.210938 C 42.25 307.566406 43.164062 306.929688 44.136719 306.296875 C 45.105469 305.664062 46.136719 305.039062 47.222656 304.421875 C 48.308594 303.800781 49.449219 303.191406 50.644531 302.589844 C 51.84375 301.984375 53.09375 301.390625 54.398438 300.804688 C 55.703125 300.21875 57.0625 299.640625 58.472656 299.070312 C 59.882812 298.5 61.34375 297.941406 62.855469 297.394531 C 64.371094 296.84375 65.929688 296.304688 67.542969 295.777344 C 69.152344 295.246094 70.8125 294.730469 72.515625 294.222656 C 74.222656 293.714844 75.972656 293.222656 77.765625 292.738281 C 79.5625 292.253906 81.398438 291.78125 83.28125 291.324219 C 85.164062 290.863281 87.085938 290.417969 89.046875 289.984375 C 91.011719 289.550781 93.011719 289.128906 95.050781 288.722656 C 97.089844 288.3125 99.164062 287.917969 101.277344 287.539062 C 103.386719 287.160156 105.53125 286.792969 107.710938 286.441406 C 109.886719 286.089844 112.097656 285.753906 114.335938 285.429688 C 116.574219 285.109375 118.84375 284.800781 121.136719 284.507812 C 123.433594 284.214844 125.753906 283.9375 128.097656 283.675781 C 130.445312 283.414062 132.8125 283.167969 135.203125 282.9375 C 137.59375 282.707031 140.003906 282.496094 142.433594 282.296875 C 144.863281 282.097656 147.3125 281.914062 149.773438 281.75 C 152.238281 281.582031 154.714844 281.433594 157.203125 281.300781 C 159.695312 281.164062 162.195312 281.050781 164.707031 280.949219 C 167.21875 280.847656 169.738281 280.765625 172.265625 280.699219 C 174.789062 280.628906 177.320312 280.582031 179.859375 280.546875 C 182.394531 280.511719 184.933594 280.496094 187.472656 280.496094 C 190.011719 280.496094 192.546875 280.511719 195.082031 280.546875 C 197.621094 280.582031 200.152344 280.628906 202.675781 280.699219 C 205.203125 280.765625 207.722656 280.847656 210.234375 280.949219 C 212.746094 281.050781 215.246094 281.164062 217.738281 281.300781 C 220.226562 281.433594 222.703125 281.582031 225.167969 281.75 C 227.632812 281.914062 230.078125 282.097656 232.507812 282.296875 C 234.9375 282.496094 237.347656 282.707031 239.738281 282.9375 C 242.128906 283.167969 244.496094 283.414062 246.84375 283.675781 C 249.1875 283.9375 251.507812 284.214844 253.804688 284.507812 C 256.097656 284.800781 258.367188 285.109375 260.605469 285.429688 C 262.84375 285.753906 265.054688 286.089844 267.230469 286.441406 C 269.410156 286.792969 271.554688 287.160156 273.664062 287.539062 C 275.777344 287.917969 277.851562 288.3125 279.890625 288.722656 C 281.929688 289.128906 283.929688 289.550781 285.894531 289.984375 C 287.855469 290.417969 289.777344 290.863281 291.660156 291.324219 C 293.542969 291.78125 295.378906 292.253906 297.175781 292.738281 C 298.96875 293.222656 300.71875 293.714844 302.425781 294.222656 C 304.128906 294.730469 305.789062 295.246094 307.398438 295.777344 C 309.011719 296.304688 310.570312 296.84375 312.085938 297.394531 C 313.597656 297.941406 315.058594 298.5 316.46875 299.070312 C 317.878906 299.640625 319.238281 300.21875 320.542969 300.804688 C 321.847656 301.390625 323.101562 301.984375 324.296875 302.589844 C 325.492188 303.191406 326.632812 303.800781 327.71875 304.421875 C 328.804688 305.039062 329.835938 305.664062 330.804688 306.296875 C 331.777344 306.929688 332.691406 307.566406 333.546875 308.210938 C 334.402344 308.855469 335.199219 309.503906 335.933594 310.15625 C 336.671875 310.8125 337.347656 311.472656 337.964844 312.136719 C 338.582031 312.796875 339.140625 313.464844 339.636719 314.136719 C 340.128906 314.808594 340.5625 315.480469 340.9375 316.15625 C 341.308594 316.835938 341.621094 317.511719 341.867188 318.195312 C 342.117188 318.875 342.304688 319.554688 342.429688 320.238281 C 342.554688 320.921875 342.617188 321.605469 342.617188 322.289062 Z M 342.617188 322.289062 " fill-opacity="1" fill-rule="nonzero"/><g clip-path="url(#139c87a663)"><path fill="#000000" d="M 298.179688 288.988281 C 268.558594 281.011719 229.242188 276.617188 187.46875 276.617188 C 145.699219 276.617188 106.378906 281.011719 76.757812 288.988281 C 54.71875 294.925781 28.449219 305.523438 28.449219 322.289062 C 28.449219 339.058594 54.71875 349.652344 76.757812 355.589844 C 106.378906 363.570312 145.699219 367.964844 187.46875 367.964844 C 229.242188 367.964844 268.558594 363.570312 298.179688 355.589844 C 320.21875 349.652344 346.492188 339.058594 346.492188 322.289062 C 346.492188 305.523438 320.21875 294.925781 298.179688 288.988281 Z M 296.167969 348.09375 C 267.183594 355.902344 228.582031 360.203125 187.472656 360.203125 C 146.359375 360.203125 107.757812 355.902344 78.773438 348.09375 C 52.117188 340.914062 36.203125 331.265625 36.203125 322.289062 C 36.203125 313.3125 52.117188 303.664062 78.773438 296.484375 C 107.757812 288.675781 146.359375 284.378906 187.472656 284.378906 C 228.582031 284.378906 267.183594 288.675781 296.167969 296.484375 C 322.824219 303.664062 338.738281 313.3125 338.738281 322.289062 C 338.738281 331.265625 322.824219 340.914062 296.167969 348.09375 Z M 296.167969 348.09375 " fill-opacity="1" fill-rule="nonzero"/></g><path fill="#fec81d" d="M 287.160156 212.871094 C 285.277344 215.824219 283.980469 219.507812 280.847656 221.070312 C 284.492188 215.34375 285.242188 207.867188 282.808594 201.527344 C 280.808594 196.320312 276.335938 194.3125 272.871094 200.914062 C 270.0625 206.269531 267.457031 211.730469 265.0625 217.28125 C 265.570312 215.007812 265.339844 212.121094 264.003906 208.328125 C 261.9375 202.457031 255.011719 202.65625 253.023438 210.082031 C 252.207031 213.144531 253.039062 216.589844 252.722656 219.746094 C 252.1875 225.09375 250.378906 229.429688 246.257812 232.871094 L 277.882812 249.101562 C 288.375 240.523438 295.191406 229.007812 297.285156 217.472656 C 299.328125 206.214844 290.917969 206.96875 287.160156 212.871094 Z M 287.160156 212.871094 " fill-opacity="1" fill-rule="nonzero"/><path fill="#000000" d="M 296.390625 205.296875 C 293.734375 204.25 290.640625 204.808594 287.953125 206.589844 C 287.726562 204.382812 287.21875 202.207031 286.425781 200.136719 C 284.757812 195.789062 281.6875 193.074219 278.214844 192.871094 C 276.222656 192.761719 272.429688 193.410156 269.441406 199.109375 C 268.460938 200.976562 267.503906 202.859375 266.570312 204.757812 C 264.777344 201.882812 261.859375 200.199219 258.652344 200.316406 C 255.21875 200.449219 250.953125 202.820312 249.277344 209.082031 C 248.640625 211.46875 248.753906 213.847656 248.851562 215.945312 C 248.910156 217.179688 248.964844 218.347656 248.867188 219.359375 C 248.390625 224.097656 246.820312 227.347656 243.769531 229.894531 C 242.128906 231.265625 241.90625 233.714844 243.277344 235.359375 C 244.648438 237.003906 247.09375 237.226562 248.738281 235.851562 C 253.402344 231.957031 255.894531 226.960938 256.578125 220.132812 C 256.738281 218.554688 256.667969 217.042969 256.597656 215.578125 C 256.519531 213.898438 256.441406 212.308594 256.769531 211.085938 C 257.351562 208.917969 258.394531 208.097656 258.953125 208.074219 L 258.976562 208.074219 C 259.472656 208.074219 260.019531 208.691406 260.347656 209.621094 C 261.34375 212.449219 261.65625 214.742188 261.277344 216.433594 C 260.839844 218.386719 261.960938 220.351562 263.863281 220.972656 C 265.765625 221.59375 267.828125 220.660156 268.621094 218.820312 C 270.96875 213.382812 273.554688 207.964844 276.304688 202.722656 C 276.988281 201.417969 277.539062 200.894531 277.796875 200.699219 C 278.089844 200.933594 278.675781 201.578125 279.191406 202.921875 C 281.1875 208.128906 280.570312 214.285156 277.578125 218.988281 C 276.640625 220.457031 276.800781 222.375 277.964844 223.667969 C 279.132812 224.964844 281.015625 225.324219 282.578125 224.546875 C 286.011719 222.828125 287.796875 219.613281 289.226562 217.03125 C 289.640625 216.289062 290.027344 215.589844 290.429688 214.957031 C 291.503906 213.269531 292.894531 212.601562 293.464844 212.539062 C 293.660156 212.972656 293.925781 214.277344 293.46875 216.78125 C 291.496094 227.652344 284.921875 238.339844 275.425781 246.097656 C 273.769531 247.457031 273.523438 249.898438 274.875 251.558594 C 275.644531 252.5 276.757812 252.988281 277.882812 252.988281 C 278.742188 252.988281 279.613281 252.699219 280.332031 252.113281 C 291.230469 243.199219 298.800781 230.828125 301.097656 218.167969 C 302.785156 208.878906 298.367188 206.074219 296.390625 205.296875 Z M 296.390625 205.296875 " fill-opacity="1" fill-rule="nonzero"/><path fill="#fec81d" d="M 245.203125 232.742188 C 220.804688 229.644531 197.941406 215.929688 183.703125 195.859375 L 116.527344 208.992188 C 105.765625 234.289062 99.769531 260.394531 109.335938 284.449219 C 122 316.292969 155.160156 324.761719 187.472656 324.761719 C 240.429688 324.761719 267.617188 297.394531 276.566406 269.773438 C 285.617188 241.839844 271.417969 236.074219 245.199219 232.742188 Z M 245.203125 232.742188 " fill-opacity="1" fill-rule="nonzero"/><path fill="#000000" d="M 245.691406 228.894531 C 222.429688 225.9375 200.4375 212.75 186.863281 193.613281 C 185.980469 192.367188 184.453125 191.757812 182.960938 192.050781 L 115.785156 205.183594 C 114.523438 205.429688 113.46875 206.285156 112.964844 207.472656 C 99.417969 239.308594 97.121094 264.222656 105.734375 285.882812 C 111.941406 301.496094 123.296875 313.007812 139.480469 320.101562 C 152.410156 325.769531 168.554688 328.640625 187.472656 328.640625 C 212.746094 328.640625 234.039062 322.636719 250.761719 310.792969 C 268.558594 298.191406 276.625 282.179688 280.253906 270.96875 C 284.269531 258.578125 284.171875 249.703125 279.953125 243.042969 C 274.328125 234.171875 262.675781 231.050781 245.691406 228.894531 Z M 272.878906 268.574219 C 262.269531 301.324219 230.339844 320.878906 187.472656 320.878906 C 148.003906 320.878906 122.925781 308.136719 112.9375 283.011719 C 105.292969 263.796875 107.3125 241.320312 119.300781 212.402344 L 182.03125 200.140625 C 196.929688 219.910156 220.175781 233.472656 244.714844 236.59375 C 259.054688 238.414062 269.421875 240.917969 273.40625 247.199219 C 276.253906 251.699219 276.085938 258.6875 272.882812 268.574219 Z M 272.878906 268.574219 " fill-opacity="1" fill-rule="nonzero"/><path fill="#fec81d" d="M 253.945312 283.175781 C 259.523438 281.59375 264.5 277.980469 267.734375 273.160156 C 270.75 268.664062 269.734375 265.0625 259.625 265.113281 C 249.507812 265.167969 240.644531 258.589844 233.144531 251.792969 C 225.644531 244.992188 218.203125 237.394531 208.488281 234.566406 C 169.597656 223.238281 159.300781 277.207031 193.933594 304.34375 C 210.539062 317.355469 234.597656 320.023438 253.644531 310.960938 C 259.679688 308.089844 260.269531 304.363281 258.726562 302.191406 C 256.15625 298.585938 249.132812 301.195312 245.007812 299.625 C 251.960938 298.675781 260.417969 297.679688 266.0625 293.503906 C 269.042969 291.300781 271.390625 286.683594 268.6875 284.144531 C 264.921875 280.601562 257.648438 286.789062 253.945312 283.179688 Z M 253.945312 283.175781 " fill-opacity="1" fill-rule="nonzero"/><path fill="#000000" d="M 267.664062 279.351562 C 268.882812 278.109375 269.988281 276.761719 270.953125 275.324219 C 273.859375 270.992188 273.289062 267.875 272.296875 266.023438 C 270.023438 261.777344 264.195312 261.234375 259.882812 261.234375 C 259.753906 261.234375 259.628906 261.234375 259.5 261.234375 C 250.546875 261.234375 242.46875 255.011719 235.746094 248.914062 C 234.921875 248.167969 234.101562 247.414062 233.273438 246.65625 C 226.296875 240.242188 219.082031 233.609375 209.570312 230.839844 C 193.574219 226.179688 179.949219 231.34375 173.136719 244.652344 C 164.457031 261.609375 168.96875 289.714844 191.542969 307.402344 C 202.277344 315.8125 215.882812 320.175781 229.460938 320.175781 C 238.359375 320.175781 247.246094 318.304688 255.308594 314.46875 C 260.671875 311.917969 262.484375 308.722656 263.0625 306.492188 C 263.644531 304.246094 263.234375 301.894531 261.941406 300.023438 C 264.242188 299.160156 266.425781 298.058594 268.367188 296.625 C 271.4375 294.351562 273.542969 290.761719 273.738281 287.476562 C 273.875 285.085938 273.027344 282.898438 271.339844 281.3125 C 270.195312 280.238281 268.941406 279.640625 267.664062 279.351562 Z M 263.757812 290.382812 C 259.15625 293.785156 251.84375 294.777344 245.394531 295.65625 L 244.480469 295.78125 C 242.722656 296.019531 241.355469 297.421875 241.152344 299.183594 C 240.953125 300.949219 241.972656 302.621094 243.628906 303.253906 C 245.992188 304.152344 248.648438 304.09375 250.992188 304.046875 C 252.152344 304.019531 255.222656 303.957031 255.574219 304.445312 C 255.597656 304.648438 255.070312 305.988281 251.980469 307.457031 C 234.195312 315.914062 211.828125 313.4375 196.324219 301.289062 C 187.378906 294.28125 180.945312 284.65625 178.203125 274.179688 C 175.734375 264.757812 176.40625 255.285156 180.035156 248.191406 C 183.8125 240.8125 190.328125 236.929688 198.519531 236.929688 C 201.304688 236.929688 204.277344 237.378906 207.40625 238.289062 C 215.175781 240.554688 221.710938 246.558594 228.03125 252.371094 C 228.871094 253.140625 229.707031 253.90625 230.542969 254.667969 C 237.90625 261.34375 247.84375 268.992188 259.5 268.992188 C 259.546875 268.992188 259.597656 268.992188 259.644531 268.992188 C 263.03125 268.957031 264.601562 269.417969 265.234375 269.6875 C 265.125 269.96875 264.917969 270.398438 264.515625 270.996094 C 261.804688 275.039062 257.566406 278.117188 252.890625 279.441406 C 251.558594 279.820312 250.527344 280.878906 250.1875 282.222656 C 249.847656 283.566406 250.25 284.988281 251.238281 285.957031 C 254.621094 289.253906 259.007812 288.214844 262.210938 287.453125 C 263.21875 287.214844 265.550781 286.660156 266 286.945312 C 266.042969 287.507812 265.300781 289.234375 263.753906 290.378906 Z M 266.042969 286.980469 L 266.046875 286.980469 Z M 266.042969 286.980469 " fill-opacity="1" fill-rule="nonzero"/><path fill="#fec81d" d="M 222.441406 72.679688 C 192.628906 36.472656 135.71875 42.191406 109.324219 52.703125 C 65.039062 70.332031 70.214844 107.058594 61.421875 137.753906 C 58.308594 148.632812 53.339844 159.484375 54.5625 170.730469 C 56.753906 190.914062 74.675781 204.355469 93.691406 211.167969 C 124.386719 222.171875 164.496094 223.226562 198.824219 214.554688 C 245.140625 202.851562 253.269531 178.714844 249.546875 146.308594 C 246.519531 119.957031 239.296875 93.148438 222.441406 72.679688 Z M 222.441406 72.679688 " fill-opacity="1" fill-rule="nonzero"/><path fill="#000000" d="M 172.664062 124.601562 C 165.625 125.015625 158.796875 129.796875 154.84375 137.078125 C 153.824219 138.960938 154.519531 141.316406 156.402344 142.339844 C 156.988281 142.660156 157.621094 142.8125 158.246094 142.8125 C 159.621094 142.8125 160.957031 142.078125 161.65625 140.78125 C 164.296875 135.914062 168.796875 132.601562 173.121094 132.347656 C 177.351562 132.089844 181.566406 134.703125 184.105469 139.144531 C 185.167969 141.003906 187.539062 141.648438 189.394531 140.582031 C 191.253906 139.515625 191.898438 137.144531 190.832031 135.285156 C 186.820312 128.269531 179.867188 124.175781 172.664062 124.597656 Z M 172.664062 124.601562 " fill-opacity="1" fill-rule="nonzero"/><path fill="#000000" d="M 94.722656 117.351562 C 88.601562 115.679688 81.871094 117.929688 77.160156 123.21875 C 75.734375 124.820312 75.875 127.273438 77.476562 128.699219 C 79.074219 130.125 81.523438 129.984375 82.949219 128.382812 C 85.6875 125.304688 89.414062 123.945312 92.679688 124.839844 C 96.039062 125.757812 99.039062 129.140625 100.324219 133.460938 C 100.824219 135.148438 102.367188 136.234375 104.039062 136.234375 C 104.40625 136.234375 104.777344 136.183594 105.148438 136.074219 C 107.199219 135.460938 108.367188 133.300781 107.753906 131.246094 C 105.691406 124.308594 100.695312 118.984375 94.722656 117.351562 Z M 94.722656 117.351562 " fill-opacity="1" fill-rule="nonzero"/><path fill="#000000" d="M 225.433594 70.210938 C 211.644531 53.460938 190.71875 43.46875 164.925781 41.304688 C 142.105469 39.390625 120.503906 44.074219 107.890625 49.09375 C 91.550781 55.601562 80.117188 65.269531 72.9375 78.652344 C 66.652344 90.363281 64.328125 103.429688 62.082031 116.0625 C 60.855469 122.953125 59.585938 130.078125 57.695312 136.6875 C 57.003906 139.09375 56.195312 141.574219 55.417969 143.976562 C 52.59375 152.65625 49.671875 161.632812 50.707031 171.152344 C 52.769531 190.152344 67.957031 206.070312 92.382812 214.824219 C 109.703125 221.03125 130.238281 224.183594 151.160156 224.183594 C 167.582031 224.183594 184.238281 222.242188 199.773438 218.316406 C 222.695312 212.523438 237.890625 203.355469 246.214844 190.28125 C 253.316406 179.140625 255.597656 165.027344 253.398438 145.867188 C 249.652344 113.269531 240.503906 88.519531 225.433594 70.214844 Z M 197.875 210.789062 C 163.960938 219.359375 124.539062 218.105469 94.996094 207.515625 C 84.816406 203.863281 60.871094 192.933594 58.414062 170.3125 C 57.5625 162.449219 60.101562 154.640625 62.789062 146.375 C 63.589844 143.910156 64.421875 141.363281 65.148438 138.824219 L 61.421875 137.753906 L 65.148438 138.824219 C 67.152344 131.832031 68.453125 124.503906 69.714844 117.417969 C 74.121094 92.640625 78.289062 69.234375 110.757812 56.304688 C 133.65625 47.191406 190.347656 39.800781 219.449219 75.144531 C 233.542969 92.261719 242.128906 115.683594 245.695312 146.75 C 249.175781 177.054688 242.375 199.542969 197.875 210.789062 Z M 197.875 210.789062 " fill-opacity="1" fill-rule="nonzero"/><path fill="#fec81d" d="M 153.125 21.390625 C 152.28125 26.441406 154.496094 31.875 154.628906 37.527344 C 148.53125 26.335938 135.664062 16.332031 122.296875 15.175781 C 104.78125 13.660156 100.675781 31.414062 116.730469 35.863281 C 121.519531 37.191406 126.640625 37.140625 131.316406 38.820312 C 135.992188 40.5 140.382812 44.824219 139.6875 49.75 L 168.75 50.800781 C 174.324219 43.101562 178.691406 33.964844 175.746094 23.871094 C 170.980469 7.527344 155.304688 8.390625 153.128906 21.390625 Z M 153.125 21.390625 " fill-opacity="1" fill-rule="nonzero"/><g clip-path="url(#23b697392d)"><path fill="#000000" d="M 162.292969 7.761719 C 155.65625 8.15625 150.558594 13.253906 149.304688 20.75 C 149.117188 21.875 149.046875 22.996094 149.0625 24.101562 C 141.558594 16.964844 131.894531 12.113281 122.632812 11.308594 C 110.792969 10.285156 104.144531 16.738281 102.988281 23.171875 C 101.886719 29.292969 105.386719 36.746094 115.699219 39.605469 C 118.054688 40.257812 120.398438 40.597656 122.664062 40.925781 C 125.292969 41.308594 127.773438 41.667969 130.007812 42.472656 C 133.1875 43.613281 136.238281 46.445312 135.851562 49.207031 C 135.550781 51.328125 137.027344 53.289062 139.144531 53.589844 C 141.265625 53.894531 143.226562 52.414062 143.527344 50.289062 C 144.515625 43.289062 138.792969 37.382812 132.628906 35.167969 C 129.65625 34.097656 126.667969 33.664062 123.777344 33.246094 C 121.65625 32.9375 119.652344 32.648438 117.765625 32.125 C 112.839844 30.757812 110.035156 27.785156 110.617188 24.546875 C 111.171875 21.46875 114.960938 18.441406 121.964844 19.042969 C 133.199219 20.015625 145.234375 28.382812 151.226562 39.386719 C 152.082031 40.960938 153.898438 41.738281 155.628906 41.277344 C 157.355469 40.816406 158.546875 39.230469 158.503906 37.441406 C 158.441406 34.792969 158 32.320312 157.570312 29.929688 C 157.054688 27.046875 156.566406 24.324219 156.949219 22.035156 C 157.59375 18.183594 159.816406 15.683594 162.75 15.511719 C 165.714844 15.332031 169.910156 17.703125 172.027344 24.957031 C 174.113281 32.113281 172.074219 39.601562 165.609375 48.523438 C 164.355469 50.257812 164.738281 52.683594 166.472656 53.941406 C 167.160156 54.441406 167.957031 54.683594 168.746094 54.683594 C 169.945312 54.683594 171.128906 54.125 171.886719 53.078125 C 179.761719 42.207031 182.242188 32.296875 179.46875 22.785156 C 176.074219 11.148438 168.113281 7.414062 162.292969 7.761719 Z M 162.292969 7.761719 " fill-opacity="1" fill-rule="nonzero"/></g><path fill="#fb9737" d="M 162.1875 158.921875 C 155.234375 159.925781 149.980469 161.269531 144.835938 160.625 C 136.328125 159.5625 131.625 147.722656 117.839844 145.722656 C 107.214844 144.183594 98.265625 148.730469 90.914062 153.777344 C 90.914062 153.777344 72.890625 143.035156 58 147.742188 C 43 152.484375 41.222656 171.058594 56.046875 177.832031 C 70.503906 184.441406 89.1875 176.988281 89.1875 176.988281 L 96.441406 179.84375 C 90.5 195.683594 99.648438 207.222656 115.199219 210.488281 C 141.550781 216.03125 173.273438 196.746094 180.378906 178.425781 C 185.039062 166.414062 176.726562 156.824219 162.1875 158.921875 Z M 162.1875 158.921875 " fill-opacity="1" fill-rule="nonzero"/><path fill="#000000" d="M 161.636719 155.082031 C 159.929688 155.328125 158.351562 155.589844 156.824219 155.84375 C 152.269531 156.597656 148.671875 157.195312 145.316406 156.773438 C 142.699219 156.445312 140.253906 154.355469 137.160156 151.703125 C 132.710938 147.894531 127.179688 143.15625 118.394531 141.882812 C 106.992188 140.230469 97.402344 144.929688 90.707031 149.25 C 85.160156 146.40625 70.152344 139.828125 56.832031 144.042969 C 48.164062 146.78125 42.464844 153.667969 41.953125 162.019531 C 41.453125 170.203125 46.234375 177.617188 54.433594 181.363281 C 70.21875 188.578125 89.796875 180.921875 90.621094 180.59375 C 92.609375 179.800781 93.578125 177.546875 92.785156 175.558594 C 91.996094 173.566406 89.742188 172.59375 87.757812 173.382812 C 87.582031 173.449219 70.398438 180.128906 57.65625 174.304688 C 52.363281 171.886719 49.386719 167.472656 49.691406 162.496094 C 50 157.429688 53.632812 153.195312 59.167969 151.445312 C 72.1875 147.332031 88.765625 157.015625 88.925781 157.113281 C 90.226562 157.886719 91.855469 157.832031 93.101562 156.980469 C 99.21875 152.785156 107.496094 148.148438 117.28125 149.566406 C 123.84375 150.519531 128.050781 154.121094 132.117188 157.605469 C 135.710938 160.679688 139.425781 163.863281 144.355469 164.480469 C 148.828125 165.039062 153.117188 164.328125 158.089844 163.503906 C 159.574219 163.257812 161.113281 163 162.742188 162.765625 C 168.628906 161.914062 173.457031 163.25 175.980469 166.425781 C 178.101562 169.097656 178.378906 172.859375 176.765625 177.027344 C 173.613281 185.148438 164.582031 193.945312 153.191406 199.980469 C 140.710938 206.59375 127.152344 209.042969 115.992188 206.695312 C 108.597656 205.140625 103.039062 201.578125 100.34375 196.671875 C 97.984375 192.371094 97.890625 187.023438 100.070312 181.210938 C 100.824219 179.203125 99.808594 176.96875 97.804688 176.214844 C 95.800781 175.460938 93.566406 176.476562 92.8125 178.480469 C 89.8125 186.480469 90.066406 194.0625 93.550781 200.40625 C 97.351562 207.332031 104.753906 212.261719 114.398438 214.289062 C 117.796875 215.003906 121.273438 215.339844 124.78125 215.339844 C 150.1875 215.335938 177.027344 197.785156 183.992188 179.835938 C 186.605469 173.09375 185.898438 166.445312 182.046875 161.597656 C 177.765625 156.203125 170.328125 153.832031 161.636719 155.085938 Z M 161.636719 155.082031 " fill-opacity="1" fill-rule="nonzero"/><path fill="#000000" d="M 156.804688 173.726562 C 150.625 180.738281 137.484375 187.117188 124.304688 185.734375 C 112.699219 184.519531 102.460938 178.925781 92.558594 173.515625 C 81.855469 167.671875 71.753906 162.140625 60.792969 162.621094 C 58.65625 162.714844 56.996094 164.523438 57.089844 166.664062 C 57.183594 168.804688 58.980469 170.476562 61.128906 170.375 C 69.925781 170 79.113281 175.015625 88.84375 180.328125 C 98.925781 185.835938 110.351562 192.074219 123.5 193.453125 C 124.9375 193.601562 126.390625 193.675781 127.859375 193.675781 C 140.84375 193.675781 154.640625 187.914062 162.621094 178.855469 C 164.035156 177.25 163.882812 174.796875 162.277344 173.378906 C 160.671875 171.960938 158.21875 172.117188 156.804688 173.722656 Z M 156.804688 173.726562 " fill-opacity="1" fill-rule="nonzero"/><path fill="#231f20" d="M 125.933594 164.492188 C 124.34375 166.273438 124.054688 168.617188 125.296875 169.726562 C 126.535156 170.835938 128.828125 170.289062 130.421875 168.507812 C 132.015625 166.722656 132.300781 164.378906 131.0625 163.269531 C 129.820312 162.160156 127.527344 162.707031 125.933594 164.492188 Z M 125.933594 164.492188 " fill-opacity="1" fill-rule="nonzero"/><path fill="#231f20" d="M 99.523438 158.496094 C 98.457031 157.746094 96.722656 158.378906 95.640625 159.90625 C 94.5625 161.4375 94.550781 163.289062 95.613281 164.042969 C 96.679688 164.792969 98.414062 164.160156 99.496094 162.628906 C 100.574219 161.101562 100.585938 159.25 99.523438 158.496094 Z M 99.523438 158.496094 " fill-opacity="1" fill-rule="nonzero"/><path fill="#faffff" d="M 101.601562 310.605469 C 101.316406 310.261719 101.855469 310.972656 101.601562 310.605469 Z M 101.601562 310.605469 " fill-opacity="1" fill-rule="nonzero"/><path fill="#faffff" d="M 116.996094 321.789062 C 116.558594 321.617188 117.5 322.011719 116.996094 321.789062 Z M 116.996094 321.789062 " fill-opacity="1" fill-rule="nonzero"/><path fill="#faffff" d="M 107.289062 316.234375 C 106.933594 315.976562 107.648438 316.53125 107.289062 316.234375 Z M 107.289062 316.234375 " fill-opacity="1" fill-rule="nonzero"/><path fill="#faffff" d="M 99.199219 304.375 C 99.199219 304.359375 99.203125 304.347656 99.207031 304.332031 C 99.203125 303.921875 99.050781 305.003906 99.199219 304.375 Z M 99.199219 304.375 " fill-opacity="1" fill-rule="nonzero"/><path fill="#faffff" d="M 99.890625 307.792969 C 99.878906 307.765625 99.867188 307.730469 99.855469 307.699219 C 99.773438 307.53125 99.730469 307.453125 99.890625 307.792969 Z M 99.890625 307.792969 " fill-opacity="1" fill-rule="nonzero"/><path fill="#faffff" d="M 141.261719 327.828125 C 133.308594 326.457031 125.265625 325.078125 117.730469 322.085938 C 117.519531 322.003906 117.3125 321.917969 117.101562 321.832031 C 117.058594 321.816406 117.023438 321.800781 116.996094 321.789062 C 117.5 322.011719 116.558594 321.617188 116.996094 321.789062 C 116.976562 321.78125 116.957031 321.773438 116.933594 321.761719 C 116.519531 321.582031 116.105469 321.402344 115.695312 321.210938 C 114.875 320.835938 114.0625 320.4375 113.265625 320.015625 C 111.738281 319.210938 110.253906 318.320312 108.828125 317.34375 C 108.488281 317.109375 108.152344 316.875 107.820312 316.628906 C 107.667969 316.519531 107.519531 316.40625 107.371094 316.296875 C 107.332031 316.265625 107.316406 316.257812 107.289062 316.238281 C 107.648438 316.53125 106.933594 315.980469 107.289062 316.238281 C 107.265625 316.21875 107.253906 316.207031 107.222656 316.179688 C 106.523438 315.617188 105.835938 315.046875 105.175781 314.441406 C 103.910156 313.273438 102.753906 312.015625 101.664062 310.683594 C 101.636719 310.644531 101.625 310.632812 101.605469 310.609375 C 101.859375 310.972656 101.316406 310.265625 101.605469 310.609375 C 101.589844 310.585938 101.582031 310.574219 101.558594 310.542969 C 101.390625 310.308594 101.222656 310.078125 101.0625 309.835938 C 100.820312 309.472656 100.589844 309.097656 100.378906 308.714844 C 100.269531 308.523438 100.167969 308.328125 100.070312 308.132812 C 100.042969 308.078125 99.929688 307.855469 99.855469 307.703125 C 99.867188 307.730469 99.878906 307.765625 99.890625 307.796875 C 99.730469 307.453125 99.773438 307.535156 99.855469 307.703125 C 99.691406 307.339844 99.574219 306.945312 99.464844 306.570312 C 99.40625 306.363281 99.351562 306.15625 99.304688 305.949219 C 99.273438 305.8125 99.246094 305.675781 99.222656 305.535156 C 99.171875 305.222656 99.175781 305.261719 99.234375 305.65625 C 99.066406 305.320312 99.214844 304.699219 99.210938 304.335938 C 99.207031 304.347656 99.203125 304.363281 99.199219 304.375 C 99.050781 305.003906 99.203125 303.925781 99.210938 304.335938 C 99.269531 304.089844 99.335938 303.847656 99.398438 303.601562 C 99.402344 303.578125 99.402344 303.570312 99.40625 303.546875 C 99.140625 303.992188 99.507812 303.097656 99.40625 303.546875 C 99.414062 303.535156 99.417969 303.535156 99.425781 303.519531 C 99.566406 303.28125 99.695312 303.039062 99.851562 302.808594 C 100.667969 301.605469 100.121094 299.683594 98.859375 299.015625 C 97.457031 298.273438 95.941406 298.726562 95.070312 300.011719 C 92.605469 303.644531 93.730469 308.378906 95.816406 311.894531 C 97.734375 315.132812 100.542969 317.933594 103.480469 320.242188 C 109.890625 325.273438 117.484375 328.332031 125.335938 330.304688 C 130.105469 331.503906 134.953125 332.339844 139.792969 333.175781 C 141.214844 333.417969 142.84375 332.796875 143.199219 331.238281 C 143.503906 329.894531 142.789062 328.089844 141.265625 327.828125 Z M 141.261719 327.828125 " fill-opacity="1" fill-rule="nonzero"/><path fill="#faffff" d="M 99.40625 303.546875 C 99.507812 303.09375 99.136719 303.988281 99.40625 303.546875 Z M 99.40625 303.546875 " fill-opacity="1" fill-rule="nonzero"/><path fill="#faffff" d="M 279.210938 316.199219 C 279.140625 316.40625 279.351562 315.898438 279.210938 316.199219 Z M 279.210938 316.199219 " fill-opacity="1" fill-rule="nonzero"/><path fill="#faffff" d="M 280.085938 313.078125 C 280.082031 313.09375 280.078125 313.109375 280.074219 313.125 C 280.074219 313.171875 280.078125 313.136719 280.085938 313.078125 Z M 280.085938 313.078125 " fill-opacity="1" fill-rule="nonzero"/><path fill="#faffff" d="M 280.09375 313.035156 C 280.101562 312.953125 280.109375 312.855469 280.109375 312.851562 C 280.117188 312.902344 280.105469 312.96875 280.09375 313.035156 Z M 280.09375 313.035156 " fill-opacity="1" fill-rule="nonzero"/><path fill="#faffff" d="M 273.457031 323.386719 C 273.296875 323.523438 273.640625 323.257812 273.457031 323.386719 Z M 273.457031 323.386719 " fill-opacity="1" fill-rule="nonzero"/><path fill="#faffff" d="M 282.90625 308.140625 C 281.460938 308.207031 280.070312 309.359375 280.140625 310.914062 C 280.160156 311.359375 280.164062 311.808594 280.140625 312.257812 C 280.128906 312.519531 280.097656 312.777344 280.082031 313.035156 C 280.078125 313.082031 280.078125 313.109375 280.074219 313.125 C 280.082031 313.109375 280.082031 313.09375 280.085938 313.078125 C 280.089844 313.0625 280.089844 313.050781 280.09375 313.035156 C 280.105469 312.96875 280.117188 312.902344 280.109375 312.851562 C 280.109375 312.855469 280.101562 312.953125 280.09375 313.035156 C 280.089844 313.050781 280.089844 313.0625 280.085938 313.078125 C 280.082031 313.136719 280.074219 313.171875 280.074219 313.125 C 280.0625 313.183594 280.046875 313.246094 280.039062 313.292969 C 279.867188 314.25 279.582031 315.171875 279.25 316.085938 C 279.230469 316.140625 279.21875 316.171875 279.210938 316.199219 C 279.351562 315.898438 279.140625 316.40625 279.210938 316.199219 C 279.203125 316.21875 279.199219 316.226562 279.1875 316.253906 C 279.09375 316.457031 278.996094 316.664062 278.898438 316.863281 C 278.664062 317.339844 278.410156 317.800781 278.136719 318.253906 C 277.902344 318.640625 277.65625 319.019531 277.390625 319.390625 C 277.300781 319.523438 277.203125 319.652344 277.105469 319.78125 C 277.097656 319.792969 277.066406 319.839844 276.992188 319.941406 C 277.03125 319.886719 277.066406 319.832031 277.105469 319.78125 C 277.132812 319.738281 276.878906 320.066406 276.785156 320.175781 C 276.148438 320.9375 275.453125 321.652344 274.714844 322.320312 C 274.335938 322.660156 273.945312 322.988281 273.550781 323.3125 C 273.507812 323.347656 273.480469 323.371094 273.457031 323.386719 C 273.640625 323.257812 273.296875 323.523438 273.457031 323.386719 C 273.433594 323.40625 273.410156 323.421875 273.367188 323.453125 C 273.144531 323.617188 272.925781 323.78125 272.699219 323.9375 C 271.023438 325.121094 269.234375 326.132812 267.398438 327.039062 C 266.511719 327.476562 265.613281 327.890625 264.710938 328.285156 C 264.453125 328.398438 264.199219 328.511719 263.941406 328.621094 C 263.863281 328.65625 263.78125 328.6875 263.703125 328.722656 C 263.90625 328.640625 263.632812 328.753906 263.585938 328.773438 C 263.625 328.753906 263.664062 328.738281 263.703125 328.722656 C 263.6875 328.726562 263.675781 328.734375 263.65625 328.742188 C 263.140625 328.949219 262.628906 329.164062 262.113281 329.371094 C 260.042969 330.191406 257.949219 330.945312 255.832031 331.632812 C 251.636719 332.988281 247.355469 334.074219 243.019531 334.882812 C 241.800781 335.109375 240.574219 335.316406 239.347656 335.5 C 239.050781 335.542969 238.753906 335.585938 238.457031 335.625 C 238.417969 335.632812 238.261719 335.652344 238.164062 335.667969 C 238.28125 335.652344 238.359375 335.640625 238.191406 335.664062 C 238.023438 335.6875 238.066406 335.679688 238.164062 335.667969 C 238.066406 335.679688 237.945312 335.695312 237.921875 335.695312 C 237.328125 335.773438 236.734375 335.84375 236.136719 335.90625 C 233.625 336.183594 231.105469 336.359375 228.582031 336.453125 C 227.136719 336.503906 225.746094 337.6875 225.8125 339.222656 C 225.878906 340.679688 227.03125 342.050781 228.582031 341.996094 C 237.976562 341.660156 247.351562 340.09375 256.324219 337.289062 C 260.796875 335.890625 265.210938 334.203125 269.445312 332.1875 C 273.378906 330.316406 277.234375 327.945312 280.183594 324.695312 C 283.574219 320.953125 285.90625 316.046875 285.675781 310.910156 C 285.613281 309.464844 284.449219 308.070312 282.910156 308.140625 Z M 282.90625 308.140625 " fill-opacity="1" fill-rule="nonzero"/><path fill="#faffff" d="M 238.191406 335.664062 C 238.359375 335.640625 238.277344 335.652344 238.160156 335.664062 C 238.066406 335.679688 238.019531 335.683594 238.191406 335.664062 Z M 238.191406 335.664062 " fill-opacity="1" fill-rule="nonzero"/><path fill="#faffff" d="M 263.703125 328.722656 C 263.664062 328.738281 263.625 328.753906 263.585938 328.769531 C 263.628906 328.753906 263.90625 328.640625 263.703125 328.722656 Z M 263.703125 328.722656 " fill-opacity="1" fill-rule="nonzero"/><path fill="#faffff" d="M 277.105469 319.78125 C 277.066406 319.832031 277.03125 319.886719 276.992188 319.941406 C 277.066406 319.839844 277.097656 319.792969 277.105469 319.78125 Z M 277.105469 319.78125 " fill-opacity="1" fill-rule="nonzero"/><path fill="#faffff" d="M 171.132812 338.265625 C 171.082031 338.257812 171.035156 338.253906 170.988281 338.246094 C 171.078125 338.257812 171.113281 338.261719 171.132812 338.265625 Z M 171.132812 338.265625 " fill-opacity="1" fill-rule="nonzero"/><path fill="#faffff" d="M 182.796875 338.640625 C 180.335938 338.785156 177.867188 338.796875 175.40625 338.65625 C 174.195312 338.589844 172.992188 338.484375 171.789062 338.34375 C 171.570312 338.320312 171.351562 338.292969 171.132812 338.265625 C 171.113281 338.261719 171.078125 338.257812 170.988281 338.246094 C 171.035156 338.253906 171.082031 338.257812 171.132812 338.265625 C 171.226562 338.273438 170.476562 338.171875 170.390625 338.160156 C 169.769531 338.066406 169.152344 337.964844 168.535156 337.855469 C 167.113281 337.601562 165.480469 338.238281 165.128906 339.789062 C 164.820312 341.144531 165.539062 342.925781 167.0625 343.199219 C 172.257812 344.128906 177.527344 344.496094 182.796875 344.183594 C 184.238281 344.097656 185.636719 342.96875 185.566406 341.410156 C 185.5 339.984375 184.34375 338.546875 182.796875 338.640625 Z M 182.796875 338.640625 " fill-opacity="1" fill-rule="nonzero"/><path fill="#faffff" d="M 309.824219 318.683594 C 309.796875 319.121094 309.929688 318.292969 309.824219 318.683594 Z M 309.824219 318.683594 " fill-opacity="1" fill-rule="nonzero"/><path fill="#faffff" d="M 309.3125 320.511719 C 309.179688 320.9375 309.566406 319.984375 309.3125 320.511719 Z M 309.3125 320.511719 " fill-opacity="1" fill-rule="nonzero"/><path fill="#faffff" d="M 307.929688 322.851562 C 308.078125 322.667969 307.992188 322.769531 307.890625 322.894531 C 307.835938 322.960938 307.820312 322.984375 307.929688 322.851562 Z M 307.929688 322.851562 " fill-opacity="1" fill-rule="nonzero"/><path fill="#faffff" d="M 312.636719 315.226562 C 311.089844 315.292969 309.925781 316.445312 309.867188 317.996094 C 309.859375 318.214844 309.84375 318.429688 309.828125 318.644531 C 309.824219 318.664062 309.828125 318.667969 309.824219 318.683594 C 309.929688 318.292969 309.796875 319.121094 309.824219 318.683594 C 309.820312 318.710938 309.8125 318.722656 309.804688 318.757812 C 309.71875 319.105469 309.65625 319.457031 309.550781 319.800781 C 309.488281 320.007812 309.414062 320.207031 309.347656 320.410156 C 309.332031 320.453125 309.320312 320.488281 309.3125 320.515625 C 309.566406 319.984375 309.179688 320.9375 309.3125 320.515625 C 309.308594 320.523438 309.304688 320.53125 309.296875 320.542969 C 309.140625 320.871094 308.984375 321.191406 308.804688 321.507812 C 308.589844 321.882812 308.355469 322.253906 308.105469 322.605469 C 308.078125 322.640625 307.953125 322.804688 307.890625 322.894531 C 307.992188 322.773438 308.078125 322.667969 307.929688 322.851562 C 307.820312 322.984375 307.835938 322.960938 307.890625 322.894531 C 307.824219 322.972656 307.75 323.058594 307.730469 323.082031 C 307.1875 323.71875 306.59375 324.3125 305.953125 324.855469 C 305.808594 324.980469 305.660156 325.097656 305.515625 325.21875 C 305.972656 324.839844 305.359375 325.328125 305.308594 325.367188 C 304.953125 325.625 304.585938 325.871094 304.214844 326.105469 C 303.46875 326.582031 302.695312 327.011719 301.910156 327.417969 C 300.292969 328.25 298.621094 328.957031 296.949219 329.664062 C 295.609375 330.230469 295.21875 332.3125 295.957031 333.457031 C 296.855469 334.851562 298.308594 335.058594 299.742188 334.453125 C 303.464844 332.878906 307.160156 331.222656 310.195312 328.488281 C 313.1875 325.796875 315.25 322.0625 315.402344 318 C 315.460938 316.546875 314.089844 315.160156 312.636719 315.226562 Z M 312.636719 315.226562 " fill-opacity="1" fill-rule="nonzero"/><path fill="#faffff" d="M 72.851562 325.34375 C 72.824219 325.324219 72.796875 325.300781 72.769531 325.28125 C 72.578125 325.136719 72.597656 325.152344 72.851562 325.34375 Z M 72.851562 325.34375 " fill-opacity="1" fill-rule="nonzero"/><path fill="#faffff" d="M 80.019531 329.503906 C 79.6875 329.382812 80.375 329.664062 80.019531 329.503906 Z M 80.019531 329.503906 " fill-opacity="1" fill-rule="nonzero"/><path fill="#faffff" d="M 88.457031 331.734375 C 88.316406 331.71875 87.34375 331.632812 88.109375 331.699219 C 87.820312 331.675781 87.53125 331.613281 87.246094 331.566406 C 86.742188 331.480469 86.242188 331.386719 85.742188 331.277344 C 84.675781 331.046875 83.621094 330.765625 82.578125 330.433594 C 82.023438 330.253906 81.472656 330.0625 80.929688 329.859375 C 80.65625 329.757812 80.386719 329.648438 80.113281 329.542969 C 80.066406 329.523438 80.046875 329.515625 80.019531 329.507812 C 80.375 329.667969 79.6875 329.382812 80.019531 329.507812 C 80 329.5 79.992188 329.496094 79.96875 329.484375 C 78.9375 329.027344 77.921875 328.535156 76.929688 327.988281 C 75.976562 327.457031 75.042969 326.882812 74.140625 326.269531 C 73.691406 325.960938 73.25 325.636719 72.808594 325.3125 C 72.789062 325.296875 72.785156 325.292969 72.769531 325.28125 C 72.796875 325.300781 72.824219 325.324219 72.851562 325.34375 C 72.597656 325.152344 72.578125 325.136719 72.769531 325.28125 C 72.683594 325.210938 72.59375 325.144531 72.507812 325.074219 C 72.308594 324.914062 72.113281 324.75 71.917969 324.585938 C 70.214844 323.15625 68.664062 321.558594 67.273438 319.824219 C 66.359375 318.6875 64.292969 318.800781 63.355469 319.824219 C 62.25 321.027344 62.382812 322.53125 63.355469 323.742188 C 69.515625 331.421875 78.730469 336.199219 88.457031 337.28125 C 89.898438 337.441406 91.285156 335.890625 91.226562 334.507812 C 91.152344 332.871094 90.003906 331.90625 88.457031 331.734375 Z M 88.457031 331.734375 " fill-opacity="1" fill-rule="nonzero"/></svg>