<svg xmlns="http://www.w3.org/2000/svg" xmlns:xlink="http://www.w3.org/1999/xlink" width="500" zoomAndPan="magnify" viewBox="0 0 375 374.999991" height="500" preserveAspectRatio="xMidYMid meet" version="1.0"><defs><clipPath id="6be2451c4a"><path d="M 125.148438 206.519531 L 175.261719 206.519531 L 175.261719 236.96875 L 125.148438 236.96875 Z M 125.148438 206.519531 " clip-rule="nonzero"/></clipPath><clipPath id="591b1324f8"><path d="M 4.355469 93 L 371.144531 93 L 371.144531 327.324219 L 4.355469 327.324219 Z M 4.355469 93 " clip-rule="nonzero"/></clipPath></defs><g clip-path="url(#6be2451c4a)"><path fill="#5f2c17" d="M 125.148438 206.519531 L 175.21875 206.519531 L 175.21875 236.96875 L 125.148438 236.96875 Z M 125.148438 206.519531 " fill-opacity="1" fill-rule="nonzero"/></g><path fill="#d2ab4d" d="M 119.113281 240.929688 C 117.230469 243.75 64.558594 301.0625 64.558594 301.0625 C 64.558594 301.0625 33.554688 295.417969 26.960938 318.9375 C 26.960938 318.9375 55.140625 329.285156 71.15625 323.640625 C 71.15625 323.640625 123.820312 306.550781 148.234375 283.183594 C 148.234375 283.183594 220.605469 301.136719 277.988281 274.796875 L 277.988281 296.355469 C 277.988281 296.355469 257.34375 297.296875 256.402344 313.289062 C 256.402344 313.289062 307.1875 326.460938 307.1875 294.472656 L 317.78125 256.527344 L 337.25 218.425781 L 301.535156 188.402344 L 119.113281 240.929688 " fill-opacity="1" fill-rule="nonzero"/><path fill="#95471d" d="M 248.992188 196.417969 C 243.613281 195.601562 238.429688 194.777344 233.769531 194.683594 C 238.4375 194.789062 243.621094 195.609375 248.992188 196.417969 " fill-opacity="1" fill-rule="nonzero"/><path fill="#95471d" d="M 232.90625 194.671875 C 233.09375 194.671875 233.285156 194.675781 233.476562 194.679688 C 233.285156 194.675781 233.09375 194.671875 232.90625 194.671875 " fill-opacity="1" fill-rule="nonzero"/><path fill="#95471d" d="M 294.863281 182.359375 C 283.960938 201.300781 265.558594 198.910156 248.992188 196.417969 C 243.613281 195.601562 238.429688 194.777344 233.769531 194.683594 C 233.671875 194.679688 233.574219 194.683594 233.476562 194.679688 C 233.285156 194.675781 233.09375 194.671875 232.90625 194.671875 C 231.246094 194.667969 229.652344 194.757812 228.144531 194.984375 C 209.382812 197.808594 215.976562 222.1875 166.132812 225.011719 C 165.46875 225.050781 164.820312 225.066406 164.179688 225.070312 C 149.996094 225.195312 140.941406 217.609375 135.28125 206.917969 C 128.042969 212.988281 118.011719 217.210938 104.277344 218.425781 C 104.277344 218.425781 95.285156 221.1875 83.007812 223.179688 C 64.523438 226.171875 38.597656 227.429688 24.683594 214.898438 C 25.074219 214.585938 25.3125 214.429688 25.3125 214.429688 C 35.988281 225.953125 59.613281 222.425781 59.613281 222.425781 C 95.71875 219.761719 80.574219 176.167969 80.574219 176.167969 C 76.175781 166.996094 72.488281 156.882812 72.566406 155.628906 C 77.199219 125.679688 96.273438 108.433594 111.417969 99.257812 C 121.546875 100.90625 132.535156 105.527344 143.917969 115.097656 C 143.917969 115.097656 156.347656 148.828125 151.011719 177.808594 C 165.363281 183.5625 185.542969 185.070312 214.015625 177.109375 L 295.804688 133.914062 C 295.804688 133.914062 298.628906 133.441406 303.261719 133.441406 C 306.402344 146.769531 304.988281 164.878906 294.863281 182.359375 Z M 60.085938 145.4375 C 60.085938 145.4375 66.601562 117.367188 88.65625 100.355469 C 69.425781 105.371094 56.945312 118.699219 56.945312 118.699219 C 48.941406 132.027344 34.183594 156.097656 34.183594 156.097656 C 32.21875 157.273438 30.335938 158.371094 28.609375 159.46875 C 35.597656 158.921875 51.53125 156.488281 60.085938 145.4375 Z M 343.214844 93.222656 C 348.078125 82.558594 351.144531 71.191406 350.433594 59.664062 C 350.433594 59.664062 359.855469 57.785156 357.972656 74.71875 C 357.890625 74.71875 359.226562 82.246094 355.695312 96.4375 L 343.214844 93.222656 " fill-opacity="1" fill-rule="nonzero"/><g clip-path="url(#591b1324f8)"><path fill="#eadaa0" d="M 111.5 99.335938 C 103.175781 97.925781 95.488281 98.632812 88.65625 100.433594 C 66.601562 117.449219 60.085938 145.511719 60.085938 145.511719 C 51.53125 156.570312 35.597656 159 28.6875 159.546875 C 26.570312 159.703125 25.3125 159.703125 25.3125 159.703125 C 25.3125 159.703125 4.355469 162.761719 4.355469 196.632812 C 4.355469 226.894531 21.074219 217.25 24.683594 214.898438 C 25.074219 214.585938 25.3125 214.429688 25.3125 214.429688 C 35.988281 225.953125 59.613281 222.425781 59.613281 222.425781 C 95.71875 219.761719 80.574219 176.167969 80.574219 176.167969 C 76.175781 166.996094 72.488281 156.882812 72.566406 155.628906 C 77.199219 125.679688 96.273438 108.433594 111.5 99.335938 Z M 371.003906 241.945312 C 371.003906 241.945312 371.003906 292.671875 349.417969 316.113281 C 349.417969 316.113281 315.585938 327.402344 312.757812 309.527344 C 312.757812 309.527344 306.164062 301.0625 325.003906 296.355469 L 333.480469 266.328125 C 333.480469 266.328125 310.953125 258.800781 307.1875 237.242188 C 307.1875 237.242188 287.40625 266.328125 220.6875 271.972656 C 220.6875 271.972656 225.394531 290.710938 196.273438 302.941406 L 149.257812 327.324219 L 101.296875 327.324219 C 101.296875 327.324219 100.355469 306.625 135.128906 307.570312 L 166.132812 278.480469 C 166.132812 278.480469 123.675781 284.960938 83.007812 223.179688 C 95.285156 221.1875 104.277344 218.425781 104.277344 218.425781 C 118.011719 217.210938 128.042969 212.988281 135.28125 206.917969 C 140.941406 217.609375 149.996094 225.195312 164.179688 225.070312 C 164.871094 225.066406 165.570312 225.050781 166.289062 225.011719 C 216.054688 222.1875 209.460938 197.808594 228.300781 194.984375 C 229.757812 194.765625 231.300781 194.671875 232.90625 194.671875 C 233.09375 194.671875 233.285156 194.675781 233.476562 194.679688 C 233.574219 194.683594 233.671875 194.683594 233.769531 194.683594 C 238.4375 194.789062 243.621094 195.609375 248.992188 196.417969 C 265.570312 198.933594 284.039062 201.394531 295.019531 182.359375 C 305.066406 164.800781 306.558594 146.769531 303.417969 133.441406 C 306.320312 133.441406 309.933594 133.675781 314.015625 134.382812 C 323.355469 124.582031 335.601562 109.921875 343.214844 93.300781 L 355.695312 96.511719 C 352.867188 107.726562 346.980469 123.09375 334.972656 142.222656 C 354.203125 153.980469 372.964844 181.027344 371.003906 241.945312 " fill-opacity="1" fill-rule="nonzero"/></g><path fill="#12100f" d="M 100.511719 152.648438 C 100.511719 152.648438 100.117188 117.449219 76.726562 152.648438 C 76.726562 152.648438 94.152344 133.675781 100.511719 152.648438 Z M 56.398438 147.316406 C 56.398438 147.316406 56.160156 124.03125 40.699219 147.316406 C 40.699219 147.316406 52.234375 134.773438 56.398438 147.316406 Z M 55.21875 210.351562 C 55.21875 210.351562 51.53125 216.699219 39.203125 217.25 C 39.203125 217.25 30.886719 217.640625 24.84375 215.210938 C 24.761719 215.210938 24.683594 215.210938 24.605469 215.210938 C 24.371094 215.210938 24.132812 215.132812 23.898438 214.976562 C 23.507812 214.742188 23.113281 214.429688 22.722656 214.113281 C 16.832031 208.941406 16.914062 197.730469 17.617188 191.300781 C 6.945312 193.808594 4.511719 183.144531 4.511719 183.144531 C 3.804688 172.011719 9.21875 171.152344 9.21875 171.152344 C 40.226562 171.152344 37.085938 185.421875 37.085938 185.421875 C 34.183594 197.257812 20.839844 190.28125 20.839844 190.28125 C 20.683594 190.359375 20.601562 190.359375 20.445312 190.4375 C 19.742188 196.003906 19.503906 207.921875 24.761719 212.234375 C 25 212.390625 25.234375 212.625 25.46875 212.703125 C 25.546875 212.703125 25.546875 212.78125 25.546875 212.78125 C 27.117188 213.722656 31.042969 215.523438 39.046875 215.132812 C 39.046875 215.132812 48.074219 214.664062 53.570312 208.46875 C 53.570312 208.46875 54.589844 207.449219 55.375 208.46875 C 55.21875 208.546875 56.003906 209.488281 55.21875 210.351562 " fill-opacity="1" fill-rule="nonzero"/><path fill="#5f2c17" d="M 24.421875 214.375 C 21.738281 216.121094 11.828125 221.886719 6.90625 212.339844 C 6.644531 234.070312 14.796875 246.023438 14.796875 246.023438 C 20.917969 260.921875 44.464844 253.863281 44.464844 253.863281 C 59.234375 249.738281 63.0625 236.160156 63.472656 224.597656 C 48.984375 225.050781 33.914062 222.921875 24.421875 214.375 Z M 29.210938 159.023438 C 36.121094 158.476562 52.050781 156.046875 60.609375 144.992188 C 60.609375 144.992188 64.796875 126.980469 77.800781 111.070312 C 77.792969 111.058594 77.785156 111.042969 77.773438 111.027344 C 64.792969 126.929688 60.609375 144.914062 60.609375 144.914062 C 52.050781 155.96875 36.121094 158.398438 29.132812 158.949219 C 30.859375 157.847656 32.746094 156.753906 34.707031 155.578125 C 34.707031 155.578125 49.464844 131.507812 57.46875 118.179688 C 57.46875 118.179688 62.960938 112.320312 72.269531 106.90625 C 66.082031 105.003906 59.613281 109.839844 59.613281 109.839844 L 32.457031 143.242188 C 28.496094 149.15625 25.125 154.851562 22.261719 160.316406 C 24.390625 159.394531 25.835938 159.179688 25.835938 159.179688 C 25.835938 159.179688 27.09375 159.179688 29.210938 159.023438 Z M 168.488281 148.023438 C 205.0625 216.390625 175.160156 251.980469 175.160156 251.980469 C 167.542969 266.25 144.859375 256.839844 144.859375 256.839844 C 118.5625 246.574219 132.378906 208 132.378906 208 C 141.328125 184.558594 118.089844 121.917969 126.101562 112.117188 C 134.105469 102.316406 144.859375 112.117188 144.859375 112.117188 L 168.488281 148.023438 " fill-opacity="1" fill-rule="nonzero"/></svg>