<svg xmlns="http://www.w3.org/2000/svg" xmlns:xlink="http://www.w3.org/1999/xlink" width="500" zoomAndPan="magnify" viewBox="0 0 375 374.999991" height="500" preserveAspectRatio="xMidYMid meet" version="1.0"><defs><clipPath id="d282d4b238"><path d="M 131.25 131.25 L 243.75 131.25 L 243.75 243.75 L 131.25 243.75 Z M 131.25 131.25 " clip-rule="nonzero"/></clipPath><clipPath id="1567beb84b"><path d="M 63 280 L 147 280 L 147 337.773438 L 63 337.773438 Z M 63 280 " clip-rule="nonzero"/></clipPath><clipPath id="33fb53858f"><path d="M 63 280 L 145 280 L 145 337.773438 L 63 337.773438 Z M 63 280 " clip-rule="nonzero"/></clipPath><clipPath id="25efea014d"><path d="M 85 50.523438 L 238 50.523438 L 238 115 L 85 115 Z M 85 50.523438 " clip-rule="nonzero"/></clipPath><clipPath id="076b4bd690"><path d="M 275 89 L 369.964844 89 L 369.964844 279 L 275 279 Z M 275 89 " clip-rule="nonzero"/></clipPath><clipPath id="a4578dbc72"><path d="M 275 130 L 369.964844 130 L 369.964844 279 L 275 279 Z M 275 130 " clip-rule="nonzero"/></clipPath><clipPath id="bb63a805b2"><path d="M 4.714844 89 L 303 89 L 303 306 L 4.714844 306 Z M 4.714844 89 " clip-rule="nonzero"/></clipPath><clipPath id="9c5e63c72b"><path d="M 4.714844 101 L 120 101 L 120 298 L 4.714844 298 Z M 4.714844 101 " clip-rule="nonzero"/></clipPath></defs><g clip-path="url(#d282d4b238)"><path fill="#f3681e" d="M 131.25 131.25 L 243.75 131.25 L 243.75 243.75 L 131.25 243.75 Z M 131.25 131.25 " fill-opacity="1" fill-rule="nonzero"/></g><path fill="#f4741a" d="M 157.621094 296.53125 C 165.90625 308.625 177.515625 318.398438 190.824219 324.488281 C 200.917969 329.109375 211.972656 331.628906 223.066406 331.722656 C 236.941406 331.847656 250.769531 328.167969 263.003906 321.597656 C 266.773438 319.578125 270.4375 317.25 273.382812 314.140625 C 276.324219 311.035156 278.511719 307.066406 278.878906 302.800781 C 279.230469 298.734375 277.917969 294.667969 275.871094 291.144531 C 273.824219 287.617188 271.066406 284.570312 268.296875 281.589844 C 261.414062 274.191406 254.265625 267.03125 246.882812 260.136719 L 157.621094 296.53125 " fill-opacity="1" fill-rule="nonzero"/><path fill="#f25c21" d="M 240.523438 262.722656 L 157.621094 296.527344 C 165.90625 308.621094 177.511719 318.398438 190.820312 324.492188 C 200.914062 329.109375 211.972656 331.628906 223.066406 331.722656 C 236.941406 331.847656 250.769531 328.167969 263.003906 321.601562 C 265.257812 320.390625 267.460938 319.039062 269.503906 317.507812 C 256.9375 322.367188 243.496094 324.96875 230.023438 324.972656 C 219.746094 324.972656 209.417969 323.511719 199.703125 320.152344 C 197.667969 319.449219 195.648438 318.65625 193.800781 317.546875 C 191.957031 316.433594 190.277344 314.984375 189.121094 313.164062 C 188.691406 312.480469 188.328125 311.75 188.136719 310.96875 C 187.945312 310.1875 187.929688 309.351562 188.179688 308.582031 C 188.402344 307.84375 188.851562 307.183594 189.414062 306.660156 C 189.980469 306.132812 190.65625 305.738281 191.371094 305.449219 C 192.800781 304.871094 194.355469 304.714844 195.878906 304.488281 C 202.167969 303.554688 208.207031 301.425781 214.160156 299.1875 C 224.789062 295.1875 235.34375 290.78125 244.957031 284.722656 C 250.355469 281.324219 255.417969 277.40625 260.09375 273.0625 C 257.84375 270.777344 255.558594 268.527344 253.257812 266.292969 L 240.523438 262.722656 " fill-opacity="1" fill-rule="nonzero"/><path fill="#f04425" d="M 190.480469 292.683594 C 189.71875 292.671875 189.027344 293.125 188.726562 293.828125 C 188.433594 294.527344 188.59375 295.339844 189.132812 295.878906 C 193.089844 299.941406 197.59375 303.507812 202.453125 306.417969 C 206.542969 308.871094 210.878906 310.855469 215.394531 312.367188 C 215.875 312.582031 216.425781 312.585938 216.90625 312.375 C 217.390625 312.164062 217.757812 311.757812 217.929688 311.257812 C 218.097656 310.753906 218.046875 310.210938 217.785156 309.75 C 217.53125 309.289062 217.089844 308.960938 216.578125 308.839844 C 212.316406 307.417969 208.210938 305.511719 204.351562 303.199219 C 199.765625 300.449219 195.53125 297.125 191.800781 293.292969 C 191.457031 292.921875 190.984375 292.703125 190.480469 292.683594 " fill-opacity="1" fill-rule="nonzero"/><path fill="#f04425" d="M 215.863281 286.21875 C 215.136719 286.257812 214.496094 286.71875 214.226562 287.402344 C 213.964844 288.082031 214.117188 288.859375 214.625 289.382812 C 217.773438 292.765625 221.429688 295.648438 225.453125 297.917969 C 228.371094 299.558594 231.472656 300.871094 234.679688 301.824219 C 235.15625 301.964844 235.667969 301.917969 236.105469 301.679688 C 236.539062 301.445312 236.863281 301.046875 237.003906 300.574219 C 237.148438 300.097656 237.09375 299.585938 236.859375 299.148438 C 236.625 298.714844 236.226562 298.390625 235.753906 298.246094 C 232.8125 297.371094 229.964844 296.175781 227.292969 294.667969 C 223.609375 292.59375 220.226562 289.921875 217.347656 286.824219 C 216.96875 286.40625 216.421875 286.183594 215.863281 286.21875 " fill-opacity="1" fill-rule="nonzero"/><path fill="#f04425" d="M 233.859375 277.355469 C 233.101562 277.414062 232.453125 277.925781 232.222656 278.65625 C 231.996094 279.378906 232.230469 280.175781 232.816406 280.660156 C 237.03125 284.238281 241.683594 287.304688 246.632812 289.769531 C 249.679688 291.285156 252.847656 292.574219 256.085938 293.625 C 256.558594 293.789062 257.078125 293.753906 257.527344 293.535156 C 257.976562 293.3125 258.320312 292.917969 258.472656 292.4375 C 258.628906 291.960938 258.582031 291.4375 258.351562 290.996094 C 258.121094 290.550781 257.71875 290.21875 257.238281 290.070312 C 254.175781 289.082031 251.191406 287.871094 248.308594 286.4375 C 243.628906 284.105469 239.21875 281.207031 235.234375 277.824219 C 234.855469 277.488281 234.359375 277.316406 233.859375 277.355469 " fill-opacity="1" fill-rule="nonzero"/><g clip-path="url(#1567beb84b)"><path fill="#f4741a" d="M 63.507812 280.402344 C 73.015625 296.226562 84.867188 310.636719 98.550781 323.015625 C 102.609375 326.683594 106.855469 330.195312 111.609375 332.898438 C 116.363281 335.597656 121.671875 337.476562 127.132812 337.671875 C 130.0625 337.769531 133.035156 337.390625 135.769531 336.335938 C 138.507812 335.277344 141.007812 333.53125 142.78125 331.191406 C 144.964844 328.320312 145.964844 324.671875 146.078125 321.0625 C 146.191406 317.457031 145.472656 313.871094 144.488281 310.398438 C 142.894531 304.804688 140.605469 299.40625 137.683594 294.378906 L 63.507812 280.402344 " fill-opacity="1" fill-rule="nonzero"/></g><g clip-path="url(#33fb53858f)"><path fill="#f25c21" d="M 63.511719 280.40625 C 73.019531 296.230469 84.867188 310.636719 98.550781 323.015625 C 102.609375 326.6875 106.851562 330.195312 111.605469 332.898438 C 116.359375 335.597656 121.671875 337.476562 127.132812 337.675781 C 130.007812 337.769531 132.921875 337.398438 135.613281 336.382812 C 130.867188 336.179688 126.152344 335.285156 121.710938 333.597656 C 116.753906 331.710938 112.164062 328.941406 107.929688 325.753906 C 104.050781 322.832031 100.457031 319.550781 96.976562 316.167969 C 94.175781 313.449219 91.4375 310.640625 89.21875 307.429688 C 88.667969 306.632812 88.136719 305.789062 87.996094 304.828125 C 87.929688 304.351562 87.957031 303.855469 88.125 303.402344 C 88.292969 302.949219 88.609375 302.546875 89.035156 302.3125 C 89.390625 302.109375 89.808594 302.03125 90.214844 302.035156 C 90.628906 302.039062 91.039062 302.105469 91.4375 302.195312 C 94.902344 302.925781 98.179688 304.339844 101.539062 305.449219 C 106.421875 307.0625 111.488281 308.042969 116.582031 308.707031 C 122.960938 309.535156 129.398438 309.875 135.828125 310.15625 C 138.71875 310.28125 141.605469 310.375 144.492188 310.472656 C 144.492188 310.433594 144.492188 310.433594 144.492188 310.402344 C 142.902344 304.808594 140.609375 299.414062 137.6875 294.382812 L 63.511719 280.40625 " fill-opacity="1" fill-rule="nonzero"/></g><path fill="#f04425" d="M 113.75 299.652344 C 113.128906 299.691406 112.570312 300.035156 112.257812 300.570312 C 111.945312 301.105469 111.914062 301.757812 112.183594 302.324219 C 113.839844 305.878906 115.992188 309.199219 118.585938 312.144531 C 120.84375 314.714844 123.425781 316.988281 126.246094 318.921875 C 126.65625 319.199219 127.160156 319.304688 127.644531 319.214844 C 128.132812 319.128906 128.5625 318.84375 128.84375 318.4375 C 129.125 318.027344 129.234375 317.523438 129.144531 317.035156 C 129.050781 316.550781 128.769531 316.117188 128.363281 315.835938 C 125.796875 314.082031 123.4375 312.003906 121.386719 309.671875 C 119.03125 306.992188 117.070312 303.984375 115.5625 300.75 C 115.246094 300.042969 114.523438 299.605469 113.75 299.652344 " fill-opacity="1" fill-rule="nonzero"/><path fill="#f04425" d="M 93.226562 294.695312 C 92.570312 294.714844 91.96875 295.078125 91.644531 295.65625 C 91.324219 296.230469 91.328125 296.933594 91.660156 297.507812 C 94.089844 301.863281 96.945312 305.976562 100.207031 309.753906 C 102.058594 311.90625 104.042969 313.941406 106.140625 315.859375 C 106.503906 316.195312 106.984375 316.378906 107.480469 316.355469 C 107.976562 316.335938 108.441406 316.117188 108.777344 315.753906 C 109.109375 315.386719 109.289062 314.90625 109.265625 314.410156 C 109.246094 313.914062 109.027344 313.449219 108.664062 313.113281 C 106.675781 311.285156 104.796875 309.347656 103.03125 307.304688 C 99.941406 303.71875 97.207031 299.824219 94.902344 295.6875 C 94.574219 295.070312 93.925781 294.6875 93.226562 294.695312 " fill-opacity="1" fill-rule="nonzero"/><g clip-path="url(#25efea014d)"><path fill="#f4741a" d="M 85.6875 109.761719 C 89.398438 100.203125 93.65625 90.867188 98.4375 81.800781 C 103.585938 72.035156 109.707031 62.21875 119.128906 56.492188 C 125.65625 52.523438 133.386719 50.808594 141.023438 50.707031 C 152.933594 50.542969 164.546875 54.121094 175.910156 57.695312 C 191.324219 62.546875 206.941406 67.578125 220.359375 76.59375 C 226.371094 80.632812 232.039062 85.652344 234.992188 92.273438 C 238.160156 99.382812 237.769531 107.980469 233.96875 114.773438 L 85.6875 109.761719 " fill-opacity="1" fill-rule="nonzero"/></g><path fill="#f25c21" d="M 158.238281 52.710938 C 160.585938 53.40625 162.960938 54.035156 165.300781 54.777344 C 171.6875 56.789062 178.023438 58.976562 184.308594 61.28125 C 193.273438 64.570312 202.285156 68.183594 209.816406 74.058594 C 212.554688 76.195312 215.097656 78.640625 217.03125 81.527344 C 217.777344 82.636719 218.425781 83.824219 218.726562 85.125 C 219.023438 86.425781 218.929688 87.859375 218.230469 89 C 217.828125 89.664062 217.238281 90.207031 216.570312 90.601562 C 215.898438 90.996094 215.148438 91.253906 214.386719 91.410156 C 212.65625 91.765625 210.847656 91.609375 209.117188 91.238281 C 207.386719 90.863281 205.71875 90.269531 204.035156 89.730469 C 189.738281 85.109375 174.542969 84.222656 159.53125 83.699219 C 146.4375 83.242188 133.246094 83.042969 120.3125 85.148438 C 110.792969 86.699219 101.480469 89.492188 92.679688 93.441406 C 90.3125 98.511719 88.097656 103.644531 86.054688 108.855469 L 89.972656 109.90625 L 233.96875 114.773438 C 237.769531 107.984375 238.164062 99.382812 234.996094 92.277344 C 232.042969 85.65625 226.375 80.628906 220.363281 76.589844 C 206.945312 67.578125 191.320312 62.546875 175.910156 57.691406 C 170.082031 55.859375 164.195312 54.042969 158.238281 52.710938 " fill-opacity="1" fill-rule="nonzero"/><path fill="#f8ac6a" d="M 126.933594 57.691406 C 129.441406 56.667969 132.082031 55.976562 134.75 55.5 C 139.796875 54.585938 145.035156 54.425781 150.023438 55.609375 C 152.417969 56.175781 154.765625 57.070312 156.761719 58.5 C 157.582031 59.09375 158.351562 59.785156 158.875 60.65625 C 159.394531 61.523438 159.652344 62.582031 159.410156 63.566406 C 159.203125 64.402344 158.644531 65.128906 157.941406 65.632812 C 157.242188 66.136719 156.410156 66.429688 155.558594 66.578125 C 153.039062 67.019531 150.492188 66.234375 147.980469 65.734375 C 144.898438 65.121094 141.726562 64.929688 138.597656 65.25 C 135.285156 65.59375 132.050781 66.507812 128.976562 67.785156 C 126.976562 68.613281 124.992188 69.613281 122.839844 69.832031 C 121.828125 69.933594 120.777344 69.863281 119.832031 69.472656 C 118.890625 69.085938 118.0625 68.363281 117.667969 67.421875 C 117.4375 66.878906 117.359375 66.285156 117.410156 65.699219 C 117.453125 65.121094 117.632812 64.550781 117.894531 64.023438 C 118.414062 62.976562 119.265625 62.128906 120.1875 61.402344 C 121.199219 60.613281 122.3125 59.957031 123.445312 59.347656 C 124.582031 58.742188 125.742188 58.179688 126.933594 57.691406 " fill-opacity="1" fill-rule="nonzero"/><path fill="#f04425" d="M 131.46875 61.421875 C 130.984375 61.453125 130.53125 61.671875 130.203125 62.027344 C 125.253906 67.320312 120.867188 73.148438 117.183594 79.394531 C 114.246094 84.375 111.761719 89.613281 109.738281 95.03125 C 109.554688 95.492188 109.566406 96.015625 109.773438 96.472656 C 109.976562 96.925781 110.347656 97.28125 110.816406 97.457031 C 111.28125 97.636719 111.796875 97.617188 112.253906 97.410156 C 112.707031 97.199219 113.058594 96.820312 113.226562 96.351562 C 115.171875 91.136719 117.574219 86.085938 120.394531 81.292969 C 123.941406 75.285156 128.160156 69.679688 132.921875 64.589844 C 133.460938 64.035156 133.601562 63.203125 133.28125 62.507812 C 132.960938 61.804688 132.238281 61.371094 131.46875 61.421875 " fill-opacity="1" fill-rule="nonzero"/><path fill="#f04425" d="M 151.90625 63.789062 C 151.425781 63.8125 150.976562 64.019531 150.648438 64.367188 C 146.5625 68.53125 143.058594 73.269531 140.289062 78.40625 C 137.945312 82.738281 136.109375 87.371094 134.847656 92.140625 C 134.722656 92.621094 134.789062 93.132812 135.039062 93.566406 C 135.289062 93.996094 135.699219 94.308594 136.179688 94.4375 C 136.660156 94.566406 137.171875 94.496094 137.605469 94.246094 C 138.035156 93.996094 138.347656 93.582031 138.476562 93.101562 C 139.660156 88.625 141.355469 84.269531 143.558594 80.195312 C 146.164062 75.367188 149.472656 70.898438 153.308594 66.984375 C 153.859375 66.4375 154.015625 65.613281 153.703125 64.902344 C 153.394531 64.195312 152.679688 63.753906 151.90625 63.789062 " fill-opacity="1" fill-rule="nonzero"/><path fill="#f04425" d="M 170.070312 65.855469 C 169.65625 65.921875 169.277344 66.125 168.996094 66.429688 C 165.566406 70.03125 162.664062 74.152344 160.421875 78.597656 C 158.582031 82.261719 157.183594 86.15625 156.273438 90.15625 C 156.128906 90.652344 156.1875 91.1875 156.449219 91.636719 C 156.707031 92.085938 157.140625 92.402344 157.648438 92.515625 C 158.148438 92.632812 158.679688 92.53125 159.105469 92.242188 C 159.535156 91.949219 159.820312 91.492188 159.902344 90.984375 C 160.742188 87.277344 162.039062 83.671875 163.746094 80.277344 C 165.820312 76.160156 168.507812 72.355469 171.6875 69.019531 C 172.261719 68.445312 172.402344 67.566406 172.03125 66.84375 C 171.664062 66.121094 170.867188 65.71875 170.070312 65.855469 " fill-opacity="1" fill-rule="nonzero"/><path fill="#f04425" d="M 189.324219 73.339844 C 188.785156 73.371094 188.285156 73.628906 187.953125 74.058594 C 185.320312 77.363281 183.4375 81.253906 182.484375 85.367188 C 181.929688 87.757812 181.671875 90.210938 181.746094 92.664062 C 181.757812 93.160156 181.96875 93.628906 182.332031 93.96875 C 182.691406 94.308594 183.171875 94.492188 183.667969 94.476562 C 184.160156 94.464844 184.632812 94.253906 184.972656 93.890625 C 185.3125 93.53125 185.492188 93.042969 185.480469 92.550781 C 185.425781 90.421875 185.632812 88.292969 186.113281 86.21875 C 186.941406 82.652344 188.585938 79.261719 190.863281 76.394531 C 191.335938 75.824219 191.425781 75.023438 191.089844 74.359375 C 190.761719 73.699219 190.066406 73.296875 189.324219 73.339844 " fill-opacity="1" fill-rule="nonzero"/><path fill="#f04425" d="M 209.4375 78.789062 C 208.75 78.808594 208.128906 79.195312 207.816406 79.808594 C 206.554688 82.21875 205.519531 84.753906 204.710938 87.351562 C 203.808594 90.25 203.203125 93.246094 202.894531 96.269531 C 202.832031 96.769531 202.972656 97.277344 203.289062 97.671875 C 203.605469 98.066406 204.0625 98.316406 204.570312 98.363281 C 205.070312 98.414062 205.570312 98.257812 205.957031 97.929688 C 206.339844 97.601562 206.574219 97.128906 206.609375 96.628906 C 206.886719 93.855469 207.457031 91.113281 208.28125 88.453125 C 209.023438 86.070312 209.953125 83.753906 211.109375 81.542969 C 211.425781 80.960938 211.40625 80.25 211.0625 79.683594 C 210.71875 79.117188 210.097656 78.777344 209.4375 78.789062 " fill-opacity="1" fill-rule="nonzero"/><g clip-path="url(#076b4bd690)"><path fill="#f4741a" d="M 275.824219 139.824219 C 282.914062 137.59375 289.484375 133.710938 294.875 128.578125 C 303.023438 120.8125 308.257812 110.496094 315.628906 101.992188 C 318.761719 98.371094 322.3125 95.058594 326.453125 92.664062 C 330.589844 90.261719 335.351562 88.808594 340.125 89.035156 C 344.601562 89.246094 348.964844 90.945312 352.554688 93.628906 C 356.140625 96.316406 358.96875 99.976562 360.882812 104.035156 C 364.101562 110.867188 364.730469 118.632812 364.625 126.191406 C 364.34375 146.71875 359.085938 167.113281 360.683594 187.585938 C 362.0625 205.300781 368.535156 222.375 369.339844 240.128906 C 369.753906 249.160156 368.542969 258.621094 363.570312 266.160156 C 360.472656 270.855469 355.953125 274.632812 350.699219 276.617188 C 345.445312 278.601562 339.472656 278.738281 334.21875 276.769531 C 327.417969 274.21875 322.285156 268.464844 318.488281 262.265625 C 314.695312 256.0625 311.960938 249.265625 308.234375 243.019531 C 302.40625 233.273438 294.148438 224.992188 284.414062 219.160156 L 275.824219 139.824219 " fill-opacity="1" fill-rule="nonzero"/></g><g clip-path="url(#a4578dbc72)"><path fill="#f25c21" d="M 364.457031 130.226562 C 360.234375 143.667969 355.210938 156.890625 352.226562 170.664062 C 349.996094 180.949219 348.925781 191.570312 350.183594 202.019531 C 351.824219 215.667969 357.382812 228.851562 356.988281 242.589844 C 356.84375 247.183594 356.003906 251.867188 353.578125 255.761719 C 352.363281 257.710938 350.765625 259.4375 348.839844 260.675781 C 346.914062 261.921875 344.644531 262.667969 342.355469 262.695312 C 339.972656 262.738281 337.632812 261.984375 335.566406 260.796875 C 333.503906 259.609375 331.703125 257.988281 330.105469 256.222656 C 326.203125 251.894531 323.453125 246.667969 320.785156 241.480469 C 318.125 236.296875 315.480469 231.039062 311.738281 226.570312 C 310.625 225.238281 309.421875 223.980469 308.367188 222.609375 C 307.308594 221.230469 306.394531 219.71875 305.953125 218.042969 C 305.496094 216.300781 305.570312 214.457031 305.894531 212.6875 C 306.21875 210.917969 306.785156 209.195312 307.316406 207.472656 C 310.484375 197.121094 312.222656 186.15625 310.714844 175.433594 C 309.347656 165.707031 305.347656 156.496094 300.167969 148.160156 C 296.882812 142.878906 293.105469 137.921875 288.917969 133.328125 C 284.890625 136.109375 280.492188 138.351562 275.828125 139.824219 L 284.417969 219.164062 C 294.152344 224.996094 302.410156 233.269531 308.238281 243.019531 C 311.964844 249.261719 314.695312 256.066406 318.492188 262.265625 C 322.289062 268.464844 327.417969 274.21875 334.214844 276.765625 C 339.472656 278.738281 345.445312 278.605469 350.699219 276.621094 C 355.957031 274.636719 360.476562 270.855469 363.574219 266.160156 C 368.550781 258.625 369.757812 249.160156 369.34375 240.128906 C 368.535156 222.375 362.058594 205.304688 360.683594 187.589844 C 359.191406 168.460938 363.636719 149.398438 364.460938 130.226562 L 364.457031 130.226562 " fill-opacity="1" fill-rule="nonzero"/></g><path fill="#f04425" d="M 341.660156 115.105469 C 341.433594 115.136719 341.207031 115.210938 341 115.324219 C 330.476562 120.589844 320.375 126.6875 310.8125 133.546875 C 302.609375 139.425781 294.789062 145.851562 287.457031 152.785156 C 287.09375 153.128906 286.882812 153.601562 286.871094 154.101562 C 286.855469 154.597656 287.039062 155.085938 287.386719 155.445312 C 287.726562 155.808594 288.199219 156.019531 288.699219 156.03125 C 289.195312 156.039062 289.679688 155.855469 290.039062 155.507812 C 297.246094 148.691406 304.917969 142.351562 312.980469 136.574219 C 322.382812 129.832031 332.304688 123.828125 342.648438 118.65625 C 343.476562 118.269531 343.910156 117.339844 343.660156 116.460938 C 343.417969 115.578125 342.570312 115.003906 341.660156 115.105469 " fill-opacity="1" fill-rule="nonzero"/><path fill="#f04425" d="M 296.441406 198.613281 C 295.714844 198.652344 295.074219 199.117188 294.804688 199.796875 C 294.539062 200.476562 294.695312 201.25 295.203125 201.773438 C 304.582031 211.96875 315.082031 221.101562 326.46875 228.96875 C 331.679688 232.570312 337.074219 235.90625 342.625 238.960938 C 343.054688 239.203125 343.570312 239.261719 344.046875 239.128906 C 344.523438 238.988281 344.925781 238.667969 345.167969 238.234375 C 345.40625 237.796875 345.46875 237.289062 345.328125 236.804688 C 345.191406 236.328125 344.871094 235.925781 344.4375 235.683594 C 338.996094 232.695312 333.691406 229.414062 328.585938 225.890625 C 317.421875 218.175781 307.140625 209.230469 297.953125 199.242188 C 297.570312 198.8125 297.015625 198.578125 296.441406 198.613281 " fill-opacity="1" fill-rule="nonzero"/><path fill="#f04425" d="M 296.882812 183.28125 C 295.957031 183.292969 295.183594 183.980469 295.058594 184.894531 C 294.933594 185.816406 295.5 186.683594 296.386719 186.941406 C 304.058594 189.1875 311.84375 191.027344 319.710938 192.449219 C 328.105469 193.957031 336.609375 195.007812 345.121094 195.558594 C 345.621094 195.589844 346.113281 195.421875 346.484375 195.09375 C 346.859375 194.761719 347.085938 194.292969 347.117188 193.796875 C 347.148438 193.296875 346.976562 192.804688 346.640625 192.433594 C 346.308594 192.0625 345.839844 191.839844 345.34375 191.8125 C 336.972656 191.273438 328.625 190.273438 320.371094 188.785156 C 312.632812 187.390625 304.972656 185.574219 297.429688 183.363281 C 297.25 183.308594 297.066406 183.277344 296.882812 183.277344 L 296.882812 183.28125 " fill-opacity="1" fill-rule="nonzero"/><path fill="#f04425" d="M 343.445312 154.648438 C 343.398438 154.65625 343.355469 154.667969 343.308594 154.679688 C 335.203125 155.648438 327.148438 157.125 319.242188 159.140625 C 309.855469 161.519531 300.675781 164.640625 291.765625 168.441406 C 291.3125 168.632812 290.949219 169 290.761719 169.460938 C 290.574219 169.921875 290.578125 170.433594 290.773438 170.890625 C 290.964844 171.351562 291.332031 171.710938 291.796875 171.894531 C 292.253906 172.082031 292.769531 172.074219 293.222656 171.882812 C 301.957031 168.15625 310.972656 165.109375 320.175781 162.773438 C 327.929688 160.800781 335.800781 159.34375 343.746094 158.394531 C 344.769531 158.300781 345.53125 157.398438 345.445312 156.371094 C 345.363281 155.34375 344.472656 154.578125 343.441406 154.648438 L 343.445312 154.648438 " fill-opacity="1" fill-rule="nonzero"/><path fill="#ef3427" d="M 204.09375 89.75 C 203.554688 91.898438 203.121094 94.066406 202.894531 96.269531 C 202.847656 96.761719 203 97.25 203.3125 97.636719 C 203.625 98.019531 204.082031 98.257812 204.574219 98.308594 C 205.066406 98.355469 205.558594 98.203125 205.9375 97.886719 C 206.320312 97.574219 206.5625 97.121094 206.609375 96.625 C 206.808594 94.675781 207.1875 92.75 207.664062 90.84375 C 206.464844 90.507812 205.277344 90.136719 204.09375 89.75 " fill-opacity="1" fill-rule="nonzero"/><path fill="#ef3427" d="M 182.519531 85.242188 C 182.519531 85.285156 182.480469 85.328125 182.480469 85.371094 C 181.925781 87.757812 181.667969 90.21875 181.738281 92.667969 C 181.75 93.164062 181.957031 93.640625 182.320312 93.980469 C 182.679688 94.328125 183.164062 94.511719 183.664062 94.496094 C 184.160156 94.480469 184.632812 94.265625 184.972656 93.902344 C 185.3125 93.535156 185.492188 93.050781 185.472656 92.550781 C 185.417969 90.425781 185.628906 88.300781 186.109375 86.222656 C 186.148438 86.0625 186.203125 85.910156 186.246094 85.75 C 185.007812 85.570312 183.761719 85.398438 182.519531 85.246094 L 182.519531 85.242188 " fill-opacity="1" fill-rule="nonzero"/><path fill="#ef3427" d="M 158.226562 83.664062 C 157.4375 85.78125 156.777344 87.949219 156.273438 90.15625 C 156.125 90.652344 156.1875 91.1875 156.449219 91.632812 C 156.707031 92.082031 157.140625 92.398438 157.648438 92.511719 C 158.148438 92.628906 158.679688 92.527344 159.105469 92.238281 C 159.535156 91.945312 159.820312 91.488281 159.902344 90.980469 C 160.460938 88.527344 161.285156 86.152344 162.226562 83.820312 C 161.328125 83.777344 160.425781 83.722656 159.53125 83.695312 C 159.097656 83.695312 158.660156 83.652344 158.226562 83.652344 L 158.226562 83.664062 " fill-opacity="1" fill-rule="nonzero"/><path fill="#ef3427" d="M 141.929688 83.457031 C 140.5625 83.5 139.195312 83.527344 137.824219 83.570312 C 136.636719 86.355469 135.617188 89.21875 134.84375 92.140625 C 134.582031 93.144531 135.179688 94.167969 136.179688 94.433594 C 137.179688 94.699219 138.207031 94.105469 138.472656 93.101562 C 139.347656 89.800781 140.503906 86.566406 141.929688 83.460938 L 141.929688 83.457031 " fill-opacity="1" fill-rule="nonzero"/><path fill="#ef3427" d="M 118.117188 85.578125 C 116.542969 85.867188 114.960938 86.140625 113.394531 86.5 C 112.046875 89.285156 110.824219 92.128906 109.738281 95.027344 C 109.546875 95.492188 109.550781 96.023438 109.753906 96.480469 C 109.957031 96.945312 110.335938 97.304688 110.808594 97.484375 C 111.277344 97.660156 111.800781 97.640625 112.257812 97.425781 C 112.710938 97.210938 113.0625 96.824219 113.226562 96.347656 C 114.609375 92.648438 116.292969 89.074219 118.117188 85.574219 L 118.117188 85.578125 " fill-opacity="1" fill-rule="nonzero"/><g clip-path="url(#bb63a805b2)"><path fill="#f3c90d" d="M 203.6875 295.261719 C 186.070312 300.972656 167.746094 304.664062 149.25 305.492188 C 118.832031 306.847656 87.875 300.21875 61.46875 285.039062 C 42.605469 274.199219 26.066406 258.910156 15.195312 240.042969 C 9.3125 229.84375 5.070312 218.410156 4.984375 206.636719 C 4.871094 191.769531 11.34375 177.617188 19.277344 165.050781 C 37.207031 136.65625 63.671875 113.457031 94.8125 100.96875 C 125.859375 88.507812 160.671875 86.9375 193.484375 93.46875 C 227.550781 100.25 260.59375 116.21875 283.308594 142.550781 C 290.269531 150.628906 296.257812 159.707031 299.640625 169.824219 C 303.214844 180.535156 303.738281 192.269531 301 203.230469 C 298.347656 213.832031 292.78125 223.464844 286.710938 232.542969 C 277.367188 246.503906 266.546875 259.644531 253.363281 270.039062 C 238.699219 281.605469 221.445312 289.511719 203.6875 295.261719 " fill-opacity="1" fill-rule="nonzero"/></g><path fill="#ef3427" d="M 297.398438 143.972656 C 294 146.820312 290.675781 149.738281 287.460938 152.785156 C 287.078125 153.125 286.855469 153.601562 286.835938 154.109375 C 286.808594 154.617188 286.996094 155.113281 287.347656 155.480469 C 287.695312 155.851562 288.179688 156.0625 288.6875 156.070312 C 289.195312 156.074219 289.683594 155.871094 290.039062 155.507812 C 293.097656 152.617188 296.257812 149.824219 299.476562 147.113281 C 298.800781 146.058594 298.113281 145 297.398438 143.972656 " fill-opacity="1" fill-rule="nonzero"/><path fill="#ef3427" d="M 307.363281 162.609375 C 302.085938 164.332031 296.882812 166.261719 291.769531 168.441406 C 291.292969 168.621094 290.910156 168.988281 290.710938 169.453125 C 290.507812 169.921875 290.507812 170.453125 290.707031 170.921875 C 290.90625 171.390625 291.28125 171.761719 291.757812 171.9375 C 292.238281 172.121094 292.761719 172.097656 293.226562 171.878906 C 298.25 169.734375 303.378906 167.847656 308.574219 166.15625 C 308.207031 164.960938 307.804688 163.78125 307.363281 162.609375 " fill-opacity="1" fill-rule="nonzero"/><path fill="#ef3427" d="M 296.882812 183.273438 C 295.964844 183.296875 295.199219 183.984375 295.078125 184.890625 C 294.953125 185.800781 295.507812 186.667969 296.386719 186.933594 C 301.164062 188.328125 305.996094 189.511719 310.851562 190.59375 C 310.976562 189.347656 311.09375 188.105469 311.160156 186.859375 C 306.550781 185.820312 301.964844 184.683594 297.433594 183.355469 C 297.253906 183.300781 297.070312 183.269531 296.882812 183.269531 L 296.882812 183.273438 " fill-opacity="1" fill-rule="nonzero"/><path fill="#ef3427" d="M 296.441406 198.613281 C 295.714844 198.648438 295.070312 199.113281 294.800781 199.792969 C 294.53125 200.476562 294.6875 201.253906 295.199219 201.777344 C 298.625 205.5 302.242188 209.019531 305.953125 212.445312 C 306.21875 211.066406 306.625 209.714844 307.042969 208.371094 C 303.921875 205.421875 300.859375 202.410156 297.949219 199.246094 C 297.570312 198.816406 297.015625 198.582031 296.441406 198.613281 " fill-opacity="1" fill-rule="nonzero"/><path fill="#ef3427" d="M 233.859375 277.355469 C 233.101562 277.410156 232.449219 277.925781 232.21875 278.652344 C 231.988281 279.382812 232.226562 280.175781 232.8125 280.664062 C 235.488281 282.933594 238.359375 284.972656 241.347656 286.804688 C 242.550781 286.113281 243.773438 285.464844 244.953125 284.722656 C 244.996094 284.722656 244.996094 284.679688 245.023438 284.679688 C 241.558594 282.703125 238.273438 280.402344 235.234375 277.820312 C 234.855469 277.488281 234.359375 277.316406 233.859375 277.355469 " fill-opacity="1" fill-rule="nonzero"/><path fill="#ef3427" d="M 215.863281 286.21875 C 215.132812 286.257812 214.492188 286.71875 214.222656 287.402344 C 213.957031 288.082031 214.113281 288.859375 214.625 289.382812 C 216.941406 291.871094 219.539062 294.082031 222.347656 295.984375 C 223.75 295.410156 225.132812 294.792969 226.523438 294.191406 C 223.144531 292.1875 220.023438 289.699219 217.34375 286.820312 C 216.96875 286.40625 216.421875 286.183594 215.863281 286.21875 " fill-opacity="1" fill-rule="nonzero"/><path fill="#ef3427" d="M 190.480469 292.683594 C 189.71875 292.671875 189.023438 293.121094 188.726562 293.828125 C 188.429688 294.527344 188.59375 295.34375 189.132812 295.878906 C 192.039062 298.859375 195.238281 301.566406 198.648438 303.949219 C 200.328125 303.609375 201.988281 303.203125 203.636719 302.734375 C 199.332031 300.074219 195.328125 296.914062 191.796875 293.289062 C 191.457031 292.917969 190.984375 292.699219 190.484375 292.683594 L 190.480469 292.683594 " fill-opacity="1" fill-rule="nonzero"/><path fill="#ef3427" d="M 93.222656 294.699219 C 92.566406 294.71875 91.96875 295.082031 91.644531 295.65625 C 91.328125 296.234375 91.332031 296.933594 91.660156 297.507812 C 92.761719 299.476562 93.957031 301.390625 95.230469 303.257812 C 97.34375 303.953125 99.429688 304.75 101.546875 305.449219 C 101.585938 305.449219 101.585938 305.449219 101.601562 305.449219 C 99.117188 302.371094 96.824219 299.132812 94.898438 295.675781 C 94.570312 295.054688 93.921875 294.671875 93.222656 294.6875 L 93.222656 294.699219 " fill-opacity="1" fill-rule="nonzero"/><path fill="#ef3427" d="M 113.75 299.652344 C 113.132812 299.691406 112.574219 300.035156 112.257812 300.570312 C 111.945312 301.105469 111.914062 301.757812 112.183594 302.320312 C 113.199219 304.503906 114.425781 306.597656 115.808594 308.574219 C 116.070312 308.617188 116.324219 308.671875 116.585938 308.703125 C 118.03125 308.886719 119.488281 308.980469 120.9375 309.121094 C 118.789062 306.582031 116.96875 303.769531 115.558594 300.746094 C 115.242188 300.042969 114.523438 299.605469 113.75 299.648438 L 113.75 299.652344 " fill-opacity="1" fill-rule="nonzero"/><path fill="#f4af0d" d="M 282.160156 141.292969 C 284.191406 157.941406 281.796875 175.136719 275.011719 190.476562 C 264.289062 214.710938 243.496094 233.433594 220.160156 245.917969 C 184.453125 265.015625 142.15625 270.636719 102.265625 263.75 C 68.453125 257.914062 36.746094 243.484375 8.070312 224.371094 C 9.867188 229.816406 12.328125 235.074219 15.195312 240.039062 C 26.066406 258.90625 42.605469 274.195312 61.46875 285.039062 C 87.875 300.21875 118.835938 306.851562 149.253906 305.492188 C 167.75 304.667969 186.070312 300.972656 203.6875 295.261719 C 221.445312 289.507812 238.699219 281.601562 253.363281 270.039062 C 266.542969 259.640625 277.363281 246.5 286.707031 232.539062 C 292.78125 223.460938 298.34375 213.832031 300.996094 203.230469 C 303.734375 192.269531 303.214844 180.539062 299.636719 169.824219 C 296.257812 159.710938 290.265625 150.628906 283.304688 142.554688 C 282.929688 142.125 282.539062 141.71875 282.164062 141.292969 L 282.160156 141.292969 " fill-opacity="1" fill-rule="nonzero"/><path fill="#f6de48" d="M 135.75 135.816406 C 136.210938 132.296875 135.722656 128.710938 134.878906 125.265625 C 134.046875 121.890625 132.871094 118.617188 131.738281 115.328125 C 131.460938 114.523438 131.183594 113.710938 131.050781 112.867188 C 130.925781 112.023438 130.941406 111.144531 131.246094 110.347656 C 131.546875 109.574219 132.105469 108.914062 132.789062 108.453125 C 133.476562 107.992188 134.285156 107.726562 135.105469 107.640625 C 136.746094 107.472656 138.394531 108.019531 139.835938 108.828125 C 142.964844 110.585938 145.289062 113.558594 146.796875 116.816406 C 148.828125 121.199219 149.488281 126.089844 149.695312 130.917969 C 149.90625 135.667969 149.671875 140.582031 147.660156 144.890625 C 146.652344 147.058594 145.140625 149.082031 143.03125 150.195312 C 141.753906 150.871094 140.273438 151.1875 138.847656 150.96875 C 137.417969 150.757812 136.0625 149.996094 135.226562 148.820312 C 134.632812 147.980469 134.316406 146.96875 134.203125 145.949219 C 134.085938 144.925781 134.171875 143.890625 134.328125 142.875 C 134.6875 140.5 135.433594 138.199219 135.746094 135.820312 L 135.75 135.816406 " fill-opacity="1" fill-rule="nonzero"/><path fill="#f6de48" d="M 179.796875 182.96875 C 180.210938 179.828125 179.785156 176.632812 179.019531 173.5625 C 178.277344 170.554688 177.230469 167.636719 176.222656 164.703125 C 175.972656 163.988281 175.726562 163.261719 175.613281 162.511719 C 175.5 161.757812 175.511719 160.972656 175.785156 160.261719 C 176.050781 159.578125 176.550781 158.984375 177.15625 158.574219 C 177.769531 158.160156 178.492188 157.925781 179.222656 157.847656 C 180.6875 157.703125 182.160156 158.1875 183.4375 158.910156 C 186.230469 160.476562 188.300781 163.125 189.644531 166.027344 C 191.457031 169.933594 192.046875 174.296875 192.234375 178.597656 C 192.414062 182.832031 192.207031 187.214844 190.414062 191.058594 C 189.519531 192.988281 188.171875 194.792969 186.285156 195.785156 C 185.148438 196.386719 183.832031 196.664062 182.558594 196.476562 C 181.285156 196.289062 180.078125 195.605469 179.332031 194.558594 C 178.800781 193.8125 178.515625 192.910156 178.417969 192 C 178.320312 191.089844 178.390625 190.164062 178.53125 189.261719 C 178.851562 187.144531 179.515625 185.089844 179.792969 182.96875 L 179.796875 182.96875 " fill-opacity="1" fill-rule="nonzero"/><path fill="#f6de48" d="M 205.78125 135.964844 C 206.195312 132.828125 205.769531 129.632812 205.003906 126.558594 C 204.261719 123.550781 203.214844 120.632812 202.207031 117.703125 C 201.957031 116.984375 201.710938 116.257812 201.59375 115.507812 C 201.484375 114.757812 201.496094 113.96875 201.769531 113.261719 C 202.035156 112.574219 202.53125 111.984375 203.140625 111.570312 C 203.753906 111.160156 204.476562 110.925781 205.207031 110.847656 C 206.671875 110.699219 208.140625 111.1875 209.421875 111.90625 C 212.214844 113.476562 214.285156 116.125 215.628906 119.027344 C 217.4375 122.933594 218.027344 127.296875 218.21875 131.597656 C 218.402344 135.832031 218.1875 140.214844 216.398438 144.054688 C 215.503906 145.988281 214.15625 147.792969 212.269531 148.789062 C 211.136719 149.382812 209.816406 149.664062 208.542969 149.476562 C 207.269531 149.289062 206.058594 148.605469 205.316406 147.558594 C 204.785156 146.808594 204.5 145.90625 204.402344 144.996094 C 204.300781 144.089844 204.375 143.164062 204.515625 142.257812 C 204.835938 140.140625 205.496094 138.085938 205.777344 135.964844 L 205.78125 135.964844 " fill-opacity="1" fill-rule="nonzero"/><path fill="#f6de48" d="M 242.527344 183.6875 C 242.941406 180.550781 242.519531 177.355469 241.75 174.28125 C 241.007812 171.277344 239.960938 168.355469 238.953125 165.425781 C 238.703125 164.703125 238.457031 163.980469 238.34375 163.230469 C 238.230469 162.480469 238.242188 161.691406 238.515625 160.980469 C 238.78125 160.296875 239.277344 159.707031 239.886719 159.296875 C 240.5 158.882812 241.222656 158.648438 241.953125 158.570312 C 243.417969 158.421875 244.886719 158.90625 246.167969 159.628906 C 248.960938 161.195312 251.03125 163.84375 252.375 166.75 C 254.1875 170.65625 254.773438 175.015625 254.964844 179.320312 C 255.144531 183.554688 254.933594 187.933594 253.148438 191.773438 C 252.25 193.710938 250.902344 195.515625 249.015625 196.503906 C 247.882812 197.109375 246.5625 197.386719 245.289062 197.195312 C 244.015625 197.007812 242.804688 196.328125 242.0625 195.277344 C 241.53125 194.535156 241.246094 193.632812 241.148438 192.722656 C 241.050781 191.808594 241.121094 190.890625 241.261719 189.980469 C 241.582031 187.867188 242.242188 185.8125 242.523438 183.6875 L 242.527344 183.6875 " fill-opacity="1" fill-rule="nonzero"/><path fill="#f6de48" d="M 254.210938 243.234375 C 254.941406 240.15625 254.839844 236.929688 254.386719 233.800781 C 253.953125 230.730469 253.207031 227.722656 252.496094 224.707031 C 252.324219 223.964844 252.152344 223.21875 252.113281 222.460938 C 252.070312 221.703125 252.167969 220.917969 252.511719 220.242188 C 252.847656 219.585938 253.398438 219.046875 254.050781 218.699219 C 254.699219 218.351562 255.441406 218.191406 256.175781 218.1875 C 257.648438 218.1875 259.058594 218.820312 260.265625 219.671875 C 262.882812 221.511719 264.671875 224.351562 265.71875 227.382812 C 267.128906 231.449219 267.273438 235.851562 267.023438 240.152344 C 266.78125 244.378906 266.128906 248.714844 263.960938 252.359375 C 262.875 254.1875 261.351562 255.851562 259.375 256.648438 C 258.183594 257.125 256.847656 257.273438 255.597656 256.957031 C 254.351562 256.636719 253.214844 255.839844 252.582031 254.71875 C 252.128906 253.925781 251.9375 252.996094 251.929688 252.082031 C 251.921875 251.164062 252.085938 250.253906 252.320312 249.367188 C 252.851562 247.296875 253.71875 245.320312 254.210938 243.234375 " fill-opacity="1" fill-rule="nonzero"/><path fill="#f6de48" d="M 123.558594 287.34375 C 125.078125 284.566406 125.832031 281.429688 126.222656 278.292969 C 126.613281 275.21875 126.6875 272.113281 126.800781 269.015625 C 126.832031 268.257812 126.859375 267.496094 127.023438 266.75 C 127.183594 266.007812 127.484375 265.28125 128 264.71875 C 128.488281 264.171875 129.167969 263.800781 129.882812 263.636719 C 130.601562 263.476562 131.363281 263.511719 132.070312 263.707031 C 133.492188 264.101562 134.683594 265.085938 135.621094 266.222656 C 137.660156 268.6875 138.640625 271.910156 138.847656 275.105469 C 139.128906 279.402344 138.105469 283.683594 136.730469 287.765625 C 135.378906 291.78125 133.601562 295.789062 130.554688 298.726562 C 129.019531 300.203125 127.113281 301.398438 124.996094 301.644531 C 123.71875 301.796875 122.390625 301.574219 121.273438 300.941406 C 120.152344 300.304688 119.273438 299.230469 118.953125 297.988281 C 118.726562 297.097656 118.789062 296.15625 119.023438 295.269531 C 119.261719 294.382812 119.65625 293.546875 120.113281 292.753906 C 121.175781 290.898438 122.535156 289.21875 123.558594 287.34375 " fill-opacity="1" fill-rule="nonzero"/><path fill="#f7cb4a" d="M 127.148438 266.375 C 127.105469 266.503906 127.046875 266.617188 127.023438 266.75 C 126.859375 267.492188 126.832031 268.261719 126.800781 269.019531 C 126.6875 272.117188 126.609375 275.222656 126.222656 278.292969 C 125.828125 281.433594 125.078125 284.566406 123.558594 287.34375 C 122.535156 289.222656 121.175781 290.898438 120.113281 292.753906 C 119.65625 293.546875 119.261719 294.382812 119.027344 295.265625 C 118.792969 296.152344 118.734375 297.101562 118.953125 297.992188 C 119.273438 299.238281 120.152344 300.308594 121.273438 300.945312 C 122.390625 301.582031 123.714844 301.796875 124.996094 301.644531 C 127.109375 301.398438 129.015625 300.207031 130.550781 298.726562 C 133.597656 295.789062 135.375 291.78125 136.726562 287.765625 C 138.101562 283.6875 139.125 279.40625 138.84375 275.109375 C 138.640625 272.042969 137.710938 268.964844 135.832031 266.539062 C 132.9375 266.539062 130.039062 266.496094 127.148438 266.375 " fill-opacity="1" fill-rule="nonzero"/><path fill="#f6de48" d="M 139.640625 199.277344 C 140.363281 196.195312 140.253906 192.96875 139.800781 189.835938 C 139.359375 186.773438 138.605469 183.757812 137.894531 180.746094 C 137.722656 180.003906 137.542969 179.261719 137.503906 178.503906 C 137.460938 177.742188 137.5625 176.960938 137.902344 176.28125 C 138.234375 175.625 138.789062 175.085938 139.4375 174.738281 C 140.085938 174.386719 140.824219 174.222656 141.5625 174.222656 C 143.035156 174.222656 144.449219 174.851562 145.652344 175.695312 C 148.273438 177.535156 150.070312 180.375 151.121094 183.402344 C 152.535156 187.46875 152.6875 191.867188 152.449219 196.167969 C 152.214844 200.398438 151.566406 204.734375 149.40625 208.378906 C 148.316406 210.214844 146.800781 211.875 144.824219 212.675781 C 143.636719 213.160156 142.292969 213.304688 141.046875 212.992188 C 139.800781 212.675781 138.664062 211.878906 138.027344 210.761719 C 137.570312 209.964844 137.378906 209.039062 137.371094 208.121094 C 137.367188 207.210938 137.527344 206.296875 137.757812 205.410156 C 138.285156 203.335938 139.152344 201.359375 139.640625 199.277344 " fill-opacity="1" fill-rule="nonzero"/><path fill="#f4741a" d="M 116.480469 204.9375 C 126.851562 198.960938 138.929688 196 150.886719 196.5 C 154.285156 196.648438 157.683594 197.066406 160.941406 198.039062 C 164.199219 199.007812 167.316406 200.546875 169.894531 202.769531 C 174.113281 206.410156 176.671875 211.726562 177.722656 217.207031 C 178.78125 222.6875 178.4375 228.34375 177.597656 233.863281 C 176.183594 243.136719 173.351562 252.242188 168.695312 260.378906 C 166 265.085938 162.515625 269.609375 157.625 271.949219 C 154.105469 273.632812 150.054688 274.050781 146.195312 273.503906 C 142.328125 272.957031 138.640625 271.476562 135.25 269.535156 C 130.285156 266.691406 125.925781 262.847656 122.261719 258.449219 C 117.28125 252.472656 113.566406 245.445312 111.433594 237.960938 L 116.480469 204.9375 " fill-opacity="1" fill-rule="nonzero"/><path fill="#f25c21" d="M 122.511719 201.933594 C 120.453125 202.835938 118.433594 203.816406 116.484375 204.941406 L 111.429688 237.957031 C 113.566406 245.441406 117.277344 252.472656 122.253906 258.449219 C 125.917969 262.847656 130.285156 266.6875 135.25 269.535156 C 138.640625 271.472656 142.328125 272.953125 146.191406 273.503906 C 150.054688 274.046875 154.101562 273.628906 157.621094 271.945312 C 162.511719 269.605469 165.992188 265.089844 168.6875 260.382812 C 173.34375 252.246094 176.179688 243.136719 177.59375 233.863281 C 178.4375 228.347656 178.78125 222.683594 177.71875 217.203125 C 177.226562 214.644531 176.375 212.132812 175.210938 209.796875 C 174.089844 216.972656 172.160156 224.015625 169.390625 230.726562 C 167 236.511719 163.949219 242.144531 159.472656 246.507812 C 157.234375 248.691406 154.648438 250.535156 151.792969 251.804688 C 148.933594 253.070312 145.804688 253.75 142.683594 253.628906 C 139.3125 253.503906 135.996094 252.421875 133.15625 250.601562 C 130.316406 248.78125 127.953125 246.226562 126.320312 243.265625 C 124.613281 240.164062 123.710938 236.664062 123.3125 233.144531 C 122.914062 229.625 123.003906 226.070312 123.199219 222.539062 C 123.5625 215.636719 124.269531 208.601562 122.511719 201.933594 " fill-opacity="1" fill-rule="nonzero"/><path fill="#f8ac6a" d="M 147.054688 199.945312 C 150.445312 199.894531 153.839844 200.320312 157.109375 201.203125 C 159.75 201.925781 162.328125 202.949219 164.625 204.445312 C 165.414062 204.960938 166.171875 205.535156 166.808594 206.230469 C 167.449219 206.925781 167.964844 207.75 168.21875 208.660156 C 168.496094 209.675781 168.429688 210.785156 168.003906 211.746094 C 167.566406 212.699219 166.753906 213.492188 165.769531 213.851562 C 164.882812 214.179688 163.898438 214.164062 162.972656 213.972656 C 162.046875 213.789062 161.167969 213.421875 160.285156 213.082031 C 157.699219 212.078125 155.070312 211.191406 152.375 210.578125 C 149.613281 209.949219 146.785156 209.613281 143.957031 209.664062 C 142.375 209.691406 140.769531 209.835938 139.238281 209.460938 C 138.046875 209.171875 136.898438 208.542969 136.234375 207.519531 C 135.785156 206.832031 135.574219 205.996094 135.632812 205.179688 C 135.683594 204.363281 136.003906 203.566406 136.507812 202.921875 C 137.066406 202.210938 137.847656 201.691406 138.683594 201.335938 C 139.515625 200.984375 140.40625 200.78125 141.292969 200.605469 C 143.199219 200.242188 145.128906 200.019531 147.0625 199.945312 L 147.054688 199.945312 " fill-opacity="1" fill-rule="nonzero"/><path fill="#f04425" d="M 138.335938 208.714844 C 131.058594 209.480469 123.882812 211.117188 116.992188 213.585938 C 116.46875 213.703125 116.027344 214.035156 115.769531 214.503906 C 115.511719 214.972656 115.464844 215.527344 115.640625 216.03125 C 115.824219 216.53125 116.203125 216.9375 116.699219 217.136719 C 117.191406 217.335938 117.75 217.316406 118.230469 217.078125 C 124.839844 214.714844 131.738281 213.164062 138.722656 212.429688 C 144.863281 211.78125 151.066406 211.78125 157.210938 212.429688 C 157.699219 212.484375 158.195312 212.34375 158.582031 212.035156 C 158.972656 211.722656 159.222656 211.269531 159.277344 210.777344 C 159.332031 210.28125 159.1875 209.789062 158.875 209.402344 C 158.566406 209.011719 158.113281 208.765625 157.621094 208.714844 C 151.21875 208.035156 144.738281 208.035156 138.335938 208.714844 " fill-opacity="1" fill-rule="nonzero"/><path fill="#f04425" d="M 113.171875 232.023438 C 112.417969 232.09375 111.78125 232.609375 111.554688 233.332031 C 111.335938 234.058594 111.570312 234.84375 112.152344 235.328125 C 117.453125 239.828125 123.199219 243.796875 129.296875 247.136719 C 135.464844 250.511719 141.996094 253.238281 148.722656 255.28125 C 149.210938 255.492188 149.765625 255.488281 150.25 255.265625 C 150.730469 255.039062 151.09375 254.621094 151.25 254.109375 C 151.402344 253.601562 151.332031 253.046875 151.054688 252.59375 C 150.777344 252.136719 150.316406 251.824219 149.792969 251.730469 C 143.3125 249.761719 137.027344 247.113281 131.082031 243.859375 C 125.207031 240.644531 119.652344 236.835938 114.546875 232.492188 C 114.167969 232.15625 113.671875 231.988281 113.171875 232.023438 " fill-opacity="1" fill-rule="nonzero"/><path fill="#f04425" d="M 114.464844 225.394531 C 113.628906 225.484375 112.964844 226.121094 112.828125 226.949219 C 112.695312 227.773438 113.125 228.589844 113.886719 228.941406 C 123.222656 233.628906 132.949219 237.539062 142.925781 240.640625 C 145.9375 241.574219 148.964844 242.445312 152.015625 243.226562 C 152.496094 243.351562 153.011719 243.28125 153.441406 243.027344 C 153.871094 242.773438 154.179688 242.363281 154.304688 241.878906 C 154.429688 241.398438 154.359375 240.886719 154.101562 240.453125 C 153.851562 240.027344 153.433594 239.714844 152.949219 239.59375 C 149.957031 238.824219 146.976562 237.980469 144.023438 237.0625 C 134.242188 234.027344 124.714844 230.183594 115.5625 225.585938 C 115.222656 225.40625 114.839844 225.339844 114.464844 225.394531 " fill-opacity="1" fill-rule="nonzero"/><path fill="#f04425" d="M 114.40625 219.253906 C 113.910156 219.289062 113.449219 219.519531 113.121094 219.894531 C 112.792969 220.273438 112.628906 220.765625 112.667969 221.265625 C 112.707031 221.761719 112.9375 222.222656 113.3125 222.546875 C 113.695312 222.875 114.1875 223.035156 114.683594 222.996094 C 121.128906 222.542969 127.621094 222.761719 134.023438 223.65625 C 140.738281 224.601562 147.34375 226.28125 153.695312 228.667969 C 154.15625 228.847656 154.675781 228.835938 155.132812 228.632812 C 155.585938 228.429688 155.9375 228.054688 156.117188 227.585938 C 156.292969 227.117188 156.273438 226.601562 156.066406 226.148438 C 155.859375 225.695312 155.480469 225.34375 155.015625 225.171875 C 148.40625 222.691406 141.527344 220.949219 134.542969 219.96875 C 127.882812 219.035156 121.113281 218.78125 114.40625 219.253906 " fill-opacity="1" fill-rule="nonzero"/><path fill="#ef3427" d="M 150.734375 252.210938 C 148.476562 253.078125 146.085938 253.570312 143.667969 253.605469 C 145.335938 254.207031 147.023438 254.765625 148.722656 255.28125 C 149.550781 255.636719 150.515625 255.347656 151.011719 254.585938 C 151.503906 253.835938 151.390625 252.828125 150.734375 252.210938 Z M 113.167969 232.023438 C 112.855469 232.050781 112.550781 232.15625 112.289062 232.335938 L 111.875 235.039062 C 111.957031 235.144531 112.050781 235.242188 112.152344 235.328125 C 117.339844 239.734375 122.960938 243.613281 128.914062 246.90625 C 127.929688 245.785156 127.046875 244.570312 126.324219 243.265625 C 125.78125 242.277344 125.34375 241.234375 124.953125 240.179688 C 121.324219 237.839844 117.832031 235.28125 114.546875 232.488281 C 114.167969 232.152344 113.671875 231.980469 113.167969 232.023438 " fill-opacity="1" fill-rule="nonzero"/><path fill="#ef3427" d="M 114.667969 225.375 C 114.597656 225.371094 114.53125 225.371094 114.460938 225.375 C 113.992188 225.429688 113.5625 225.65625 113.253906 226.015625 L 112.953125 227.96875 C 113.136719 228.390625 113.46875 228.734375 113.886719 228.925781 C 116.992188 230.488281 120.152344 231.933594 123.34375 233.320312 C 123.34375 233.261719 123.300781 233.191406 123.300781 233.128906 C 123.152344 231.804688 123.121094 230.46875 123.085938 229.136719 C 120.550781 228 118.03125 226.820312 115.542969 225.566406 C 115.269531 225.425781 114.960938 225.355469 114.648438 225.359375 L 114.667969 225.375 " fill-opacity="1" fill-rule="nonzero"/><path fill="#ef3427" d="M 119.449219 219.039062 C 117.765625 219.082031 116.082031 219.136719 114.402344 219.253906 C 114.367188 219.253906 114.328125 219.253906 114.292969 219.253906 L 113.753906 222.808594 C 114.042969 222.945312 114.363281 223.003906 114.683594 222.984375 C 117.515625 222.785156 120.355469 222.734375 123.195312 222.789062 C 123.195312 222.695312 123.199219 222.609375 123.195312 222.515625 C 123.25 221.367188 123.320312 220.210938 123.394531 219.058594 C 122.074219 219.015625 120.761719 219 119.445312 219.015625 L 119.449219 219.039062 " fill-opacity="1" fill-rule="nonzero"/><path fill="#ef3427" d="M 123.625 211.523438 C 121.390625 212.136719 119.175781 212.804688 116.992188 213.585938 C 116.46875 213.703125 116.03125 214.035156 115.769531 214.503906 C 115.511719 214.972656 115.464844 215.527344 115.640625 216.03125 C 115.820312 216.53125 116.203125 216.9375 116.699219 217.140625 C 117.191406 217.339844 117.75 217.316406 118.230469 217.078125 C 119.984375 216.453125 121.757812 215.890625 123.550781 215.375 C 123.59375 214.089844 123.632812 212.808594 123.617188 211.523438 L 123.625 211.523438 " fill-opacity="1" fill-rule="nonzero"/><g clip-path="url(#9c5e63c72b)"><path fill="#f6de48" d="M 93.007812 101.738281 C 62.65625 114.390625 36.855469 137.207031 19.277344 165.046875 C 11.347656 177.613281 4.875 191.769531 4.988281 206.636719 C 5.070312 218.410156 9.3125 229.84375 15.195312 240.039062 C 26.066406 258.90625 42.605469 274.195312 61.46875 285.039062 C 70.671875 290.328125 80.4375 294.558594 90.53125 297.796875 C 97.769531 286.75 103.808594 274.917969 108.421875 262.542969 C 120.546875 230.046875 122.882812 194.050781 115.761719 160.105469 C 111.457031 139.566406 103.699219 119.777344 93.007812 101.738281 " fill-opacity="1" fill-rule="nonzero"/></g><path fill="#f7c44b" d="M 8.074219 224.371094 C 8.117188 224.515625 8.175781 224.660156 8.230469 224.804688 C 8.636719 226.015625 9.070312 227.226562 9.539062 228.417969 C 10.066406 229.746094 10.628906 231.0625 11.226562 232.363281 C 11.515625 233.003906 11.835938 233.625 12.148438 234.257812 C 12.460938 234.898438 12.75 235.546875 13.074219 236.179688 C 13.753906 237.484375 14.460938 238.773438 15.195312 240.039062 C 26.066406 258.90625 42.605469 274.195312 61.464844 285.039062 C 63.554688 286.238281 65.683594 287.375 67.835938 288.46875 C 68.316406 288.71875 68.8125 288.953125 69.300781 289.195312 C 71.273438 290.171875 73.257812 291.113281 75.269531 292 C 75.457031 292.082031 75.644531 292.171875 75.835938 292.253906 C 80.636719 294.347656 85.542969 296.195312 90.53125 297.792969 C 97.367188 287.359375 103.089844 276.203125 107.601562 264.566406 C 105.820312 264.308594 104.039062 264.054688 102.265625 263.75 C 68.453125 257.914062 36.75 243.476562 8.074219 224.367188 L 8.074219 224.371094 " fill-opacity="1" fill-rule="nonzero"/><path fill="#faef9e" d="M 54.527344 136.179688 C 58.320312 132.535156 62.222656 128.976562 66.523438 125.945312 C 70.339844 123.257812 74.453125 121.007812 78.699219 119.066406 C 80.714844 118.144531 82.769531 117.289062 84.917969 116.742188 C 87.066406 116.195312 89.316406 115.964844 91.503906 116.300781 C 92.980469 116.523438 94.421875 117.007812 95.699219 117.78125 C 96.976562 118.554688 98.089844 119.625 98.847656 120.914062 C 99.683594 122.324219 100.089844 123.984375 100.007812 125.625 C 99.921875 127.265625 99.367188 128.875 98.417969 130.214844 C 96.894531 132.378906 94.503906 133.738281 92.199219 135.039062 C 87.347656 137.777344 82.523438 140.585938 78.015625 143.867188 C 73.53125 147.128906 69.390625 150.839844 65.347656 154.636719 C 63.621094 156.257812 61.894531 157.910156 59.890625 159.179688 C 57.894531 160.441406 55.613281 161.304688 53.253906 161.429688 C 51.695312 161.511719 50.101562 161.253906 48.6875 160.601562 C 47.265625 159.949219 46.019531 158.878906 45.242188 157.519531 C 44.457031 156.15625 44.164062 154.542969 44.242188 152.96875 C 44.3125 151.398438 44.746094 149.859375 45.335938 148.394531 C 46.613281 145.207031 48.621094 142.351562 50.933594 139.804688 C 52.078125 138.546875 53.300781 137.355469 54.527344 136.179688 " fill-opacity="1" fill-rule="nonzero"/><path fill="#f8ac6a" d="M 321.929688 104.667969 C 324.183594 102.15625 326.875 100.054688 329.746094 98.28125 C 332.789062 96.398438 336.15625 94.84375 339.730469 94.667969 C 341.59375 94.566406 343.476562 94.863281 345.203125 95.554688 C 346.933594 96.246094 348.507812 97.34375 349.714844 98.765625 C 350.464844 99.640625 351.078125 100.652344 351.375 101.765625 C 351.679688 102.882812 351.640625 104.105469 351.160156 105.148438 C 350.839844 105.835938 350.335938 106.433594 349.742188 106.902344 C 349.152344 107.375 348.46875 107.726562 347.757812 107.992188 C 346.34375 108.523438 344.824219 108.710938 343.339844 109.007812 C 338.832031 109.902344 334.523438 111.808594 330.828125 114.546875 C 329.785156 115.324219 328.792969 116.164062 327.71875 116.890625 C 326.648438 117.621094 325.476562 118.242188 324.214844 118.527344 C 323.476562 118.691406 322.710938 118.742188 321.964844 118.628906 C 321.21875 118.511719 320.496094 118.242188 319.882812 117.804688 C 319.207031 117.316406 318.675781 116.632812 318.324219 115.878906 C 317.96875 115.125 317.78125 114.296875 317.71875 113.464844 C 317.648438 112.515625 317.734375 111.554688 318.015625 110.644531 C 318.296875 109.734375 318.761719 108.898438 319.28125 108.101562 C 320.078125 106.890625 320.960938 105.742188 321.929688 104.664062 L 321.929688 104.667969 " fill-opacity="1" fill-rule="nonzero"/><path fill="#f57559" d="M 151.902344 63.789062 C 151.425781 63.8125 150.976562 64.019531 150.648438 64.371094 C 150.136719 64.886719 149.667969 65.445312 149.175781 65.980469 C 150.628906 66.296875 152.089844 66.628906 153.546875 66.6875 C 153.9375 66.101562 153.960938 65.347656 153.617188 64.734375 C 153.273438 64.125 152.613281 63.757812 151.910156 63.789062 L 151.902344 63.789062 " fill-opacity="1" fill-rule="nonzero"/><path fill="#f57559" d="M 131.472656 61.421875 C 130.988281 61.449219 130.535156 61.667969 130.207031 62.023438 C 127.933594 64.453125 125.796875 67.015625 123.773438 69.660156 C 125.570312 69.292969 127.269531 68.492188 128.972656 67.785156 C 129.496094 67.570312 130.046875 67.425781 130.578125 67.234375 C 131.351562 66.34375 132.121094 65.449219 132.925781 64.589844 C 133.464844 64.035156 133.605469 63.207031 133.285156 62.507812 C 132.960938 61.804688 132.242188 61.371094 131.472656 61.421875 " fill-opacity="1" fill-rule="nonzero"/><path fill="#f57559" d="M 147.976562 208.203125 C 144.757812 208.203125 141.535156 208.375 138.332031 208.714844 C 138.097656 208.757812 137.871094 208.78125 137.636719 208.808594 C 138.128906 209.101562 138.671875 209.332031 139.226562 209.464844 C 140.765625 209.839844 142.371094 209.691406 143.953125 209.664062 C 146.78125 209.621094 149.613281 209.953125 152.371094 210.582031 C 154.320312 211.023438 156.226562 211.644531 158.113281 212.316406 C 158.910156 211.996094 159.390625 211.175781 159.277344 210.324219 C 159.160156 209.472656 158.480469 208.808594 157.625 208.71875 C 154.425781 208.378906 151.203125 208.207031 147.976562 208.207031 L 147.976562 208.203125 " fill-opacity="1" fill-rule="nonzero"/><path fill="#f8ac6a" d="M 134.652344 324.433594 C 135.347656 323.316406 136 322.160156 136.40625 320.910156 C 136.683594 320.078125 136.84375 319.210938 137.078125 318.367188 C 137.3125 317.527344 137.625 316.6875 138.160156 315.992188 C 138.558594 315.472656 139.082031 315.042969 139.6875 314.792969 C 140.292969 314.542969 140.984375 314.476562 141.613281 314.660156 C 142.441406 314.902344 143.109375 315.542969 143.519531 316.300781 C 143.929688 317.058594 144.09375 317.921875 144.160156 318.78125 C 144.292969 320.652344 143.945312 322.535156 143.433594 324.339844 C 143.035156 325.738281 142.53125 327.113281 141.808594 328.371094 C 141.085938 329.636719 140.128906 330.777344 138.933594 331.597656 C 137.914062 332.304688 136.71875 332.769531 135.484375 332.835938 C 134.707031 332.882812 133.914062 332.753906 133.226562 332.398438 C 132.539062 332.039062 131.96875 331.421875 131.757812 330.671875 C 131.570312 330.023438 131.667969 329.3125 131.910156 328.6875 C 132.164062 328.058594 132.5625 327.507812 132.960938 326.957031 C 133.550781 326.136719 134.113281 325.292969 134.648438 324.429688 L 134.652344 324.433594 " fill-opacity="1" fill-rule="nonzero"/><path fill="#f8ac6a" d="M 264.78125 301.816406 C 264.699219 300.148438 264.535156 298.472656 264.054688 296.871094 C 263.734375 295.804688 263.273438 294.785156 262.902344 293.738281 C 262.535156 292.6875 262.253906 291.585938 262.300781 290.476562 C 262.335938 289.640625 262.574219 288.808594 263.019531 288.105469 C 263.46875 287.40625 264.144531 286.839844 264.933594 286.566406 C 265.964844 286.21875 267.132812 286.394531 268.105469 286.886719 C 269.078125 287.378906 269.886719 288.152344 270.578125 289 C 272.078125 290.851562 273.078125 293.066406 273.859375 295.320312 C 274.460938 297.0625 274.9375 298.863281 275.09375 300.703125 C 275.257812 302.539062 275.09375 304.425781 274.449219 306.15625 C 273.902344 307.632812 272.988281 308.992188 271.75 309.960938 C 270.980469 310.578125 270.0625 311.023438 269.085938 311.152344 C 268.109375 311.277344 267.066406 311.050781 266.300781 310.425781 C 265.640625 309.886719 265.222656 309.078125 265.019531 308.246094 C 264.828125 307.40625 264.847656 306.542969 264.859375 305.683594 C 264.875 304.394531 264.847656 303.105469 264.777344 301.816406 L 264.78125 301.816406 " fill-opacity="1" fill-rule="nonzero"/><path fill="#f6de48" d="M 278.933594 189.484375 C 279.347656 186.347656 278.921875 183.148438 278.15625 180.074219 C 277.417969 177.070312 276.367188 174.148438 275.355469 171.21875 C 275.109375 170.503906 274.867188 169.777344 274.746094 169.027344 C 274.632812 168.277344 274.648438 167.484375 274.921875 166.78125 C 275.1875 166.089844 275.683594 165.5 276.296875 165.089844 C 276.90625 164.679688 277.628906 164.441406 278.359375 164.367188 C 279.828125 164.214844 281.292969 164.699219 282.578125 165.425781 C 285.367188 166.988281 287.433594 169.640625 288.785156 172.546875 C 290.59375 176.449219 291.183594 180.8125 291.371094 185.117188 C 291.554688 189.347656 291.34375 193.730469 289.554688 197.570312 C 288.652344 199.503906 287.308594 201.3125 285.425781 202.304688 C 284.285156 202.902344 282.964844 203.183594 281.695312 202.996094 C 280.425781 202.800781 279.214844 202.125 278.46875 201.074219 C 277.941406 200.328125 277.65625 199.425781 277.554688 198.515625 C 277.457031 197.605469 277.527344 196.683594 277.667969 195.777344 C 277.988281 193.660156 278.652344 191.605469 278.929688 189.484375 L 278.933594 189.484375 " fill-opacity="1" fill-rule="nonzero"/><path fill="#f7cb4a" d="M 282.023438 165.1875 C 281.308594 170.664062 280.097656 176.058594 278.425781 181.3125 C 279.003906 184 279.292969 186.761719 278.933594 189.484375 C 278.65625 191.605469 278 193.660156 277.675781 195.773438 C 277.535156 196.679688 277.464844 197.605469 277.566406 198.511719 C 277.664062 199.421875 277.949219 200.328125 278.480469 201.078125 C 279.230469 202.125 280.4375 202.800781 281.710938 202.992188 C 282.980469 203.183594 284.300781 202.910156 285.433594 202.300781 C 287.320312 201.304688 288.667969 199.507812 289.566406 197.570312 C 291.355469 193.730469 291.566406 189.347656 291.382812 185.113281 C 291.199219 180.8125 290.605469 176.449219 288.796875 172.546875 C 287.449219 169.640625 285.378906 166.988281 282.589844 165.421875 C 282.414062 165.324219 282.214844 165.277344 282.035156 165.191406 L 282.023438 165.1875 " fill-opacity="1" fill-rule="nonzero"/><path fill="#f7cb4a" d="M 256.53125 218.226562 C 255.113281 219.765625 253.664062 221.28125 252.164062 222.746094 C 252.234375 223.40625 252.347656 224.0625 252.5 224.707031 C 253.210938 227.722656 253.953125 230.726562 254.386719 233.796875 C 254.839844 236.929688 254.941406 240.15625 254.210938 243.234375 C 253.722656 245.316406 252.855469 247.300781 252.324219 249.371094 C 252.09375 250.257812 251.933594 251.164062 251.9375 252.082031 C 251.9375 252.996094 252.132812 253.929688 252.585938 254.726562 C 253.222656 255.84375 254.355469 256.632812 255.601562 256.957031 C 256.851562 257.269531 258.1875 257.125 259.378906 256.648438 C 261.355469 255.851562 262.878906 254.1875 263.96875 252.359375 C 266.136719 248.71875 266.792969 244.382812 267.035156 240.15625 C 267.28125 235.855469 267.136719 231.449219 265.730469 227.378906 C 264.683594 224.351562 262.886719 221.511719 260.269531 219.667969 C 259.164062 218.886719 257.882812 218.320312 256.539062 218.226562 L 256.53125 218.226562 " fill-opacity="1" fill-rule="nonzero"/><path fill="#f6de48" d="M 209.300781 239.828125 C 210.027344 236.746094 209.929688 233.527344 209.476562 230.386719 C 209.042969 227.320312 208.296875 224.308594 207.582031 221.296875 C 207.414062 220.558594 207.238281 219.808594 207.199219 219.050781 C 207.15625 218.292969 207.257812 217.511719 207.601562 216.832031 C 207.933594 216.175781 208.488281 215.636719 209.136719 215.292969 C 209.785156 214.941406 210.527344 214.78125 211.261719 214.777344 C 212.738281 214.777344 214.144531 215.410156 215.351562 216.261719 C 217.96875 218.101562 219.761719 220.945312 220.808594 223.96875 C 222.214844 228.042969 222.359375 232.441406 222.109375 236.742188 C 221.867188 240.972656 221.21875 245.308594 219.050781 248.949219 C 217.960938 250.78125 216.441406 252.441406 214.464844 253.238281 C 213.269531 253.722656 211.933594 253.863281 210.6875 253.546875 C 209.4375 253.230469 208.304688 252.429688 207.667969 251.3125 C 207.214844 250.515625 207.023438 249.589844 207.015625 248.671875 C 207.011719 247.757812 207.175781 246.847656 207.40625 245.960938 C 207.9375 243.886719 208.804688 241.910156 209.296875 239.828125 L 209.300781 239.828125 " fill-opacity="1" fill-rule="nonzero"/><path fill="#f7cb4a" d="M 220.523438 245.710938 C 220.394531 245.78125 220.285156 245.855469 220.160156 245.921875 C 216.183594 248.046875 212.121094 249.976562 207.996094 251.765625 C 208.65625 252.640625 209.625 253.277344 210.6875 253.546875 C 211.933594 253.863281 213.273438 253.722656 214.464844 253.238281 C 216.441406 252.441406 217.957031 250.785156 219.046875 248.949219 C 219.660156 247.921875 220.125 246.832031 220.523438 245.710938 " fill-opacity="1" fill-rule="nonzero"/><path fill="#f6de48" d="M 179.699219 278.34375 C 180.429688 275.269531 180.324219 272.042969 179.875 268.910156 C 179.4375 265.839844 178.691406 262.832031 177.984375 259.816406 C 177.808594 259.074219 177.636719 258.328125 177.597656 257.570312 C 177.554688 256.8125 177.652344 256.027344 177.996094 255.351562 C 178.328125 254.695312 178.882812 254.15625 179.535156 253.808594 C 180.183594 253.460938 180.925781 253.300781 181.664062 253.296875 C 183.132812 253.296875 184.546875 253.933594 185.75 254.78125 C 188.367188 256.621094 190.160156 259.464844 191.203125 262.492188 C 192.613281 266.5625 192.761719 270.960938 192.511719 275.261719 C 192.269531 279.488281 191.613281 283.828125 189.449219 287.464844 C 188.363281 289.296875 186.839844 290.960938 184.863281 291.757812 C 183.671875 292.238281 182.332031 292.382812 181.082031 292.066406 C 179.835938 291.746094 178.703125 290.949219 178.070312 289.832031 C 177.613281 289.035156 177.425781 288.105469 177.417969 287.191406 C 177.410156 286.277344 177.570312 285.367188 177.804688 284.480469 C 178.335938 282.40625 179.203125 280.429688 179.695312 278.34375 L 179.699219 278.34375 " fill-opacity="1" fill-rule="nonzero"/><path fill="#f7cb4a" d="M 189.320312 258.621094 C 185.707031 259.714844 182.066406 260.71875 178.394531 261.582031 C 178.964844 264.011719 179.523438 266.441406 179.875 268.910156 C 180.324219 272.042969 180.429688 275.269531 179.703125 278.347656 C 179.207031 280.429688 178.34375 282.40625 177.8125 284.480469 C 177.582031 285.367188 177.421875 286.273438 177.425781 287.1875 C 177.425781 288.105469 177.621094 289.039062 178.074219 289.832031 C 178.710938 290.953125 179.84375 291.75 181.089844 292.070312 C 182.335938 292.386719 183.679688 292.234375 184.871094 291.753906 C 186.839844 290.960938 188.367188 289.296875 189.457031 287.464844 C 191.621094 283.824219 192.273438 279.492188 192.519531 275.261719 C 192.765625 270.960938 192.613281 266.558594 191.214844 262.488281 C 190.746094 261.128906 190.101562 259.828125 189.324219 258.621094 L 189.320312 258.621094 " fill-opacity="1" fill-rule="nonzero"/><path fill="#f6f6f6" d="M 27.28125 183.078125 C 29.410156 176.039062 35.164062 170.210938 42.164062 167.988281 C 46.746094 166.535156 51.792969 166.585938 56.347656 168.136719 C 60.898438 169.6875 64.929688 172.730469 67.675781 176.679688 C 70.425781 180.636719 71.878906 185.476562 71.75 190.292969 C 71.625 195.109375 69.921875 199.871094 66.972656 203.675781 C 63.746094 207.832031 59.035156 210.808594 53.902344 211.941406 C 48.765625 213.070312 43.246094 212.34375 38.574219 209.917969 C 33.90625 207.496094 30.128906 203.398438 28.085938 198.542969 C 26.042969 193.691406 25.75 188.121094 27.28125 183.078125 " fill-opacity="1" fill-rule="nonzero"/><path fill="#1d1a1f" d="M 38.667969 189.464844 C 39.316406 187.324219 41.058594 185.554688 43.183594 184.882812 C 44.578125 184.441406 46.105469 184.457031 47.488281 184.929688 C 48.871094 185.398438 50.09375 186.320312 50.929688 187.523438 C 51.761719 188.722656 52.203125 190.191406 52.164062 191.652344 C 52.113281 193.113281 51.613281 194.558594 50.714844 195.714844 C 49.734375 196.976562 48.304688 197.878906 46.746094 198.21875 C 45.1875 198.5625 43.511719 198.34375 42.097656 197.605469 C 40.679688 196.871094 39.535156 195.628906 38.914062 194.15625 C 38.292969 192.683594 38.203125 190.992188 38.65625 189.464844 L 38.667969 189.464844 " fill-opacity="1" fill-rule="nonzero"/><path fill="#eeedee" d="M 54.472656 167.597656 C 58.265625 170.621094 61.183594 174.75 62.652344 179.375 C 63.984375 183.554688 64.15625 188.113281 63.066406 192.359375 C 61.976562 196.605469 59.601562 200.527344 56.285156 203.394531 C 52.539062 206.636719 47.609375 208.472656 42.65625 208.472656 C 39.527344 208.472656 36.402344 207.738281 33.578125 206.375 C 35.078125 207.773438 36.757812 208.972656 38.574219 209.917969 C 43.246094 212.339844 48.765625 213.066406 53.902344 211.941406 C 59.035156 210.808594 63.746094 207.832031 66.972656 203.671875 C 69.921875 199.871094 71.625 195.109375 71.75 190.292969 C 71.878906 185.476562 70.429688 180.636719 67.679688 176.683594 C 64.933594 172.730469 60.898438 169.6875 56.347656 168.136719 C 55.730469 167.925781 55.105469 167.753906 54.472656 167.597656 " fill-opacity="1" fill-rule="nonzero"/><path fill="#191619" d="M 46.460938 184.664062 C 47 184.984375 47.484375 185.382812 47.898438 185.855469 C 48.707031 186.773438 49.230469 187.953125 49.367188 189.175781 C 49.464844 190.210938 49.3125 191.277344 48.914062 192.242188 C 48.515625 193.203125 47.871094 194.058594 47.074219 194.738281 C 45.855469 195.773438 44.257812 196.359375 42.65625 196.359375 C 41.695312 196.359375 40.757812 196.132812 39.882812 195.742188 C 40.488281 196.503906 41.230469 197.15625 42.097656 197.605469 C 43.511719 198.339844 45.1875 198.5625 46.746094 198.21875 C 48.304688 197.878906 49.734375 196.976562 50.710938 195.714844 C 51.609375 194.558594 52.125 193.109375 52.164062 191.648438 C 52.214844 190.191406 51.761719 188.722656 50.925781 187.519531 C 50.09375 186.320312 48.867188 185.398438 47.488281 184.925781 C 47.152344 184.8125 46.808594 184.726562 46.460938 184.664062 " fill-opacity="1" fill-rule="nonzero"/><path fill="#ffffff" d="M 28.609375 187.304688 C 28.6875 184.585938 29.625 181.941406 30.9375 179.558594 C 33.039062 175.746094 36.289062 172.425781 40.386719 170.988281 C 42.429688 170.269531 44.679688 170.039062 46.777344 170.582031 C 47.546875 170.78125 48.304688 171.085938 48.917969 171.597656 C 49.53125 172.105469 49.988281 172.835938 50.058594 173.628906 C 50.105469 174.222656 49.929688 174.824219 49.640625 175.335938 C 49.34375 175.855469 48.925781 176.292969 48.464844 176.667969 C 47.035156 177.832031 45.21875 178.410156 43.667969 179.414062 C 42.003906 180.484375 40.671875 182.03125 39.6875 183.753906 C 38.695312 185.476562 38.039062 187.371094 37.542969 189.292969 C 37.367188 189.957031 37.222656 190.621094 36.980469 191.265625 C 36.753906 191.90625 36.402344 192.519531 35.910156 192.992188 C 35.132812 193.742188 34.007812 194.078125 32.9375 193.953125 C 31.867188 193.828125 30.875 193.265625 30.15625 192.457031 C 29.542969 191.773438 29.128906 190.925781 28.890625 190.042969 C 28.664062 189.152344 28.585938 188.226562 28.609375 187.304688 " fill-opacity="1" fill-rule="nonzero"/><path fill="#373043" d="M 39.796875 190.199219 C 39.816406 189.578125 40.023438 188.972656 40.328125 188.425781 C 40.808594 187.554688 41.550781 186.796875 42.488281 186.46875 C 42.957031 186.304688 43.464844 186.25 43.945312 186.375 C 44.125 186.421875 44.296875 186.492188 44.4375 186.609375 C 44.589844 186.722656 44.691406 186.890625 44.699219 187.070312 C 44.707031 187.207031 44.671875 187.34375 44.59375 187.464844 C 44.519531 187.582031 44.441406 187.679688 44.328125 187.765625 C 43.996094 188.035156 43.582031 188.164062 43.226562 188.394531 C 42.847656 188.640625 42.542969 188.992188 42.320312 189.386719 C 42.09375 189.78125 41.941406 190.210938 41.828125 190.652344 C 41.777344 190.804688 41.753906 190.953125 41.699219 191.105469 C 41.652344 191.25 41.574219 191.390625 41.449219 191.5 C 41.269531 191.667969 41.015625 191.746094 40.769531 191.71875 C 40.515625 191.6875 40.296875 191.558594 40.132812 191.375 C 39.980469 191.21875 39.902344 191.023438 39.84375 190.820312 C 39.792969 190.617188 39.769531 190.410156 39.769531 190.199219 L 39.796875 190.199219 " fill-opacity="1" fill-rule="nonzero"/><path fill="#1d1a1f" d="M 36.226562 224.136719 C 35.351562 224.160156 34.558594 224.664062 34.15625 225.441406 C 32.886719 227.824219 30.765625 229.796875 28.308594 230.902344 C 25.847656 232.011719 22.96875 232.28125 20.347656 231.65625 C 17.128906 230.878906 14.183594 228.683594 12.523438 225.8125 C 12.21875 225.238281 11.6875 224.808594 11.0625 224.628906 C 10.433594 224.453125 9.757812 224.535156 9.195312 224.867188 C 8.632812 225.195312 8.226562 225.738281 8.070312 226.375 C 7.910156 227.007812 8.023438 227.679688 8.371094 228.230469 C 10.714844 232.285156 14.679688 235.25 19.230469 236.34375 C 22.910156 237.226562 26.832031 236.851562 30.285156 235.296875 C 33.734375 233.742188 36.605469 231.058594 38.386719 227.714844 C 38.808594 226.957031 38.789062 226.039062 38.34375 225.296875 C 37.894531 224.558594 37.09375 224.117188 36.226562 224.136719 " fill-opacity="1" fill-rule="nonzero"/><path fill="#191619" d="M 36.226562 224.136719 C 35.351562 224.164062 34.558594 224.664062 34.15625 225.441406 C 33.921875 225.886719 33.648438 226.308594 33.355469 226.722656 C 33.601562 227.164062 33.757812 227.660156 33.804688 228.167969 C 33.882812 228.984375 33.660156 229.808594 33.296875 230.539062 C 32.664062 231.777344 31.570312 232.722656 30.386719 233.449219 C 28.097656 234.847656 25.382812 235.515625 22.703125 235.4375 C 19.996094 235.355469 17.320312 234.515625 15.027344 233.070312 C 12.984375 231.777344 11.261719 230.027344 9.832031 228.078125 C 9.285156 227.328125 8.785156 226.550781 8.320312 225.746094 C 7.875 226.515625 7.890625 227.476562 8.363281 228.230469 C 10.710938 232.28125 14.675781 235.25 19.222656 236.34375 C 22.902344 237.222656 26.824219 236.851562 30.277344 235.296875 C 33.730469 233.742188 36.597656 231.058594 38.378906 227.714844 C 38.800781 226.957031 38.78125 226.039062 38.335938 225.296875 C 37.890625 224.558594 37.082031 224.117188 36.21875 224.136719 L 36.226562 224.136719 " fill-opacity="1" fill-rule="nonzero"/></svg>