<svg xmlns="http://www.w3.org/2000/svg" xmlns:xlink="http://www.w3.org/1999/xlink" width="500" zoomAndPan="magnify" viewBox="0 0 375 374.999991" height="500" preserveAspectRatio="xMidYMid meet" version="1.0"><defs><clipPath id="28e9a9314f"><path d="M 165.15625 179.359375 L 187.5 179.359375 L 187.5 211.21875 L 165.15625 211.21875 Z M 165.15625 179.359375 " clip-rule="nonzero"/></clipPath><clipPath id="de19d6647c"><path d="M 176.328125 179.359375 C 182.5 179.359375 187.5 184.363281 187.5 190.53125 L 187.5 200.027344 C 187.5 206.199219 182.5 211.199219 176.328125 211.199219 C 170.15625 211.199219 165.15625 206.199219 165.15625 200.027344 L 165.15625 190.53125 C 165.15625 184.363281 170.15625 179.359375 176.328125 179.359375 Z M 176.328125 179.359375 " clip-rule="nonzero"/></clipPath><clipPath id="81afdd517d"><path d="M 21.265625 302 L 160 302 L 160 370 L 21.265625 370 Z M 21.265625 302 " clip-rule="nonzero"/></clipPath><clipPath id="d41ba7cd8b"><path d="M 21.265625 335 L 25 335 L 25 338 L 21.265625 338 Z M 21.265625 335 " clip-rule="nonzero"/></clipPath><clipPath id="afd8309652"><path d="M 226.90625 4.269531 L 319.75 4.269531 L 319.75 96 L 226.90625 96 Z M 226.90625 4.269531 " clip-rule="nonzero"/></clipPath><clipPath id="f45512fc05"><path d="M 235.710938 13.089844 L 319.75 13.089844 L 319.75 96 L 235.710938 96 Z M 235.710938 13.089844 " clip-rule="nonzero"/></clipPath></defs><g clip-path="url(#28e9a9314f)"><g clip-path="url(#de19d6647c)"><path fill="#aeb7c6" d="M 165.15625 179.359375 L 187.5 179.359375 L 187.5 211.21875 L 165.15625 211.21875 Z M 165.15625 179.359375 " fill-opacity="1" fill-rule="nonzero"/></g></g><path fill="#d4c2b2" d="M 238.664062 263.257812 C 242.074219 263.363281 245.402344 264.089844 248.519531 265.816406 C 256.148438 270.039062 261.910156 277.511719 264.621094 285.753906 C 268.445312 297.382812 265.804688 310.914062 257.894531 320.242188 C 249.980469 329.570312 237.070312 334.371094 224.996094 332.476562 C 221.695312 331.960938 218.445312 330.96875 215.539062 329.320312 C 205.621094 323.699219 201.359375 311.675781 199.402344 300.433594 C 198.707031 296.453125 198.207031 292.332031 199.132812 288.394531 C 201.324219 279.054688 208.558594 269.664062 217.96875 267.136719 C 224.4375 265.402344 231.714844 263.039062 238.664062 263.257812 " fill-opacity="1" fill-rule="nonzero"/><path fill="#d4c2b2" d="M 256.566406 320.449219 C 254.59375 302.707031 259.925781 284.261719 271.058594 270.320312 C 271.964844 269.183594 272.964844 268.035156 274.3125 267.488281 C 275.664062 266.941406 277.449219 267.207031 278.207031 268.449219 C 278.863281 269.519531 278.574219 270.890625 278.273438 272.109375 C 274.039062 289.230469 271.363281 306.742188 270.296875 324.347656 C 270.160156 326.574219 270.042969 328.855469 269.222656 330.929688 C 268.398438 333.007812 266.730469 334.886719 264.542969 335.324219 C 262.355469 335.765625 259.789062 334.292969 259.578125 332.070312 L 256.566406 320.449219 " fill-opacity="1" fill-rule="nonzero"/><path fill="#808080" d="M 271.050781 273.484375 C 272.828125 271.136719 274.847656 268.761719 277.503906 267.726562 C 277.785156 267.914062 278.027344 268.152344 278.207031 268.449219 C 278.3125 268.617188 278.386719 268.796875 278.445312 268.980469 C 275.808594 269.792969 273.875 272.292969 272.238281 274.457031 C 271.640625 275.246094 270.453125 274.273438 271.050781 273.484375 " fill-opacity="1" fill-rule="nonzero"/><path fill="#808080" d="M 277.480469 275.402344 C 274.925781 275.769531 272.808594 277.597656 270.859375 279.316406 C 270.121094 279.972656 269.222656 278.726562 269.957031 278.074219 C 272.269531 276.03125 274.808594 274.039062 277.859375 273.820312 C 277.734375 274.347656 277.601562 274.875 277.480469 275.402344 " fill-opacity="1" fill-rule="nonzero"/><path fill="#808080" d="M 271.792969 283.035156 C 273.160156 282.019531 274.664062 281.269531 276.265625 280.808594 C 276.140625 281.386719 276.019531 281.964844 275.898438 282.542969 C 274.769531 282.953125 273.699219 283.53125 272.695312 284.273438 C 271.902344 284.863281 271 283.621094 271.792969 283.035156 " fill-opacity="1" fill-rule="nonzero"/><g clip-path="url(#81afdd517d)"><path fill="#ad9e92" d="M 34.371094 310.40625 C 35.4375 309.582031 36.601562 308.910156 37.753906 308.222656 L 39.539062 307.304688 C 40.136719 306.996094 40.761719 306.761719 41.371094 306.492188 C 46.304688 304.429688 51.589844 303.464844 56.855469 303.238281 C 59.496094 303.152344 62.140625 303.25 64.765625 303.527344 C 67.367188 303.828125 69.9375 304.277344 72.472656 304.824219 C 77.542969 305.9375 82.449219 307.464844 87.25 309.0625 C 92.054688 310.664062 96.757812 312.335938 101.460938 313.761719 C 103.804688 314.46875 106.144531 315.113281 108.496094 315.660156 C 110.847656 316.191406 113.199219 316.632812 115.550781 316.957031 C 120.246094 317.566406 124.941406 317.6875 129.394531 316.953125 C 130.515625 316.800781 131.597656 316.527344 132.6875 316.28125 C 133.753906 315.960938 134.824219 315.675781 135.84375 315.261719 C 137.894531 314.476562 139.835938 313.527344 141.648438 312.292969 C 145.476562 309.757812 148.691406 306.292969 151.03125 302.359375 C 154.054688 303.285156 157.507812 304.375 159.894531 306.378906 C 159.507812 307.011719 159.101562 307.628906 158.679688 308.238281 C 157.058594 310.574219 155.238281 312.769531 153.167969 314.707031 C 151.101562 316.65625 148.839844 318.386719 146.417969 319.867188 C 144.007812 321.359375 141.363281 322.527344 138.6875 323.414062 C 137.351562 323.878906 135.988281 324.199219 134.628906 324.53125 C 133.261719 324.789062 131.890625 325.058594 130.515625 325.195312 C 125.019531 325.851562 119.582031 325.445312 114.367188 324.542969 C 111.765625 324.070312 109.203125 323.476562 106.6875 322.789062 C 104.175781 322.09375 101.707031 321.296875 99.277344 320.453125 C 94.4375 318.753906 89.757812 316.859375 85.105469 315.089844 C 80.453125 313.316406 75.828125 311.664062 71.132812 310.421875 C 68.785156 309.8125 66.429688 309.296875 64.054688 308.921875 C 61.703125 308.570312 59.328125 308.378906 56.949219 308.355469 C 52.199219 308.355469 47.417969 309.027344 43.003906 310.660156 C 42.460938 310.875 41.898438 311.054688 41.367188 311.300781 L 39.769531 312.039062 C 38.746094 312.597656 37.703125 313.132812 36.753906 313.808594 C 34.832031 315.113281 33.027344 316.617188 31.558594 318.425781 C 28.519531 321.953125 26.597656 326.464844 25.429688 331.15625 C 24.304688 335.878906 23.710938 340.8125 24.386719 345.5625 C 25.738281 355.039062 32.816406 363.679688 42.109375 366.855469 C 51.394531 370.035156 62.519531 367.597656 69.753906 360.582031 C 62.824219 367.898438 51.628906 370.988281 41.722656 368.074219 C 31.824219 365.136719 23.835938 356.394531 21.867188 345.980469 C 21.382812 343.398438 21.253906 340.765625 21.363281 338.167969 C 21.476562 335.566406 21.808594 333.007812 22.3125 330.457031 C 22.839844 327.910156 23.550781 325.378906 24.578125 322.9375 C 25.601562 320.5 26.894531 318.125 28.574219 316.011719 C 30.195312 313.847656 32.210938 312 34.371094 310.40625 " fill-opacity="1" fill-rule="nonzero"/></g><path fill="#9c8e84" d="M 139.847656 313.394531 C 140.296875 313.140625 140.738281 312.875 141.171875 312.59375 C 142.992188 315.023438 145.070312 317.253906 147.382812 319.246094 C 147.0625 319.457031 146.746094 319.671875 146.417969 319.867188 C 146.289062 319.949219 146.152344 320.015625 146.023438 320.097656 C 143.734375 318.082031 141.664062 315.835938 139.847656 313.394531 " fill-opacity="1" fill-rule="nonzero"/><path fill="#9c8e84" d="M 126.84375 325.476562 C 126.035156 322.8125 125.308594 320.125 124.671875 317.421875 C 125.191406 317.398438 125.707031 317.371094 126.222656 317.332031 C 126.867188 320.042969 127.597656 322.730469 128.417969 325.398438 C 127.890625 325.433594 127.371094 325.453125 126.84375 325.476562 " fill-opacity="1" fill-rule="nonzero"/><path fill="#9c8e84" d="M 108.535156 315.667969 C 109.035156 315.78125 109.53125 315.886719 110.03125 315.992188 C 109.433594 318.429688 109.132812 320.90625 109.121094 323.417969 C 108.609375 323.292969 108.101562 323.160156 107.59375 323.027344 C 107.632812 320.542969 107.949219 318.085938 108.535156 315.667969 " fill-opacity="1" fill-rule="nonzero"/><path fill="#9c8e84" d="M 93.78125 311.273438 C 93.011719 313.429688 92.511719 315.628906 92.289062 317.863281 C 91.792969 317.671875 91.300781 317.480469 90.808594 317.292969 C 91.0625 315.085938 91.570312 312.90625 92.328125 310.78125 C 92.8125 310.945312 93.296875 311.105469 93.78125 311.273438 " fill-opacity="1" fill-rule="nonzero"/><path fill="#9c8e84" d="M 72.578125 310.820312 C 72.097656 310.6875 71.617188 310.550781 71.132812 310.421875 C 71.105469 310.414062 71.078125 310.410156 71.050781 310.402344 C 71.101562 308.472656 71.253906 306.546875 71.503906 304.625 C 71.828125 304.691406 72.152344 304.753906 72.472656 304.824219 C 72.652344 304.863281 72.828125 304.90625 73.003906 304.945312 C 72.753906 306.898438 72.617188 308.859375 72.578125 310.820312 " fill-opacity="1" fill-rule="nonzero"/><path fill="#9c8e84" d="M 53.742188 308.464844 C 53.21875 308.503906 52.695312 308.546875 52.175781 308.601562 C 51.585938 307.023438 51.125 305.414062 50.980469 303.816406 C 51.484375 303.738281 51.992188 303.671875 52.5 303.609375 C 52.628906 305.210938 53.117188 306.859375 53.742188 308.464844 " fill-opacity="1" fill-rule="nonzero"/><path fill="#9c8e84" d="M 35.371094 309.695312 C 35.792969 309.410156 36.222656 309.140625 36.660156 308.875 C 37.480469 310.074219 38.394531 311.191406 39.382812 312.246094 C 38.921875 312.496094 38.460938 312.753906 38.003906 313.015625 C 37.054688 311.972656 36.167969 310.867188 35.371094 309.695312 " fill-opacity="1" fill-rule="nonzero"/><path fill="#9c8e84" d="M 24.949219 322.082031 C 25.164062 321.609375 25.390625 321.140625 25.625 320.675781 C 26.605469 321.382812 27.625 322.03125 28.679688 322.613281 C 28.433594 323.0625 28.203125 323.519531 27.980469 323.984375 C 26.933594 323.410156 25.925781 322.773438 24.949219 322.082031 " fill-opacity="1" fill-rule="nonzero"/><g clip-path="url(#d41ba7cd8b)"><path fill="#9c8e84" d="M 24.339844 337.34375 C 23.371094 337.246094 22.402344 337.140625 21.4375 337.023438 C 21.472656 336.511719 21.515625 336.003906 21.566406 335.492188 C 22.554688 335.613281 23.542969 335.722656 24.535156 335.820312 C 24.460938 336.328125 24.394531 336.835938 24.339844 337.34375 " fill-opacity="1" fill-rule="nonzero"/></g><path fill="#9c8e84" d="M 25.824219 351.019531 C 26.007812 351.496094 26.207031 351.96875 26.417969 352.433594 C 25.703125 352.675781 24.976562 352.882812 24.242188 353.070312 C 24.011719 352.597656 23.789062 352.125 23.585938 351.644531 C 24.339844 351.464844 25.089844 351.257812 25.824219 351.019531 " fill-opacity="1" fill-rule="nonzero"/><path fill="#9c8e84" d="M 32.417969 360.878906 C 32.796875 361.242188 33.179688 361.59375 33.578125 361.933594 C 33.089844 362.277344 32.597656 362.613281 32.097656 362.941406 C 31.6875 362.609375 31.285156 362.265625 30.894531 361.910156 C 31.410156 361.574219 31.917969 361.230469 32.417969 360.878906 " fill-opacity="1" fill-rule="nonzero"/><path fill="#9c8e84" d="M 51.90625 368.195312 C 52.433594 368.167969 52.960938 368.125 53.488281 368.070312 C 53.453125 368.339844 53.402344 368.613281 53.347656 368.878906 C 52.800781 368.957031 52.253906 369.015625 51.707031 369.0625 C 51.789062 368.777344 51.855469 368.484375 51.90625 368.195312 " fill-opacity="1" fill-rule="nonzero"/><path fill="#d4c2b2" d="M 227.808594 183.226562 C 242.96875 209.855469 252.144531 239.878906 254.472656 270.441406 C 255.101562 278.71875 255.195312 287.285156 252.1875 295.023438 C 249.101562 302.957031 242.90625 309.433594 235.671875 313.910156 C 228.441406 318.390625 220.199219 321.007812 211.875 322.757812 C 202.101562 324.816406 192.070312 323.800781 182.441406 325.484375 C 173.882812 326.980469 167.789062 331 158.765625 329.382812 C 142.800781 326.515625 132.640625 314.277344 132.015625 298.1875 C 130.601562 261.78125 175.605469 241.285156 162.464844 202.765625 L 227.808594 183.226562 " fill-opacity="1" fill-rule="nonzero"/><path fill="#c4b4a7" d="M 132.015625 298.1875 C 130.601562 261.78125 175.605469 241.285156 162.464844 202.765625 L 227.808594 183.226562 C 227.960938 183.492188 228.109375 183.761719 228.261719 184.03125 L 173.996094 200.261719 C 187.136719 238.777344 142.132812 259.273438 143.546875 295.679688 C 144.171875 311.769531 154.332031 324.011719 170.296875 326.875 C 172.128906 327.203125 173.839844 327.296875 175.472656 327.230469 C 170.09375 328.839844 165.164062 330.53125 158.765625 329.382812 C 142.800781 326.515625 132.640625 314.277344 132.015625 298.1875 " fill-opacity="1" fill-rule="nonzero"/><path fill="#bdac9f" d="M 193.972656 322.980469 C 202.21875 321.539062 210.761719 322.066406 219.183594 320.960938 C 216.769531 321.648438 214.328125 322.242188 211.875 322.757812 C 203.378906 324.546875 194.683594 324.015625 186.234375 324.953125 C 188.675781 324.214844 191.195312 323.460938 193.972656 322.980469 " fill-opacity="1" fill-rule="nonzero"/><path fill="#e6d3c2" d="M 182.695312 304.042969 C 186.757812 283.140625 196.851562 263.585938 199.148438 242.414062 C 200.777344 227.382812 198.316406 211.925781 192.097656 198.148438 L 193.957031 195.5625 C 193.730469 194.863281 193.664062 194.140625 193.714844 193.421875 L 227.808594 183.226562 C 242.96875 209.855469 252.144531 239.878906 254.472656 270.441406 C 255.101562 278.71875 255.195312 287.285156 252.1875 295.023438 C 249.101562 302.957031 242.90625 309.433594 235.671875 313.910156 C 228.441406 318.390625 220.199219 321.007812 211.875 322.757812 C 202.097656 324.816406 192.078125 325.714844 182.089844 325.464844 C 180.8125 318.53125 181.34375 311.011719 182.695312 304.042969 " fill-opacity="1" fill-rule="nonzero"/><path fill="#9c8f84" d="M 239.175781 294.390625 C 236.105469 295.789062 233.726562 298.167969 232.320312 301.238281 C 231.910156 302.132812 230.496094 301.539062 230.910156 300.636719 C 232.480469 297.203125 235.148438 294.542969 238.585938 292.972656 C 239.484375 292.566406 240.074219 293.984375 239.175781 294.390625 " fill-opacity="1" fill-rule="nonzero"/><path fill="#9c8f84" d="M 237.425781 300.132812 C 236.640625 297.601562 235.03125 295.472656 232.726562 294.136719 C 231.886719 293.648438 232.472656 292.226562 233.328125 292.722656 C 235.976562 294.257812 237.929688 296.597656 238.839844 299.539062 C 239.132812 300.476562 237.71875 301.074219 237.425781 300.132812 " fill-opacity="1" fill-rule="nonzero"/><path fill="#deccbc" d="M 168.59375 75.59375 C 173.269531 68.867188 175.824219 60.941406 175.996094 52.746094 C 176.019531 51.464844 177.484375 50.996094 178.285156 51.972656 C 179.945312 53.992188 181.109375 56.242188 181.773438 58.660156 C 182.941406 55.855469 184.113281 53.046875 185.285156 50.242188 C 185.710938 49.214844 187.25 49.4375 187.589844 50.398438 C 190.492188 58.679688 190.757812 67.539062 188.300781 75.964844 C 188.125 76.5625 187.738281 76.84375 187.152344 76.960938 C 186.804688 77.027344 186.457031 77.09375 186.113281 77.164062 C 185.992188 77.207031 185.859375 77.238281 185.707031 77.242188 C 185.5625 77.273438 185.433594 77.269531 185.308594 77.253906 C 180.078125 77.394531 174.84375 77.535156 169.609375 77.679688 C 168.441406 77.710938 167.984375 76.46875 168.59375 75.59375 " fill-opacity="1" fill-rule="nonzero"/><g clip-path="url(#afd8309652)"><path fill="#deccbc" d="M 228.398438 37.273438 C 218.046875 78.835938 264.246094 107.382812 299.332031 91.515625 C 319.738281 82.289062 323.5625 59.414062 316.464844 39.941406 C 312.929688 30.234375 306.984375 21.191406 299.160156 14.417969 C 295.425781 11.183594 291.191406 8.332031 286.585938 6.492188 C 277.503906 2.867188 261.542969 3.871094 252.855469 8.101562 C 241.128906 13.804688 231.585938 24.484375 228.398438 37.273438 " fill-opacity="1" fill-rule="nonzero"/></g><g clip-path="url(#f45512fc05)"><path fill="#e3b9b9" d="M 236.328125 75.988281 C 235.070312 63.1875 237.109375 50.039062 243.269531 38.808594 C 250.976562 24.773438 265.558594 14.230469 281.527344 13.246094 C 289.058594 12.78125 296.722656 14.675781 303.289062 18.386719 C 309.09375 24.550781 313.582031 32.023438 316.464844 39.941406 C 323.5625 59.414062 319.738281 82.289062 299.332031 91.515625 C 277.023438 101.605469 250.234375 93.734375 236.328125 75.988281 " fill-opacity="1" fill-rule="nonzero"/></g><path fill="#deccbc" d="M 123.492188 70.292969 C 145.054688 113.257812 101.484375 155.917969 59.15625 147.199219 C 34.539062 142.125 24.722656 118.019531 27.703125 94.941406 C 29.1875 83.4375 33.472656 72.070312 40.375 62.71875 C 43.671875 58.257812 47.605469 54.085938 52.199219 50.9375 C 61.253906 44.726562 78.976562 41.890625 89.535156 44.378906 C 103.777344 47.734375 116.859375 57.074219 123.492188 70.292969 " fill-opacity="1" fill-rule="nonzero"/><path fill="#e3b9b9" d="M 124.332031 114.648438 C 122.5625 100.316406 117.097656 86.421875 107.582031 75.644531 C 95.691406 62.171875 77.128906 54.226562 59.398438 57.085938 C 51.039062 58.433594 43.113281 62.402344 36.828125 68.085938 C 31.992188 76.265625 28.914062 85.558594 27.703125 94.941406 C 24.722656 118.019531 34.539062 142.125 59.15625 147.199219 C 86.066406 152.742188 113.472656 137.515625 124.332031 114.648438 " fill-opacity="1" fill-rule="nonzero"/><path fill="#deccbc" d="M 102.820312 153.242188 C 104.585938 170.167969 111.867188 186.75 125.148438 200.039062 C 159.789062 234.699219 215.140625 230.285156 253.59375 204.808594 C 299.714844 174.25 299.007812 110.246094 253.753906 78.792969 C 205.476562 45.246094 118.433594 65.429688 104.226562 127.859375 C 102.332031 136.171875 101.9375 144.769531 102.820312 153.242188 " fill-opacity="1" fill-rule="nonzero"/><path fill="#ccbbad" d="M 102.820312 153.242188 C 101.9375 144.769531 102.332031 136.171875 104.226562 127.859375 C 107.570312 113.164062 114.953125 100.8125 124.910156 90.949219 C 118.136719 99.464844 113.101562 109.449219 110.507812 120.851562 C 108.617188 129.164062 108.21875 137.761719 109.101562 146.234375 C 110.871094 163.160156 118.152344 179.742188 131.433594 193.03125 C 166.070312 227.691406 221.421875 223.277344 259.878906 197.796875 C 264.398438 194.804688 268.464844 191.480469 272.085938 187.90625 C 267.105469 194.210938 260.949219 199.933594 253.59375 204.808594 C 216.496094 229.386719 163.671875 234.363281 128.890625 203.5625 C 127.617188 202.433594 126.371094 201.261719 125.148438 200.039062 C 111.867188 186.75 104.585938 170.167969 102.820312 153.242188 " fill-opacity="1" fill-rule="nonzero"/><path fill="#e6b1b1" d="M 250.515625 149.226562 C 251.882812 154.375 259.375 156.847656 267.246094 154.75 C 275.121094 152.652344 280.394531 146.777344 279.023438 141.628906 C 277.65625 136.480469 270.164062 134.007812 262.292969 136.105469 C 254.421875 138.207031 249.148438 144.078125 250.515625 149.226562 " fill-opacity="1" fill-rule="nonzero"/><path fill="#e6b1b1" d="M 121.65625 175.859375 C 122.578125 181.105469 129.828125 184.214844 137.851562 182.804688 C 145.875 181.398438 151.636719 176 150.714844 170.753906 C 149.796875 165.507812 142.546875 162.394531 134.523438 163.804688 C 126.5 165.214844 120.738281 170.609375 121.65625 175.859375 " fill-opacity="1" fill-rule="nonzero"/><path fill="#000000" d="M 145.246094 100.902344 C 141.910156 98.1875 137.125 99.550781 135.867188 103.742188 C 135.535156 104.84375 133.753906 104.527344 134.089844 103.410156 C 135.726562 97.957031 141.9375 95.878906 146.40625 99.515625 C 147.308594 100.25 146.148438 101.636719 145.246094 100.902344 " fill-opacity="1" fill-rule="nonzero"/><path fill="#c7b7a8" d="M 223.53125 153.515625 C 223.222656 153.066406 222.769531 152.710938 222.273438 152.441406 C 221.769531 152.179688 221.230469 152 220.691406 151.859375 C 219.605469 151.582031 218.5625 151.457031 217.492188 151.277344 C 216.425781 151.101562 215.351562 151.015625 214.277344 150.902344 C 213.742188 150.839844 213.203125 150.824219 212.664062 150.792969 L 211.046875 150.710938 C 206.730469 150.574219 202.390625 150.90625 198.128906 151.648438 C 193.867188 152.390625 189.675781 153.558594 185.65625 155.140625 C 181.640625 156.730469 177.78125 158.710938 174.296875 161.253906 C 178.433594 160.054688 182.460938 158.847656 186.523438 157.820312 C 190.578125 156.78125 194.644531 155.898438 198.742188 155.175781 C 202.839844 154.460938 206.964844 153.898438 211.132812 153.515625 L 214.265625 153.246094 L 215.839844 153.132812 C 216.363281 153.085938 216.890625 153.050781 217.417969 153.027344 C 218.464844 152.976562 219.546875 152.871094 220.570312 152.839844 C 221.082031 152.828125 221.589844 152.851562 222.089844 152.945312 C 222.59375 153.03125 223.078125 153.21875 223.53125 153.515625 " fill-opacity="1" fill-rule="nonzero"/><path fill="#42210b" d="M 199.191406 143.820312 C 202.46875 143.382812 210.382812 142.710938 211.015625 147.542969 C 211.390625 150.429688 209.253906 153.050781 207.347656 154.945312 C 206.28125 156.007812 205.121094 156.972656 203.925781 157.882812 C 202.652344 158.855469 201.15625 159.816406 199.511719 159.46875 C 198.015625 159.152344 196.398438 158.265625 195.039062 157.578125 C 192.414062 156.257812 189.363281 154.261719 188.90625 151.097656 C 188.15625 145.953125 195.550781 144.308594 199.191406 143.820312 " fill-opacity="1" fill-rule="nonzero"/><path fill="#ffffff" d="M 207.527344 148.023438 C 207.273438 147.078125 206.296875 146.394531 205.3125 146.613281 C 204.355469 146.824219 203.910156 145.351562 204.875 145.140625 C 206.65625 144.746094 208.515625 145.789062 208.996094 147.582031 C 209.25 148.539062 207.78125 148.980469 207.527344 148.023438 " fill-opacity="1" fill-rule="nonzero"/><path fill="#999999" d="M 137.5 172.777344 C 119.121094 172.542969 101.027344 178.027344 85.863281 188.429688 C 85.457031 188.707031 85.058594 188.050781 85.464844 187.773438 C 100.730469 177.300781 118.980469 171.773438 137.484375 172.011719 C 137.976562 172.019531 137.992188 172.785156 137.5 172.777344 " fill-opacity="1" fill-rule="nonzero"/><path fill="#999999" d="M 136.988281 174.8125 C 122.035156 176.71875 107.726562 182.03125 95.128906 190.320312 C 94.714844 190.589844 94.316406 189.933594 94.726562 189.664062 C 107.445312 181.296875 121.878906 175.96875 136.972656 174.046875 C 137.460938 173.984375 137.472656 174.75 136.988281 174.8125 " fill-opacity="1" fill-rule="nonzero"/><path fill="#999999" d="M 136.660156 177.621094 C 122.9375 182.832031 108.664062 188.414062 98.71875 199.714844 C 98.390625 200.085938 97.839844 199.554688 98.164062 199.183594 C 108.195312 187.785156 122.601562 182.140625 136.445312 176.886719 C 136.90625 176.710938 137.121094 177.445312 136.660156 177.621094 " fill-opacity="1" fill-rule="nonzero"/><path fill="#999999" d="M 261.9375 143.558594 C 278.25 134.699219 296.972656 131.101562 315.402344 133.261719 C 315.890625 133.316406 315.699219 134.0625 315.214844 134.003906 C 297.003906 131.871094 278.453125 135.460938 262.335938 144.210938 C 261.902344 144.445312 261.5 143.792969 261.9375 143.558594 " fill-opacity="1" fill-rule="nonzero"/><path fill="#999999" d="M 263.425781 145.078125 C 277.644531 139.765625 292.871094 137.765625 307.976562 139.242188 C 308.464844 139.289062 308.484375 140.054688 307.992188 140.007812 C 292.949219 138.539062 277.808594 140.523438 263.644531 145.816406 C 263.179688 145.988281 262.964844 145.25 263.425781 145.078125 " fill-opacity="1" fill-rule="nonzero"/><path fill="#999999" d="M 265.214844 147.363281 C 279.890625 145.570312 295.210938 143.867188 309.363281 149.257812 C 309.820312 149.433594 309.640625 150.179688 309.175781 150.003906 C 295.085938 144.636719 279.839844 146.34375 265.234375 148.132812 C 264.742188 148.191406 264.730469 147.421875 265.214844 147.363281 " fill-opacity="1" fill-rule="nonzero"/><path fill="#000000" d="M 167.195312 145.753906 C 167.195312 151.207031 162.78125 155.628906 157.332031 155.628906 C 151.886719 155.628906 147.46875 151.207031 147.46875 145.753906 C 147.46875 140.296875 151.886719 135.875 157.332031 135.875 C 162.78125 135.875 167.195312 140.296875 167.195312 145.753906 " fill-opacity="1" fill-rule="nonzero"/><path fill="#000000" d="M 238.539062 129.035156 C 238.539062 134.488281 234.125 138.910156 228.675781 138.910156 C 223.226562 138.910156 218.8125 134.488281 218.8125 129.035156 C 218.8125 123.578125 223.226562 119.15625 228.675781 119.15625 C 234.125 119.15625 238.539062 123.578125 238.539062 129.035156 " fill-opacity="1" fill-rule="nonzero"/><path fill="#000000" d="M 194.160156 182.433594 C 177.640625 182.433594 170.355469 172.921875 169.988281 172.425781 C 169.589844 171.886719 169.703125 171.132812 170.238281 170.730469 C 170.773438 170.335938 171.53125 170.445312 171.925781 170.980469 C 171.960938 171.023438 174.539062 174.40625 180.019531 176.992188 C 185.09375 179.386719 193.769531 181.574219 206.300781 178.394531 C 227.871094 172.921875 229.542969 156.9375 229.554688 156.777344 C 229.613281 156.113281 230.207031 155.613281 230.863281 155.679688 C 231.53125 155.738281 232.019531 156.328125 231.960938 156.992188 C 231.945312 157.171875 230.105469 174.851562 206.894531 180.738281 C 202.152344 181.941406 197.917969 182.433594 194.160156 182.433594 " fill-opacity="1" fill-rule="nonzero"/><path fill="#000000" d="M 163.113281 173.746094 C 167.421875 173.929688 171.273438 171.238281 172.722656 167.199219 C 173.117188 166.097656 171.367188 165.625 170.976562 166.714844 C 169.792969 170.015625 166.578125 172.078125 163.113281 171.933594 C 161.945312 171.882812 161.949219 173.699219 163.113281 173.746094 " fill-opacity="1" fill-rule="nonzero"/><path fill="#d4c2b2" d="M 192.652344 267.371094 C 196.0625 267.476562 199.390625 268.203125 202.503906 269.929688 C 210.136719 274.152344 215.898438 281.625 218.609375 289.871094 C 222.433594 301.496094 219.792969 315.027344 211.878906 324.355469 C 203.96875 333.683594 191.058594 338.488281 178.984375 336.59375 C 175.683594 336.074219 172.433594 335.082031 169.527344 333.433594 C 159.609375 327.8125 155.347656 315.789062 153.386719 304.546875 C 152.695312 300.566406 152.195312 296.445312 153.117188 292.507812 C 155.3125 283.167969 162.546875 273.777344 171.957031 271.253906 C 178.421875 269.515625 185.703125 267.152344 192.652344 267.371094 " fill-opacity="1" fill-rule="nonzero"/><path fill="#d4c2b2" d="M 210.550781 324.5625 C 208.578125 306.820312 213.910156 288.378906 225.042969 274.4375 C 225.953125 273.296875 226.953125 272.148438 228.300781 271.601562 C 229.648438 271.054688 231.433594 271.320312 232.195312 272.5625 C 232.847656 273.632812 232.5625 275.003906 232.261719 276.222656 C 228.023438 293.34375 225.351562 310.855469 224.285156 328.460938 C 224.148438 330.691406 224.027344 332.96875 223.207031 335.046875 C 222.386719 337.121094 220.714844 339 218.527344 339.4375 C 216.34375 339.878906 213.773438 338.40625 213.5625 336.183594 L 210.550781 324.5625 " fill-opacity="1" fill-rule="nonzero"/><path fill="#808080" d="M 225.039062 277.597656 C 226.8125 275.25 228.832031 272.875 231.492188 271.839844 C 231.769531 272.027344 232.011719 272.265625 232.195312 272.5625 C 232.300781 272.730469 232.371094 272.910156 232.433594 273.09375 C 229.796875 273.90625 227.859375 276.410156 226.222656 278.570312 C 225.628906 279.359375 224.441406 278.386719 225.039062 277.597656 " fill-opacity="1" fill-rule="nonzero"/><path fill="#808080" d="M 231.464844 279.515625 C 228.914062 279.882812 226.792969 281.710938 224.847656 283.433594 C 224.105469 284.085938 223.210938 282.839844 223.945312 282.191406 C 226.257812 280.144531 228.796875 278.15625 231.847656 277.933594 C 231.71875 278.460938 231.589844 278.988281 231.464844 279.515625 " fill-opacity="1" fill-rule="nonzero"/><path fill="#808080" d="M 225.78125 287.148438 C 227.144531 286.132812 228.652344 285.382812 230.253906 284.925781 C 230.128906 285.503906 230.007812 286.078125 229.886719 286.65625 C 228.753906 287.066406 227.683594 287.644531 226.683594 288.386719 C 225.890625 288.980469 224.984375 287.738281 225.78125 287.148438 " fill-opacity="1" fill-rule="nonzero"/><path fill="#fff26b" d="M 198.671875 225.675781 L 226.347656 196.523438 C 226.347656 196.523438 282.246094 204.414062 281.152344 205.527344 C 280.058594 206.640625 198.671875 225.675781 198.671875 225.675781 " fill-opacity="1" fill-rule="nonzero"/><path fill="#ffeb17" d="M 198.738281 225.652344 C 199.054688 226.589844 200.445312 230.660156 202.21875 235.863281 C 207.117188 235.671875 211.769531 238.683594 213.433594 243.570312 C 215.097656 248.457031 213.257812 253.6875 209.257812 256.535156 C 211.070312 261.859375 212.386719 265.71875 212.386719 265.71875 L 287.644531 247.53125 L 281.214844 205.507812 L 245.398438 214.253906 L 198.738281 225.652344 " fill-opacity="1" fill-rule="nonzero"/><path fill="#ffd324" d="M 261.941406 223.84375 C 263.796875 229.285156 260.894531 235.203125 255.457031 237.058594 C 250.023438 238.914062 244.117188 236.007812 242.261719 230.566406 C 240.40625 225.125 243.308594 219.207031 248.746094 217.351562 C 254.179688 215.496094 260.085938 218.402344 261.941406 223.84375 " fill-opacity="1" fill-rule="nonzero"/><path fill="#f5c816" d="M 252.710938 216.984375 C 254.5625 218.199219 256.042969 220.007812 256.8125 222.265625 C 258.648438 227.660156 255.773438 233.519531 250.390625 235.359375 C 249.125 235.789062 247.835938 235.953125 246.574219 235.890625 C 249.140625 237.574219 252.417969 238.105469 255.546875 237.039062 C 260.929688 235.199219 263.804688 229.339844 261.96875 223.949219 C 260.5625 219.824219 256.808594 217.179688 252.710938 216.984375 " fill-opacity="1" fill-rule="nonzero"/><path fill="#ffd324" d="M 235.503906 204.589844 C 236.472656 207.441406 233.90625 210.898438 229.765625 212.3125 C 225.625 213.726562 221.480469 212.5625 220.507812 209.710938 C 219.539062 206.859375 222.105469 203.402344 226.25 201.988281 C 230.386719 200.574219 234.53125 201.738281 235.503906 204.589844 " fill-opacity="1" fill-rule="nonzero"/><path fill="#f5c816" d="M 235.503906 204.589844 C 234.988281 203.078125 233.578125 202.046875 231.753906 201.617188 C 232.382812 202.113281 232.855469 202.742188 233.109375 203.484375 C 234.082031 206.335938 231.511719 209.792969 227.371094 211.207031 C 225.425781 211.871094 223.480469 211.960938 221.863281 211.578125 C 223.644531 212.992188 226.703125 213.359375 229.765625 212.3125 C 233.90625 210.898438 236.472656 207.441406 235.503906 204.589844 " fill-opacity="1" fill-rule="nonzero"/><path fill="#ffd324" d="M 221.601562 231.339844 C 222.21875 233.152344 221.25 235.125 219.4375 235.742188 C 217.628906 236.363281 215.65625 235.394531 215.039062 233.578125 C 214.421875 231.765625 215.390625 229.792969 217.199219 229.175781 C 219.011719 228.558594 220.980469 229.523438 221.601562 231.339844 " fill-opacity="1" fill-rule="nonzero"/><path fill="#ffd324" d="M 280.613281 229.515625 C 281.496094 232.105469 280.113281 234.921875 277.523438 235.808594 C 274.9375 236.691406 272.125 235.308594 271.242188 232.714844 C 270.359375 230.125 271.742188 227.308594 274.328125 226.421875 C 276.914062 225.539062 279.730469 226.921875 280.613281 229.515625 " fill-opacity="1" fill-rule="nonzero"/><path fill="#ffd324" d="M 241.433594 246.5625 C 242.757812 250.453125 240.683594 254.675781 236.804688 256.003906 C 232.921875 257.328125 228.699219 255.253906 227.375 251.367188 C 226.050781 247.480469 228.125 243.253906 232.007812 241.925781 C 235.886719 240.601562 240.109375 242.675781 241.433594 246.5625 " fill-opacity="1" fill-rule="nonzero"/><path fill="#f5c816" d="M 241.433594 246.566406 C 240.410156 243.554688 237.644531 241.640625 234.648438 241.539062 C 236.507812 242.34375 238.035156 243.890625 238.738281 245.957031 C 240.0625 249.84375 237.988281 254.070312 234.109375 255.398438 C 233.230469 255.699219 232.339844 255.8125 231.464844 255.785156 C 233.097656 256.492188 234.984375 256.625 236.804688 256.003906 C 240.683594 254.675781 242.757812 250.453125 241.433594 246.566406 " fill-opacity="1" fill-rule="nonzero"/><path fill="#ffd324" d="M 247.113281 245.148438 C 247.113281 245.148438 246.886719 245.226562 246.601562 245.324219 C 246.320312 245.417969 246.089844 245.5 246.089844 245.5 C 246.089844 245.5 246.320312 245.417969 246.601562 245.324219 C 246.886719 245.226562 247.113281 245.148438 247.113281 245.148438 " fill-opacity="1" fill-rule="nonzero"/><path fill="#ffd324" d="M 251.765625 246.179688 C 252.207031 247.476562 251.515625 248.882812 250.222656 249.324219 C 248.925781 249.765625 247.519531 249.074219 247.078125 247.777344 C 246.636719 246.484375 247.328125 245.074219 248.621094 244.632812 C 249.917969 244.191406 251.324219 244.882812 251.765625 246.179688 " fill-opacity="1" fill-rule="nonzero"/><path fill="#f7e528" d="M 287.644531 247.53125 L 284.242188 225.289062 C 284.394531 230.65625 283.359375 236.085938 280.496094 240.589844 C 277.136719 245.867188 271.597656 249.410156 265.8125 251.765625 C 261.160156 253.664062 256.273438 254.894531 251.441406 256.28125 L 287.644531 247.53125 " fill-opacity="1" fill-rule="nonzero"/><path fill="#ffd324" d="M 244.195312 205.632812 C 244.414062 206.515625 243.519531 207.5 242.195312 207.828125 C 240.867188 208.15625 239.617188 207.707031 239.398438 206.820312 C 239.179688 205.9375 240.078125 204.957031 241.402344 204.625 C 242.726562 204.296875 243.976562 204.75 244.195312 205.632812 " fill-opacity="1" fill-rule="nonzero"/><path fill="#ffd324" d="M 216.710938 216.269531 C 216.875 216.933594 216.023438 217.714844 214.808594 218.015625 C 213.59375 218.316406 212.476562 218.023438 212.3125 217.359375 C 212.148438 216.699219 213 215.914062 214.214844 215.613281 C 215.429688 215.3125 216.546875 215.605469 216.710938 216.269531 " fill-opacity="1" fill-rule="nonzero"/><path fill="#d1c0b1" d="M 293.257812 229.125 C 293.632812 231.25 293.480469 233.476562 292.761719 235.253906 C 289.664062 242.90625 277.90625 238.941406 273.015625 234.597656 C 271.277344 233.050781 269.921875 230.589844 270.8125 228.441406 C 271.628906 226.472656 273.910156 225.636719 275.953125 225.035156 C 281.128906 223.503906 285.804688 218.714844 290.621094 223.585938 C 291.988281 224.972656 292.886719 227 293.257812 229.125 " fill-opacity="1" fill-rule="nonzero"/><path fill="#808080" d="M 273.019531 234.601562 C 272.902344 234.496094 272.785156 234.382812 272.667969 234.269531 C 276.234375 234.777344 279.832031 234.6875 283.4375 234.023438 C 284.722656 233.785156 285.042969 235.789062 283.761719 236.027344 C 281.160156 236.507812 278.570312 236.691406 275.992188 236.585938 C 274.925781 236.046875 273.921875 235.402344 273.019531 234.601562 " fill-opacity="1" fill-rule="nonzero"/><path fill="#808080" d="M 285.207031 228.191406 C 281.125 228.007812 277.1875 227.269531 273.359375 226.003906 C 274.179688 225.59375 275.082031 225.289062 275.949219 225.035156 C 276.164062 224.972656 276.382812 224.90625 276.59375 224.84375 C 279.460938 225.589844 282.394531 226.035156 285.410156 226.171875 C 286.714844 226.230469 286.507812 228.253906 285.207031 228.191406 " fill-opacity="1" fill-rule="nonzero"/><path fill="#808080" d="M 280.644531 230.027344 C 281.9375 229.882812 282.265625 231.886719 280.964844 232.03125 C 277.476562 232.421875 274.054688 232.175781 270.765625 231.292969 C 270.539062 230.582031 270.464844 229.84375 270.609375 229.125 C 273.832031 230.09375 277.179688 230.414062 280.644531 230.027344 " fill-opacity="1" fill-rule="nonzero"/><path fill="#d4c2b2" d="M 182.136719 270.332031 C 197.28125 271.644531 212.894531 266.015625 223.722656 255.328125 C 226.855469 252.238281 229.691406 248.554688 230.445312 244.21875 C 230.863281 241.820312 230.367188 238.921875 228.238281 237.746094 C 226.292969 236.671875 223.886719 237.476562 221.828125 238.316406 C 215.027344 241.089844 208.171875 244.09375 200.863281 244.800781 C 193.558594 245.507812 185.542969 243.492188 180.933594 237.769531 L 182.136719 270.332031 " fill-opacity="1" fill-rule="nonzero"/><path fill="#808080" d="M 230.445312 244.21875 C 230.476562 244.050781 230.496094 243.886719 230.515625 243.71875 C 227.933594 246.460938 224.9375 248.734375 221.5625 250.542969 C 220.355469 251.1875 221.402344 253.035156 222.601562 252.390625 C 225.039062 251.085938 227.273438 249.546875 229.3125 247.777344 C 229.828125 246.640625 230.230469 245.460938 230.445312 244.21875 " fill-opacity="1" fill-rule="nonzero"/><path fill="#808080" d="M 216.324219 246.9375 C 219.535156 244.121094 222.273438 240.949219 224.574219 237.417969 C 223.636719 237.621094 222.703125 237.960938 221.828125 238.316406 C 221.609375 238.40625 221.394531 238.496094 221.175781 238.582031 C 219.320312 241.0625 217.214844 243.339844 214.84375 245.421875 C 213.816406 246.320312 215.300781 247.835938 216.324219 246.9375 " fill-opacity="1" fill-rule="nonzero"/><path fill="#808080" d="M 221.242188 245.460938 C 220.089844 246.1875 221.128906 248.035156 222.285156 247.308594 C 225.390625 245.347656 228.023438 242.914062 230.136719 240.046875 C 229.855469 239.316406 229.433594 238.667969 228.847656 238.175781 C 226.847656 241.066406 224.324219 243.515625 221.242188 245.460938 " fill-opacity="1" fill-rule="nonzero"/></svg>