<svg xmlns="http://www.w3.org/2000/svg" xmlns:xlink="http://www.w3.org/1999/xlink" width="500" zoomAndPan="magnify" viewBox="0 0 375 374.999991" height="500" preserveAspectRatio="xMidYMid meet" version="1.0"><defs><clipPath id="42b8dec0d2"><path d="M 99.628906 131.867188 L 201.664062 131.867188 L 201.664062 241.902344 L 99.628906 241.902344 Z M 99.628906 131.867188 " clip-rule="nonzero"/></clipPath><clipPath id="f5494f293e"><path d="M 8.007812 8 L 364 8 L 364 365.703125 L 8.007812 365.703125 Z M 8.007812 8 " clip-rule="nonzero"/></clipPath></defs><g clip-path="url(#42b8dec0d2)"><path fill="#935124" d="M 99.628906 131.867188 L 201.664062 131.867188 L 201.664062 241.867188 L 99.628906 241.867188 Z M 99.628906 131.867188 " fill-opacity="1" fill-rule="nonzero"/></g><g clip-path="url(#f5494f293e)"><path fill="#ffa600" d="M 361.800781 218.757812 L 323.59375 185 L 360.449219 149.785156 C 361.800781 148.488281 362.363281 146.578125 361.910156 144.757812 C 361.464844 142.949219 360.070312 141.503906 358.273438 140.980469 L 309.226562 126.804688 L 327.355469 79.25 C 328.023438 77.507812 327.703125 75.53125 326.511719 74.089844 C 325.324219 72.648438 323.457031 71.929688 321.601562 72.230469 L 271.183594 80.375 L 267.082031 29.675781 C 266.929688 27.816406 265.796875 26.171875 264.105469 25.367188 C 262.414062 24.5625 260.414062 24.726562 258.875 25.78125 L 216.839844 54.671875 L 191.304688 10.617188 C 190.367188 9 188.636719 8.003906 186.761719 8.003906 C 184.886719 8.003906 183.15625 9 182.21875 10.617188 L 152.902344 61.179688 L 102.183594 31.875 C 100.558594 30.933594 98.558594 30.933594 96.933594 31.863281 C 95.308594 32.792969 94.304688 34.519531 94.296875 36.386719 L 94.167969 87.25 L 43.265625 83.046875 C 41.402344 82.894531 39.582031 83.746094 38.519531 85.277344 C 37.445312 86.816406 37.28125 88.800781 38.085938 90.484375 L 59.875 136.488281 L 12.085938 154.433594 C 10.328125 155.09375 9.0625 156.632812 8.761719 158.480469 C 8.453125 160.320312 9.15625 162.191406 10.617188 163.371094 L 50.113281 195.621094 L 14.667969 232.25 C 13.363281 233.59375 12.878906 235.53125 13.402344 237.324219 C 13.925781 239.117188 15.363281 240.5 17.183594 240.957031 L 66.75 253.214844 L 50.5 301.4375 C 49.898438 303.207031 50.296875 305.164062 51.542969 306.558594 C 52.789062 307.964844 54.683594 308.59375 56.523438 308.226562 L 106.582031 298.132812 L 112.664062 348.640625 C 112.886719 350.5 114.085938 352.085938 115.816406 352.824219 C 117.546875 353.558594 119.527344 353.316406 121.027344 352.203125 L 161.90625 321.707031 L 189.148438 363.332031 C 190.117188 364.851562 191.789062 365.769531 193.585938 365.769531 C 193.65625 365.769531 193.722656 365.769531 193.789062 365.769531 C 195.664062 365.695312 197.355469 364.636719 198.226562 362.980469 L 222.019531 319.371094 L 265.160156 346.605469 C 266.746094 347.601562 268.746094 347.691406 270.410156 346.820312 C 272.074219 345.957031 273.144531 344.273438 273.222656 342.402344 L 275.339844 291.578125 L 326.039062 297.757812 C 327.894531 297.980469 329.742188 297.203125 330.875 295.710938 C 332.003906 294.222656 332.246094 292.234375 331.511719 290.523438 L 311.539062 243.707031 L 359.996094 227.628906 C 361.773438 227.039062 363.109375 225.546875 363.484375 223.71875 C 363.84375 221.898438 363.203125 220 361.800781 218.757812 Z M 361.800781 218.757812 " fill-opacity="1" fill-rule="nonzero"/></g><path fill="#ffdb2d" d="M 293.148438 185.976562 C 293.148438 187.75 293.105469 189.519531 293.019531 191.289062 C 292.933594 193.058594 292.800781 194.824219 292.628906 196.589844 C 292.453125 198.351562 292.238281 200.109375 291.976562 201.863281 C 291.71875 203.617188 291.414062 205.363281 291.070312 207.097656 C 290.726562 208.835938 290.335938 210.566406 289.90625 212.285156 C 289.476562 214.003906 289.003906 215.710938 288.492188 217.40625 C 287.976562 219.101562 287.421875 220.785156 286.824219 222.453125 C 286.230469 224.121094 285.59375 225.773438 284.914062 227.410156 C 284.238281 229.046875 283.519531 230.667969 282.765625 232.269531 C 282.007812 233.871094 281.210938 235.453125 280.375 237.015625 C 279.542969 238.578125 278.671875 240.121094 277.761719 241.640625 C 276.851562 243.160156 275.902344 244.65625 274.917969 246.128906 C 273.9375 247.601562 272.917969 249.050781 271.863281 250.476562 C 270.808594 251.898438 269.71875 253.292969 268.597656 254.664062 C 267.472656 256.035156 266.316406 257.375 265.128906 258.6875 C 263.941406 260 262.71875 261.285156 261.46875 262.539062 C 260.214844 263.789062 258.933594 265.011719 257.621094 266.203125 C 256.3125 267.390625 254.972656 268.550781 253.601562 269.671875 C 252.234375 270.796875 250.839844 271.886719 249.417969 272.941406 C 247.996094 274 246.546875 275.019531 245.078125 276.003906 C 243.605469 276.988281 242.109375 277.933594 240.589844 278.847656 C 239.074219 279.757812 237.53125 280.628906 235.972656 281.464844 C 234.410156 282.300781 232.828125 283.097656 231.230469 283.855469 C 229.628906 284.613281 228.011719 285.332031 226.375 286.007812 C 224.742188 286.6875 223.089844 287.324219 221.421875 287.921875 C 219.753906 288.519531 218.074219 289.074219 216.382812 289.589844 C 214.6875 290.101562 212.980469 290.574219 211.265625 291.003906 C 209.546875 291.4375 207.820312 291.824219 206.085938 292.171875 C 204.347656 292.515625 202.605469 292.820312 200.855469 293.078125 C 199.101562 293.339844 197.347656 293.554688 195.585938 293.730469 C 193.824219 293.902344 192.058594 294.03125 190.289062 294.121094 C 188.523438 294.207031 186.753906 294.25 184.980469 294.25 C 183.210938 294.25 181.441406 294.207031 179.675781 294.121094 C 177.90625 294.03125 176.140625 293.902344 174.378906 293.730469 C 172.617188 293.554688 170.863281 293.339844 169.109375 293.078125 C 167.359375 292.820312 165.617188 292.515625 163.878906 292.171875 C 162.144531 291.824219 160.417969 291.4375 158.699219 291.003906 C 156.984375 290.574219 155.277344 290.101562 153.582031 289.589844 C 151.890625 289.074219 150.207031 288.519531 148.542969 287.921875 C 146.875 287.324219 145.222656 286.6875 143.589844 286.007812 C 141.953125 285.332031 140.335938 284.613281 138.734375 283.855469 C 137.132812 283.097656 135.554688 282.300781 133.992188 281.464844 C 132.429688 280.628906 130.890625 279.757812 129.375 278.847656 C 127.855469 277.933594 126.359375 276.988281 124.886719 276.003906 C 123.417969 275.019531 121.96875 274 120.546875 272.941406 C 119.125 271.886719 117.730469 270.796875 116.363281 269.671875 C 114.992188 268.550781 113.652344 267.390625 112.339844 266.203125 C 111.03125 265.011719 109.75 263.789062 108.496094 262.539062 C 107.246094 261.285156 106.023438 260 104.835938 258.6875 C 103.648438 257.375 102.492188 256.035156 101.367188 254.664062 C 100.246094 253.292969 99.15625 251.898438 98.101562 250.476562 C 97.046875 249.050781 96.027344 247.601562 95.042969 246.128906 C 94.0625 244.65625 93.113281 243.160156 92.203125 241.640625 C 91.292969 240.121094 90.421875 238.578125 89.585938 237.015625 C 88.753906 235.453125 87.957031 233.871094 87.199219 232.269531 C 86.445312 230.667969 85.726562 229.046875 85.050781 227.410156 C 84.371094 225.773438 83.734375 224.121094 83.136719 222.453125 C 82.542969 220.785156 81.988281 219.101562 81.472656 217.40625 C 80.960938 215.710938 80.488281 214.003906 80.058594 212.285156 C 79.625 210.566406 79.238281 208.835938 78.894531 207.097656 C 78.546875 205.363281 78.246094 203.617188 77.984375 201.863281 C 77.726562 200.109375 77.507812 198.351562 77.335938 196.589844 C 77.164062 194.824219 77.03125 193.058594 76.945312 191.289062 C 76.859375 189.519531 76.816406 187.75 76.816406 185.976562 C 76.816406 184.203125 76.859375 182.433594 76.945312 180.664062 C 77.03125 178.894531 77.164062 177.128906 77.335938 175.363281 C 77.507812 173.601562 77.726562 171.84375 77.984375 170.089844 C 78.246094 168.335938 78.546875 166.589844 78.894531 164.851562 C 79.238281 163.113281 79.625 161.386719 80.058594 159.667969 C 80.488281 157.949219 80.960938 156.242188 81.472656 154.546875 C 81.988281 152.851562 82.542969 151.167969 83.136719 149.5 C 83.734375 147.832031 84.371094 146.179688 85.050781 144.542969 C 85.726562 142.90625 86.445312 141.285156 87.199219 139.683594 C 87.957031 138.082031 88.753906 136.5 89.585938 134.9375 C 90.421875 133.375 91.292969 131.832031 92.203125 130.3125 C 93.113281 128.792969 94.0625 127.296875 95.042969 125.824219 C 96.027344 124.347656 97.046875 122.902344 98.101562 121.476562 C 99.15625 120.054688 100.246094 118.65625 101.367188 117.289062 C 102.492188 115.917969 103.648438 114.578125 104.835938 113.265625 C 106.023438 111.949219 107.246094 110.667969 108.496094 109.414062 C 109.75 108.160156 111.03125 106.941406 112.339844 105.75 C 113.652344 104.558594 114.992188 103.402344 116.363281 102.28125 C 117.730469 101.15625 119.125 100.066406 120.546875 99.007812 C 121.96875 97.953125 123.417969 96.933594 124.886719 95.949219 C 126.359375 94.964844 127.855469 94.015625 129.375 93.105469 C 130.890625 92.195312 132.429688 91.324219 133.992188 90.488281 C 135.554688 89.652344 137.132812 88.855469 138.734375 88.097656 C 140.335938 87.339844 141.953125 86.621094 143.589844 85.945312 C 145.222656 85.265625 146.875 84.628906 148.542969 84.03125 C 150.207031 83.433594 151.890625 82.878906 153.582031 82.363281 C 155.277344 81.851562 156.984375 81.378906 158.699219 80.945312 C 160.417969 80.515625 162.144531 80.128906 163.878906 79.78125 C 165.617188 79.4375 167.359375 79.132812 169.109375 78.875 C 170.863281 78.613281 172.617188 78.398438 174.378906 78.222656 C 176.140625 78.050781 177.90625 77.917969 179.675781 77.832031 C 181.441406 77.746094 183.210938 77.703125 184.980469 77.703125 C 186.753906 77.703125 188.523438 77.746094 190.289062 77.832031 C 192.058594 77.917969 193.824219 78.050781 195.585938 78.222656 C 197.347656 78.398438 199.101562 78.613281 200.855469 78.875 C 202.605469 79.132812 204.347656 79.4375 206.085938 79.78125 C 207.820312 80.128906 209.546875 80.515625 211.265625 80.945312 C 212.980469 81.378906 214.6875 81.851562 216.382812 82.363281 C 218.074219 82.878906 219.753906 83.433594 221.421875 84.03125 C 223.089844 84.628906 224.742188 85.265625 226.375 85.945312 C 228.011719 86.621094 229.628906 87.339844 231.230469 88.097656 C 232.828125 88.855469 234.410156 89.652344 235.972656 90.488281 C 237.53125 91.324219 239.074219 92.195312 240.589844 93.105469 C 242.109375 94.015625 243.605469 94.964844 245.078125 95.949219 C 246.546875 96.933594 247.996094 97.953125 249.417969 99.007812 C 250.839844 100.066406 252.234375 101.15625 253.601562 102.28125 C 254.972656 103.402344 256.3125 104.558594 257.621094 105.75 C 258.933594 106.941406 260.214844 108.160156 261.46875 109.414062 C 262.71875 110.667969 263.941406 111.949219 265.128906 113.265625 C 266.316406 114.578125 267.472656 115.917969 268.597656 117.289062 C 269.71875 118.65625 270.808594 120.054688 271.863281 121.476562 C 272.917969 122.902344 273.9375 124.347656 274.917969 125.824219 C 275.902344 127.296875 276.851562 128.792969 277.761719 130.3125 C 278.671875 131.832031 279.542969 133.375 280.375 134.9375 C 281.210938 136.5 282.007812 138.082031 282.765625 139.683594 C 283.519531 141.285156 284.238281 142.90625 284.914062 144.542969 C 285.59375 146.179688 286.230469 147.832031 286.824219 149.5 C 287.421875 151.167969 287.976562 152.851562 288.492188 154.546875 C 289.003906 156.242188 289.476562 157.949219 289.90625 159.667969 C 290.335938 161.386719 290.726562 163.113281 291.070312 164.851562 C 291.414062 166.589844 291.71875 168.335938 291.976562 170.089844 C 292.238281 171.84375 292.453125 173.601562 292.628906 175.363281 C 292.800781 177.128906 292.933594 178.894531 293.019531 180.664062 C 293.105469 182.433594 293.148438 184.203125 293.148438 185.976562 Z M 293.148438 185.976562 " fill-opacity="1" fill-rule="nonzero"/><path fill="#ffdb2d" d="M 293.148438 185.976562 C 293.148438 187.75 293.105469 189.519531 293.019531 191.289062 C 292.933594 193.058594 292.800781 194.824219 292.628906 196.589844 C 292.453125 198.351562 292.238281 200.109375 291.976562 201.863281 C 291.71875 203.617188 291.414062 205.363281 291.070312 207.097656 C 290.726562 208.835938 290.335938 210.566406 289.90625 212.285156 C 289.476562 214.003906 289.003906 215.710938 288.492188 217.40625 C 287.976562 219.101562 287.421875 220.785156 286.824219 222.453125 C 286.230469 224.121094 285.59375 225.773438 284.914062 227.410156 C 284.238281 229.046875 283.519531 230.667969 282.765625 232.269531 C 282.007812 233.871094 281.210938 235.453125 280.375 237.015625 C 279.542969 238.578125 278.671875 240.121094 277.761719 241.640625 C 276.851562 243.160156 275.902344 244.65625 274.917969 246.128906 C 273.9375 247.601562 272.917969 249.050781 271.863281 250.476562 C 270.808594 251.898438 269.71875 253.292969 268.597656 254.664062 C 267.472656 256.035156 266.316406 257.375 265.128906 258.6875 C 263.941406 260 262.71875 261.285156 261.46875 262.539062 C 260.214844 263.789062 258.933594 265.011719 257.621094 266.203125 C 256.3125 267.390625 254.972656 268.550781 253.601562 269.671875 C 252.234375 270.796875 250.839844 271.886719 249.417969 272.941406 C 247.996094 274 246.546875 275.019531 245.078125 276.003906 C 243.605469 276.988281 242.109375 277.933594 240.589844 278.847656 C 239.074219 279.757812 237.53125 280.628906 235.972656 281.464844 C 234.410156 282.300781 232.828125 283.097656 231.230469 283.855469 C 229.628906 284.613281 228.011719 285.332031 226.375 286.007812 C 224.742188 286.6875 223.089844 287.324219 221.421875 287.921875 C 219.753906 288.519531 218.074219 289.074219 216.382812 289.589844 C 214.6875 290.101562 212.980469 290.574219 211.265625 291.003906 C 209.546875 291.4375 207.820312 291.824219 206.085938 292.171875 C 204.347656 292.515625 202.605469 292.820312 200.855469 293.078125 C 199.101562 293.339844 197.347656 293.554688 195.585938 293.730469 C 193.824219 293.902344 192.058594 294.03125 190.289062 294.121094 C 188.523438 294.207031 186.753906 294.25 184.980469 294.25 C 183.210938 294.25 181.441406 294.207031 179.675781 294.121094 C 177.90625 294.03125 176.140625 293.902344 174.378906 293.730469 C 172.617188 293.554688 170.863281 293.339844 169.109375 293.078125 C 167.359375 292.820312 165.617188 292.515625 163.878906 292.171875 C 162.144531 291.824219 160.417969 291.4375 158.699219 291.003906 C 156.984375 290.574219 155.277344 290.101562 153.582031 289.589844 C 151.890625 289.074219 150.207031 288.519531 148.542969 287.921875 C 146.875 287.324219 145.222656 286.6875 143.589844 286.007812 C 141.953125 285.332031 140.335938 284.613281 138.734375 283.855469 C 137.132812 283.097656 135.554688 282.300781 133.992188 281.464844 C 132.429688 280.628906 130.890625 279.757812 129.375 278.847656 C 127.855469 277.933594 126.359375 276.988281 124.886719 276.003906 C 123.417969 275.019531 121.96875 274 120.546875 272.941406 C 119.125 271.886719 117.730469 270.796875 116.363281 269.671875 C 114.992188 268.550781 113.652344 267.390625 112.339844 266.203125 C 111.03125 265.011719 109.75 263.789062 108.496094 262.539062 C 107.246094 261.285156 106.023438 260 104.835938 258.6875 C 103.648438 257.375 102.492188 256.035156 101.367188 254.664062 C 100.246094 253.292969 99.15625 251.898438 98.101562 250.476562 C 97.046875 249.050781 96.027344 247.601562 95.042969 246.128906 C 94.0625 244.65625 93.113281 243.160156 92.203125 241.640625 C 91.292969 240.121094 90.421875 238.578125 89.585938 237.015625 C 88.753906 235.453125 87.957031 233.871094 87.199219 232.269531 C 86.445312 230.667969 85.726562 229.046875 85.050781 227.410156 C 84.371094 225.773438 83.734375 224.121094 83.136719 222.453125 C 82.542969 220.785156 81.988281 219.101562 81.472656 217.40625 C 80.960938 215.710938 80.488281 214.003906 80.058594 212.285156 C 79.625 210.566406 79.238281 208.835938 78.894531 207.097656 C 78.546875 205.363281 78.246094 203.617188 77.984375 201.863281 C 77.726562 200.109375 77.507812 198.351562 77.335938 196.589844 C 77.164062 194.824219 77.03125 193.058594 76.945312 191.289062 C 76.859375 189.519531 76.816406 187.75 76.816406 185.976562 C 76.816406 184.203125 76.859375 182.433594 76.945312 180.664062 C 77.03125 178.894531 77.164062 177.128906 77.335938 175.363281 C 77.507812 173.601562 77.726562 171.84375 77.984375 170.089844 C 78.246094 168.335938 78.546875 166.589844 78.894531 164.851562 C 79.238281 163.113281 79.625 161.386719 80.058594 159.667969 C 80.488281 157.949219 80.960938 156.242188 81.472656 154.546875 C 81.988281 152.851562 82.542969 151.167969 83.136719 149.5 C 83.734375 147.832031 84.371094 146.179688 85.050781 144.542969 C 85.726562 142.90625 86.445312 141.285156 87.199219 139.683594 C 87.957031 138.082031 88.753906 136.5 89.585938 134.9375 C 90.421875 133.375 91.292969 131.832031 92.203125 130.3125 C 93.113281 128.792969 94.0625 127.296875 95.042969 125.824219 C 96.027344 124.347656 97.046875 122.902344 98.101562 121.476562 C 99.15625 120.054688 100.246094 118.65625 101.367188 117.289062 C 102.492188 115.917969 103.648438 114.578125 104.835938 113.265625 C 106.023438 111.949219 107.246094 110.667969 108.496094 109.414062 C 109.75 108.160156 111.03125 106.941406 112.339844 105.75 C 113.652344 104.558594 114.992188 103.402344 116.363281 102.28125 C 117.730469 101.15625 119.125 100.066406 120.546875 99.007812 C 121.96875 97.953125 123.417969 96.933594 124.886719 95.949219 C 126.359375 94.964844 127.855469 94.015625 129.375 93.105469 C 130.890625 92.195312 132.429688 91.324219 133.992188 90.488281 C 135.554688 89.652344 137.132812 88.855469 138.734375 88.097656 C 140.335938 87.339844 141.953125 86.621094 143.589844 85.945312 C 145.222656 85.265625 146.875 84.628906 148.542969 84.03125 C 150.207031 83.433594 151.890625 82.878906 153.582031 82.363281 C 155.277344 81.851562 156.984375 81.378906 158.699219 80.945312 C 160.417969 80.515625 162.144531 80.128906 163.878906 79.78125 C 165.617188 79.4375 167.359375 79.132812 169.109375 78.875 C 170.863281 78.613281 172.617188 78.398438 174.378906 78.222656 C 176.140625 78.050781 177.90625 77.917969 179.675781 77.832031 C 181.441406 77.746094 183.210938 77.703125 184.980469 77.703125 C 186.753906 77.703125 188.523438 77.746094 190.289062 77.832031 C 192.058594 77.917969 193.824219 78.050781 195.585938 78.222656 C 197.347656 78.398438 199.101562 78.613281 200.855469 78.875 C 202.605469 79.132812 204.347656 79.4375 206.085938 79.78125 C 207.820312 80.128906 209.546875 80.515625 211.265625 80.945312 C 212.980469 81.378906 214.6875 81.851562 216.382812 82.363281 C 218.074219 82.878906 219.753906 83.433594 221.421875 84.03125 C 223.089844 84.628906 224.742188 85.265625 226.375 85.945312 C 228.011719 86.621094 229.628906 87.339844 231.230469 88.097656 C 232.828125 88.855469 234.410156 89.652344 235.972656 90.488281 C 237.53125 91.324219 239.074219 92.195312 240.589844 93.105469 C 242.109375 94.015625 243.605469 94.964844 245.078125 95.949219 C 246.546875 96.933594 247.996094 97.953125 249.417969 99.007812 C 250.839844 100.066406 252.234375 101.15625 253.601562 102.28125 C 254.972656 103.402344 256.3125 104.558594 257.621094 105.75 C 258.933594 106.941406 260.214844 108.160156 261.46875 109.414062 C 262.71875 110.667969 263.941406 111.949219 265.128906 113.265625 C 266.316406 114.578125 267.472656 115.917969 268.597656 117.289062 C 269.71875 118.65625 270.808594 120.054688 271.863281 121.476562 C 272.917969 122.902344 273.9375 124.347656 274.917969 125.824219 C 275.902344 127.296875 276.851562 128.792969 277.761719 130.3125 C 278.671875 131.832031 279.542969 133.375 280.375 134.9375 C 281.210938 136.5 282.007812 138.082031 282.765625 139.683594 C 283.519531 141.285156 284.238281 142.90625 284.914062 144.542969 C 285.59375 146.179688 286.230469 147.832031 286.824219 149.5 C 287.421875 151.167969 287.976562 152.851562 288.492188 154.546875 C 289.003906 156.242188 289.476562 157.949219 289.90625 159.667969 C 290.335938 161.386719 290.726562 163.113281 291.070312 164.851562 C 291.414062 166.589844 291.71875 168.335938 291.976562 170.089844 C 292.238281 171.84375 292.453125 173.601562 292.628906 175.363281 C 292.800781 177.128906 292.933594 178.894531 293.019531 180.664062 C 293.105469 182.433594 293.148438 184.203125 293.148438 185.976562 Z M 293.148438 185.976562 " fill-opacity="1" fill-rule="nonzero"/><path fill="#feb1c0" d="M 251.519531 185.183594 C 259.195312 185.832031 265.769531 188.707031 270.023438 195.339844 C 274.808594 202.796875 272.664062 211.667969 265.101562 217.21875 C 254.660156 224.890625 239.375 223.601562 230.414062 214.3125 C 224.070312 207.746094 224.6875 197.179688 231.726562 191.351562 C 234.878906 188.726562 238.371094 186.789062 242.390625 185.917969 C 245.949219 189.414062 248.550781 189.210938 251.519531 185.183594 Z M 251.519531 185.183594 " fill-opacity="1" fill-rule="nonzero"/><path fill="#feb1c0" d="M 129.84375 185.9375 C 134.398438 187.023438 138.585938 188.960938 141.660156 192.503906 C 148.851562 200.746094 147.664062 210.167969 138.738281 217.285156 C 129.863281 224.355469 113.613281 223.601562 105.375 215.746094 C 96.75 207.503906 98.085938 195.339844 108.363281 189.144531 C 112.152344 186.867188 116.222656 185.386719 120.6875 185.183594 C 123.6875 189.183594 126.277344 189.414062 129.84375 185.9375 Z M 129.84375 185.9375 " fill-opacity="1" fill-rule="nonzero"/><path fill="#000000" d="M 251.519531 185.183594 C 248.550781 189.191406 245.957031 189.394531 242.390625 185.917969 C 242.1875 184.863281 241.976562 183.796875 241.792969 182.742188 C 241.222656 179.46875 238.890625 177.394531 235.789062 177.328125 C 232.636719 177.28125 230.296875 179.214844 229.5625 182.488281 C 229.511719 182.691406 229.496094 182.925781 229.464844 183.140625 C 228.796875 186.964844 226.710938 188.824219 223.710938 188.253906 C 220.695312 187.652344 219.207031 185.074219 219.757812 181.433594 C 221.113281 172.457031 228.632812 166.644531 237.691406 167.566406 C 246.132812 168.4375 252.136719 176.078125 251.519531 185.183594 Z M 251.519531 185.183594 " fill-opacity="1" fill-rule="nonzero"/><path fill="#000000" d="M 129.84375 185.9375 C 126.304688 189.414062 123.6875 189.183594 120.71875 185.203125 C 120.117188 176.058594 126.09375 168.4375 134.515625 167.585938 C 143.574219 166.664062 151.066406 172.464844 152.449219 181.453125 C 153 185.066406 151.480469 187.671875 148.496094 188.273438 C 145.527344 188.84375 143.4375 186.984375 142.742188 183.15625 C 142.074219 179.382812 139.824219 177.308594 136.417969 177.355469 C 133.082031 177.40625 130.964844 179.527344 130.375 183.410156 C 130.261719 184.253906 130.027344 185.085938 129.84375 185.9375 Z M 129.84375 185.9375 " fill-opacity="1" fill-rule="nonzero"/><path fill="#000000" d="M 169.523438 196.484375 C 169.472656 194.410156 170.421875 192.84375 172.238281 192.019531 C 174.308594 191.070312 176.308594 191.417969 177.914062 193.105469 C 180.855469 196.144531 184.355469 197.433594 188.558594 196.511719 C 190.765625 196.027344 192.496094 194.789062 194.117188 193.289062 C 196.574219 191.011719 199.359375 190.964844 201.359375 193.007812 C 203.3125 195.011719 203.128906 197.917969 200.945312 200.308594 C 193.152344 208.765625 178.96875 208.714844 171.214844 200.242188 C 170.21875 199.15625 169.523438 198.003906 169.523438 196.484375 Z M 169.523438 196.484375 " fill-opacity="1" fill-rule="nonzero"/></svg>