<svg xmlns="http://www.w3.org/2000/svg" xmlns:xlink="http://www.w3.org/1999/xlink" width="500" zoomAndPan="magnify" viewBox="0 0 375 374.999991" height="500" preserveAspectRatio="xMidYMid meet" version="1.0"><defs><clipPath id="51460f9cce"><path d="M 165.15625 179.359375 L 187.5 179.359375 L 187.5 211.21875 L 165.15625 211.21875 Z M 165.15625 179.359375 " clip-rule="nonzero"/></clipPath><clipPath id="43c19876ab"><path d="M 176.328125 179.359375 C 182.5 179.359375 187.5 184.363281 187.5 190.53125 L 187.5 200.027344 C 187.5 206.199219 182.5 211.199219 176.328125 211.199219 C 170.15625 211.199219 165.15625 206.199219 165.15625 200.027344 L 165.15625 190.53125 C 165.15625 184.363281 170.15625 179.359375 176.328125 179.359375 Z M 176.328125 179.359375 " clip-rule="nonzero"/></clipPath></defs><g clip-path="url(#51460f9cce)"><g clip-path="url(#43c19876ab)"><path fill="#aeb7c6" d="M 165.15625 179.359375 L 187.5 179.359375 L 187.5 211.21875 L 165.15625 211.21875 Z M 165.15625 179.359375 " fill-opacity="1" fill-rule="nonzero"/></g></g><path fill="#f4905a" d="M 161.902344 259.160156 C 161.902344 293.78125 163.941406 319.21875 85.972656 319.21875 C 48.914062 319.21875 22.804688 287.542969 22.804688 252.921875 C 22.804688 218.304688 52.851562 190.238281 89.910156 190.238281 C 126.96875 190.238281 161.902344 224.542969 161.902344 259.160156 " fill-opacity="1" fill-rule="nonzero"/><path fill="#fbc8a6" d="M 264.070312 241.222656 C 263.417969 235.488281 259.90625 230.460938 259.382812 224.59375 C 253.1875 155.183594 146.691406 184.3125 92.625 184.320312 C 62.046875 184.324219 22.386719 194.8125 11.582031 231.164062 C 5.75 250.78125 5.445312 276.710938 16.554688 294.210938 C 24.707031 307.050781 36.765625 316.414062 50.441406 320.847656 C 56.351562 322.761719 60.761719 327.488281 67.171875 328.945312 C 104.539062 337.417969 143.390625 303.585938 141.417969 261.195312 C 140.964844 251.492188 137.816406 237.84375 132.3125 229.976562 C 119.214844 211.25 93.105469 204 72.621094 208.082031 C 61.53125 210.292969 49.210938 215.558594 45.136719 228.121094 C 41.367188 239.746094 44.363281 254.960938 47.574219 266.375 C 55.058594 293.011719 85.855469 300.253906 105.394531 283.523438 C 113.46875 276.605469 119.402344 258.136719 103.835938 256.816406 C 102.191406 256.675781 100.648438 256.515625 99.191406 256.332031 C 96.160156 267.28125 90.871094 271.589844 81.667969 272.15625 C 89.636719 265.695312 92.191406 261.558594 93.257812 255.378906 C 78.246094 252.308594 75.324219 245.582031 70.3125 231.9375 C 73.917969 237.800781 86.378906 245.894531 90.363281 237.574219 C 88.71875 241.003906 91.460938 245.984375 95.71875 249.574219 C 97.339844 249.117188 99.273438 249.972656 99.496094 252.136719 C 105.109375 255.125 111.707031 255.203125 114.949219 247.871094 C 112.820312 255.625 122.515625 274.039062 127.960938 278.238281 C 112.5 272.542969 107.339844 285.339844 101.953125 295.40625 C 98.128906 291.164062 84.503906 292.347656 81.308594 299.367188 C 79.328125 294.992188 65.371094 288.640625 59.710938 298.214844 C 62.671875 282.703125 42.910156 271.164062 31.414062 275.292969 C 37.3125 271.535156 43.308594 271.359375 42.1875 262.921875 C 40.84375 252.824219 41.039062 240.078125 34.21875 237.96875 C 38.597656 234.414062 53.902344 209.089844 53.414062 206.28125 C 81.308594 194.898438 120.429688 203.507812 131.15625 218.304688 C 132.671875 227.273438 140.351562 241.929688 147.957031 245.101562 C 142.523438 249.0625 146.816406 258.707031 146.871094 259.039062 C 148.320312 268.074219 153.71875 269.503906 156.578125 265.726562 C 153.910156 271.554688 152.65625 278.058594 149.761719 283.746094 C 144.304688 294.464844 134.621094 302.238281 127.171875 311.207031 C 122.570312 316.746094 113.328125 326.769531 114.96875 334.960938 C 115.574219 337.980469 118.332031 339.210938 120.851562 339.707031 C 131.996094 341.890625 152.667969 315.605469 219.265625 297.296875 C 230.859375 294.113281 243.566406 289.242188 252.398438 279.898438 C 261.777344 269.980469 265.664062 255.238281 264.070312 241.222656 " fill-opacity="1" fill-rule="nonzero"/><path fill="#fbc8a6" d="M 150.484375 217.066406 C 143.320312 215.796875 136.082031 214.738281 129.117188 212.59375 C 112.542969 207.484375 98.640625 198.273438 86.792969 185.652344 C 86.445312 185.28125 86.117188 184.894531 85.808594 184.5 C 56.417969 185.996094 21.601562 197.460938 11.582031 231.164062 C 5.75 250.78125 5.445312 276.710938 16.554688 294.210938 C 24.707031 307.050781 36.765625 316.414062 50.441406 320.847656 C 56.351562 322.761719 60.761719 327.488281 67.171875 328.945312 C 104.539062 337.417969 143.390625 303.585938 141.417969 261.195312 C 140.964844 251.492188 137.816406 237.84375 132.3125 229.976562 C 119.214844 211.25 93.105469 204 72.621094 208.082031 C 61.53125 210.292969 49.210938 215.558594 45.136719 228.121094 C 41.367188 239.746094 44.363281 254.960938 47.574219 266.375 C 55.058594 293.011719 85.855469 300.253906 105.394531 283.523438 C 113.46875 276.605469 119.402344 258.136719 103.835938 256.816406 C 102.191406 256.675781 100.648438 256.515625 99.191406 256.332031 C 96.160156 267.28125 90.871094 271.589844 81.667969 272.15625 C 89.636719 265.695312 92.191406 261.558594 93.257812 255.378906 C 78.246094 252.308594 75.324219 245.582031 70.3125 231.9375 C 73.917969 237.800781 86.378906 245.894531 90.363281 237.574219 C 88.71875 241.003906 91.460938 245.984375 95.71875 249.574219 C 97.339844 249.117188 99.273438 249.972656 99.496094 252.136719 C 105.109375 255.125 111.707031 255.203125 114.949219 247.871094 C 112.820312 255.625 122.515625 274.039062 127.960938 278.238281 C 112.5 272.542969 107.339844 285.339844 101.953125 295.40625 C 98.128906 291.164062 84.503906 292.347656 81.308594 299.367188 C 79.328125 294.992188 65.371094 288.640625 59.710938 298.214844 C 62.671875 282.703125 42.910156 271.164062 31.414062 275.292969 C 37.3125 271.535156 43.308594 271.359375 42.1875 262.921875 C 40.84375 252.824219 41.039062 240.078125 34.21875 237.96875 C 38.597656 234.414062 53.902344 209.089844 53.414062 206.28125 C 81.308594 194.898438 120.429688 203.507812 131.15625 218.304688 C 132.671875 227.273438 140.351562 241.929688 147.957031 245.101562 C 142.523438 249.0625 146.816406 258.707031 146.871094 259.039062 C 147.707031 264.238281 149.84375 266.90625 152.058594 267.527344 L 152.058594 220.253906 C 151.53125 219.191406 151.007812 218.128906 150.484375 217.066406 " fill-opacity="1" fill-rule="nonzero"/><path fill="#fbc8a8" d="M 152.058594 278.277344 C 151.386719 280.144531 150.65625 281.988281 149.761719 283.746094 C 145.253906 292.597656 137.867188 299.441406 131.234375 306.605469 C 137.085938 303.011719 143.242188 301.03125 150.277344 300.640625 C 150.878906 300.609375 151.472656 300.628906 152.058594 300.683594 L 152.058594 278.277344 " fill-opacity="1" fill-rule="nonzero"/><path fill="#f4905a" d="M 264.398438 248.21875 C 264.414062 247.238281 264.398438 246.253906 264.363281 245.273438 C 264.351562 245.015625 264.34375 244.761719 264.332031 244.507812 C 264.273438 243.410156 264.195312 242.3125 264.070312 241.222656 C 264.003906 240.652344 263.90625 240.089844 263.792969 239.535156 C 262.800781 234.472656 260.191406 229.828125 259.382812 224.59375 C 259.082031 221.246094 258.542969 218.136719 257.796875 215.230469 C 257.832031 215.835938 257.863281 216.425781 257.894531 217.011719 C 244.765625 162.421875 191.800781 190.234375 139.988281 190.238281 C 128.890625 190.242188 69.234375 185.714844 57.558594 189.214844 C 59.617188 189.121094 61.652344 189.074219 63.648438 189.074219 C 117.710938 189.066406 173.820312 231.671875 228.011719 194.898438 C 239.394531 187.171875 252.628906 208.539062 258 240.902344 C 256.566406 258.613281 250.796875 247.816406 251.011719 254.730469 C 251.667969 275.535156 209.71875 292.433594 203.199219 279.957031 C 202.65625 296.59375 173.316406 303.628906 161.910156 289.460938 C 165.707031 303.628906 166.78125 307.300781 151.058594 312.144531 C 139.367188 315.746094 114.128906 330.765625 114.96875 334.960938 C 115.574219 337.980469 118.332031 339.210938 120.851562 339.707031 C 131.996094 341.890625 152.667969 315.605469 219.265625 297.296875 C 230.859375 294.113281 243.566406 289.242188 252.398438 279.898438 C 258.570312 273.371094 262.347656 264.75 263.765625 255.625 C 264.132812 253.285156 264.34375 250.917969 264.394531 248.542969 C 264.398438 248.433594 264.394531 248.328125 264.398438 248.21875 " fill-opacity="1" fill-rule="nonzero"/><path fill="#85d7e2" d="M 265.4375 259.160156 C 265.4375 293.78125 267.476562 319.21875 189.507812 319.21875 C 152.445312 319.21875 126.339844 287.542969 126.339844 252.921875 C 126.339844 218.304688 156.382812 190.238281 193.445312 190.238281 C 230.503906 190.238281 265.4375 224.542969 265.4375 259.160156 " fill-opacity="1" fill-rule="nonzero"/><path fill="#d5f1f9" d="M 367.605469 241.222656 C 366.949219 235.488281 363.4375 230.460938 362.914062 224.59375 C 356.71875 155.183594 250.222656 184.316406 196.160156 184.320312 C 165.582031 184.324219 125.921875 194.816406 115.117188 231.164062 C 109.285156 250.78125 108.980469 276.710938 120.089844 294.210938 C 128.242188 307.050781 140.296875 316.414062 153.976562 320.847656 C 159.886719 322.761719 164.296875 327.488281 170.703125 328.945312 C 208.074219 337.417969 246.925781 303.585938 244.953125 261.195312 C 244.5 251.492188 241.347656 237.84375 235.847656 229.976562 C 222.75 211.253906 196.640625 204 176.15625 208.082031 C 165.066406 210.292969 152.742188 215.5625 148.671875 228.121094 C 144.898438 239.75 147.898438 254.960938 151.105469 266.375 C 158.59375 293.015625 189.386719 300.253906 208.933594 283.523438 C 217.003906 276.609375 222.941406 258.140625 207.367188 256.816406 C 205.722656 256.675781 204.183594 256.515625 202.726562 256.332031 C 199.691406 267.28125 194.40625 271.589844 185.203125 272.160156 C 193.171875 265.695312 195.722656 261.558594 196.792969 255.378906 C 181.777344 252.308594 178.859375 245.585938 173.847656 231.9375 C 177.449219 237.800781 189.914062 245.894531 193.898438 237.574219 C 192.25 241.007812 194.992188 245.984375 199.253906 249.574219 C 200.875 249.117188 202.804688 249.972656 203.03125 252.136719 C 208.640625 255.125 215.238281 255.203125 218.480469 247.875 C 216.355469 255.625 226.046875 274.039062 231.496094 278.238281 C 216.035156 272.542969 210.875 285.339844 205.488281 295.40625 C 201.664062 291.164062 188.035156 292.351562 184.84375 299.367188 C 182.863281 294.992188 168.90625 288.640625 163.246094 298.214844 C 166.203125 282.703125 146.445312 271.164062 134.949219 275.292969 C 140.847656 271.539062 146.839844 271.359375 145.71875 262.925781 C 144.378906 252.824219 144.574219 240.078125 137.75 237.96875 C 142.128906 234.414062 157.433594 209.089844 156.949219 206.28125 C 184.84375 194.898438 223.960938 203.507812 234.6875 218.308594 C 236.207031 227.273438 243.886719 241.929688 251.492188 245.101562 C 246.054688 249.0625 250.351562 258.707031 250.402344 259.042969 C 251.855469 268.074219 257.25 269.503906 260.105469 265.726562 C 257.441406 271.554688 239.539062 301.507812 239.539062 313.058594 C 239.539062 325.089844 258.253906 339.835938 322.800781 297.296875 C 332.84375 290.683594 347.097656 289.242188 355.929688 279.898438 C 365.308594 269.980469 369.199219 255.238281 367.605469 241.222656 " fill-opacity="1" fill-rule="nonzero"/><path fill="#c4ecf8" d="M 240.453125 233.253906 C 241.542969 235.148438 242.726562 236.960938 243.980469 238.585938 C 242.898438 236.726562 241.738281 234.949219 240.453125 233.253906 " fill-opacity="1" fill-rule="nonzero"/><path fill="#b5e7fa" d="M 244.953125 261.195312 C 244.5 251.492188 241.347656 237.84375 235.847656 229.976562 C 222.75 211.25 196.640625 204 176.15625 208.082031 C 165.066406 210.292969 152.746094 215.558594 148.671875 228.121094 C 144.898438 239.746094 147.898438 254.960938 151.105469 266.375 C 158.59375 293.011719 189.386719 300.253906 208.933594 283.523438 C 217.007812 276.605469 222.941406 258.136719 207.367188 256.816406 C 205.722656 256.675781 204.183594 256.515625 202.726562 256.332031 C 199.695312 267.28125 194.40625 271.589844 185.203125 272.15625 C 193.171875 265.695312 195.722656 261.558594 196.792969 255.378906 C 181.78125 252.308594 178.859375 245.582031 173.847656 231.9375 C 177.453125 237.800781 189.914062 245.894531 193.898438 237.574219 C 192.25 241.003906 194.992188 245.984375 199.253906 249.574219 C 200.875 249.117188 202.804688 249.972656 203.03125 252.136719 C 208.644531 255.125 215.238281 255.203125 218.484375 247.871094 C 216.355469 255.625 226.046875 274.039062 231.496094 278.238281 C 216.035156 272.542969 210.875 285.339844 205.488281 295.40625 C 201.664062 291.164062 188.039062 292.347656 184.84375 299.367188 C 182.863281 294.992188 166.636719 294.046875 160.980469 303.621094 C 166.050781 284.144531 146.445312 271.164062 134.949219 275.292969 C 140.847656 271.535156 146.84375 271.359375 145.71875 262.921875 C 144.378906 252.824219 144.574219 240.078125 137.75 237.96875 C 142.128906 234.414062 157.433594 209.089844 156.949219 206.28125 C 173.160156 199.664062 193.152344 199.8125 209.167969 203.992188 C 208.007812 199.03125 209.40625 193.34375 213.164062 189.808594 C 216.070312 187.074219 219.21875 184.804688 222.527344 182.867188 C 212.949219 183.707031 204 184.320312 196.160156 184.320312 C 165.582031 184.324219 125.921875 194.8125 115.117188 231.164062 C 109.285156 250.78125 108.980469 276.710938 120.089844 294.210938 C 128.242188 307.050781 140.296875 316.414062 153.976562 320.847656 C 159.886719 322.761719 164.296875 327.488281 170.707031 328.945312 C 208.074219 337.417969 246.925781 303.585938 244.953125 261.195312 " fill-opacity="1" fill-rule="nonzero"/><path fill="#ade5fa" d="M 367.898438 245.269531 C 367.890625 245.015625 367.878906 244.761719 367.867188 244.507812 C 367.8125 243.40625 367.730469 242.3125 367.605469 241.222656 C 367.542969 240.652344 367.441406 240.089844 367.324219 239.535156 C 366.335938 234.472656 363.726562 229.828125 362.917969 224.589844 C 362.617188 221.246094 362.082031 218.132812 361.332031 215.230469 C 361.367188 215.835938 361.394531 216.425781 361.429688 217.011719 C 348.304688 162.425781 295.335938 190.234375 243.523438 190.238281 C 232.425781 190.238281 172.769531 185.714844 161.09375 189.214844 C 163.15625 189.121094 165.1875 189.074219 167.183594 189.074219 C 221.25 189.066406 277.355469 231.671875 331.546875 194.894531 C 342.929688 187.171875 356.164062 208.539062 361.535156 240.902344 C 360.101562 258.613281 354.332031 247.816406 354.546875 254.730469 C 355.007812 269.332031 319.957031 298.109375 319.957031 298.109375 C 320.910156 297.839844 321.835938 297.566406 322.804688 297.296875 C 334.394531 294.113281 347.097656 289.242188 355.929688 279.898438 C 362.105469 273.371094 365.886719 264.75 367.304688 255.625 L 367.304688 255.621094 C 367.664062 253.285156 367.878906 250.917969 367.929688 248.542969 C 367.933594 248.433594 367.929688 248.328125 367.933594 248.21875 C 367.949219 247.234375 367.9375 246.253906 367.898438 245.269531 " fill-opacity="1" fill-rule="nonzero"/><path fill="#e29e2e" d="M 221.726562 146.445312 C 219.402344 180.984375 219.730469 206.503906 141.933594 201.257812 C 104.957031 198.761719 81.035156 165.398438 83.359375 130.859375 C 85.683594 96.320312 117.539062 70.339844 154.515625 72.835938 C 191.492188 75.328125 224.046875 111.902344 221.726562 146.445312 " fill-opacity="1" fill-rule="nonzero"/><path fill="#fbda7b" d="M 324.863281 135.421875 C 324.59375 129.65625 321.429688 124.40625 321.296875 118.519531 C 319.773438 48.847656 211.566406 70.746094 157.625 67.113281 C 127.113281 65.058594 86.839844 72.855469 73.621094 108.398438 C 66.484375 127.578125 64.441406 153.425781 74.351562 171.632812 C 81.625 184.996094 93.023438 195.148438 106.375 200.492188 C 112.140625 202.800781 116.226562 207.816406 122.519531 209.695312 C 159.234375 220.664062 200.273438 189.523438 201.144531 147.097656 C 201.347656 137.386719 199.117188 123.554688 194.15625 115.335938 C 182.34375 95.773438 156.78125 86.777344 136.070312 89.472656 C 124.855469 90.933594 112.207031 95.359375 107.300781 107.617188 C 102.761719 118.964844 104.730469 134.34375 107.164062 145.949219 C 112.851562 173.03125 143.085938 182.328125 163.707031 166.949219 C 172.226562 160.59375 179.390625 142.566406 163.941406 140.195312 C 162.308594 139.945312 160.785156 139.683594 159.339844 139.40625 C 155.582031 150.121094 150.015625 154.0625 140.796875 154.015625 C 149.183594 148.105469 152.007812 144.148438 153.484375 138.054688 C 138.710938 133.980469 136.25 127.074219 132.164062 113.121094 C 135.367188 119.210938 147.257812 128.125 151.792969 120.09375 C 149.921875 123.40625 152.320312 128.5625 156.332031 132.425781 C 157.976562 132.082031 159.847656 133.0625 159.929688 135.238281 C 165.328125 138.597656 171.902344 139.117188 175.628906 132.023438 C 172.988281 139.617188 181.421875 158.636719 186.578125 163.195312 C 171.53125 156.472656 165.523438 168.894531 159.476562 178.574219 C 155.945312 174.082031 142.269531 174.347656 138.609375 181.136719 C 136.929688 176.636719 123.429688 169.359375 117.140625 178.53125 C 121.132812 163.253906 102.195312 150.414062 90.445312 153.757812 C 96.582031 150.410156 102.574219 150.636719 102.023438 142.144531 C 101.363281 131.976562 102.414062 119.273438 95.746094 116.707031 C 100.355469 113.457031 117.324219 89.222656 117.027344 86.386719 C 145.621094 76.902344 184.078125 88.128906 193.789062 103.613281 C 194.695312 112.664062 201.371094 127.804688 208.75 131.476562 C 203.0625 135.066406 206.699219 144.980469 206.734375 145.316406 C 207.574219 154.425781 212.863281 156.214844 215.964844 152.636719 C 212.914062 158.269531 211.226562 164.675781 207.957031 170.15625 C 201.792969 180.484375 191.609375 187.589844 183.578125 196.035156 C 178.613281 201.253906 168.71875 210.636719 169.808594 218.917969 C 170.207031 221.96875 172.878906 223.382812 175.359375 224.046875 C 186.332031 226.976562 208.71875 202.140625 276.398438 188.355469 C 288.175781 185.957031 301.179688 181.953125 310.621094 173.226562 C 320.640625 163.960938 325.511719 149.515625 324.863281 135.421875 " fill-opacity="1" fill-rule="nonzero"/><path fill="#efc747" d="M 324.863281 135.421875 C 324.59375 129.65625 321.429688 124.40625 321.296875 118.519531 C 319.773438 48.847656 211.566406 70.746094 157.625 67.113281 C 127.113281 65.058594 86.839844 72.855469 73.621094 108.398438 C 66.484375 127.578125 64.441406 153.425781 74.351562 171.632812 C 81.625 184.996094 93.023438 195.148438 106.375 200.492188 C 112.140625 202.800781 116.226562 207.816406 122.519531 209.695312 C 139.015625 214.621094 156.375 211.03125 170.582031 201.753906 L 170.710938 201.667969 C 188.058594 190.28125 200.667969 170.402344 201.144531 147.097656 C 201.347656 137.386719 199.117188 123.554688 194.15625 115.335938 C 182.34375 95.773438 156.78125 86.777344 136.070312 89.472656 C 124.855469 90.933594 112.207031 95.359375 107.300781 107.617188 C 102.761719 118.964844 104.730469 134.34375 107.164062 145.949219 C 112.851562 173.03125 143.085938 182.328125 163.707031 166.949219 C 172.226562 160.59375 179.390625 142.566406 163.941406 140.195312 C 162.308594 139.945312 160.785156 139.683594 159.339844 139.40625 C 155.582031 150.121094 150.015625 154.0625 140.796875 154.015625 C 149.183594 148.105469 152.007812 144.148438 153.484375 138.054688 C 138.710938 133.980469 136.25 127.074219 132.164062 113.121094 C 135.367188 119.210938 147.257812 128.125 151.792969 120.09375 C 149.921875 123.40625 152.320312 128.5625 156.332031 132.425781 C 157.976562 132.082031 159.847656 133.0625 159.929688 135.238281 C 165.328125 138.597656 171.902344 139.117188 175.628906 132.023438 C 172.988281 139.617188 181.421875 158.636719 186.578125 163.195312 C 171.53125 156.472656 165.523438 168.894531 159.476562 178.574219 C 155.945312 174.082031 142.269531 174.347656 138.609375 181.136719 C 136.929688 176.636719 123.429688 169.359375 117.140625 178.53125 C 121.132812 163.253906 102.195312 150.414062 90.445312 153.757812 C 96.582031 150.410156 102.574219 150.636719 102.023438 142.144531 C 101.363281 131.976562 102.414062 119.273438 95.746094 116.707031 C 100.355469 113.457031 117.324219 89.222656 117.027344 86.386719 C 145.621094 76.902344 184.078125 88.128906 193.789062 103.613281 C 194.695312 112.664062 201.371094 127.804688 208.75 131.476562 C 203.0625 135.066406 206.699219 144.980469 206.734375 145.316406 C 207.574219 154.425781 212.863281 156.214844 215.964844 152.636719 C 212.914062 158.269531 211.226562 164.675781 207.957031 170.15625 C 202.449219 179.390625 193.730469 186.046875 186.199219 193.386719 C 188.585938 191.066406 194.445312 189.921875 197.539062 188.957031 C 201.542969 187.703125 205.636719 186.722656 209.75 185.890625 C 218.03125 184.210938 226.425781 183.207031 234.769531 181.871094 C 251.480469 179.1875 267.300781 174.277344 282.597656 166.984375 C 292.550781 162.238281 302.207031 156.796875 311.382812 150.667969 C 315.992188 147.585938 320.429688 144.238281 324.835938 140.847656 C 324.933594 139.042969 324.945312 137.226562 324.863281 135.421875 " fill-opacity="1" fill-rule="nonzero"/><path fill="#fbda7b" d="M 148.222656 210.886719 C 154.320312 206.753906 160.769531 203.179688 167.394531 199.96875 C 172.554688 196.820312 177.824219 193.820312 183.261719 191.015625 C 193.835938 179.585938 200.792969 164.277344 201.144531 147.097656 C 201.347656 137.386719 199.117188 123.554688 194.15625 115.335938 C 182.34375 95.773438 156.78125 86.777344 136.070312 89.472656 C 124.855469 90.933594 112.207031 95.359375 107.300781 107.617188 C 102.761719 118.964844 104.730469 134.34375 107.164062 145.949219 C 112.851562 173.03125 143.085938 182.328125 163.707031 166.949219 C 172.226562 160.59375 179.390625 142.566406 163.941406 140.195312 C 162.308594 139.945312 160.785156 139.683594 159.339844 139.40625 C 155.582031 150.121094 150.015625 154.0625 140.796875 154.015625 C 149.183594 148.105469 152.007812 144.148438 153.484375 138.054688 C 138.710938 133.980469 136.25 127.074219 132.164062 113.121094 C 135.367188 119.210938 147.257812 128.125 151.792969 120.09375 C 149.921875 123.40625 152.320312 128.5625 156.332031 132.425781 C 157.976562 132.082031 159.847656 133.0625 159.929688 135.238281 C 165.328125 138.597656 171.902344 139.117188 175.628906 132.023438 C 172.988281 139.617188 181.421875 158.636719 186.578125 163.195312 C 171.53125 156.472656 165.523438 168.894531 159.476562 178.574219 C 155.945312 174.082031 142.269531 174.347656 138.609375 181.136719 C 136.929688 176.636719 123.429688 169.359375 117.140625 178.53125 C 121.132812 163.253906 102.195312 150.414062 90.445312 153.757812 C 96.582031 150.410156 102.574219 150.636719 102.023438 142.144531 C 101.363281 131.976562 102.414062 119.273438 95.746094 116.707031 C 100.355469 113.457031 117.324219 89.222656 117.027344 86.386719 C 145.621094 76.902344 184.078125 88.128906 193.789062 103.613281 C 194.695312 112.664062 201.371094 127.804688 208.75 131.476562 C 203.0625 135.066406 206.699219 144.980469 206.734375 145.316406 C 207.574219 154.425781 212.863281 156.214844 215.964844 152.636719 C 212.914062 158.269531 211.226562 164.675781 207.957031 170.15625 C 204.503906 175.945312 199.785156 180.71875 194.894531 185.28125 C 210.09375 177.972656 224.0625 181.492188 239.539062 174.808594 C 258.832031 166.480469 281.5 157.832031 301.507812 145.425781 C 308.78125 140.914062 316.476562 137.449219 324.863281 135.566406 L 324.863281 135.421875 C 324.59375 129.65625 321.429688 124.40625 321.296875 118.519531 C 319.773438 48.847656 211.566406 70.746094 157.625 67.113281 C 127.113281 65.058594 86.839844 72.855469 73.621094 108.398438 C 66.484375 127.578125 64.441406 153.425781 74.351562 171.632812 C 81.625 184.996094 93.023438 195.148438 106.375 200.492188 C 112.140625 202.800781 116.226562 207.816406 122.519531 209.695312 C 131.042969 212.242188 139.792969 212.492188 148.222656 210.886719 " fill-opacity="1" fill-rule="nonzero"/><path fill="#efc754" d="M 318.828125 134.695312 C 318.652344 135.886719 318.460938 136.933594 318.265625 137.875 C 320.464844 137.019531 322.660156 136.1875 324.859375 135.375 C 324.828125 134.816406 324.773438 134.265625 324.695312 133.71875 C 324.050781 128.605469 321.757812 123.792969 321.296875 118.515625 C 321.226562 115.15625 320.898438 112.011719 320.347656 109.066406 C 320.339844 109.675781 320.328125 110.261719 320.320312 110.847656 C 310.890625 55.503906 256.175781 79.683594 204.480469 76.207031 C 193.410156 75.457031 134.191406 66.929688 122.304688 69.636719 C 124.367188 69.679688 126.402344 69.769531 128.390625 69.90625 C 182.332031 73.535156 235.457031 119.816406 291.996094 86.777344 C 303.871094 79.835938 315.640625 102.042969 318.828125 134.695312 " fill-opacity="1" fill-rule="nonzero"/></svg>