<svg xmlns="http://www.w3.org/2000/svg" xmlns:xlink="http://www.w3.org/1999/xlink" width="500" zoomAndPan="magnify" viewBox="0 0 375 374.999991" height="500" preserveAspectRatio="xMidYMid meet" version="1.0"><defs><clipPath id="c2d37c3c54"><path d="M 157.019531 211.265625 L 187.5 211.265625 L 187.5 243.175781 L 157.019531 243.175781 Z M 157.019531 211.265625 " clip-rule="nonzero"/></clipPath><clipPath id="2fc238bbeb"><path d="M 172.257812 211.265625 C 176.300781 211.265625 180.179688 212.871094 183.035156 215.730469 C 185.894531 218.585938 187.5 222.464844 187.5 226.507812 L 187.5 227.863281 C 187.5 231.90625 185.894531 235.785156 183.035156 238.640625 C 180.179688 241.5 176.300781 243.105469 172.257812 243.105469 C 168.21875 243.105469 164.339844 241.5 161.484375 238.640625 C 158.625 235.785156 157.019531 231.90625 157.019531 227.863281 L 157.019531 226.507812 C 157.019531 222.464844 158.625 218.585938 161.484375 215.730469 C 164.339844 212.871094 168.21875 211.265625 172.257812 211.265625 Z M 172.257812 211.265625 " clip-rule="nonzero"/></clipPath><clipPath id="c688133d3a"><path d="M 195 281 L 306 281 L 306 345.75 L 195 345.75 Z M 195 281 " clip-rule="nonzero"/></clipPath><clipPath id="92369c05a9"><path d="M 244 324 L 291 324 L 291 345.75 L 244 345.75 Z M 244 324 " clip-rule="nonzero"/></clipPath><clipPath id="08c2649a46"><path d="M 8 38 L 366 38 L 366 345.75 L 8 345.75 Z M 8 38 " clip-rule="nonzero"/></clipPath></defs><g clip-path="url(#c2d37c3c54)"><g clip-path="url(#2fc238bbeb)"><path fill="#aeb7c6" d="M 157.019531 211.265625 L 187.5 211.265625 L 187.5 243.054688 L 157.019531 243.054688 Z M 157.019531 211.265625 " fill-opacity="1" fill-rule="nonzero"/></g></g><path fill="#9ad02b" d="M 36.496094 42.6875 C 36.496094 42.6875 51.695312 42.6875 62.171875 41.140625 C 72.742188 39.597656 80.640625 37.679688 87.660156 40.160156 C 94.671875 42.640625 104.589844 47.042969 104.589844 47.042969 C 104.589844 47.042969 114.644531 53.503906 117.6875 59.078125 C 120.730469 64.652344 124.613281 72.09375 124.613281 72.09375 C 124.613281 72.09375 128.636719 81.964844 129.101562 85.992188 C 129.570312 90.019531 132.558594 101.660156 130.628906 107.902344 C 128.699219 114.140625 128.816406 113.953125 128.816406 113.953125 C 128.816406 113.953125 122.925781 130.929688 119.09375 134.296875 C 121.996094 136.355469 127.929688 143.660156 129.617188 148.574219 C 131.304688 153.488281 135.367188 165.75 131.351562 180.453125 C 127.609375 190.277344 123.867188 195.945312 123.726562 198.804688 C 123.585938 201.660156 124.246094 205.214844 124.246094 205.214844 C 124.246094 205.214844 112.550781 199.878906 102.402344 198.660156 C 92.253906 197.445312 85.472656 197.867188 85.472656 197.867188 C 85.472656 197.867188 76.914062 183.355469 76.632812 182.609375 C 76.351562 181.863281 71.441406 171.1875 70.226562 167.679688 C 69.011719 164.171875 65.738281 159.484375 64.515625 158.175781 C 63.292969 156.863281 51.324219 149.328125 51.324219 149.328125 C 51.324219 149.328125 34.535156 138.363281 28.300781 129.996094 C 22.0625 121.636719 16.144531 114.515625 13.148438 108.214844 C 10.152344 101.910156 7.59375 93.300781 11.523438 86.621094 C 15.453125 79.941406 18.324219 79.007812 18.324219 79.007812 C 18.324219 79.007812 12.894531 73.449219 15.148438 67.585938 C 17.398438 61.722656 24.746094 47.804688 26.683594 46.242188 C 28.613281 44.675781 30.792969 42.703125 36.496094 42.6875 Z M 36.496094 42.6875 " fill-opacity="1" fill-rule="nonzero"/><path fill="#9ad02b" d="M 86.414062 225.53125 L 81.238281 246.316406 L 72.820312 275.082031 L 68.148438 287.070312 C 68.148438 287.070312 63.714844 296.988281 67.894531 300.484375 C 72.078125 303.976562 82.367188 307.039062 91.28125 308.660156 C 100.199219 310.285156 112.605469 312.21875 122.152344 306.417969 C 125.578125 302.925781 126.269531 302.988281 126.457031 296.871094 C 126.644531 290.757812 126.832031 273.160156 126.832031 273.160156 C 126.832031 273.160156 114.425781 265.230469 106.882812 256.496094 C 99.273438 247.195312 93.351562 238.457031 91.351562 235.089844 C 89.347656 231.707031 86.414062 225.53125 86.414062 225.53125 Z M 86.414062 225.53125 " fill-opacity="1" fill-rule="nonzero"/><path fill="#9ad02b" d="M 139.617188 255.523438 C 139.617188 255.523438 133.773438 255.570312 133.210938 264.367188 C 132.644531 273.167969 131.992188 281.171875 131.992188 281.171875 C 131.992188 281.171875 130.214844 294 128.535156 300.414062 C 126.855469 306.824219 122.824219 320.914062 122.824219 320.914062 C 122.824219 320.914062 118.613281 329.429688 126.050781 332.855469 C 133.484375 336.269531 146.582031 337.957031 146.582031 337.957031 C 146.582031 337.957031 164.730469 339.917969 169.121094 339.453125 C 173.519531 338.984375 177.074219 339.03125 178.988281 331.871094 C 180.898438 324.714844 180.898438 324.714844 180.898438 324.714844 C 180.898438 324.714844 181.925781 304.964844 181.832031 295.789062 C 181.738281 286.613281 180.523438 282.03125 180.523438 282.03125 C 180.523438 282.03125 178.1875 272.980469 172.265625 267.988281 C 166.351562 262.980469 156.722656 257.296875 139.617188 255.523438 Z M 139.617188 255.523438 " fill-opacity="1" fill-rule="nonzero"/><g clip-path="url(#c688133d3a)"><path fill="#9ad02b" d="M 201.394531 299.894531 C 201.394531 299.894531 197.746094 320.632812 196.8125 323.300781 C 195.878906 325.96875 193.542969 329.808594 199.148438 333.644531 C 204.765625 337.484375 218.703125 339.542969 218.703125 339.542969 C 218.703125 339.542969 233.382812 340.617188 239.234375 337.664062 C 245.074219 334.714844 244.046875 333.082031 244.046875 333.082031 C 244.046875 333.082031 243.953125 339.917969 249.144531 341.597656 C 254.339844 343.285156 268.242188 345.359375 273.167969 345.421875 C 278.09375 345.484375 294.117188 343.300781 301.542969 337.0625 C 304.71875 332.8125 306.214844 331.199219 305.785156 326.324219 C 305.355469 321.449219 301.046875 294.808594 301.046875 294.808594 L 298.679688 286.816406 C 298.679688 286.816406 298.867188 281.132812 290.949219 282.078125 C 282.964844 283.011719 268.691406 284.507812 260.015625 283.136719 C 255.960938 282.757812 255.960938 282.757812 255.960938 282.757812 C 255.960938 282.757812 249.601562 283.503906 249.414062 290.121094 C 249.226562 296.738281 248.972656 303.535156 248.972656 303.535156 C 248.972656 303.535156 234.441406 304.34375 223.71875 303.035156 C 212.992188 301.730469 201.394531 299.894531 201.394531 299.894531 Z M 201.394531 299.894531 " fill-opacity="1" fill-rule="nonzero"/></g><path fill="#9ad02b" d="M 310.082031 286.269531 C 310.222656 286.03125 320.277344 279.996094 324.160156 275.734375 C 327.570312 274.941406 340.527344 271.054688 340.527344 271.054688 C 340.527344 271.054688 354.558594 280.648438 357.828125 283.457031 C 361.097656 286.269531 363.492188 287.109375 364.285156 288.464844 C 365.074219 289.824219 367.710938 291.878906 361.851562 293.519531 C 355.992188 295.160156 345.015625 295.8125 339.3125 295.066406 C 333.601562 294.320312 318.269531 290.105469 318.269531 290.105469 Z M 310.082031 286.269531 " fill-opacity="1" fill-rule="nonzero"/><path fill="#ffffff" d="M 68.515625 95.96875 C 68.515625 95.96875 60.40625 91.226562 59.535156 82.179688 C 59.160156 76.253906 59.097656 71.691406 67.953125 68.449219 C 72.4375 67.203125 78.679688 68.324219 82.664062 72.941406 C 86.089844 76.433594 88.835938 81.988281 86.214844 90.160156 C 83.480469 94.289062 78.992188 99.902344 68.515625 95.96875 Z M 68.515625 95.96875 " fill-opacity="1" fill-rule="nonzero"/><path fill="#fda49d" d="M 29.90625 93.191406 C 29.90625 93.191406 17.515625 92.859375 17.882812 95.066406 C 18.355469 97.265625 23.632812 103.074219 28.550781 104.148438 C 33.46875 105.222656 41.695312 106.816406 48.195312 103.496094 C 42.4375 101.195312 33.316406 97.027344 29.90625 93.191406 Z M 29.90625 93.191406 " fill-opacity="1" fill-rule="nonzero"/><path fill="#740200" d="M 23.640625 86.597656 C 23.640625 86.597656 17.28125 86.785156 17.84375 94.085938 C 22.519531 93.519531 29.207031 93.105469 29.207031 93.105469 Z M 23.640625 86.597656 " fill-opacity="1" fill-rule="nonzero"/><path fill="#d68613" d="M 130.214844 107.515625 C 130.214844 107.515625 147.984375 96.09375 159.300781 92.257812 C 170.617188 88.417969 186.796875 84.484375 200.175781 84.296875 C 213.179688 84.109375 220.566406 84.675781 234.035156 88.042969 C 247.5 91.410156 258.257812 95.90625 267.519531 99.367188 C 276.785156 102.828125 292.398438 111.910156 292.398438 111.910156 C 292.398438 111.910156 306.144531 122.679688 310.734375 126.046875 C 315.320312 129.414062 325.792969 144.769531 328.222656 150.292969 C 330.652344 155.820312 337.578125 172.203125 338.417969 175.757812 C 339.257812 179.3125 346.277344 200.476562 347.398438 212.546875 C 348.519531 224.621094 349.921875 236.605469 349.640625 236.792969 C 349.359375 236.980469 355.53125 239.699219 356.285156 245.96875 C 357.035156 252.242188 361.335938 264.972656 346.746094 269.09375 C 333.1875 273.496094 311.863281 279.390625 293.339844 281.824219 C 277.066406 283.511719 260.320312 284.070312 245.171875 281.261719 C 232.824219 279.296875 216.734375 274.894531 199.054688 266.378906 C 181.378906 257.859375 164.445312 246.535156 158.554688 241.847656 C 152.101562 235.859375 138.261719 224.4375 132.371094 216.949219 C 126.480469 209.460938 120.675781 201.316406 124.511719 195.421875 C 124.511719 195.421875 132.371094 185.6875 132.652344 172.859375 C 132.933594 160.507812 133.398438 155.640625 128.722656 147.210938 C 124.050781 138.789062 119.09375 134.289062 119.09375 134.289062 C 119.09375 134.289062 128.996094 118.9375 130.214844 107.515625 Z M 130.214844 107.515625 " fill-opacity="1" fill-rule="nonzero"/><path fill="#ebc122" d="M 79.863281 188.707031 L 85.722656 197.820312 C 85.722656 197.820312 96.386719 197.078125 101.933594 198.261719 C 107.476562 199.445312 124.503906 205.003906 124.503906 205.003906 C 124.503906 205.003906 128.933594 213.183594 133.234375 217.988281 C 137.539062 222.789062 146.394531 231.839844 153.8125 237.894531 C 161.230469 243.945312 173.792969 252.664062 175.574219 253.558594 C 177.355469 254.445312 194.796875 265.121094 199.660156 266.988281 C 204.523438 268.859375 220.796875 276.214844 227.109375 277.617188 C 233.421875 279.023438 246.140625 281.410156 250.449219 282.203125 C 254.753906 282.996094 256.109375 282.8125 256.109375 282.8125 C 256.109375 282.8125 248.910156 284.078125 249.097656 290.253906 C 249.289062 296.433594 248.972656 303.550781 248.972656 303.550781 C 248.972656 303.550781 233.257812 304.800781 219.980469 302.679688 C 206.695312 300.5625 186.25 297.0625 182.070312 295.253906 C 181.628906 290.578125 180.445312 280.214844 178.703125 276.660156 C 176.957031 273.105469 175.464844 270.167969 175.464844 270.167969 C 175.464844 270.167969 164.925781 260.183594 152.140625 257.3125 C 140.417969 254.691406 129.382812 252.941406 132.996094 262.617188 C 133.3125 268.796875 132.558594 276.222656 132.558594 276.222656 C 132.558594 276.222656 123.265625 271.730469 114.222656 263.613281 C 105.808594 255.625 100.316406 249.824219 96.765625 243.582031 C 93.210938 237.34375 83.917969 220.867188 83.917969 220.867188 L 79.863281 217.125 C 79.863281 217.125 74.4375 212.070312 74.003906 204.769531 C 73.503906 198.386719 74.9375 191.582031 79.863281 188.707031 Z M 79.863281 188.707031 " fill-opacity="1" fill-rule="nonzero"/><path fill="#d68613" d="M 71.621094 171.824219 L 79.667969 188.441406 C 79.667969 188.441406 74.429688 194.0625 74.003906 197.335938 C 73.582031 200.609375 73.863281 205.757812 73.863281 205.757812 C 73.863281 205.757812 66.890625 202.851562 64.28125 196.488281 C 63.105469 192.421875 61.746094 183.019531 71.621094 171.824219 Z M 71.621094 171.824219 " fill-opacity="1" fill-rule="nonzero"/><path fill="#ebc122" d="M 294.742188 281.800781 C 294.742188 281.800781 297.597656 282.925781 298.648438 286.039062 C 299.699219 289.15625 300.097656 291.449219 300.097656 291.449219 C 300.097656 291.449219 309.316406 286.769531 311.015625 285.898438 C 312.726562 285.035156 322.496094 277.75 322.570312 277.703125 C 322.640625 277.65625 323.132812 276.039062 323.132812 276.039062 C 323.132812 276.039062 302.921875 281.636719 294.742188 281.800781 Z M 294.742188 281.800781 " fill-opacity="1" fill-rule="nonzero"/><path fill="#ebc122" d="M 140.363281 253.953125 C 140.363281 253.953125 134.09375 258.027344 133.1875 262.027344 C 131.453125 260.246094 129.9375 258.121094 131.085938 256.316406 C 132.230469 254.507812 137.304688 253.363281 140.363281 253.953125 Z M 140.363281 253.953125 " fill-opacity="1" fill-rule="nonzero"/><path fill="#683c03" d="M 349.367188 233.984375 C 343.195312 236.132812 315.320312 243.347656 301.847656 245.96875 C 291.746094 246.441406 277.71875 248.449219 277.480469 237.726562 C 277.953125 227.523438 279.867188 210.398438 279.867188 210.398438 L 281.269531 188.519531 C 281.269531 188.519531 280.023438 181.777344 291.683594 181.09375 C 303.347656 180.414062 322.425781 177.539062 323.550781 177.351562 C 324.671875 177.164062 338.449219 174.730469 338.324219 174.539062 C 338.199219 174.351562 335.203125 166.300781 335.203125 166.300781 C 335.203125 166.300781 311.878906 174.289062 299.039062 174.414062 C 289.558594 174.605469 281.953125 174.039062 283.082031 167.429688 C 284.210938 160.820312 285.386719 150.890625 283.828125 147.085938 C 282.265625 143.277344 282.078125 135.414062 282.078125 135.414062 C 282.078125 135.414062 279.394531 129.980469 286.941406 127.484375 C 294.484375 124.988281 305.214844 121.308594 305.214844 121.308594 L 296.976562 115.003906 C 296.976562 115.003906 282.382812 123.550781 265.804688 120.371094 C 249.84375 117.070312 240.925781 114.636719 240.925781 114.636719 C 240.925781 114.636719 218.851562 108.082031 213.925781 105.207031 C 209 102.335938 203.351562 99.933594 200.640625 90.578125 C 198.207031 84.683594 198.207031 83.835938 197.925781 84.117188 C 197.824219 84.21875 194.632812 84.414062 190.019531 84.917969 C 190.5 85.414062 190.9375 85.96875 191.238281 86.589844 C 191.613281 87.367188 191.761719 88.160156 191.878906 89.007812 C 192.75 89.296875 193.503906 90.183594 193.410156 91.101562 C 193.402344 91.15625 193.425781 91.324219 193.410156 91.410156 C 193.433594 91.503906 193.457031 91.589844 193.488281 91.683594 C 193.503906 91.730469 193.621094 91.972656 193.597656 91.941406 C 193.613281 91.964844 193.621094 91.980469 193.628906 91.996094 C 193.691406 92.109375 193.753906 92.21875 193.824219 92.328125 C 193.832031 92.335938 193.839844 92.34375 193.839844 92.351562 C 193.910156 92.421875 193.996094 92.53125 194.011719 92.546875 C 194.359375 92.875 194.546875 93.285156 194.617188 93.714844 C 195.046875 93.90625 195.425781 94.226562 195.699219 94.621094 C 196.253906 95.429688 196.84375 96.21875 197.425781 97.011719 C 197.957031 97.75 198.570312 98.496094 198.976562 99.3125 C 199.425781 100.214844 199.660156 101.148438 199.941406 102.109375 C 200.277344 103.253906 200.546875 104.492188 200.066406 105.648438 C 199.988281 105.84375 199.886719 106.023438 199.777344 106.1875 C 199.699219 107.15625 199.316406 108.027344 199.007812 108.953125 C 198.671875 109.980469 198.59375 111.070312 198.230469 112.09375 C 197.832031 113.230469 197.210938 114.1875 196.367188 115.050781 C 196.042969 115.378906 195.707031 115.6875 195.386719 116 C 195.234375 116.140625 195.09375 116.285156 194.960938 116.433594 C 194.875 116.527344 194.789062 116.621094 194.710938 116.714844 C 194.679688 116.753906 194.65625 116.777344 194.640625 116.792969 C 194.609375 116.832031 194.570312 116.871094 194.539062 116.910156 C 194.382812 117.46875 193.996094 117.972656 193.527344 118.324219 C 194.058594 117.933594 193.558594 118.324219 193.433594 118.457031 C 193.371094 118.519531 193.316406 118.589844 193.253906 118.652344 C 193.09375 119.007812 192.765625 119.359375 192.570312 119.691406 C 192.167969 120.371094 191.824219 121.09375 191.425781 121.785156 C 190.375 123.621094 189.015625 125.261719 188.089844 127.1875 C 188.003906 127.367188 187.886719 127.515625 187.761719 127.648438 C 187.777344 127.882812 187.746094 128.121094 187.660156 128.339844 C 186.5625 131.179688 184.679688 134.023438 182.039062 135.648438 C 180.625 136.511719 178.875 136.933594 177.230469 136.738281 C 175.386719 136.519531 173.847656 135.789062 172.390625 134.652344 C 172 134.34375 171.800781 133.90625 171.761719 133.433594 C 171.519531 133.332031 171.285156 133.183594 171.082031 133.011719 C 170.773438 132.75 170.484375 132.476562 170.195312 132.203125 C 168.640625 131.449219 167.261719 130.386719 165.90625 129.335938 C 164.460938 128.222656 163.066406 127.09375 162.023438 125.585938 C 161.65625 125.339844 161.277344 125.097656 160.910156 124.855469 C 159.617188 124 158.4375 123.082031 157.550781 121.792969 C 157.386719 121.558594 157.292969 121.300781 157.253906 121.039062 C 157.222656 121.023438 157.199219 121.007812 157.167969 120.992188 C 155.898438 120.183594 154.707031 119.226562 153.648438 118.160156 C 152.582031 117.09375 151.710938 115.898438 150.847656 114.675781 C 150.832031 114.660156 150.824219 114.644531 150.816406 114.628906 C 150.800781 114.613281 150.785156 114.589844 150.761719 114.5625 C 150.652344 114.429688 150.542969 114.296875 150.421875 114.164062 C 150.210938 113.929688 150 113.691406 149.773438 113.464844 C 149.308594 112.996094 148.824219 112.546875 148.335938 112.101562 C 147.355469 111.210938 146.351562 110.339844 145.453125 109.359375 C 145.167969 109.054688 144.980469 108.691406 144.894531 108.324219 C 144.273438 108.199219 143.703125 107.820312 143.382812 107.28125 C 143.011719 106.660156 142.621094 106.046875 142.195312 105.46875 C 142.09375 105.324219 141.992188 105.191406 141.898438 105.058594 C 141.875 105.027344 141.84375 104.988281 141.8125 104.957031 C 141.601562 104.691406 141.382812 104.429688 141.152344 104.171875 C 140.324219 103.214844 139.414062 102.328125 138.433594 101.535156 C 136.355469 102.78125 134.933594 103.9375 134.425781 104.949219 C 134.425781 104.949219 143.960938 115.53125 147.9375 118.566406 C 151.914062 121.605469 158.226562 127.648438 158.226562 127.648438 L 166.5 134.34375 C 166.5 134.34375 176.085938 142.910156 176.320312 144.785156 C 176.554688 146.660156 177.582031 149.367188 177.066406 151.148438 C 176.546875 152.933594 172.203125 163.929688 172.203125 163.929688 L 163.597656 185.507812 C 163.597656 185.507812 160.933594 195.664062 154.996094 192.34375 C 154.15625 195.570312 151.757812 197.148438 160.109375 205.640625 C 168.460938 214.125 187.113281 228.417969 191.722656 231.605469 C 196.335938 234.785156 207.1875 243.089844 222.246094 247.957031 C 237.304688 252.820312 251.804688 255.066406 251.804688 255.066406 C 251.804688 255.066406 275.84375 258.71875 297.730469 255.347656 C 319.621094 251.980469 341.320312 246.078125 346.277344 244.023438 C 349.554688 241.753906 351.046875 238.765625 349.367188 233.984375 Z M 274.242188 189.847656 C 274.25 193.089844 274.523438 196.347656 273.96875 199.550781 C 274.085938 199.878906 274.148438 200.214844 274.148438 200.5625 C 274.148438 202.703125 274.25 204.871094 273.984375 206.996094 C 273.867188 207.902344 273.75 208.796875 273.742188 209.707031 C 273.734375 210.78125 273.664062 211.847656 273.230469 212.828125 C 273.300781 213.089844 273.347656 213.355469 273.347656 213.628906 C 273.386719 215.71875 273.355469 217.804688 273.230469 219.894531 C 273.160156 221.101562 272.972656 222.3125 272.628906 223.472656 C 272.59375 223.582031 272.5625 223.683594 272.523438 223.796875 C 272.691406 224.179688 272.769531 224.589844 272.738281 225.003906 C 272.628906 226.425781 272.195312 227.757812 271.953125 229.148438 C 271.859375 230.269531 271.890625 231.402344 271.867188 232.53125 C 271.835938 233.796875 271.6875 235.050781 271.464844 236.292969 C 271.292969 237.273438 271.050781 238.246094 270.714844 239.1875 C 270.351562 240.199219 269.9375 241.285156 269.308594 242.179688 C 268.007812 244.046875 266.195312 245.152344 264 245.703125 C 261.539062 246.316406 259.011719 246.761719 256.488281 246.347656 C 254.550781 246.03125 252.621094 245.46875 250.777344 244.777344 C 250.179688 244.980469 249.53125 245.011719 248.925781 244.832031 C 247.75 244.460938 246.613281 244 245.445312 243.605469 C 244.277344 243.214844 243.082031 242.957031 241.882812 242.695312 C 239.78125 242.242188 237.664062 241.816406 235.640625 241.085938 C 234.652344 240.734375 233.671875 240.347656 232.691406 239.957031 C 232.222656 240.050781 231.742188 240.027344 231.296875 239.871094 C 229.484375 239.234375 227.679688 238.550781 225.894531 237.835938 C 223.351562 236.816406 220.835938 235.734375 218.347656 234.589844 C 217.632812 234.683594 216.890625 234.566406 216.261719 234.203125 C 213.476562 232.617188 210.6875 231.039062 207.753906 229.761719 C 205.527344 228.851562 203.257812 228.097656 201.132812 226.925781 C 199.101562 225.804688 197.179688 224.492188 195.21875 223.253906 C 194.703125 222.925781 194.304688 222.484375 194.035156 221.996094 C 192.648438 221.363281 191.332031 220.625 190.035156 219.792969 C 188.671875 218.914062 187.347656 217.980469 185.949219 217.148438 C 184.664062 216.378906 183.347656 215.648438 182.117188 214.792969 C 180.734375 213.835938 179.566406 212.804688 178.515625 211.550781 C 178.101562 211.496094 177.699219 211.363281 177.355469 211.132812 C 176.25 210.414062 175.003906 209.917969 173.945312 209.117188 C 172.59375 208.105469 171.496094 206.816406 170.242188 205.695312 C 169.535156 205.058594 168.878906 204.40625 168.359375 203.589844 C 167.742188 202.625 167.496094 201.550781 167.371094 200.429688 C 167.207031 198.929688 167.550781 197.382812 167.929688 195.929688 C 168.085938 195.339844 168.390625 194.847656 168.808594 194.46875 C 168.972656 193.410156 169.183594 192.375 169.519531 191.347656 C 169.84375 190.371094 170.226562 189.421875 170.625 188.480469 C 170.902344 187.765625 171.035156 187.019531 171.214844 186.285156 C 171.425781 185.414062 171.738281 184.539062 172.179688 183.757812 C 172.5 183.183594 172.910156 182.695312 173.339844 182.226562 C 173.246094 181.730469 173.246094 181.21875 173.402344 180.8125 C 173.683594 180.066406 173.984375 179.328125 174.273438 178.589844 C 174.523438 177.964844 174.804688 177.34375 174.957031 176.691406 C 174.996094 176.164062 174.996094 175.640625 175.050781 175.121094 C 175.167969 174.007812 175.410156 173.074219 175.945312 172.078125 C 176.226562 171.542969 176.59375 171.0625 176.917969 170.5625 C 177.207031 170.097656 177.449219 169.613281 177.667969 169.109375 C 177.863281 168.613281 178.0625 168.113281 178.257812 167.617188 C 178.367188 167.335938 178.492188 167.078125 178.632812 166.839844 C 178.648438 166.652344 178.679688 166.480469 178.726562 166.308594 C 178.957031 165.492188 179.457031 164.949219 180.101562 164.460938 C 180.414062 164.195312 180.710938 163.914062 180.988281 163.605469 C 181.730469 162.476562 182.109375 161.179688 183.121094 160.191406 C 184.289062 159.046875 185.808594 158.417969 187.144531 157.507812 C 187.574219 157.148438 187.996094 156.785156 188.484375 156.503906 C 189.121094 156.132812 189.839844 155.898438 190.585938 155.882812 C 190.757812 155.875 190.914062 155.882812 191.070312 155.898438 C 191.503906 155.6875 191.980469 155.5625 192.460938 155.570312 C 197.449219 155.59375 202.632812 157.125 206.617188 160.175781 C 206.742188 160.269531 206.859375 160.371094 206.976562 160.46875 C 207.917969 160.386719 208.914062 160.71875 209.605469 161.378906 C 209.660156 161.425781 209.714844 161.480469 209.769531 161.527344 C 210.066406 161.730469 210.386719 161.902344 210.710938 162.058594 C 211.621094 162.398438 212.5625 162.632812 213.5 162.867188 C 214.78125 163.199219 215.996094 163.597656 217.210938 164.132812 C 219.414062 165.105469 221.367188 166.519531 223.554688 167.515625 C 225.0625 168.121094 226.605469 168.605469 228.136719 169.140625 C 229.078125 169.46875 229.988281 169.878906 230.847656 170.386719 C 231.625 170.214844 232.363281 170.371094 233.078125 170.703125 C 234.253906 171.109375 235.5 171.238281 236.714844 171.464844 C 238.152344 171.730469 239.59375 172.035156 241.019531 172.34375 C 243.804688 172.941406 246.449219 174 249.273438 174.445312 C 249.898438 174.515625 250.519531 174.554688 251.144531 174.574219 C 252.226562 174.597656 253.136719 175.105469 253.710938 175.898438 C 253.789062 175.890625 253.875 175.882812 253.953125 175.882812 C 257.851562 175.84375 261.65625 177.042969 265.464844 177.671875 C 266.335938 177.8125 267.175781 178.019531 267.992188 178.355469 C 268.839844 178.707031 269.710938 179.039062 270.460938 179.582031 C 271.332031 180.207031 272.125 180.9375 272.636719 181.894531 C 272.972656 182.53125 273.152344 183.199219 273.402344 183.867188 C 273.71875 184.574219 274.054688 185.285156 274.234375 186.039062 C 274.46875 187.011719 274.484375 188.121094 274.117188 189.054688 C 274.203125 189.304688 274.242188 189.574219 274.242188 189.847656 Z M 275.464844 147.539062 C 275.371094 148.636719 275.105469 149.707031 274.925781 150.789062 C 274.753906 152.742188 275.003906 154.753906 275.066406 156.699219 C 275.191406 160.578125 274.546875 166.425781 271.011719 168.636719 C 270.738281 169.070312 270.375 169.453125 269.945312 169.738281 C 268.988281 170.371094 267.78125 170.507812 266.667969 170.601562 C 265.929688 170.65625 265.191406 170.703125 264.453125 170.75 C 262.179688 170.882812 259.914062 170.277344 257.695312 169.839844 C 255.632812 169.4375 253.601562 168.882812 251.570312 168.378906 C 250.550781 168.128906 249.5 167.941406 248.496094 167.617188 C 247.523438 167.304688 246.589844 166.878906 245.625 166.558594 C 245.148438 166.402344 244.730469 166.15625 244.386719 165.859375 C 242.652344 165.773438 240.941406 165.355469 239.265625 164.949219 C 237.632812 164.546875 236.058594 164.140625 234.496094 163.496094 C 231.109375 162.109375 227.703125 160.742188 224.292969 159.398438 C 223.800781 159.203125 223.375 158.976562 223.015625 158.660156 C 222.929688 158.667969 222.851562 158.667969 222.765625 158.667969 C 221.476562 158.644531 220.230469 158.324219 218.984375 158.066406 C 217.988281 157.859375 216.984375 157.6875 215.996094 157.460938 C 214.199219 157.042969 212.472656 156.300781 210.75 155.664062 C 209.015625 155.019531 207.265625 154.53125 205.480469 154.078125 C 202.019531 153.199219 198.695312 151.714844 195.792969 149.628906 C 195.449219 149.375 195.148438 149.109375 194.90625 148.8125 C 193.855469 148.160156 192.84375 147.523438 192.152344 146.425781 C 191.347656 145.152344 191.148438 143.269531 191.039062 141.800781 C 190.84375 139.109375 191.933594 136.441406 193.777344 134.5 C 193.832031 134.101562 193.964844 133.714844 194.167969 133.371094 C 194.703125 132.492188 195.226562 131.605469 195.652344 130.664062 C 195.980469 129.863281 196.335938 129.0625 196.84375 128.355469 C 197.210938 127.84375 197.597656 127.328125 198.058594 126.886719 C 198.269531 126.683594 198.484375 126.488281 198.679688 126.269531 C 199.289062 125.355469 199.722656 124.328125 200.269531 123.386719 C 200.484375 123.019531 200.6875 122.65625 200.898438 122.289062 C 200.890625 122.25 200.875 122.21875 200.867188 122.179688 C 200.664062 121.441406 200.734375 120.339844 201.1875 119.699219 C 201.855469 118.765625 202.640625 117.964844 203.550781 117.375 C 203.550781 117.335938 203.542969 117.289062 203.542969 117.25 C 203.480469 115.867188 204.492188 114.652344 205.746094 114.203125 C 206.183594 113.550781 206.84375 113.035156 207.597656 112.78125 C 209.03125 112.304688 210.65625 112.042969 212.167969 112.15625 C 213.855469 112.28125 215.414062 112.828125 217.015625 113.339844 C 219.957031 114.28125 222.875 115.308594 225.765625 116.386719 C 226.332031 116.589844 226.8125 116.894531 227.1875 117.28125 C 227.257812 117.304688 227.328125 117.328125 227.398438 117.351562 L 227.28125 117.304688 C 228.113281 117.648438 228.992188 117.78125 229.871094 117.957031 C 230.785156 118.136719 231.648438 118.457031 232.527344 118.757812 C 234.347656 119.375 236.183594 119.839844 238.066406 120.214844 C 239.929688 120.585938 241.804688 120.90625 243.664062 121.339844 C 245.632812 121.792969 247.515625 122.421875 249.367188 123.222656 C 250.527344 123.355469 251.6875 123.300781 252.847656 123.503906 C 253.664062 123.644531 254.441406 123.914062 255.207031 124.21875 C 255.960938 124.515625 256.714844 124.839844 257.492188 125.050781 C 258.28125 125.269531 259.089844 125.414062 259.898438 125.53125 C 261.5 125.734375 263.105469 125.882812 264.699219 126.148438 C 266.179688 126.402344 267.648438 126.738281 269.121094 127.0625 C 269.984375 127.25 270.628906 127.8125 271.019531 128.527344 C 271.402344 128.683594 271.757812 128.914062 271.992188 129.195312 C 272.941406 130.355469 273.671875 131.574219 274.101562 133.027344 C 274.320312 133.75 274.445312 134.546875 274.429688 135.292969 C 274.421875 135.742188 274.367188 136.140625 274.273438 136.527344 C 274.289062 136.566406 274.296875 136.613281 274.3125 136.652344 C 274.4375 137.101562 274.445312 137.539062 274.375 137.972656 C 274.632812 138.449219 274.816406 139.007812 274.753906 139.476562 C 274.59375 140.75 274.460938 142.027344 274.375 143.308594 C 274.421875 143.726562 274.398438 144.125 274.3125 144.5 C 274.304688 144.691406 274.296875 144.871094 274.296875 145.058594 C 274.375 145.121094 274.445312 145.183594 274.515625 145.253906 C 275.050781 145.796875 275.527344 146.753906 275.464844 147.539062 Z M 275.464844 147.539062 " fill-opacity="1" fill-rule="nonzero"/><path fill="#d8fc81" d="M 67.425781 288.558594 C 67.425781 288.558594 71.417969 282.226562 77.683594 283.628906 C 79.738281 284.941406 80.804688 290.4375 80.082031 294.832031 C 81.300781 294.515625 81.300781 294.613281 81.300781 294.613281 C 81.300781 294.613281 85.542969 285.84375 90.78125 286.746094 C 93.148438 287.554688 94.175781 287.902344 94.992188 292.148438 C 95.800781 296.394531 96.554688 299.667969 96.554688 299.667969 C 96.554688 299.667969 99.550781 288.277344 106.65625 288.683594 C 109.957031 289.398438 112.363281 290.59375 112.542969 295.859375 C 112.722656 301.125 113.476562 308.875 113.476562 308.875 C 113.476562 308.875 101.691406 311.402344 83.488281 306.972656 C 74.507812 304.351562 70.890625 303.542969 68.273438 300.984375 C 66.398438 298.675781 64.335938 294.558594 67.425781 288.558594 Z M 67.425781 288.558594 " fill-opacity="1" fill-rule="nonzero"/><path fill="#d8fc81" d="M 122.410156 321.699219 C 122.410156 321.699219 124.324219 313.457031 132.136719 315.476562 C 134.144531 316.171875 135.640625 322.492188 135.734375 326.425781 C 135.828125 330.359375 136.015625 329.375 136.015625 329.375 C 136.015625 329.375 139.382812 315.992188 147.617188 318.425781 C 149.8125 319.171875 152.242188 326.527344 152.054688 330.96875 C 153.222656 329.421875 153.222656 329.421875 153.222656 329.421875 C 153.222656 329.421875 155.183594 319.785156 162.675781 320.484375 C 164.3125 320.4375 166.648438 324.652344 166.792969 328.679688 C 166.933594 332.703125 167.074219 339.351562 167.074219 339.351562 C 167.074219 339.351562 154.070312 340.285156 137.144531 336.449219 C 128.308594 333.875 122.558594 332.003906 121.757812 327.039062 C 121.796875 323.105469 122.410156 321.699219 122.410156 321.699219 Z M 122.410156 321.699219 " fill-opacity="1" fill-rule="nonzero"/><path fill="#d8fc81" d="M 195.738281 325.539062 C 195.738281 325.539062 197.140625 317.070312 205.652344 316.972656 C 207.335938 318.285156 208.554688 323.953125 208.554688 327.648438 C 208.554688 331.347656 208.554688 331.347656 208.554688 331.347656 C 208.554688 331.347656 211.824219 319.453125 218.558594 320.8125 C 220.199219 321.09375 222.066406 325.679688 222.066406 331.15625 C 223.375 329.101562 223.46875 328.253906 223.46875 328.253906 C 223.46875 328.253906 226.042969 319.738281 230.90625 322.726562 C 232.683594 323.992188 233.664062 329.140625 233.710938 329.28125 C 233.757812 329.421875 234.457031 339.109375 234.457031 339.109375 C 234.457031 339.109375 223.421875 340.46875 211.636719 338.128906 C 204.246094 336.496094 193.863281 332.234375 195.738281 325.539062 Z M 195.738281 325.539062 " fill-opacity="1" fill-rule="nonzero"/><g clip-path="url(#92369c05a9)"><path fill="#d8fc81" d="M 244.285156 334.289062 C 244.285156 334.289062 246.109375 327.925781 249.335938 325.960938 C 252.558594 324 255.414062 323.246094 256.257812 326.199219 C 257.097656 329.148438 257.804688 336.449219 257.804688 336.449219 C 257.804688 336.449219 263.089844 322.40625 269.121094 325.867188 C 271.269531 328.160156 273.65625 335.742188 273.65625 335.742188 C 273.65625 335.742188 273.9375 321.183594 282.871094 325.207031 C 286.515625 328.347656 290.964844 341.964844 290.964844 341.964844 C 290.964844 341.964844 281.890625 345.617188 269.027344 344.917969 C 256.164062 344.21875 249.105469 341.410156 249.105469 341.410156 C 249.105469 341.410156 243.066406 338.316406 244.285156 334.289062 Z M 244.285156 334.289062 " fill-opacity="1" fill-rule="nonzero"/></g><path fill="#70a626" d="M 114.035156 141.03125 C 114.035156 141.03125 121.140625 178.660156 101.125 185.96875 C 85.972656 191.402344 71.292969 171.039062 71.292969 171.039062 C 71.292969 171.039062 83.078125 195.238281 85.699219 197.484375 C 93.839844 198.050781 111.703125 197.765625 124.144531 205.539062 C 123.398438 201.046875 123.398438 198.050781 125.265625 194.957031 C 127.132812 191.863281 131.90625 177.640625 132.839844 174.546875 C 133.773438 171.457031 133.492188 160.222656 131.625 154.800781 C 129.757812 149.375 125.640625 141.503906 125.640625 141.503906 L 119.28125 134.203125 Z M 114.035156 141.03125 " fill-opacity="1" fill-rule="nonzero"/><path fill="#70a626" d="M 80.828125 156.847656 C 80.828125 156.847656 108.324219 150.671875 119.085938 133.722656 C 122.175781 137.328125 126.097656 141.449219 125.914062 142.382812 C 125.734375 143.316406 120.863281 148.605469 120.863281 148.605469 C 120.863281 148.605469 91.871094 161.347656 80.828125 156.847656 Z M 80.828125 156.847656 " fill-opacity="1" fill-rule="nonzero"/><path fill="#70a626" d="M 92.898438 287.164062 C 92.898438 287.164062 101.3125 258.238281 99.070312 246.863281 C 100.898438 249.816406 114.597656 265.914062 124.792969 271.996094 C 126.816406 273.152344 126.816406 273.152344 126.816406 273.152344 L 125.914062 296.246094 C 125.914062 296.246094 126.941406 305.167969 121.023438 306.917969 C 115.53125 308.851562 113.351562 309.289062 113.351562 309.289062 C 113.351562 309.289062 114.789062 294.933594 109.046875 289.320312 C 106.992188 288.136719 103.125 287.390625 100.441406 292.195312 C 97.761719 296.996094 96.386719 300.183594 96.386719 300.183594 C 96.386719 300.183594 96.578125 289.871094 92.898438 287.164062 Z M 92.898438 287.164062 " fill-opacity="1" fill-rule="nonzero"/><path fill="#70a626" d="M 158 321.140625 C 158 321.140625 166.046875 268.347656 145.277344 255.429688 C 156.125 258.425781 166.730469 263.230469 169.347656 265.285156 C 171.96875 267.34375 176.085938 271.402344 176.085938 271.402344 C 176.085938 271.402344 180.453125 281.386719 181.324219 288.003906 C 182.195312 294.621094 182.132812 297.492188 182.132812 297.492188 C 182.132812 297.492188 182.875 321.894531 179.417969 330.695312 C 176.703125 336.589844 175.769531 339.023438 166.980469 339.117188 C 166.980469 328.882812 167.199219 322.734375 162.769531 320.367188 C 160.585938 320.050781 158 321.140625 158 321.140625 Z M 158 321.140625 " fill-opacity="1" fill-rule="nonzero"/><path fill="#70a626" d="M 220.378906 323.667969 L 223.554688 303.261719 C 223.554688 303.261719 244.292969 304.351562 248.527344 303.542969 C 248.589844 306.972656 247.46875 318.394531 247.40625 320.207031 C 247.34375 322.023438 244.472656 332.4375 244.472656 332.4375 C 244.472656 332.4375 240.792969 338.992188 234.371094 339.484375 C 234.246094 333.183594 232.746094 324.507812 231.25 322.570312 C 229.8125 321.386719 226.449219 321.132812 224.511719 325.8125 C 222.574219 330.492188 222.144531 331.675781 222.144531 331.675781 Z M 220.378906 323.667969 " fill-opacity="1" fill-rule="nonzero"/><path fill="#70a626" d="M 283.84375 326.894531 C 283.84375 326.894531 276.832031 287.71875 263.921875 282.804688 C 277.386719 283.371094 292.617188 282.84375 293.683594 282.320312 C 294.742188 281.792969 298.171875 282.132812 299.792969 290.5625 C 301.417969 298.984375 303.785156 314.527344 303.785156 314.527344 L 305.777344 327.570312 C 305.777344 327.570312 306.40625 334.746094 299.667969 338.121094 C 292.929688 341.496094 290.8125 342.117188 290.8125 342.117188 C 290.8125 342.117188 286.664062 327.855469 283.84375 326.894531 Z M 283.84375 326.894531 " fill-opacity="1" fill-rule="nonzero"/><path fill="#70a626" d="M 325.605469 275.367188 C 326.253906 275.742188 354.597656 287.910156 364.792969 289.21875 C 366.007812 291.558594 363.484375 293.433594 357.59375 294.179688 C 351.703125 294.925781 339.445312 295.773438 324.765625 291.933594 C 312.421875 287.71875 310.734375 286.222656 310.734375 286.222656 C 310.734375 286.222656 323.40625 278.875 322.796875 276.253906 C 323.972656 276.253906 325.605469 275.367188 325.605469 275.367188 Z M 325.605469 275.367188 " fill-opacity="1" fill-rule="nonzero"/><path fill="#d0fc63" d="M 128.949219 87.058594 C 128.949219 87.058594 119.132812 60.523438 101.597656 52.515625 C 84.058594 44.507812 82.515625 45.5 73.957031 46.761719 C 65.402344 48.027344 39.300781 44.234375 33.128906 48.308594 C 26.957031 52.382812 24.855469 54.203125 23.726562 56.730469 C 22.605469 59.257812 15.078125 71.195312 15.453125 73.128906 C 15.828125 75.058594 15.828125 75.058594 15.765625 74.816406 C 15.703125 74.5625 13.210938 71.261719 14.332031 68.574219 C 15.453125 65.890625 21.9375 53.035156 22.441406 52.351562 C 22.941406 51.667969 24.558594 43.738281 35.285156 43.113281 C 46.015625 42.484375 52.871094 42.796875 63.90625 40.992188 C 74.9375 39.179688 82.359375 38.121094 85.542969 39.683594 C 88.726562 41.242188 101.070312 45.300781 103.816406 47.042969 C 106.558594 48.796875 115.910156 53.976562 120.152344 62.710938 C 124.394531 71.449219 127.078125 78.253906 127.078125 78.253906 Z M 128.949219 87.058594 " fill-opacity="1" fill-rule="nonzero"/><path fill="#d0fc63" d="M 73.816406 283.089844 C 73.816406 283.089844 89.535156 240.121094 87.847656 228.75 C 86.019531 224.816406 86.019531 225.523438 86.019531 225.523438 C 86.019531 225.523438 77.433594 260.546875 75.996094 265.167969 C 74.5625 269.785156 69.449219 285.515625 69.449219 285.515625 Z M 73.816406 283.089844 " fill-opacity="1" fill-rule="nonzero"/><path fill="#d0fc63" d="M 130.496094 314.589844 C 130.496094 314.589844 138.355469 277.328125 134.144531 263.152344 C 132.039062 266.519531 132.675781 269.40625 132.675781 269.40625 C 132.675781 269.40625 132.175781 287.132812 129.554688 296.925781 C 126.933594 306.722656 123.820312 318.835938 123.820312 318.835938 C 123.820312 318.835938 127.132812 314.085938 130.496094 314.589844 Z M 130.496094 314.589844 " fill-opacity="1" fill-rule="nonzero"/><path fill="#d0fc63" d="M 201.644531 317.023438 C 201.894531 317.085938 206.074219 300.734375 206.074219 300.734375 L 201.402344 299.925781 L 197.15625 321.140625 Z M 201.644531 317.023438 " fill-opacity="1" fill-rule="nonzero"/><path fill="#ba9315" d="M 181.566406 285.664062 C 181.566406 285.664062 185.121094 282.757812 183.527344 280.515625 C 181.933594 278.269531 180.90625 273.914062 177.636719 272.460938 C 177.917969 274.847656 179.042969 278.542969 179.042969 278.542969 Z M 181.566406 285.664062 " fill-opacity="1" fill-rule="nonzero"/><path fill="#ba9315" d="M 133.117188 263.105469 C 133.117188 263.105469 135.671875 255.804688 138.480469 255.679688 C 135.050781 255.238281 129.625 255.609375 133.117188 263.105469 Z M 133.117188 263.105469 " fill-opacity="1" fill-rule="nonzero"/><path fill="#ba9315" d="M 123.484375 204.597656 C 123.484375 204.597656 139.476562 239.980469 128.816406 252.335938 C 119 263.285156 118.339844 261.511719 121.242188 264.691406 C 124.144531 267.871094 132.839844 272.367188 132.839844 272.367188 L 133.492188 261.230469 C 133.492188 261.230469 134.863281 254.925781 140.660156 255.492188 C 146.457031 256.054688 158.429688 258.667969 162.484375 261.230469 C 166.539062 263.789062 173.214844 268.277344 173.214844 268.277344 C 173.214844 268.277344 181.324219 276.394531 181.011719 285.5625 C 181.386719 294.359375 181.574219 290.332031 181.574219 290.332031 C 181.574219 290.332031 210.472656 301.332031 232.503906 303.582031 C 242.886719 303.582031 248.917969 303.914062 248.917969 303.914062 L 249.042969 288.121094 C 249.042969 288.121094 252.164062 283.003906 256.464844 282.75 C 244.988281 281.378906 233.515625 279.753906 224.222656 276.886719 C 212.75 272.335938 195.972656 265.96875 185.558594 259.730469 C 175.144531 253.425781 157.003906 242.320312 151.199219 235.453125 C 144.402344 229.460938 130.066406 216.101562 126.261719 208.363281 C 123.265625 203.441406 123.484375 204.597656 123.484375 204.597656 Z M 123.484375 204.597656 " fill-opacity="1" fill-rule="nonzero"/><path fill="#ba9315" d="M 294.117188 281.730469 C 294.117188 281.730469 298.011719 283.074219 299.070312 287.5 C 300.132812 291.933594 300.003906 291.308594 300.003906 291.308594 C 300.003906 291.308594 309.636719 287.25 312.253906 285.625 C 314.875 284 322.199219 278.757812 322.417969 277.949219 C 322.640625 277.140625 322.355469 276.199219 322.230469 276.199219 C 322.105469 276.199219 312.9375 279.289062 308.011719 279.816406 C 303.09375 280.359375 294.117188 281.730469 294.117188 281.730469 Z M 294.117188 281.730469 " fill-opacity="1" fill-rule="nonzero"/><path fill="#aa650b" d="M 182.96875 214.707031 C 182.96875 214.707031 255.460938 236.519531 263.875 177.351562 C 269.488281 178.003906 274.445312 179.226562 274.816406 190.828125 C 275.183594 202.429688 272.941406 221.722656 272.941406 221.722656 L 271.441406 236.699219 C 271.441406 236.699219 271.347656 248.371094 258.070312 245.9375 C 244.785156 243.503906 229.949219 239.824219 217.476562 234.894531 C 207.445312 230.269531 187.738281 219.792969 182.96875 214.707031 Z M 182.96875 214.707031 " fill-opacity="1" fill-rule="nonzero"/><path fill="#aa650b" d="M 130.082031 112.617188 L 136.957031 108.828125 L 155.324219 125.050781 L 167.542969 135.414062 C 167.542969 135.414062 180.140625 143.277344 175.527344 154.070312 C 171.472656 164.808594 167.355469 176.910156 167.355469 176.910156 L 161.929688 188.582031 C 161.929688 188.582031 158.933594 195.390625 155.191406 192.011719 C 158 181.652344 159.058594 171.730469 158.429688 166.238281 C 157.804688 160.742188 157.867188 152.445312 155.066406 144.582031 C 152.257812 136.714844 148.707031 129.605469 142.972656 123.488281 C 137.242188 117.375 131.9375 114.878906 131.75 114.878906 C 131.5625 114.878906 129.382812 114.25 129.320312 114.070312 C 129.25 113.882812 130.082031 112.617188 130.082031 112.617188 Z M 130.082031 112.617188 " fill-opacity="1" fill-rule="nonzero"/><path fill="#aa650b" d="M 148.878906 112.195312 C 148.878906 112.195312 184.515625 122.304688 197.980469 98.574219 C 200.082031 100.40625 200.835938 104.453125 199.589844 107.957031 C 198.34375 111.449219 195.15625 116.753906 191.046875 122.1875 C 188.179688 126.863281 187.433594 129.546875 187.433594 129.546875 C 187.433594 129.546875 182.570312 140.40625 174.902344 135.414062 C 168.351562 131.039062 165.859375 129.109375 159.003906 122.867188 C 152.148438 116.628906 148.296875 113.691406 148.878906 112.195312 Z M 148.878906 112.195312 " fill-opacity="1" fill-rule="nonzero"/><path fill="#aa650b" d="M 190.546875 140.984375 C 196.160156 144.777344 237.265625 160.222656 255.789062 157.554688 C 274.304688 154.886719 275.011719 150.253906 275.152344 148.144531 C 276.554688 152.5 275.105469 161.410156 275.105469 161.410156 C 275.105469 161.410156 274.109375 172.796875 261.640625 170.554688 C 249.601562 168.183594 229.773438 161.691406 229.773438 161.691406 L 212.191406 155.765625 C 212.191406 155.765625 200.277344 153.394531 195.292969 149.460938 C 190.296875 145.523438 190.546875 140.984375 190.546875 140.984375 Z M 190.546875 140.984375 " fill-opacity="1" fill-rule="nonzero"/><path fill="#aa650b" d="M 282.71875 140.421875 C 282.71875 140.421875 294.367188 159.941406 306.335938 164.714844 C 318.308594 169.484375 330.371094 168.175781 330.371094 168.175781 C 330.371094 168.175781 311.667969 174.445312 299.597656 174.351562 C 290.996094 174.351562 282.109375 175.382812 283.230469 167.242188 C 284.351562 159.101562 284.070312 150.671875 284.257812 150.105469 C 284.445312 149.539062 282.71875 140.421875 282.71875 140.421875 Z M 282.71875 140.421875 " fill-opacity="1" fill-rule="nonzero"/><path fill="#aa650b" d="M 203.738281 95.253906 C 203.566406 94.722656 217.675781 104.523438 241.710938 110.609375 C 265.75 116.691406 283.332031 118.285156 292.78125 116.878906 C 286.703125 119.785156 281.183594 123.246094 264.816406 119.972656 C 249.476562 117.164062 220.105469 108.082031 219.824219 108.082031 C 219.539062 108.082031 206.632812 104.148438 203.738281 95.253906 Z M 203.738281 95.253906 " fill-opacity="1" fill-rule="nonzero"/><path fill="#aa650b" d="M 279.960938 201.503906 C 280.335938 204.125 308.113281 232.117188 348.238281 225.375 C 350.308594 233.773438 349.546875 234.171875 349.453125 234.078125 C 349.359375 233.984375 329.808594 241.753906 312.128906 243.8125 C 295.761719 246.148438 282.015625 250.269531 277.058594 238.097656 C 278.839844 221.910156 279.960938 201.503906 279.960938 201.503906 Z M 279.960938 201.503906 " fill-opacity="1" fill-rule="nonzero"/><path fill="#aa650b" d="M 126.261719 208.371094 C 126.261719 208.371094 209.070312 276.488281 266.3125 275.082031 C 323.558594 273.675781 356.378906 250.089844 356.378906 250.089844 L 357.027344 256.363281 C 357.027344 256.363281 358.527344 266.09375 345.996094 269.375 C 332.992188 273.683594 301.472656 282.757812 283.417969 283.136719 C 265.363281 283.511719 241.042969 283.574219 224.214844 276.894531 C 207.375 270.40625 183.433594 259.917969 168.09375 248.589844 C 155.84375 239.699219 140.125 226.03125 131.898438 216.480469 C 127.507812 210.492188 126.261719 208.371094 126.261719 208.371094 Z M 126.261719 208.371094 " fill-opacity="1" fill-rule="nonzero"/><path fill="#aa650b" d="M 73.535156 202.625 C 73.660156 202.980469 66.242188 195.230469 68.765625 187.554688 C 71.292969 179.878906 72.695312 174.730469 72.695312 174.730469 L 79.800781 188.207031 C 79.800781 188.214844 71.199219 195.882812 73.535156 202.625 Z M 73.535156 202.625 " fill-opacity="1" fill-rule="nonzero"/><path fill="#aa650b" d="M 128.628906 117.070312 C 128.628906 117.070312 160.429688 150.953125 143.96875 184.46875 C 131.4375 210.308594 139.296875 220.421875 139.296875 220.421875 C 139.296875 220.421875 130.441406 213.691406 126.261719 208.371094 C 122.222656 202.765625 122.332031 197.886719 126.699219 191.457031 C 131.066406 185.027344 133.3125 171.980469 133.1875 171.171875 C 133.058594 170.363281 133.4375 159.4375 131.003906 152.765625 C 128.574219 146.085938 124.269531 138.042969 119.34375 133.984375 C 122.769531 128.742188 128.199219 116.699219 128.199219 116.699219 Z M 128.628906 117.070312 " fill-opacity="1" fill-rule="nonzero"/><path fill="#aa650b" d="M 142.140625 186.761719 C 142.140625 186.761719 136.808594 215.546875 158.414062 233.945312 C 145.648438 226.363281 133.164062 220.609375 133.445312 210.214844 C 133.726562 199.816406 142.140625 186.761719 142.140625 186.761719 Z M 142.140625 186.761719 " fill-opacity="1" fill-rule="nonzero"/><path fill="#000000" d="M 88.074219 81.621094 C 87.125 75.664062 82.484375 70.207031 76.523438 68.050781 C 71.480469 66.226562 66.359375 67.140625 62.460938 70.554688 C 59.628906 73.042969 58.242188 76.792969 58.554688 81.109375 C 58.972656 86.792969 62.3125 92.71875 66.664062 95.539062 C 69.097656 97.109375 72.304688 98.183594 75.550781 98.183594 C 78.34375 98.183594 81.164062 97.390625 83.550781 95.4375 C 87.273438 92.375 88.960938 87.21875 88.074219 81.621094 Z M 76.359375 87.484375 C 73.660156 87.484375 71.464844 85.292969 71.464844 82.585938 C 71.464844 79.886719 73.652344 77.6875 76.359375 77.6875 C 79.054688 77.6875 81.253906 79.878906 81.253906 82.585938 C 81.246094 85.292969 79.054688 87.484375 76.359375 87.484375 Z M 76.429688 92.171875 C 76.429688 93.363281 75.464844 94.320312 74.28125 94.320312 C 73.097656 94.320312 72.132812 93.355469 72.132812 92.171875 C 72.132812 90.976562 73.097656 90.019531 74.28125 90.019531 C 75.464844 90.019531 76.429688 90.976562 76.429688 92.171875 Z M 59.960938 81.007812 C 59.753906 78.269531 60.1875 74.421875 63.386719 71.613281 C 65.722656 69.5625 68.460938 68.519531 71.386719 68.519531 C 72.898438 68.519531 74.46875 68.804688 76.042969 69.375 C 81.542969 71.363281 85.824219 76.378906 86.6875 81.847656 C 86.75 82.242188 86.789062 82.625 86.828125 83.011719 C 85.636719 77.726562 80.921875 73.78125 75.285156 73.78125 C 68.742188 73.78125 63.433594 79.085938 63.433594 85.640625 C 63.433594 88.882812 64.734375 91.824219 66.84375 93.960938 C 63.128906 91.21875 60.328125 86.015625 59.960938 81.007812 Z M 59.960938 81.007812 " fill-opacity="1" fill-rule="nonzero"/><path fill="#000000" d="M 187.128906 295.78125 C 187.347656 295.78125 187.566406 295.679688 187.699219 295.484375 C 187.785156 295.367188 196.230469 283.550781 205.519531 278.78125 C 205.863281 278.597656 205.996094 278.175781 205.824219 277.828125 C 205.644531 277.484375 205.21875 277.34375 204.875 277.523438 C 195.277344 282.460938 186.898438 294.171875 186.554688 294.667969 C 186.328125 294.980469 186.40625 295.421875 186.71875 295.648438 C 186.84375 295.734375 186.984375 295.78125 187.128906 295.78125 Z M 187.128906 295.78125 " fill-opacity="1" fill-rule="nonzero"/><path fill="#000000" d="M 171.488281 208.214844 C 173.707031 209.636719 176.304688 211.417969 179.308594 213.480469 C 186.429688 218.371094 195.285156 224.460938 204.867188 229.644531 C 222.636719 239.25 244.292969 245.183594 257.890625 246.800781 C 258.132812 246.855469 259.261719 247.09375 260.800781 247.09375 C 262.769531 247.09375 265.402344 246.714844 267.710938 245.089844 C 270.367188 243.222656 271.953125 240.152344 272.4375 235.953125 C 275.875 205.898438 275.558594 192.359375 275.550781 192.28125 C 276.25 177.335938 266.28125 176.605469 266.226562 176.605469 C 234.824219 172.949219 219.132812 165.074219 208.742188 159.863281 C 204.011719 157.492188 200.269531 155.617188 196.523438 154.808594 C 184.140625 152.15625 177.714844 166.800781 177.636719 166.980469 C 177.582031 167.132812 172.007812 182.15625 167.324219 194.957031 C 167.277344 195.035156 163.519531 203.113281 171.488281 208.214844 Z M 168.609375 195.507812 C 173.324219 182.640625 178.890625 167.625 178.9375 167.507812 C 178.996094 167.382812 184.054688 155.898438 193.582031 155.898438 C 194.429688 155.898438 195.308594 155.992188 196.214844 156.179688 C 199.792969 156.949219 203.464844 158.789062 208.105469 161.117188 C 218.574219 166.371094 234.410156 174.3125 266.09375 178.003906 C 266.445312 178.027344 274.769531 178.707031 274.140625 192.265625 C 274.148438 192.398438 274.453125 205.851562 271.035156 235.789062 C 270.605469 239.566406 269.214844 242.296875 266.910156 243.929688 C 263.183594 246.550781 258.21875 245.429688 258.164062 245.421875 C 258.140625 245.414062 258.109375 245.414062 258.085938 245.40625 C 244.628906 243.8125 223.15625 237.933594 205.535156 228.402344 C 196.019531 223.253906 187.191406 217.195312 180.101562 212.320312 C 177.089844 210.246094 174.484375 208.457031 172.25 207.027344 C 165.339844 202.609375 168.445312 195.851562 168.609375 195.507812 Z M 168.609375 195.507812 " fill-opacity="1" fill-rule="nonzero"/><path fill="#000000" d="M 96.585938 152.179688 C 96.929688 152.003906 97.070312 151.582031 96.898438 151.238281 C 96.726562 150.890625 96.300781 150.75 95.957031 150.921875 C 87.707031 155.050781 81.15625 156.582031 81.09375 156.597656 C 80.71875 156.683594 80.484375 157.0625 80.570312 157.4375 C 80.640625 157.765625 80.929688 157.988281 81.253906 157.988281 C 81.308594 157.988281 81.355469 157.980469 81.410156 157.972656 C 81.675781 157.902344 88.167969 156.394531 96.585938 152.179688 Z M 96.585938 152.179688 " fill-opacity="1" fill-rule="nonzero"/><path fill="#000000" d="M 210.167969 156.179688 C 211.824219 156.628906 213.382812 157.042969 214.8125 157.5 C 218.566406 158.683594 222.371094 159.941406 226.050781 161.148438 C 230.882812 162.734375 235.875 164.375 240.816406 165.898438 C 242.230469 166.339844 243.679688 166.808594 245.15625 167.296875 C 251.042969 169.234375 257.617188 171.410156 263.929688 171.410156 C 264.871094 171.410156 265.8125 171.363281 266.746094 171.253906 C 267.640625 171.324219 273.757812 171.503906 275.566406 162.851562 C 276.65625 157.632812 276.257812 152.941406 275.859375 148.402344 C 275.582031 145.253906 275.300781 141.996094 275.542969 138.636719 C 276.195312 129.597656 272.070312 126.863281 265.679688 125.546875 C 265.679688 125.546875 265.671875 125.546875 265.671875 125.546875 C 265.332031 125.484375 231.476562 118.820312 216.160156 112.34375 C 216.089844 112.3125 209.3125 108.945312 204.789062 113.75 C 202.269531 116.417969 200.898438 119.414062 199.449219 122.585938 C 198.390625 124.894531 197.300781 127.28125 195.675781 129.777344 C 195.21875 130.484375 194.757812 131.164062 194.3125 131.832031 C 190.851562 136.964844 187.871094 141.402344 191.886719 146.855469 C 195.941406 152.359375 203.503906 154.390625 210.167969 156.179688 Z M 195.472656 132.609375 C 195.925781 131.933594 196.390625 131.246094 196.851562 130.539062 C 198.53125 127.957031 199.644531 125.523438 200.71875 123.167969 C 202.121094 120.105469 203.449219 117.210938 205.808594 114.714844 C 207.382812 113.042969 209.28125 112.546875 210.984375 112.546875 C 213.382812 112.546875 215.398438 113.535156 215.5625 113.621094 C 231.015625 120.152344 264.878906 126.824219 265.394531 126.925781 C 271.371094 128.160156 274.722656 130.460938 274.140625 138.542969 C 273.890625 142.011719 274.179688 145.324219 274.453125 148.527344 C 274.839844 152.964844 275.238281 157.546875 274.1875 162.570312 C 272.523438 170.53125 267.066406 169.886719 266.839844 169.855469 C 266.777344 169.847656 266.722656 169.847656 266.660156 169.855469 C 259.796875 170.648438 252.574219 168.269531 245.59375 165.96875 C 244.113281 165.484375 242.652344 165.003906 241.234375 164.566406 C 236.300781 163.042969 231.3125 161.410156 226.488281 159.824219 C 222.804688 158.613281 219 157.367188 215.242188 156.171875 C 213.785156 155.710938 212.207031 155.285156 210.539062 154.839844 C 204.089844 153.105469 196.78125 151.140625 193.015625 146.023438 C 189.582031 141.355469 192.050781 137.6875 195.472656 132.609375 Z M 195.472656 132.609375 " fill-opacity="1" fill-rule="nonzero"/><g clip-path="url(#08c2649a46)"><path fill="#000000" d="M 354.089844 279.871094 C 349.898438 277.234375 345.203125 274.273438 341.910156 271.292969 C 344.550781 270.40625 347.304688 269.375 349.929688 268.191406 C 352.160156 267.242188 350.394531 268.042969 351.984375 267.28125 C 353.421875 266.527344 355.710938 264.839844 356.855469 261.394531 C 357.734375 258.765625 358.070312 252.601562 356.957031 247.027344 C 356.785156 246.292969 356.824219 246.441406 356.683594 245.789062 C 356.253906 244.039062 355.671875 242.382812 354.902344 240.953125 C 353.726562 238.789062 352.238281 237.367188 350.457031 236.738281 C 350.441406 236.1875 350.402344 235.207031 350.324219 233.84375 C 350.324219 233.820312 350.324219 233.789062 350.316406 233.765625 C 350.019531 228.726562 349.15625 218.558594 346.730469 205.601562 C 346.410156 204.0625 346.621094 205.082031 346.347656 203.613281 C 344.183594 192.539062 340.882812 179.597656 335.847656 166.140625 C 335.839844 166.132812 335.847656 166.117188 335.839844 166.109375 C 335.839844 166.101562 335.832031 166.101562 335.832031 166.09375 C 334.347656 162.140625 332.726562 158.136719 330.929688 154.125 C 325.28125 141.503906 316.640625 130.144531 305.847656 120.90625 C 305.777344 120.804688 305.691406 120.726562 305.582031 120.671875 C 303.085938 118.550781 300.492188 116.542969 297.777344 114.660156 C 297.746094 114.628906 297.707031 114.605469 297.667969 114.582031 C 294.53125 112.40625 291.261719 110.386719 287.855469 108.566406 C 265.703125 96.683594 241.796875 88.066406 222.277344 84.917969 C 207.660156 82.5625 191.613281 83.316406 176.3125 86.628906 C 174.851562 86.957031 177.675781 86.339844 174.851562 86.957031 C 161.664062 89.964844 149.097656 94.878906 138.558594 101.355469 C 138.535156 101.371094 138.503906 101.378906 138.480469 101.402344 C 138.480469 101.402344 138.472656 101.410156 138.472656 101.410156 C 136 102.933594 133.640625 104.539062 131.414062 106.226562 C 133.382812 88.84375 123.320312 60.402344 111.753906 51.503906 C 99.605469 42.148438 83.519531 37.5 77.777344 38.402344 C 71.433594 39.40625 50.179688 42.3125 41.441406 42.3125 C 32.480469 42.3125 30.410156 42.5625 26.839844 45.484375 C 23.351562 48.363281 12.984375 66.855469 13.648438 71.171875 C 13.851562 72.476562 15.039062 75.429688 17.195312 79.078125 C 15.601562 79.941406 10.082031 83.582031 8.824219 92.828125 C 7.085938 105.648438 24.699219 130.238281 41.617188 143.667969 C 45.152344 146.472656 48.964844 148.765625 52.65625 150.976562 C 59.285156 154.949219 65.535156 158.699219 67.808594 164.382812 C 68.640625 166.464844 69.582031 168.8125 70.664062 171.363281 C 69.605469 172.742188 65.675781 178.105469 63.667969 184.101562 C 63.128906 185.734375 63.550781 184.558594 63.074219 186.140625 C 62.460938 188.597656 62.25 191.09375 62.757812 193.410156 C 64.820312 202.917969 72.828125 206.09375 73.167969 206.230469 C 73.253906 206.261719 73.332031 206.277344 73.417969 206.277344 C 73.449219 206.277344 73.480469 206.269531 73.511719 206.261719 C 74.984375 212.84375 79.101562 217.242188 79.316406 217.460938 C 79.363281 217.507812 79.417969 217.554688 79.472656 217.585938 C 79.503906 217.601562 82.828125 219.574219 85.101562 224.3125 L 85.386719 224.910156 C 85.433594 225.003906 85.480469 225.097656 85.519531 225.191406 C 85.457031 225.453125 84.066406 231.480469 81.949219 239.886719 C 81.816406 240.46875 81.785156 240.632812 81.777344 240.664062 C 81.769531 240.679688 81.738281 240.789062 81.621094 241.1875 C 79.855469 248.167969 77.636719 256.574219 75.292969 264.636719 C 74.945312 265.851562 75.308594 264.777344 74.890625 266.007812 C 72.210938 275.121094 69.378906 283.636719 66.882812 288.929688 C 66.835938 289.023438 62.148438 298.167969 70.3125 302.980469 C 75.230469 305.875 85.109375 308.8125 95.652344 310.011719 C 95.691406 310.019531 95.722656 310.042969 95.761719 310.050781 C 95.792969 310.050781 95.824219 310.058594 95.847656 310.058594 C 95.871094 310.058594 95.886719 310.050781 95.910156 310.042969 C 98.976562 310.382812 102.089844 310.578125 105.15625 310.578125 C 107.957031 310.578125 110.699219 310.40625 113.328125 310.050781 C 113.328125 310.050781 113.328125 310.050781 113.335938 310.050781 L 113.351562 310.050781 C 113.367188 310.050781 113.382812 310.042969 113.398438 310.042969 C 114.425781 309.902344 115.429688 309.746094 116.417969 309.542969 C 116.792969 309.476562 125.671875 307.871094 126.628906 300.953125 C 127.460938 295.011719 127.445312 277.71875 127.429688 274.335938 C 127.554688 274.40625 127.679688 274.484375 127.796875 274.566406 L 131.742188 276.792969 C 130.621094 287.878906 128.042969 304.476562 122.058594 321.253906 C 122.019531 321.347656 121.988281 321.441406 121.957031 321.535156 C 121.570312 322.257812 118.582031 328.449219 125.453125 333.113281 C 131.171875 336.988281 152.21875 340.113281 164.972656 340.113281 C 165.667969 340.113281 166.34375 340.105469 166.988281 340.082031 C 166.996094 340.082031 166.996094 340.082031 167.003906 340.082031 C 167.019531 340.082031 167.035156 340.082031 167.050781 340.082031 C 167.066406 340.082031 167.074219 340.074219 167.089844 340.074219 C 169.175781 340.011719 170.957031 339.839844 172.296875 339.550781 C 181.417969 337.59375 181.941406 322.101562 182.328125 310.796875 C 182.359375 309.980469 182.382812 309.1875 182.414062 308.433594 L 182.429688 308.066406 C 182.5625 304.699219 182.71875 300.617188 182.625 296.308594 C 187.933594 297.710938 194.011719 299.148438 200.640625 300.4375 C 199.667969 306.761719 197.179688 321.519531 195.839844 323.875 C 195.761719 323.984375 193.933594 326.621094 195.324219 329.910156 C 197.265625 334.519531 204.332031 337.804688 216.332031 339.683594 C 220.527344 340.332031 224.113281 340.617188 227.171875 340.617188 C 235.242188 340.617188 239.671875 338.703125 242.078125 336.785156 C 242.644531 336.339844 243.109375 335.882812 243.5 335.4375 C 243.554688 338.324219 245.035156 339.894531 248.949219 341.941406 C 250.535156 342.773438 253.421875 343.644531 257.089844 344.351562 C 257.121094 344.359375 257.144531 344.375 257.175781 344.382812 C 257.207031 344.390625 257.238281 344.390625 257.277344 344.390625 C 257.277344 344.390625 257.277344 344.390625 257.285156 344.390625 C 261.507812 345.183594 266.738281 345.75 272.25 345.75 C 278.5625 345.75 285.238281 345.003906 291.160156 343.035156 C 291.167969 343.035156 291.175781 343.035156 291.183594 343.035156 C 291.199219 343.027344 291.207031 343.019531 291.222656 343.011719 C 294.601562 341.871094 297.738281 340.34375 300.414062 338.308594 C 301.167969 337.917969 306.898438 334.644531 306.160156 326.347656 C 305.605469 320.121094 303.039062 302.429688 300.75 291.941406 C 304.265625 290.339844 307.363281 288.742188 310.042969 287.21875 C 312.523438 288.425781 328.378906 295.789062 347.015625 295.789062 C 349.953125 295.789062 352.972656 295.609375 356.007812 295.183594 C 362.371094 294.304688 365.414062 292.972656 365.867188 290.851562 C 366.519531 287.695312 361.035156 284.242188 354.089844 279.871094 Z M 348.878906 233.378906 C 338.691406 237.835938 323.351562 240.804688 312.105469 242.980469 C 310.8125 243.230469 309.566406 243.472656 308.375 243.703125 L 307.691406 243.835938 C 300.820312 245.191406 286.523438 248.011719 280.671875 242.917969 C 278.800781 241.277344 277.96875 238.984375 278.148438 235.90625 C 278.359375 232.210938 278.917969 225.726562 279.503906 218.859375 C 280.320312 209.3125 281.246094 198.503906 281.589844 191.371094 C 281.769531 187.640625 282.902344 184.941406 284.949219 183.339844 C 287.90625 181.023438 291.855469 181.769531 291.894531 181.777344 C 291.941406 181.785156 291.992188 181.792969 292.03125 181.792969 C 305.949219 181.777344 334.859375 175.75 337.515625 175.191406 C 346.128906 201.457031 348.332031 224.5 348.878906 233.378906 Z M 329.652344 154.707031 C 331.34375 158.496094 332.890625 162.28125 334.308594 166.023438 C 324.113281 170.363281 298.898438 174.652344 291.832031 173.765625 C 287.832031 173.261719 285.777344 172.507812 284.742188 171.164062 C 283.835938 169.980469 283.605469 168.144531 284.007812 165.207031 C 284.109375 164.476562 284.210938 163.765625 284.3125 163.058594 C 285.128906 157.382812 285.90625 152.027344 284 143.851562 C 281.753906 134.226562 281.628906 129.667969 286.828125 128.105469 C 292.1875 126.496094 302.890625 122.867188 305.109375 122.117188 C 315.660156 131.203125 324.113281 142.335938 329.652344 154.707031 Z M 222.050781 86.324219 C 241.421875 89.4375 265.167969 98.003906 287.191406 109.824219 C 290.210938 111.441406 293.113281 113.222656 295.925781 115.121094 C 293.042969 116.542969 284.546875 120.285156 274.824219 120.609375 C 262.886719 121 213.886719 106.910156 208.507812 101.519531 C 203.054688 96.0625 198.96875 85.484375 198.929688 85.378906 C 198.890625 85.269531 198.820312 85.183594 198.734375 85.113281 C 206.6875 84.746094 214.558594 85.113281 222.050781 86.324219 Z M 190.171875 85.789062 C 190.179688 85.835938 190.179688 85.875 190.203125 85.921875 C 192.398438 90.679688 194.515625 93.675781 196.214844 96.078125 C 197.769531 98.269531 198.992188 99.996094 199.582031 102.140625 C 200.648438 105.960938 197.886719 112.320312 192.203125 119.148438 C 190.1875 121.566406 188.859375 124.265625 187.574219 126.871094 C 185.621094 130.851562 183.925781 134.28125 180.3125 135.835938 C 175.535156 137.882812 164.777344 127.578125 158.34375 121.425781 C 156.863281 120.003906 155.578125 118.78125 154.558594 117.867188 C 150.621094 114.375 142.203125 104.683594 140 102.125 C 154.25 93.535156 172.140625 87.8125 190.171875 85.789062 Z M 138.800781 102.875 C 140.792969 105.191406 149.484375 115.246094 153.632812 118.921875 C 154.636719 119.808594 155.90625 121.03125 157.378906 122.4375 C 163.773438 128.550781 173.097656 137.484375 179.011719 137.484375 C 179.675781 137.484375 180.304688 137.367188 180.875 137.125 C 184.96875 135.363281 186.851562 131.542969 188.84375 127.492188 C 190.089844 124.957031 191.378906 122.335938 193.292969 120.042969 C 196.160156 116.597656 202.65625 107.910156 200.945312 101.753906 C 200.285156 99.375 199 97.554688 197.371094 95.261719 C 195.738281 92.957031 193.714844 90.097656 191.621094 85.625 C 193.667969 85.421875 195.722656 85.253906 197.769531 85.144531 C 197.589844 85.332031 197.527344 85.617188 197.621094 85.875 C 197.792969 86.324219 201.855469 96.839844 207.519531 102.507812 C 213.125 108.121094 260.917969 122.011719 274.3125 122.011719 C 274.507812 122.011719 274.691406 122.011719 274.871094 122.003906 C 285.976562 121.644531 295.246094 117.078125 297.269531 116.015625 C 299.542969 117.609375 301.746094 119.289062 303.871094 121.054688 C 300.578125 122.171875 291.285156 125.300781 286.421875 126.761719 C 279.621094 128.804688 280.617188 135.5625 282.625 144.171875 C 284.46875 152.09375 283.753906 157.085938 282.917969 162.859375 C 282.816406 163.566406 282.710938 164.289062 282.609375 165.019531 C 282.15625 168.355469 282.46875 170.515625 283.621094 172.019531 C 284.910156 173.691406 287.238281 174.605469 291.652344 175.160156 C 292.34375 175.246094 293.183594 175.285156 294.15625 175.285156 C 303.597656 175.285156 325.1875 171.417969 334.796875 167.34375 C 335.601562 169.523438 336.363281 171.699219 337.085938 173.851562 C 333.65625 174.574219 305.683594 180.355469 292.101562 180.390625 C 291.480469 180.277344 287.371094 179.675781 284.101562 182.226562 C 281.707031 184.09375 280.398438 187.148438 280.195312 191.308594 C 279.851562 198.417969 278.925781 209.21875 278.109375 218.75 C 277.496094 225.921875 276.964844 232.125 276.753906 235.835938 C 276.546875 239.328125 277.558594 242.070312 279.757812 243.984375 C 282.578125 246.449219 287.066406 247.242188 291.800781 247.242188 C 297.722656 247.242188 304.027344 245.992188 307.964844 245.214844 L 308.648438 245.082031 C 309.839844 244.847656 311.085938 244.613281 312.382812 244.359375 C 323.527344 242.210938 338.644531 239.273438 348.972656 234.871094 C 349.054688 236.363281 349.070312 237.195312 349.070312 237.265625 C 349.09375 242.242188 346.636719 243.191406 346.542969 243.222656 C 294.476562 260.324219 250.964844 260.332031 213.523438 243.253906 C 186.546875 230.945312 159.511719 205.183594 156.785156 201.214844 L 156.484375 200.78125 C 154.792969 198.332031 154.296875 197.59375 155.261719 193.371094 C 155.835938 193.734375 156.4375 193.914062 157.058594 193.914062 C 157.238281 193.914062 157.425781 193.898438 157.617188 193.867188 C 160.59375 193.371094 162.800781 188.867188 162.886719 188.675781 C 167.628906 178.984375 171.714844 167.46875 174.421875 159.847656 C 175.503906 156.808594 176.359375 154.398438 176.925781 153.035156 C 180.414062 144.652344 172.148438 138.144531 166.109375 133.386719 C 164.863281 132.40625 163.6875 131.480469 162.722656 130.625 C 162.171875 130.136719 161.441406 129.5 160.578125 128.742188 C 154.007812 122.964844 138.621094 109.4375 135.367188 105.183594 C 135.351562 105.167969 135.328125 105.152344 135.3125 105.136719 C 136.449219 104.359375 137.617188 103.613281 138.800781 102.875 Z M 134.207031 105.9375 C 134.222656 105.976562 134.230469 106.007812 134.261719 106.046875 C 137.59375 110.40625 152.496094 123.503906 159.664062 129.800781 C 160.523438 130.554688 161.246094 131.195312 161.796875 131.675781 C 162.792969 132.554688 163.984375 133.496094 165.246094 134.484375 C 171.246094 139.210938 178.710938 145.089844 175.636719 152.484375 C 175.058594 153.890625 174.195312 156.308594 173.105469 159.367188 C 170.40625 166.957031 166.335938 178.433594 161.621094 188.058594 C 161.082031 189.179688 159.261719 192.164062 157.378906 192.476562 C 156.777344 192.578125 156.195312 192.367188 155.625 191.878906 C 156.023438 190.300781 156.574219 188.332031 157.277344 185.804688 C 160.484375 174.289062 160.226562 149.824219 151.394531 133.828125 C 143.367188 119.28125 131.28125 113.804688 130.769531 113.574219 C 130.417969 113.417969 130 113.574219 129.84375 113.9375 C 129.6875 114.289062 129.84375 114.707031 130.207031 114.863281 C 130.324219 114.917969 142.386719 120.398438 150.171875 134.5 C 158.824219 150.167969 159.074219 174.140625 155.9375 185.421875 C 152.621094 197.320312 152.613281 197.625 155.339844 201.574219 L 155.640625 202.003906 C 158.761719 206.558594 185.636719 232.070312 212.953125 244.535156 C 231.851562 253.160156 252.269531 257.46875 274.515625 257.46875 C 296.742188 257.46875 320.796875 253.167969 346.992188 244.566406 C 347.125 244.515625 350.128906 243.457031 350.457031 238.269531 C 351.703125 238.859375 352.785156 239.980469 353.679688 241.628906 C 356.816406 247.429688 356.667969 257.585938 355.546875 260.960938 C 354.085938 265.347656 350.519531 266.425781 350.371094 266.472656 C 350.332031 266.480469 350.300781 266.496094 350.261719 266.511719 C 344.199219 269.375 337.445312 271.285156 332.511719 272.671875 C 330.710938 273.183594 329.148438 273.621094 328.074219 273.992188 C 327.539062 274.179688 273.921875 292.46875 222.425781 275.230469 C 168.460938 257.164062 135.273438 221 127.898438 209.761719 C 127.882812 209.738281 127.867188 209.722656 127.851562 209.699219 C 127.789062 209.621094 121.585938 201.957031 125.101562 196.03125 C 129.289062 188.96875 133.25 180.898438 133.828125 169.785156 C 134.253906 161.683594 132.996094 146.339844 120.027344 133.921875 C 124.167969 127.570312 129.429688 117.996094 131.140625 108.246094 C 132.121094 107.453125 133.15625 106.683594 134.207031 105.9375 Z M 301.933594 283.472656 C 301.707031 284.460938 300.132812 285.285156 299.09375 285.710938 C 299.054688 285.601562 299.015625 285.492188 298.984375 285.390625 C 298.898438 285.066406 298.390625 283.378906 296.914062 282.210938 C 298.3125 282.019531 299.675781 281.824219 301 281.621094 C 301.03125 281.667969 301.054688 281.714844 301.09375 281.753906 C 301.769531 282.390625 302.050781 282.964844 301.933594 283.472656 Z M 248.566406 288.113281 C 248.566406 288.144531 248.566406 288.488281 248.566406 289.070312 C 247.59375 288.042969 246.542969 286.566406 246.722656 285.269531 C 246.863281 284.257812 247.773438 283.402344 249.421875 282.71875 C 250.753906 282.886719 252.078125 283.035156 253.398438 283.167969 C 248.542969 284.644531 248.566406 287.964844 248.566406 288.113281 Z M 69.113281 163.851562 C 66.664062 157.726562 60.210938 153.859375 53.378906 149.761719 C 49.726562 147.570312 45.953125 145.300781 42.496094 142.554688 C 24.0625 127.933594 8.683594 104.3125 10.222656 93.011719 C 11.421875 84.210938 16.683594 80.929688 17.929688 80.269531 C 19.085938 82.125 20.472656 84.117188 22.085938 86.140625 C 17.679688 88.082031 16.847656 90.90625 16.972656 93.011719 C 16.996094 93.488281 17.09375 93.96875 17.21875 94.4375 C 17.226562 94.460938 17.21875 94.484375 17.226562 94.507812 C 17.234375 94.53125 17.25 94.546875 17.257812 94.5625 C 18.597656 99.492188 24.683594 104.226562 30.015625 105.5 C 32.527344 106.09375 35.035156 106.316406 37.363281 106.316406 C 43.347656 106.316406 48.085938 104.878906 48.359375 104.800781 C 48.644531 104.714844 48.824219 104.46875 48.855469 104.195312 C 51.511719 104.824219 54.3125 105.199219 57.261719 105.253906 C 57.316406 105.253906 57.371094 105.230469 57.425781 105.222656 C 57.285156 105.9375 57.042969 106.714844 56.648438 107.53125 C 56.476562 107.882812 56.625 108.300781 56.980469 108.472656 C 57.082031 108.519531 57.183594 108.542969 57.285156 108.542969 C 57.542969 108.542969 57.796875 108.394531 57.921875 108.144531 C 60.328125 103.167969 57.976562 99.46875 57.875 99.3125 C 57.660156 98.992188 57.230469 98.898438 56.902344 99.109375 C 56.578125 99.320312 56.484375 99.753906 56.6875 100.082031 C 56.746094 100.167969 57.660156 101.644531 57.582031 103.921875 C 57.496094 103.882812 57.402344 103.851562 57.300781 103.851562 C 42.429688 103.542969 31.199219 94.707031 24.054688 86.179688 C 24.054688 86.171875 24.054688 86.15625 24.046875 86.148438 C 23.984375 85.984375 23.867188 85.859375 23.71875 85.78125 C 18.308594 79.226562 15.34375 72.933594 15.039062 70.960938 C 14.503906 67.507812 24.457031 49.28125 27.742188 46.589844 C 30.839844 44.054688 32.378906 43.730469 41.449219 43.730469 C 50.273438 43.730469 71.636719 40.8125 78.003906 39.808594 C 83.371094 38.960938 99.21875 43.644531 110.898438 52.632812 C 122.535156 61.597656 132.605469 90.945312 129.789062 107.726562 C 128.160156 117.476562 122.808594 127.101562 118.683594 133.386719 C 118.636719 133.417969 118.582031 133.441406 118.542969 133.488281 C 118.449219 133.589844 118.402344 133.722656 118.378906 133.851562 C 115.664062 137.925781 113.554688 140.484375 113.5 140.546875 C 113.25 140.84375 113.289062 141.285156 113.585938 141.535156 C 113.71875 141.644531 113.878906 141.699219 114.035156 141.699219 C 114.238281 141.699219 114.433594 141.613281 114.574219 141.449219 C 114.628906 141.386719 116.621094 138.984375 119.226562 135.105469 C 131.625 147.109375 132.824219 161.878906 132.410156 169.699219 C 131.8125 181.046875 127.6875 188.867188 123.875 195.300781 C 122.144531 198.222656 122.386719 201.402344 123.25 204.101562 C 118.574219 201.855469 104.425781 196 86.207031 197.109375 C 77.292969 184.3125 72.367188 172.003906 69.113281 163.851562 Z M 18.441406 93.441406 C 18.417969 93.277344 18.386719 93.105469 18.378906 92.941406 C 18.207031 89.964844 20.683594 88.246094 23.019531 87.289062 C 24.464844 89.015625 26.0625 90.742188 27.828125 92.414062 C 25.734375 92.28125 22.394531 92.359375 18.441406 93.441406 Z M 29.59375 94.023438 C 34.355469 98.160156 40.164062 101.769531 46.996094 103.722656 C 44.46875 104.351562 37.292969 105.804688 30.339844 104.148438 C 25.257812 102.941406 20.253906 98.730469 18.800781 94.808594 C 24.253906 93.308594 28.566406 93.851562 29.59375 94.023438 Z M 72.976562 201.613281 C 72.976562 202.679688 73.066406 203.707031 73.214844 204.707031 C 71.558594 203.914062 65.761719 200.632812 64.125 193.105469 C 62.523438 185.726562 69.074219 175.90625 71.300781 172.851562 C 73.300781 177.46875 75.761719 182.679688 78.90625 188.191406 C 77.402344 189.453125 72.976562 193.828125 72.976562 201.613281 Z M 77.128906 304.460938 C 74.671875 303.589844 72.585938 302.664062 71.027344 301.746094 C 64.023438 297.625 67.960938 289.894531 68.140625 289.542969 C 68.320312 289.15625 68.507812 288.75 68.6875 288.332031 C 68.972656 287.886719 72.375 282.703125 76.90625 284.28125 C 81.683594 285.945312 79.371094 295.292969 77.832031 301.480469 C 77.558594 302.601562 77.308594 303.613281 77.128906 304.460938 Z M 95.226562 308.542969 C 89.078125 307.804688 83.195312 306.480469 78.46875 304.917969 C 78.648438 304.054688 78.898438 303.003906 79.199219 301.816406 C 79.394531 301.039062 79.597656 300.214844 79.792969 299.359375 C 80.097656 299.359375 80.382812 299.171875 80.46875 298.867188 C 80.507812 298.734375 84.335938 285.875 90.984375 287.367188 C 96.316406 288.558594 95.910156 302.445312 95.226562 308.542969 Z M 112.660156 308.710938 C 107.5625 309.34375 102.019531 309.265625 96.625 308.703125 C 96.757812 307.460938 96.992188 304.824219 97.015625 301.769531 C 97.996094 298.191406 101.34375 289.203125 105.445312 289.195312 L 105.460938 289.195312 C 107.0625 289.195312 108.332031 289.699219 109.351562 290.742188 C 111.824219 293.269531 112.875 298.992188 112.660156 308.710938 Z M 125.242188 300.75 C 124.417969 306.636719 116.261719 308.128906 116.160156 308.144531 C 115.476562 308.285156 114.777344 308.402344 114.074219 308.511719 C 114.277344 298.402344 113.125 292.585938 110.363281 289.753906 C 109.085938 288.441406 107.4375 287.78125 105.46875 287.78125 L 105.453125 287.78125 C 101.414062 287.789062 98.464844 293.628906 96.90625 297.6875 C 96.539062 292.28125 95.171875 286.863281 91.296875 285.992188 C 86.238281 284.855469 82.757812 289.996094 80.851562 294.03125 C 81.566406 289.046875 81.269531 284.3125 77.371094 282.964844 C 74.46875 281.957031 72.003906 283.113281 70.257812 284.523438 C 76.851562 267.4375 84.65625 234.964844 86.484375 227.195312 C 87.667969 229.597656 88.882812 231.878906 90.121094 234.078125 C 90.128906 234.109375 90.136719 234.140625 90.152344 234.171875 C 90.183594 234.226562 90.214844 234.273438 90.261719 234.320312 C 102.019531 255.097656 115.671875 266.925781 126.089844 273.503906 C 126.050781 273.589844 126.035156 273.683594 126.035156 273.789062 C 126.027344 273.976562 126.128906 294.390625 125.242188 300.75 Z M 128.503906 273.332031 C 127.398438 272.671875 126.246094 271.941406 125.054688 271.148438 C 126.417969 269.949219 129.664062 267.1875 132.542969 265.445312 C 132.472656 267.453125 132.300781 270.84375 131.890625 275.238281 Z M 134.777344 335.042969 C 130.957031 334.109375 127.890625 333.050781 126.246094 331.933594 C 120.082031 327.75 123.085938 322.390625 123.210938 322.164062 C 123.234375 322.125 123.25 322.085938 123.265625 322.046875 C 123.265625 322.039062 123.265625 322.039062 123.273438 322.03125 C 123.273438 322.03125 123.273438 322.03125 123.273438 322.023438 C 123.289062 321.964844 123.3125 321.917969 123.328125 321.863281 C 123.734375 320.75 126.261719 314.476562 131.25 315.976562 C 136.109375 317.445312 135.453125 330.183594 134.777344 335.042969 Z M 150.949219 337.789062 C 145.78125 337.203125 140.550781 336.371094 136.132812 335.367188 C 136.140625 335.339844 136.148438 335.324219 136.15625 335.300781 C 136.183594 335.121094 136.332031 334.007812 136.464844 332.382812 C 136.628906 332.273438 136.753906 332.109375 136.785156 331.894531 C 136.808594 331.753906 138.855469 318.035156 146.203125 318.695312 C 147.332031 318.804688 148.257812 319.320312 149.019531 320.292969 C 152.4375 324.636719 151.191406 335.90625 150.949219 337.789062 Z M 166.382812 338.6875 C 162.453125 338.757812 157.480469 338.480469 152.34375 337.949219 C 152.429688 337.289062 152.613281 335.695312 152.714844 333.679688 C 152.933594 332.617188 155.546875 320.585938 161.488281 320.773438 C 162.28125 320.796875 162.972656 321.132812 163.574219 321.800781 C 166.769531 325.300781 166.507812 335.945312 166.382812 338.6875 Z M 181.019531 308.011719 L 181.003906 308.378906 C 180.96875 309.132812 180.945312 309.933594 180.914062 310.75 C 180.570312 320.984375 180.046875 336.449219 172 338.175781 C 170.902344 338.410156 169.464844 338.558594 167.789062 338.636719 C 167.929688 335.59375 168.15625 324.746094 164.609375 320.84375 C 163.742188 319.886719 162.707031 319.382812 161.519531 319.351562 C 161.464844 319.351562 161.417969 319.351562 161.363281 319.351562 C 156.902344 319.351562 154.171875 324.484375 152.699219 328.566406 C 152.496094 325.128906 151.820312 321.589844 150.117188 319.414062 C 149.121094 318.144531 147.84375 317.429688 146.328125 317.289062 C 140.925781 316.769531 138.046875 322.21875 136.621094 326.574219 C 136.480469 321.457031 135.429688 315.773438 131.648438 314.644531 C 128.988281 313.84375 126.816406 314.808594 125.1875 316.355469 C 133.75 289.296875 133.992188 264.171875 134 263.417969 C 134.261719 257.507812 138.777344 256.441406 139.367188 256.324219 C 153.097656 256.714844 167.667969 262.972656 174.820312 271.566406 C 179.503906 277.1875 180.890625 286.386719 181.175781 294.988281 C 181.136719 295.050781 181.097656 295.105469 181.082031 295.175781 C 181.027344 295.390625 181.082031 295.601562 181.199219 295.765625 C 181.324219 300.238281 181.160156 304.527344 181.019531 308.011719 Z M 133.40625 257.289062 C 134.046875 256.488281 135.234375 256.1875 136.402344 256.109375 C 135.128906 256.941406 133.757812 258.332031 133.058594 260.617188 C 132.714844 259.148438 132.824219 258.011719 133.40625 257.289062 Z M 177.832031 273.441406 C 180.632812 276.179688 183.136719 279.390625 183.019531 281.917969 C 182.96875 282.941406 182.492188 283.804688 181.566406 284.527344 C 180.851562 280.484375 179.683594 276.636719 177.832031 273.441406 Z M 182.585938 294.847656 C 182.484375 291.941406 182.265625 288.96875 181.824219 286.070312 C 183.464844 285.019531 184.351562 283.652344 184.421875 281.988281 C 184.703125 275.835938 173.441406 267.851562 172.554688 267.234375 C 167.300781 262.5625 160.078125 258.890625 152.226562 256.808594 C 155.8125 255.804688 159.457031 255.074219 163.105469 254.644531 C 163.488281 254.597656 163.765625 254.25 163.726562 253.867188 C 163.679688 253.480469 163.324219 253.199219 162.949219 253.246094 C 158.429688 253.773438 153.90625 254.753906 149.507812 256.148438 C 146.179688 255.4375 142.785156 255.011719 139.398438 254.917969 C 138.800781 254.800781 134.277344 253.96875 132.316406 256.402344 C 131.074219 257.933594 131.179688 260.339844 132.597656 263.535156 C 132.597656 263.597656 132.597656 263.683594 132.589844 263.804688 C 129.1875 265.679688 125.140625 269.1875 123.851562 270.339844 C 114.144531 263.621094 102.222656 252.429688 91.769531 234.132812 C 95.09375 232.570312 110.867188 225.914062 134.777344 227.320312 C 135.15625 227.335938 135.5 227.046875 135.523438 226.660156 C 135.546875 226.277344 135.25 225.9375 134.863281 225.914062 C 110.503906 224.484375 94.386719 231.347656 91.085938 232.902344 C 89.574219 230.183594 88.082031 227.328125 86.648438 224.296875 L 86.367188 223.699219 C 84.082031 218.953125 80.882812 216.800781 80.265625 216.417969 C 79.636719 215.726562 74.382812 209.691406 74.382812 201.613281 C 74.382812 194.808594 78.15625 190.757812 79.636719 189.421875 C 81.132812 191.980469 82.773438 194.589844 84.585938 197.226562 C 83.480469 197.320312 82.359375 197.429688 81.222656 197.570312 C 80.835938 197.617188 80.5625 197.972656 80.617188 198.355469 C 80.664062 198.742188 81.015625 199.015625 81.402344 198.960938 C 104.347656 195.992188 121.898438 204.910156 124.003906 206.039062 C 125.109375 208.488281 126.488281 210.246094 126.722656 210.539062 C 134.207031 221.917969 167.660156 258.355469 221.957031 276.535156 C 230.355469 279.34375 238.808594 281.222656 247.082031 282.390625 C 246.070312 283.136719 245.476562 284.023438 245.335938 285.058594 C 244.964844 287.679688 247.664062 290.222656 248.558594 290.976562 C 248.535156 293.691406 248.449219 298.074219 248.222656 302.949219 C 232.003906 303.757812 215.652344 301.855469 201.613281 299.179688 C 201.589844 299.171875 201.574219 299.15625 201.550781 299.15625 C 201.535156 299.15625 201.519531 299.15625 201.503906 299.15625 C 194.515625 297.835938 188.117188 296.316406 182.585938 294.847656 Z M 207.527344 336.339844 C 200.246094 334.1875 197.535156 331.503906 196.632812 329.382812 C 195.542969 326.824219 196.929688 324.769531 197.023438 324.628906 C 197.242188 324.234375 197.488281 323.589844 197.738281 322.765625 C 197.839844 322.695312 197.933594 322.609375 197.988281 322.492188 C 198.019531 322.4375 200.835938 316.652344 205.054688 317.53125 C 208.089844 318.167969 208.183594 329.335938 207.527344 336.339844 Z M 221.359375 338.90625 C 219.855469 338.757812 218.253906 338.558594 216.542969 338.292969 C 213.582031 337.828125 211.046875 337.296875 208.875 336.714844 C 208.882812 336.683594 208.898438 336.660156 208.898438 336.621094 C 208.96875 335.890625 209.085938 334.5 209.171875 332.773438 C 209.179688 332.757812 209.195312 332.742188 209.203125 332.71875 C 210.238281 329.304688 213.761719 320.554688 217.738281 321.15625 C 221.21875 321.675781 221.808594 332.304688 221.359375 338.90625 Z M 222.765625 339.03125 C 222.804688 338.402344 222.9375 336.164062 222.882812 333.425781 C 223.5 330.292969 225.785156 322.5625 229.25 322.5625 C 229.3125 322.5625 229.375 322.5625 229.4375 322.570312 C 232.613281 322.820312 233.679688 332.257812 233.609375 338.136719 C 233.609375 338.347656 233.703125 338.535156 233.851562 338.667969 C 231.03125 339.1875 227.40625 339.390625 222.765625 339.03125 Z M 243.789062 332.273438 C 243.640625 332.609375 243.546875 332.828125 243.53125 332.886719 C 243.53125 332.886719 243.53125 332.894531 243.53125 332.894531 C 243.132812 333.710938 242.425781 334.738281 241.148438 335.734375 C 239.835938 336.761719 237.867188 337.78125 234.941406 338.449219 C 234.984375 338.363281 235.015625 338.269531 235.015625 338.160156 C 235.039062 336.464844 235.0625 321.613281 229.546875 321.171875 C 226.019531 320.890625 223.808594 325.382812 222.605469 328.992188 C 222.121094 324.535156 220.882812 320.207031 217.949219 319.777344 C 213.980469 319.1875 210.945312 324.542969 209.273438 328.480469 C 209.226562 322.996094 208.464844 316.824219 205.335938 316.164062 C 202.460938 315.5625 200.199219 317.226562 198.726562 318.914062 C 200.144531 312.617188 201.605469 303.378906 202.019531 300.703125 C 213.753906 302.910156 227.054688 304.566406 240.542969 304.566406 C 243.074219 304.566406 245.609375 304.492188 248.148438 304.375 C 247.773438 311.511719 247.066406 319.414062 245.726562 324.566406 L 245.335938 326.078125 C 244.722656 328.441406 244.222656 330.359375 243.890625 331.972656 C 243.867188 332.0625 243.828125 332.164062 243.789062 332.273438 Z M 256.667969 342.871094 C 253.5 342.21875 251.019531 341.433594 249.601562 340.695312 C 245.257812 338.417969 244.308594 337.25 245.203125 332.59375 C 246.238281 330.390625 249.445312 324.46875 253.679688 325.175781 C 257.859375 325.875 257.308594 337.570312 256.667969 342.871094 Z M 258.046875 343.136719 C 258.148438 342.320312 258.296875 340.945312 258.410156 339.289062 C 258.441406 339.226562 258.480469 339.164062 258.488281 339.09375 C 258.511719 338.96875 261.066406 326.738281 266.902344 326.191406 C 267.609375 326.117188 268.257812 326.355469 268.902344 326.886719 C 272.964844 330.285156 274.125 343.597656 274.140625 343.742188 C 274.164062 344.046875 274.390625 344.28125 274.675781 344.351562 C 268.597656 344.542969 262.714844 343.984375 258.046875 343.136719 Z M 275.035156 344.335938 C 275.347656 344.242188 275.566406 343.953125 275.542969 343.613281 C 275.519531 343.347656 275.253906 340.285156 274.515625 336.707031 C 274.539062 335.695312 274.878906 325.398438 280.125 325.113281 C 280.171875 325.113281 280.210938 325.105469 280.257812 325.105469 C 284.65625 325.105469 288.71875 336.667969 290.140625 341.894531 C 285.386719 343.425781 280.148438 344.148438 275.035156 344.335938 Z M 304.742188 326.457031 C 305.441406 334.273438 299.957031 336.949219 299.722656 337.0625 C 299.675781 337.085938 299.628906 337.109375 299.589844 337.140625 C 297.214844 338.960938 294.453125 340.367188 291.472656 341.441406 C 290.460938 337.726562 286.234375 323.710938 280.25 323.710938 C 280.179688 323.710938 280.109375 323.710938 280.046875 323.71875 C 275.75 323.945312 274.109375 328.898438 273.488281 332.640625 C 272.628906 329.808594 271.433594 327.179688 269.804688 325.8125 C 268.871094 325.035156 267.859375 324.699219 266.769531 324.792969 C 262.566406 325.183594 259.929688 330.144531 258.496094 334.0625 C 258.320312 329.242188 257.292969 324.359375 253.898438 323.796875 C 250.683594 323.253906 248.078125 325.5625 246.285156 327.988281 C 246.410156 327.492188 246.542969 326.980469 246.683594 326.433594 L 247.074219 324.917969 C 250.078125 313.355469 249.96875 289.140625 249.960938 288.097656 C 249.960938 288.066406 249.945312 284.894531 255.882812 284.0625 C 256.203125 284.015625 256.433594 283.757812 256.472656 283.449219 C 261.300781 283.84375 266.03125 284.015625 270.621094 284.015625 C 279.136719 284.015625 287.144531 283.417969 294.34375 282.539062 C 294.359375 282.546875 294.375 282.554688 294.398438 282.5625 C 296.914062 283.058594 297.589844 285.664062 297.613281 285.765625 C 297.621094 285.796875 297.628906 285.820312 297.636719 285.851562 C 299.988281 291.988281 303.941406 317.484375 304.742188 326.457031 Z M 300.414062 290.523438 C 300.105469 289.203125 299.808594 288.035156 299.527344 287.054688 C 300.679688 286.605469 302.898438 285.539062 303.308594 283.796875 C 303.496094 282.980469 303.269531 282.164062 302.640625 281.363281 C 310.898438 280.019531 317.605469 278.417969 322.121094 277.203125 C 320.285156 278.820312 313.242188 284.628906 300.414062 290.523438 Z M 364.472656 290.539062 C 364.269531 291.496094 362.597656 292.828125 355.796875 293.773438 C 335.453125 296.589844 316.339844 288.582031 311.503906 286.347656 C 318.523438 282.21875 322.394531 278.851562 323.335938 277.996094 C 323.628906 277.734375 323.644531 277.289062 323.382812 276.996094 C 323.34375 276.949219 323.289062 276.917969 323.234375 276.886719 C 326.527344 275.96875 328.410156 275.332031 328.503906 275.300781 C 329.539062 274.949219 331.085938 274.515625 332.867188 274.007812 C 334.984375 273.410156 337.585938 272.671875 340.378906 271.785156 C 343.78125 275.042969 348.847656 278.230469 353.335938 281.054688 C 359.042969 284.652344 364.941406 288.363281 364.472656 290.539062 Z M 364.472656 290.539062 " fill-opacity="1" fill-rule="nonzero"/></g></svg>