<svg xmlns="http://www.w3.org/2000/svg" xmlns:xlink="http://www.w3.org/1999/xlink" width="500" zoomAndPan="magnify" viewBox="0 0 375 374.999991" height="500" preserveAspectRatio="xMidYMid meet" version="1.0"><defs><clipPath id="57d4230e98"><path d="M 125.148438 206.519531 L 175.261719 206.519531 L 175.261719 236.96875 L 125.148438 236.96875 Z M 125.148438 206.519531 " clip-rule="nonzero"/></clipPath><clipPath id="af61c5f87e"><path d="M 45 66.019531 L 368.246094 66.019531 L 368.246094 327.019531 L 45 327.019531 Z M 45 66.019531 " clip-rule="nonzero"/></clipPath></defs><g clip-path="url(#57d4230e98)"><path fill="#5f2c17" d="M 125.148438 206.519531 L 175.21875 206.519531 L 175.21875 236.96875 L 125.148438 236.96875 Z M 125.148438 206.519531 " fill-opacity="1" fill-rule="nonzero"/></g><g clip-path="url(#af61c5f87e)"><path fill="#c384ef" d="M 368.253906 205.902344 C 368.253906 186.953125 352.578125 171.59375 333.246094 171.59375 C 332.09375 171.59375 330.953125 171.652344 329.828125 171.757812 C 332.101562 166.285156 333.355469 160.300781 333.355469 154.03125 C 333.355469 128.019531 311.839844 106.9375 285.300781 106.9375 C 277.546875 106.9375 270.226562 108.738281 263.742188 111.933594 C 253.75 85.152344 227.519531 66.035156 196.730469 66.035156 C 163.320312 66.035156 135.28125 88.550781 127.53125 118.945312 C 123.285156 118.140625 118.898438 117.710938 114.410156 117.710938 C 76.453125 117.710938 45.683594 147.867188 45.683594 185.066406 C 45.683594 215.777344 66.664062 241.6875 95.34375 249.789062 C 95.230469 251.40625 95.167969 253.039062 95.167969 254.6875 C 95.167969 293.136719 126.972656 324.308594 166.207031 324.308594 C 181.460938 324.308594 195.589844 319.597656 207.164062 311.578125 C 215.285156 321.015625 227.433594 327.011719 241.015625 327.011719 C 257.144531 327.011719 271.257812 318.558594 279 305.929688 C 286.074219 309.96875 294.296875 312.28125 303.074219 312.28125 C 329.53125 312.28125 350.984375 291.261719 350.984375 265.332031 C 350.984375 255.542969 347.925781 246.457031 342.699219 238.9375 C 357.4375 234.894531 368.253906 221.640625 368.253906 205.902344 Z M 368.253906 205.902344 " fill-opacity="1" fill-rule="nonzero"/></g><path fill="#231f20" d="M 192.089844 227.203125 C 192.089844 232.078125 187.960938 236.027344 182.863281 236.027344 C 177.769531 236.027344 173.640625 232.078125 173.640625 227.203125 C 173.640625 222.332031 177.769531 218.378906 182.863281 218.378906 C 187.960938 218.378906 192.089844 222.332031 192.089844 227.203125 Z M 192.089844 227.203125 " fill-opacity="1" fill-rule="nonzero"/><path fill="#231f20" d="M 236.746094 212.652344 C 237.714844 212.886719 238.753906 212.433594 239.207031 211.511719 C 239.722656 210.457031 239.269531 209.199219 238.195312 208.691406 L 222.070312 201.117188 L 238.507812 195.332031 C 239.628906 194.9375 240.214844 193.726562 239.8125 192.628906 C 239.410156 191.53125 238.171875 190.957031 237.050781 191.351562 L 215.753906 198.84375 C 214.9375 199.132812 214.375 199.875 214.328125 200.726562 C 214.285156 201.578125 214.769531 202.371094 215.550781 202.742188 L 236.328125 212.503906 C 236.464844 212.570312 236.605469 212.617188 236.746094 212.652344 Z M 236.746094 212.652344 " fill-opacity="1" fill-rule="nonzero"/><path fill="#231f20" d="M 145.273438 190.457031 C 144.28125 190.332031 143.480469 189.539062 143.398438 188.519531 C 143.308594 187.355469 144.195312 186.339844 145.386719 186.25 L 163.210938 184.90625 L 150.023438 173.683594 C 149.125 172.917969 149.027344 171.582031 149.808594 170.703125 C 150.589844 169.820312 151.953125 169.726562 152.851562 170.492188 L 169.9375 185.027344 C 170.59375 185.585938 170.84375 186.476562 170.574219 187.289062 C 170.300781 188.097656 169.558594 188.667969 168.6875 188.730469 L 145.714844 190.46875 C 145.566406 190.480469 145.417969 190.472656 145.273438 190.457031 Z M 145.273438 190.457031 " fill-opacity="1" fill-rule="nonzero"/><path fill="#886ece" d="M 139.203125 241.4375 C 138.324219 241.265625 137.753906 240.433594 137.929688 239.574219 C 138.101562 238.714844 138.953125 238.15625 139.828125 238.324219 C 146.761719 239.664062 156.625 233.875 158.476562 224.679688 C 160.328125 215.476562 153.445312 206.453125 146.511719 205.113281 C 145.636719 204.941406 145.066406 204.109375 145.238281 203.25 C 145.414062 202.390625 146.265625 201.832031 147.140625 202 C 155.6875 203.652344 163.886719 214.1875 161.652344 225.292969 C 159.417969 236.394531 147.75 243.089844 139.203125 241.4375 Z M 139.203125 241.4375 " fill-opacity="1" fill-rule="nonzero"/><path fill="#886ece" d="M 219.011719 258.113281 C 219.890625 258.273438 220.738281 257.707031 220.902344 256.847656 C 221.066406 255.984375 220.488281 255.15625 219.609375 254.996094 C 212.664062 253.722656 205.695312 244.761719 207.457031 235.542969 C 209.21875 226.328125 219.023438 220.449219 225.96875 221.722656 C 226.847656 221.882812 227.691406 221.316406 227.855469 220.457031 C 228.023438 219.59375 227.441406 218.765625 226.5625 218.605469 C 218.003906 217.03125 206.402344 223.835938 204.273438 234.960938 C 202.148438 246.085938 210.449219 256.542969 219.011719 258.113281 Z M 219.011719 258.113281 " fill-opacity="1" fill-rule="nonzero"/><path fill="#8fdff2" d="M 176.796875 223.671875 C 170.195312 223.972656 75.589844 230.300781 56.316406 231.140625 C 60.28125 225.003906 50.441406 221.902344 46.246094 221.417969 C 41.992188 220.925781 36.578125 222.816406 33.726562 226.054688 C 32.320312 227.652344 30.523438 231.890625 31.988281 233.871094 C 25.746094 229.238281 14.585938 237.839844 11.765625 243.214844 C 6.75 252.78125 12.304688 258.707031 18.171875 262.476562 C 21.070312 264.339844 24.3125 266.089844 23.757812 267.714844 C 22.105469 272.527344 22.632812 278.230469 25.277344 282.59375 C 29.921875 290.257812 37.246094 294.1875 46.109375 291.886719 C 43.886719 297.039062 47.65625 305.289062 52.882812 307.207031 C 56.03125 308.363281 58.257812 306.78125 61.265625 306.652344 C 63.917969 306.542969 64.398438 308.398438 66.082031 310.125 C 72.148438 316.34375 82.746094 312.578125 85.992188 305.230469 C 87.515625 301.777344 87.003906 298.097656 85.703125 294.667969 C 84.722656 292.082031 82.238281 289.246094 81.863281 286.507812 C 81.277344 282.25 89.433594 278.402344 92.421875 276.402344 C 101.285156 270.472656 174 235.929688 179.710938 232.816406 C 185.421875 229.699219 183.394531 223.375 176.796875 223.671875 Z M 176.796875 223.671875 " fill-opacity="1" fill-rule="nonzero"/><path fill="#baebf4" d="M 177.921875 227.203125 C 172.570312 227.976562 68.867188 242.988281 58.695312 243.433594 C 60.785156 240.195312 55.59375 238.558594 53.375 238.300781 C 51.132812 238.042969 48.273438 239.039062 46.769531 240.75 C 46.027344 241.59375 45.078125 243.828125 45.851562 244.875 C 42.558594 242.429688 36.664062 246.96875 35.175781 249.808594 C 32.53125 254.855469 35.460938 257.984375 38.558594 259.972656 C 40.089844 260.957031 41.800781 261.882812 41.507812 262.742188 C 40.636719 265.28125 40.914062 268.289062 42.308594 270.59375 C 44.757812 274.640625 48.625 276.714844 53.304688 275.496094 C 52.132812 278.21875 54.121094 282.574219 56.878906 283.585938 C 58.542969 284.195312 59.71875 283.359375 61.304688 283.292969 C 62.707031 283.234375 62.957031 284.214844 63.847656 285.125 C 67.050781 288.40625 72.644531 286.421875 74.355469 282.542969 C 75.160156 280.71875 74.890625 278.777344 74.203125 276.96875 C 73.6875 275.601562 72.375 274.105469 72.175781 272.660156 C 71.871094 270.414062 76.171875 268.382812 77.75 267.324219 C 82.429688 264.195312 176.671875 229.664062 178.554688 229.195312 C 180.441406 228.726562 183.273438 226.433594 177.921875 227.203125 Z M 177.921875 227.203125 " fill-opacity="1" fill-rule="nonzero"/></svg>